<svg width="407" height="247" viewBox="0 0 407 247" fill="none" xmlns="http://www.w3.org/2000/svg">
<g clip-path="url(#clip0_20_66)">
<path d="M6.57849 94.4596L7.64694 214.093H389.166L389.055 209.471L388.439 182.488L347.286 41.0716C346.999 28.4206 336.711 18.3131 324.11 18.3131H100.967C88.6519 18.3131 8.71539 85.7897 8.71539 85.7897C7.30551 88.4659 6.57849 91.4296 6.57849 94.4596Z" fill="#6680B1" stroke="#09121E" stroke-miterlimit="10"/>
<path d="M6.75673 130.495H41.8463C41.6794 119.892 50.1955 113.144 60.7588 113.144L129.906 112.755V37.3116L68.7638 37.8783L10.042 84.814C7.54059 86.8753 6.1066 89.9652 6.14377 93.2139L6.75673 130.495Z" fill="#1B2535" stroke="#09121E" stroke-miterlimit="10"/>
<path d="M118.838 126.147V156.369" stroke="#09121E" stroke-width="1.35724" stroke-linecap="round" stroke-linejoin="round"/>
<path d="M106.35 133.488H89.9426C87.2528 133.488 85.069 131.296 85.069 128.595V124.735H111.224V128.595C111.224 131.296 109.04 133.488 106.35 133.488Z" fill="#1B2535" stroke="#09121E" stroke-miterlimit="10"/>
<path d="M7.16782 141.302V176.092C8.11509 176.202 9.10652 176.202 10.0538 176.18C12.8737 176.092 16.3105 175.561 17.2577 172.907C17.522 172.177 17.522 171.359 17.5441 170.585C17.5661 164.547 17.4559 158.509 17.1915 152.493C17.0815 149.684 16.8391 146.654 14.9665 144.575C13.5345 142.96 9.65726 141.279 7.16782 141.302Z" fill="#4B6CB3" stroke="#09121E" stroke-miterlimit="10"/>
<path d="M25.5354 173.269C26.9276 173.269 28.0665 172.126 28.0665 170.728V160.564C28.0665 159.166 26.9276 158.023 25.5354 158.023C24.1432 158.023 23.0042 159.166 23.0042 160.564V170.728C23.0042 172.126 24.1432 173.269 25.5354 173.269Z" fill="white" stroke="#09121E" stroke-miterlimit="10"/>
<path d="M381.02 164.085V191.067H388.576L387.959 164.085H381.02Z" fill="#FFB74E" stroke="#09121E" stroke-miterlimit="10"/>
<path d="M98.9525 66.9386V112.585H104.826L107.304 63.7185C106.43 62.7358 105.159 62.1084 103.743 62.1084C102.431 62.1084 101.243 62.6521 100.369 63.5303C99.4941 64.4086 98.9525 65.6214 98.9525 66.9386Z" fill="#1B2535" stroke="#09121E" stroke-miterlimit="10"/>
<path d="M36.4366 112.585H56.1523L41.2327 88.0747L31.6267 103.468C29.2785 107.208 32.1285 112.585 36.4366 112.585Z" fill="#1B2535" stroke="#09121E" stroke-miterlimit="10"/>
<path d="M59.5583 110.109C60.5256 109.872 61.1237 108.883 60.8874 107.912L53.916 79.2578C53.6796 78.2869 52.695 77.6864 51.7278 77.9236C50.7606 78.1607 50.1625 79.1494 50.3987 80.1204L57.3702 108.775C57.6065 109.746 58.5911 110.346 59.5583 110.109H59.5583Z" fill="#1B2535" stroke="#09121E" stroke-miterlimit="10"/>
<path d="M46.2726 100.927L55.6907 94.5053C56.1712 94.1776 56.2973 93.515 55.9709 93.0326C55.6447 92.5504 54.9846 92.4238 54.5042 92.7513L45.0861 99.1726C44.6056 99.5002 44.4795 100.163 44.8059 100.645C45.1321 101.128 45.7922 101.254 46.2726 100.927Z" fill="#1B2535" stroke="#09121E" stroke-miterlimit="10"/>
<path d="M91.906 62.1917L98.6977 66.1036L89.0503 78.2019L86.6718 69.1656L91.906 62.1917Z" fill="#09121E" stroke="#09121E" stroke-miterlimit="10"/>
<path d="M71.8321 78.2361C72.9936 79.6276 76.0092 81.1133 78.3131 81.7714C79.3808 82.0911 80.2987 82.2227 80.8045 82.0911V89.4063L90.3013 85.7581L88.4841 74.8324C88.4841 74.8324 93.9537 76.6 93.9537 71.7483C93.9537 66.859 88.6902 68.8898 88.6902 68.8898L91.9121 62.1953L78.3694 56.1024C78.3694 56.1024 76.5336 60.578 74.7729 65.5049C72.8062 71.0336 70.9329 77.1641 71.8321 78.2361Z" fill="#F7AE8B" stroke="#09121E" stroke-miterlimit="10"/>
<path d="M76.0402 52.8928C76.3355 53.0247 77.3228 53.5752 78.7302 54.3814L78.728 54.3801C81.8515 47.8186 92.1619 46.4188 97.1833 52.1929C102.205 57.9671 98.6977 66.1035 98.6977 66.1035C98.6977 66.1035 74.8202 54.5552 74.6459 53.9428C74.4716 53.3304 74.4716 52.1929 76.0402 52.8928H76.0402Z" fill="#4B6CB3" stroke="#09121E" stroke-miterlimit="10"/>
<path d="M89.6567 68.3029L84.8016 71.2815" stroke="#09121E" stroke-width="0.25816" stroke-miterlimit="10"/>
<path d="M71.8287 78.2319C73.0013 79.6319 76.0121 81.1115 78.3099 81.7797L85.5359 70.8343L74.776 65.5048C72.8111 71.041 70.9254 77.1661 71.8287 78.2319Z" fill="white" stroke="#09121E" stroke-miterlimit="10"/>
<path d="M80.8045 82.091V84.9494C82.8835 83.9903 85.5434 79.2703 85.5434 79.2703C83.8201 81.1132 80.8045 82.091 80.8045 82.091V82.091Z" fill="#09121E" stroke="#09121E" stroke-miterlimit="10"/>
<path d="M89.6567 84.1258L80.7977 88.6954L73.2144 112.755H97.1833C97.1833 112.755 98.0759 90.9065 89.6567 84.1257V84.1258Z" fill="#4B6CB3" stroke="#09121E" stroke-miterlimit="10"/>
<path d="M69.2696 96.3114L78.566 112.755H69.8764L65.2237 100.373L69.2696 96.3114Z" fill="#4B6CB3" stroke="#09121E" stroke-miterlimit="10"/>
<path d="M90.1062 112.755C90.1062 112.755 94.2532 94.5851 88.4878 92.148C82.7224 89.7109 81.3063 95.296 81.3063 95.296L78.5659 112.755" fill="#4B6CB3"/>
<path d="M90.1062 112.755C90.1062 112.755 94.2532 94.5851 88.4878 92.148C82.7224 89.7109 81.3063 95.296 81.3063 95.296L78.5659 112.755" stroke="#09121E" stroke-miterlimit="10"/>
<path d="M75.13 106.677L77.3615 112.755" stroke="#09121E" stroke-miterlimit="10"/>
<path d="M68.7638 96.8193L65.8304 92.3512L62.2206 90.3641C61.146 89.7726 59.7725 90.0949 59.1294 91.1422C58.4973 92.172 57.9408 93.519 58.2444 94.7883C58.8513 97.3271 65.2237 100.373 65.2237 100.373L68.7638 96.8193V96.8193Z" fill="#F7AE8B" stroke="#09121E" stroke-miterlimit="10"/>
<path d="M83.9206 87.0846L79.0788 94.149" stroke="#09121E" stroke-width="0.30515" stroke-miterlimit="10" stroke-linecap="round"/>
<path d="M392.574 196.122H152.553V0.814819H349.231L392.574 196.122Z" fill="#6680B1" stroke="#09121E" stroke-miterlimit="10"/>
<path d="M406.188 188.266L382.732 151.774H249.829L234.922 188.266H0.811584V214.93L406.188 214.609V188.266Z" fill="#4B6CB3" stroke="#09121E" stroke-miterlimit="10"/>
<path d="M354.208 189.278C354.208 189.278 346.594 158.747 312.046 158.747C277.497 158.747 268.43 185.586 268.43 189.024C268.43 192.463 354.208 189.278 354.208 189.278Z" fill="white" stroke="#09121E" stroke-miterlimit="10"/>
<path d="M337.758 236.53C354.086 222.273 355.809 197.428 341.609 181.036C327.408 164.645 302.66 162.914 286.333 177.171C270.006 191.427 268.282 216.273 282.483 232.664C296.683 249.056 321.431 250.786 337.758 236.53Z" fill="#1B2535" stroke="#09121E" stroke-miterlimit="10"/>
<path d="M332.593 220.067C339.864 208.675 336.559 193.522 325.211 186.222C313.863 178.923 298.77 182.241 291.499 193.633C284.228 205.026 287.533 220.179 298.881 227.478C310.228 234.778 325.322 231.46 332.593 220.067Z" fill="white" stroke="#09121E" stroke-miterlimit="10"/>
<path d="M125.991 189.278C125.991 189.278 118.378 158.747 83.8293 158.747C49.2805 158.747 40.2133 185.586 40.2133 189.024C40.2133 192.462 125.991 189.278 125.991 189.278H125.991Z" fill="white" stroke="#09121E" stroke-miterlimit="10"/>
<path d="M90.079 245.681C111.441 242.216 125.96 222.022 122.508 200.576C119.056 179.13 98.9413 164.554 77.5796 168.019C56.218 171.484 41.6991 191.679 45.1507 213.124C48.6023 234.57 68.7174 249.147 90.079 245.681Z" fill="#1B2535" stroke="#09121E" stroke-miterlimit="10"/>
<path d="M101.085 224.174C110.615 214.606 110.615 199.094 101.085 189.527C91.5549 179.959 76.1039 179.959 66.574 189.527C57.044 199.094 57.044 214.606 66.574 224.174C76.1039 233.741 91.5549 233.741 101.085 224.174Z" fill="white" stroke="#09121E" stroke-miterlimit="10"/>
<path d="M152.79 1.66846C152.79 1.66846 204.652 188.265 204.572 188.266H152.553C152.431 180.411 152.553 1.70114 152.553 1.70114C152.553 1.55987 152.753 1.53241 152.79 1.66846Z" fill="#466393" stroke="#09121E" stroke-miterlimit="10"/>
<path d="M360.34 51.2065L406.188 83.5835V125.965L382.732 151.774L360.34 51.2065Z" fill="#4B6CB3" stroke="#09121E" stroke-miterlimit="10"/>
<path d="M315.387 97.4172C314.707 98.8132 314.081 100.239 313.336 101.599C311.765 104.464 310.118 107.288 308.527 110.142C307.314 112.319 305.503 113.392 303.007 113.401C297.906 113.419 292.805 113.484 287.704 113.529C287.429 113.532 287.155 113.53 286.785 113.53C286.785 114.695 286.768 115.804 286.791 116.913C286.804 117.564 286.624 118.079 285.982 118.324C285.323 118.575 284.871 118.237 284.459 117.761C281.804 114.701 279.134 111.655 276.486 108.589C274.564 106.362 274.578 103.859 276.482 101.615C279.05 98.5907 281.617 95.5657 284.178 92.5366C284.612 92.0242 285.054 91.5696 285.809 91.8522C286.555 92.1312 286.629 92.7486 286.618 93.4299C286.602 94.4588 286.614 95.4881 286.614 96.5639H296.8C296.631 96.2394 296.517 95.9968 296.382 95.7663C294.678 92.8474 292.968 89.9324 291.266 87.0121C290.18 85.1485 290.577 83.6565 292.434 82.5617C295.411 80.8057 298.386 79.0445 301.366 77.2933C303.153 76.2434 304.692 76.6466 305.748 78.4469C308.645 83.386 311.545 88.3234 314.413 93.2795C314.825 93.9917 315.066 94.8037 315.387 95.5694V97.4172H315.387Z" fill="#7C99D9" stroke="#09121E" stroke-miterlimit="10"/>
<path d="M292.794 57.4545C293.841 56.8497 294.809 56.2995 295.767 55.7328C296.299 55.4182 296.815 55.3528 297.313 55.7731C297.812 56.1943 297.825 56.7276 297.625 57.301C296.234 61.2815 294.874 65.2732 293.443 69.239C292.574 71.648 290.28 72.8493 287.649 72.3512C283.655 71.5952 279.667 70.8055 275.674 70.0453C275.03 69.9227 274.573 69.6315 274.469 68.9578C274.37 68.3117 274.734 67.9179 275.262 67.6184C276.228 67.0698 277.184 66.5032 278.212 65.9049L273.135 57.0702C272.938 57.3796 272.771 57.6211 272.625 57.8749C270.953 60.7794 269.286 63.6871 267.613 66.5912C266.543 68.4488 265.018 68.8761 263.188 67.8183C260.147 66.0611 257.11 64.2963 254.077 62.526C252.423 61.5606 252.004 59.9938 252.967 58.3127C255.867 53.2472 258.77 48.1827 261.694 43.1313C262.837 41.1583 264.584 40.1501 266.863 40.1419C271.016 40.1271 275.17 40.129 279.323 40.1408C281.67 40.1474 283.426 41.1957 284.599 43.2378C287.158 47.6939 289.722 52.1477 292.285 56.6019C292.436 56.8653 292.596 57.1237 292.794 57.4545L292.794 57.4545Z" fill="#7C99D9" stroke="#09121E" stroke-miterlimit="10"/>
<path d="M253.398 87.8057L248.24 96.6893C249.617 96.6893 250.831 96.6865 252.044 96.6899C254.47 96.6965 256.896 96.7017 259.322 96.7164C261.415 96.729 262.514 97.8389 262.51 99.9396C262.505 103.383 262.494 106.826 262.477 110.27C262.466 112.49 261.389 113.575 259.187 113.572C253.498 113.563 247.81 113.546 242.121 113.529C239.679 113.522 237.86 112.462 236.65 110.313C234.676 106.808 232.692 103.308 230.677 99.8261C229.408 97.6327 229.435 95.5038 230.716 93.3234C233.432 88.6991 236.11 84.0525 238.87 79.3025C237.945 78.7569 237.052 78.2133 236.143 77.7002C235.555 77.3688 235.025 77.0083 235.147 76.2259C235.276 75.402 235.925 75.224 236.614 75.0971C240.504 74.381 244.392 73.658 248.281 72.9362C251.149 72.4039 253.36 73.6821 254.305 76.4372C255.592 80.1889 256.869 83.9443 258.15 87.6981C258.204 87.8568 258.328 88.0307 258.298 88.1718C258.2 88.6344 258.179 89.2494 257.877 89.4938C257.58 89.7347 256.897 89.7667 256.524 89.5906C255.471 89.0942 254.49 88.4439 253.398 87.8057Z" fill="#7C99D9" stroke="#09121E" stroke-miterlimit="10"/>
</g>
<defs>
<clipPath id="clip0_20_66">
<rect width="407" height="247" fill="white"/>
</clipPath>
</defs>
</svg>
