<svg width="333" height="332" viewBox="0 0 333 332" fill="none" xmlns="http://www.w3.org/2000/svg">
<g opacity="0.2">
<g filter="url(#filter0_d_2_94)">
<circle cx="130.279" cy="110.072" r="45.8159" transform="rotate(-28.7124 130.279 110.072)" fill="white"/>
</g>
<g clip-path="url(#clip0_2_94)">
<path d="M169.909 78.6089C169.15 80.7654 170.193 84.676 173.198 85.0991C173.28 88.1779 172.52 91.7977 172.858 94.8014C172.087 97.0914 173.176 99.8902 173.528 102.319C172.373 105.479 175.496 108.909 175.929 112.095C175.802 114.487 172.278 118.296 172.672 120.948C165.497 124.188 168.939 128.301 165.699 133.231C160.423 136.653 154.84 138.611 152.613 145.066C151.665 146.593 150.388 150.815 148.945 151.662C145.622 153.441 143.507 153.931 138.864 155.202C134.961 156.535 130.831 158.017 127.036 159.496C125.031 160.553 122.341 161.596 120.86 163.327C117.27 164.155 119.382 161.587 112.058 163.436C108.09 160.857 104.586 162.581 104.586 162.581C103.816 161.821 98.7344 160.674 98.0928 161.252C94.1298 159.697 96.3262 155.323 92.261 153.154C89.3965 151.426 86.5437 154.207 84.5085 154.396C81.2473 152.208 80.4278 146.833 75.1207 147.181C73.4649 144.421 73.0753 140.6 70.705 138.24C70.2796 137.833 70.0587 137.563 69.929 137.077C68.7242 134.607 66.6167 134.613 65.6459 132.241C65.5646 131.483 65.0112 130.852 64.2675 130.675C63.6351 129.664 63.2861 127.89 62.0822 127.452C59.1325 123.577 61.2325 123 59.3394 119.856C57.3799 116.784 62.1634 110.128 60.5394 104.758C59.2626 101.99 58.5405 99.1869 56.5498 96.8302C54.1868 94.2755 54.3162 92.7426 55.15 89.6624C55.6272 87.5107 57.5195 85.6477 58.1918 83.4967C59.3977 80.5525 61.1603 78.6729 62.4985 75.8411C62.6649 72.1992 62.0872 68.9796 64.2303 65.7827C66.2387 62.67 70.5977 62.6812 73.8186 60.2825C76.0007 58.1739 77.2454 55.5436 79.1372 53.3387C81.5544 50.8682 84.6137 48.8242 86.3226 45.661C87.4337 47.0506 91.3216 46.7998 91.5223 46.5576C93.4568 46.0594 93.0078 44.0961 94.7353 44.3184C97.4154 44.6472 99.873 43.9832 101.748 42.7707C104.703 43.2974 108.507 41.576 109.894 40.9893C110.141 41.2441 111.689 41.6987 111.663 43.0716C111.566 48.2196 118.007 52.0189 122.839 51.523C123.736 51.3348 126.315 50.8933 127.002 50.6138C127.841 50.4879 128.918 50.6213 129.776 50.2231C130.821 52.4176 132.159 53.6435 134.315 54.7832C138.942 57.5777 146.288 55.6679 150.906 53.6773C152.777 57.7591 156.373 59.3278 160.764 60.6766C164.668 66.5728 161.383 70.3105 165.598 72.741C165.652 73.5701 166.959 75.8124 168.356 75.1524C169.347 75.9884 170.463 76.9744 169.909 78.6089L169.909 78.6089Z" fill="#4B6CB3" stroke="#4B6CB3" stroke-width="6.98097" stroke-linejoin="round"/>
<path d="M169.909 78.6089C169.15 80.7654 170.193 84.676 173.198 85.0991C173.28 88.1779 172.52 91.7977 172.858 94.8014C172.087 97.0914 173.176 99.8902 173.528 102.319C172.373 105.479 175.496 108.909 175.929 112.095C175.802 114.487 172.278 118.296 172.672 120.948C165.497 124.188 168.939 128.301 165.699 133.231C160.423 136.653 154.84 138.611 152.613 145.066C151.665 146.593 150.388 150.815 148.945 151.662C145.622 153.441 143.507 153.931 138.864 155.202C134.961 156.535 130.831 158.017 127.036 159.496C125.031 160.553 122.341 161.596 120.86 163.327C117.27 164.155 119.382 161.587 112.058 163.436C108.09 160.857 104.586 162.581 104.586 162.581C103.816 161.821 98.7344 160.674 98.0928 161.252C94.1298 159.697 96.3262 155.323 92.261 153.154C89.3965 151.426 86.5437 154.207 84.5085 154.396C81.2473 152.208 80.4278 146.833 75.1207 147.181C73.4649 144.421 73.0753 140.6 70.705 138.24C70.2796 137.833 70.0587 137.563 69.929 137.077C68.7242 134.607 66.6167 134.613 65.6459 132.241C65.5646 131.483 65.0112 130.852 64.2675 130.675C63.6351 129.664 63.2861 127.89 62.0822 127.452C59.1325 123.577 61.2325 123 59.3394 119.856C57.3799 116.784 62.1634 110.128 60.5394 104.758C59.2626 101.99 58.5405 99.1869 56.5498 96.8302C54.1868 94.2755 54.3162 92.7426 55.15 89.6624C55.6272 87.5107 57.5195 85.6477 58.1918 83.4967C59.3977 80.5525 61.1603 78.6729 62.4985 75.8411C62.6649 72.1992 62.0872 68.9796 64.2303 65.7827C66.2387 62.67 70.5977 62.6812 73.8186 60.2825C76.0007 58.1739 77.2454 55.5436 79.1372 53.3387C81.5544 50.8682 84.6137 48.8242 86.3226 45.661C87.4337 47.0506 91.3216 46.7998 91.5223 46.5576C93.4568 46.0594 93.0078 44.0961 94.7353 44.3184C97.4154 44.6472 99.873 43.9832 101.748 42.7707C104.703 43.2974 108.507 41.576 109.894 40.9893C110.141 41.2441 111.689 41.6987 111.663 43.0716C111.566 48.2196 118.007 52.0189 122.839 51.523C123.736 51.3348 126.315 50.8933 127.002 50.6138C127.841 50.4879 128.918 50.6213 129.776 50.2231C130.821 52.4176 132.159 53.6435 134.315 54.7832C138.942 57.5777 146.288 55.6679 150.906 53.6773C152.777 57.7591 156.373 59.3278 160.764 60.6766C164.668 66.5728 161.383 70.3105 165.598 72.741C165.652 73.5701 166.959 75.8124 168.356 75.1524C169.347 75.9884 170.463 76.9744 169.909 78.6089L169.909 78.6089Z" stroke="white" stroke-width="6.98097" stroke-linejoin="round"/>
<path d="M166.867 97.5994C165.431 96.5232 165.254 97.3728 164.336 95.0091C165.542 93.7841 163.539 92.5227 161.989 92.9239C160.27 91.8155 160.823 90.6732 159.987 88.9794C159.18 87.7444 158.704 86.0173 158.619 84.4745C158.664 82.3361 157.274 79.9953 155.08 82.1173C154.735 82.3756 153.173 82.0726 152.948 82.0153C152.013 79.8659 151.301 77.2234 149.312 80.7224C148.139 80.5133 147.678 81.6385 146.863 81.9051C145.214 81.4551 143.976 80.2009 142.106 80.2384C140.703 79.0122 139.137 83.1223 138.274 83.0685C136.306 82.9457 136.745 81.2309 136.233 80.7304C135.459 79.8817 135.001 79.8151 133.981 79.2739C131.303 77.8541 129.83 77.3387 128.089 81.286C126.607 84.3003 122.335 83.1281 121.792 80.6887C122.091 80.268 122.218 79.401 121.537 79.1541C121.179 78.9683 120.732 79.2384 120.403 79.4891C118.352 80.9128 115.42 79.6704 113.629 77.7601C112.567 77.6599 112.674 76.1717 112.051 75.4572C111.335 75.0593 110.535 75.5697 110.231 74.6259C110.483 73.6128 109.272 71.7749 108.449 73.2565C104.814 75.8372 96.0372 78.5388 91.778 76.7245C91.0696 75.8721 90.4844 75.9537 89.4464 75.7225C89.1832 75.2343 88.6774 73.6399 87.9599 74.1779C87.4553 76.1129 85.4666 77.095 83.6969 77.9806C82.3221 79.0935 77.7933 76.88 77.3494 78.9393C73.4768 81.5386 75.413 89.1401 69.0635 88.4413C68.4171 87.7083 66.8847 87.7109 67.2275 88.9629C66.2317 95.1108 63.208 91.8732 65.2404 96.0265C65.4853 97.0882 64.8487 98.6193 64.4502 99.5932C63.2243 100.025 60.6986 101.048 62.6223 102.486C63.2554 103.94 63.3539 105.721 63.7954 107.291C63.6403 108.819 63.5626 110.586 64.1702 112.003C65.2906 114.614 64.232 116.046 64.7201 118.218C61.2627 117.849 63.2807 122.404 63.8072 122.805C64.5177 124.026 64.8407 123.544 65.6663 123.968C66.0467 124.844 66.8541 125.777 67.5922 126.333C68.4628 127.202 69.9345 130.284 71.5708 130.732C76.2932 132.026 74.5571 134.358 76.6102 137.726C77.6959 141.204 79.5453 143.638 82.6798 144.95C83.8578 145.579 85.5122 148.612 86.8693 147.757C87.1588 147.614 88.0672 146.669 88.3212 146.831C89.0863 147.425 89.2432 147.551 89.9447 147.378C91.7373 148.824 94.8241 146.506 95.0816 148.25C95.2899 149.661 95.9605 150.134 98.0762 151.507C99.8122 154.754 100.449 153.734 102.965 155.319C102.707 156.501 106.968 158.879 107.521 158.038C108.215 157.381 111.203 157.266 110.286 156.891C111.087 157.219 111.603 158.326 112.526 158.027C113.629 157.921 115.06 158.577 116.076 157.819C117.058 158.789 118.443 155.79 118.524 154.976C119.297 155.068 121.048 155.644 121.453 155.676C122.06 155.724 123.811 155.995 124.982 155.411C125.919 154.944 126.869 155.643 129.56 154.358C131.584 153.251 133.657 151.673 133.285 149.728C135.631 150.156 135.474 149.827 137.19 148.536C137.432 148.597 138.111 148.045 138.236 148.011C139.146 149.477 143.684 149.203 146.083 146.736C147.173 145.615 147.638 143.627 147.442 141.871C147.914 141.605 147.547 140.425 148.293 138.947C149.753 137.247 152.444 138.277 153.919 136.484C154.347 135.844 155.946 135.963 156.211 135.351C158.966 134.01 157.962 131.925 157.802 129.689C158.225 128.886 158.761 128.772 159.153 127.634C159.681 125.057 159.054 124.019 161.556 122.011C162.669 121.297 164.268 121.257 164.992 119.797C165.64 119.719 166.802 118.661 166.197 118.411C166.857 117.003 165.51 117.115 165.127 116.046C166.679 116.139 166.202 114.162 165.731 113.317C166.127 112.267 169.079 109.879 168.137 109.241C165.971 107.046 163.269 101.654 166.203 99.2768C166.809 99.0317 167.679 98.4425 166.867 97.5994L166.867 97.5994Z" fill="#7D98CE"/>
<path d="M57.5304 98.391C57.445 98.4262 57.361 98.442 57.2852 98.4471C57.2132 98.452 56.5672 98.4734 56.4692 97.6744C56.4313 97.4758 56.3231 97.2882 56.1976 97.0707C55.9963 96.722 55.7511 96.2966 55.7384 95.7311C55.6507 95.7515 55.5726 95.7585 55.5091 95.7593C55.2514 95.7623 55.0164 95.6457 54.8646 95.4398C54.7396 95.2698 54.6848 95.0612 54.6998 94.8084C54.6218 94.6916 54.5707 94.5586 54.5428 94.4163C54.4688 94.4228 54.3952 94.4214 54.3216 94.412C54.0376 94.3754 53.7974 94.2197 53.6449 93.9737C53.4412 93.6455 53.4114 93.1691 53.5553 92.553C53.4577 92.4457 53.3815 92.3194 53.3306 92.1766C53.2479 91.9448 53.2417 91.6828 53.3062 91.4181C53.1281 91.3706 52.9715 91.2646 52.8659 91.1075C52.4587 90.4981 52.8605 89.7073 53.3646 89.1461C53.28 88.8502 53.2805 88.5397 53.3739 88.2599C53.4961 87.8946 53.756 87.6131 54.1179 87.4474C54.2559 86.7578 54.68 86.0779 55.3459 85.8476C56.015 85.4132 56.9778 85.2377 57.6546 85.6031C58.678 85.6409 59.1285 86.1983 59.3264 86.6777C59.6069 87.3571 59.531 88.2454 59.1284 88.996C58.839 89.5353 58.4122 89.9498 57.9144 90.1878C57.9368 90.2475 57.9537 90.3111 57.9638 90.3791C58.0344 90.8588 57.8674 91.243 57.7331 91.5515C57.6305 91.7873 57.5684 91.9391 57.585 92.084C57.5927 92.1337 57.623 92.267 57.658 92.4276C57.8889 93.483 57.9585 93.8015 57.6842 94.1182C57.5755 94.2429 57.4346 94.3277 57.2828 94.365C57.2807 94.5022 57.2695 94.6367 57.2504 94.762C57.527 95.3938 58.2775 97.2093 58.042 97.7762C57.9137 98.1402 57.7186 98.3132 57.5304 98.391L57.5304 98.391ZM54.8612 90.9929L54.8611 90.9934L54.8612 90.9929Z" fill="#7D98CE"/>
<path d="M163.165 59.9991C157.895 56.8594 154.293 53.995 152.108 53.1366C147.139 51.1845 147.455 54.6606 137.607 53.6604C136.095 51.4761 133.23 51.2033 131.384 49.069C129.799 48.8564 128.451 47.4208 127.378 48.6503C126.049 50.1751 120.396 51.0269 116.325 48.0687C115.467 47.4452 114.677 45.6295 113.46 45.8371C111.754 46.9116 112.906 43.4029 110.458 43.7782C109.912 43.7816 106.707 45.1721 108.145 46.3994C106.706 47.1548 107.677 45.2916 104.912 45.3114C101.844 45.3335 105.627 48.4802 102.239 48.7898C101.049 47.8733 98.9879 48.1303 98.2286 48.8536C96.9623 47.349 96.8352 50.1662 93.034 48.3256C91.4269 48.4611 90.9122 51.0659 89.2835 50.5627C86.6073 49.5941 86.7197 53.4101 85.0127 53.4698C82.2322 53.0447 84.4628 55.7286 82.9086 56.8375C82.2097 58.1981 81.1671 58.6373 79.8992 59.3702C79.7665 61.0997 75.5448 61.0374 75.8836 63.223C71.4131 61.9642 73.008 65.3353 68.7263 65.5994C66.2705 69.0036 69.4644 66.8326 65.6325 69.9026C66.2415 71.1219 64.6531 71.1158 64.2899 71.7796C63.6489 72.9974 65.3216 74.7139 66.6717 74.0189C68.2225 72.8769 68.7306 70.8832 70.6804 71.1942C71.9932 70.2652 73.0311 68.7671 73.8046 67.6003C74.4555 65.6592 77.4089 68.1097 79.52 65.1485C80.7005 61.5854 83.1763 64.2622 85.2679 61.6227C88.1959 59.3043 86.7218 57.9979 92.0466 57.7649C93.7199 57.6917 95.3408 55.8131 96.4509 55.4858C98.2853 54.9449 97.926 57.2729 102.205 55.1375C103.77 54.357 102.721 58.0557 104.781 57.0548C108.929 56.8685 107.319 54.6537 110.469 57.0712C111.496 56.2064 113.688 56.0025 114.032 57.4432C116.6 59.489 119.521 57.3862 122.394 56.9361C122.957 54.5242 125.105 55.9131 126.206 53.8919C126.917 56.7315 127.839 54.6482 128.894 55.2701C130.021 56.2706 131.728 58.3395 134.509 59.4952C135.841 60.0486 140.634 60.0798 141.851 59.1002C142.632 60.05 143.217 58.2804 143.894 58.2363C144.783 59.0029 146.643 58.0077 147.214 57.2051C147.235 58.4821 149.069 56.5269 149.149 57.2297C149.64 61.543 154.962 58.9124 154.738 63.4009C153.449 64.199 152.763 65.2728 151.575 64.8912C150.194 64.4476 148.545 63.4604 147.563 65.4417C147.16 66.2529 148.402 68.3816 150.824 67.2399C151.353 67.9946 152.906 66.0118 153.365 67.1292C154.016 68.7162 157.012 67.3691 158.601 66.5063C162.139 64.5847 165.339 66.0097 163.165 59.9991L163.165 59.9991Z" fill="#7D98CE"/>
<path d="M156.659 123.01C155.937 123.535 155.938 124.503 155.654 125.183C154.733 126.594 153.444 129.05 151.852 129.157C150.009 129.577 147.239 130.005 146.284 131.669C143.216 134.336 141.121 138.009 139.908 142.305C139.796 143.913 138.998 143.609 138.075 144.305C136.809 148.023 144.109 147.182 145.541 145.123C144.617 130.922 154.867 138.641 155.489 131.627C155.877 128.713 158.848 127.791 158.423 124.301C159.225 123.248 156.947 122.43 156.659 123.01V123.01Z" fill="#4B6CB3" stroke="#4B6CB3" stroke-width="0.28346" stroke-miterlimit="10"/>
<path d="M100.545 145.215C99.8645 144.433 99.3858 143.331 98.3534 142.865C97.7612 142.509 97.4161 142.322 97.2479 141.703C96.3471 138.221 93.5239 141.389 91.5145 140.667C90.8587 139.032 88.9138 140.276 87.8029 140.498C87.3619 140.362 86.1743 139.881 86.0174 139.442C85.8141 139.064 85.5064 138.491 84.8742 138.365C83.9976 138.191 82.181 136.331 81.2588 134.924C81.3039 134.638 81.1205 134.322 80.8576 134.215C79.7816 131.214 77.9641 133.499 78.0011 135.525C77.4427 139.856 80.4192 139.686 82.486 141.639C87.1573 145.775 85.8857 145.384 88.3312 144.665C88.7173 145.281 89.7232 144.895 89.5953 144.186C91.3902 143.166 92.1094 143.825 93.6152 145.193C93.5936 145.906 95.4136 146.299 95.2452 145.113C95.324 145.078 95.4046 145.048 95.4722 145.029C99.9204 150.86 104.506 147.68 100.545 145.215L100.545 145.215Z" fill="#4B6CB3" stroke="#4B6CB3" stroke-width="0.28346" stroke-miterlimit="10"/>
<path d="M174.065 81.5506C173.885 81.4822 173.632 81.386 173.484 81.3141C172.911 79.5854 174.41 77.2856 173.153 75.2573C172.776 74.5363 170.594 71.4454 168.478 71.4479C167.946 70.5898 167.853 69.8481 167.287 69.4636C167.063 66.727 166.597 63.561 164.913 61.0451C165.826 60.6517 165.125 58.487 163.374 57.5314C161.981 56.7708 159.64 57.1951 158.953 56.8683C156.546 55.724 155.407 53.5415 153.876 51.5809C153.033 50.5021 153.053 49.0267 151.311 49.1668C150.23 49.5338 149.166 50.7684 148.103 51.0311C141.871 52.5862 138.744 53.1481 133.407 49.9049C130.978 46.1538 130.625 45.6586 128.424 46.8462C127.252 46.9772 126.069 46.9891 125.117 47.7672C124.321 48.3853 120.376 48.2866 119.535 48.1574C119.191 47.8964 117.107 47.0028 116.665 46.7522C113.738 45.8712 115.964 38.1418 113.97 40.1325C113.495 40.6062 112.098 39.7641 111.938 38.1412C111.839 37.1404 110.029 38.4623 109.527 38.7492C108.294 39.3317 106.819 39.2561 105.468 39.5905C103.16 39.2726 100.701 38.615 98.5835 40.3912C95.2398 41.267 92.2883 39.6671 90.1731 43.1252C89.5736 43.1639 89.1471 43.2652 88.7738 42.9408C86.4989 40.9826 83.6929 42.1516 82.4664 45.0012C80.7781 47.2586 78.3528 48.8382 76.4049 50.9634C74.5163 53.1056 73.2624 55.7486 71.2929 57.688C62.7978 60.9072 58.3415 63.3862 58.9367 74.7807C58.3284 75.2589 58.03 76.4212 57.7315 77.1684C55.6305 79.2053 54.9057 82.6102 53.396 85.0591C51.5207 87.5917 50.7927 90.9609 50.9681 94.1571C51.6031 96.8985 53.5615 98.6423 54.9309 100.76C55.4275 102.336 56.3481 104.173 57.0322 105.653C57.9112 109.526 55.3128 114.142 55.1188 118.267C55.0028 120.46 56.6856 121.593 56.698 123.252C56.2172 125.511 58.7414 129.651 60.2271 130.614C60.7089 132.108 61.651 133.521 62.9088 134.609C63.3386 135.354 63.6175 136.074 64.42 136.784C65.2631 137.569 66.6084 137.911 66.8008 138.987C67.2376 140.093 68.1378 140.664 68.7132 141.443C70.359 144.274 70.517 147.926 73.1665 150.25C74.9242 151.35 76.1446 150.238 77.5602 151.786C79.7946 154.722 82.3715 159.395 87.3186 157.377C93.3364 154.922 91.8007 162.758 95.819 163.781C96.654 164.29 98.1919 166.481 99.5803 165.608C100.589 165.737 101.244 165.478 101.96 165.304C103.989 166.897 106.191 165.56 108.412 166.323C111.262 166.629 113.044 169.275 116.415 166.959C119.051 168.677 122.225 167.382 123.757 165.656C127.541 163.544 132.936 161.924 136.804 159.923C142.06 157.421 146.311 158.546 150.617 155.879C154.598 153.273 155.143 146.31 157.875 142.983C160.14 141.192 163.116 139.393 165.515 137.696C170.884 136.069 171.709 131.949 171.816 126.889C173.31 124.248 178.102 124.468 177.489 120.41C179.254 111.934 181.274 115.914 178.225 106.343C177.863 104.011 177.11 100.804 176.951 98.5212C176.861 97.0559 176.878 94.6318 176.594 93.103C176.249 90.5046 177.036 88.204 176.796 85.6465C177.289 83.7368 175.596 81.8056 174.065 81.5506L174.065 81.5506ZM169.909 78.6088C169.15 80.7654 170.193 84.676 173.198 85.099C173.28 88.1779 172.52 91.7977 172.858 94.8014C172.087 97.0914 173.176 99.8902 173.528 102.319C172.373 105.479 175.496 108.909 175.929 112.095C175.802 114.487 172.278 118.296 172.672 120.948C165.497 124.188 168.939 128.301 165.699 133.231C160.423 136.653 154.84 138.611 152.613 145.066C151.665 146.593 150.388 150.815 148.945 151.662C145.622 153.441 143.507 153.931 138.864 155.202C134.961 156.535 130.831 158.017 127.036 159.496C125.031 160.553 122.341 161.596 120.86 163.327C117.27 164.155 119.382 161.587 112.058 163.436C108.09 160.857 104.586 162.581 104.586 162.581C103.816 161.821 98.7344 160.674 98.0928 161.252C94.1298 159.697 96.3262 155.323 92.2609 153.154C89.3965 151.426 86.5437 154.207 84.5085 154.395C81.2473 152.208 80.4278 146.833 75.1207 147.181C73.4649 144.421 73.0753 140.6 70.705 138.24C70.2796 137.833 70.0587 137.563 69.929 137.077C68.7242 134.607 66.6167 134.613 65.6459 132.241C65.5645 131.483 65.0112 130.852 64.2675 130.675C63.6351 129.663 63.2861 127.889 62.0822 127.452C59.1325 123.577 61.2325 123 59.3394 119.856C57.3799 116.784 62.1634 110.128 60.5394 104.758C59.2626 101.99 58.5405 99.1868 56.5497 96.8302C54.1868 94.2755 54.3162 92.7426 55.15 89.6624C55.6272 87.5107 57.5195 85.6477 58.1918 83.4967C59.3977 80.5525 61.1603 78.6729 62.4985 75.841C62.6649 72.1992 62.0872 68.9796 64.2303 65.7827C66.2387 62.67 70.5977 62.6812 73.8186 60.2825C76.0007 58.1739 77.2454 55.5436 79.1372 53.3387C81.5544 50.8682 84.6137 48.8241 86.3226 45.6609C87.4337 47.0506 91.3216 46.7998 91.5223 46.5576C93.4568 46.0594 93.0078 44.0961 94.7353 44.3184C97.4154 44.6472 99.873 43.9832 101.748 42.7707C104.703 43.2974 108.507 41.576 109.894 40.9893C110.141 41.2441 111.689 41.6986 111.663 43.0716C111.566 48.2196 118.007 52.0189 122.839 51.523C123.736 51.3348 126.315 50.8933 127.002 50.6138C127.841 50.4879 128.918 50.6212 129.776 50.2231C130.821 52.4176 132.159 53.6435 134.315 54.7832C138.942 57.5777 146.288 55.6679 150.906 53.6773C152.777 57.7591 156.373 59.3278 160.764 60.6765C164.668 66.5728 161.383 70.3104 165.598 72.741C165.652 73.5701 166.959 75.8124 168.356 75.1524C169.347 75.9883 170.463 76.9744 169.909 78.6088L169.909 78.6088Z" fill="#000003"/>
<path d="M150.824 38.961C149.897 39.0791 149.979 37.509 149.82 36.9009C149.751 36.1336 150.263 35.7357 150.461 35.115C151.131 34.7902 152.082 34.1247 152.082 33.2566C152.759 33.3104 153.028 32.3554 153.437 32.1017C154.256 31.8305 154.92 30.9298 155.943 31.2954C156.116 31.5099 156.367 31.6609 156.65 31.6455C156.59 31.9177 156.739 32.2018 156.997 32.3284C154.58 35.0242 155.702 36.4743 154.099 39.2529C152.702 40.1966 152.095 38.8186 150.824 38.961L150.824 38.961Z" fill="#4B6CB3" stroke="#4B6CB3" stroke-width="2.50052" stroke-linejoin="round"/>
<path d="M153.449 37.9848C153.348 38.0263 153.239 38.0525 153.121 38.0621C153.112 38.0628 153.102 38.0637 153.092 38.064C152.989 38.1064 152.878 38.1368 152.761 38.1542C152.638 38.2539 152.512 38.3332 152.385 38.3854C151.999 38.5449 151.611 38.3139 151.344 38.0767C151.114 37.9345 150.943 37.7232 150.846 37.4614C150.738 37.252 150.708 37.0707 150.719 36.9208C150.695 36.8615 150.675 36.7978 150.661 36.7289C150.621 36.5256 150.657 36.3319 150.734 36.1548C150.727 36.0007 150.749 35.8467 150.81 35.6987C150.933 35.4049 151.634 34.5743 152.225 34.3683C152.539 34.2591 152.775 34.3299 152.917 34.4085C153.067 34.4912 153.203 34.6064 153.323 34.7444C153.971 35.0677 154.216 35.776 153.955 36.5903C153.956 36.5999 153.956 36.6091 153.955 36.6186C154.045 36.903 154.077 37.2022 153.971 37.4589C153.868 37.7058 153.685 37.8874 153.449 37.9848L153.449 37.9848Z" fill="#7D98CE"/>
<path d="M159.019 31.7682C158.409 31.3085 157.879 31.4624 157.296 31.1644C157.459 30.4765 156.923 30.1235 156.324 30.1735C155.822 29.3827 153.69 30.5494 153.501 30.6705C152.787 29.8914 152.083 30.7771 151.605 31.7588C150.48 31.4021 150.19 32.7603 150.186 33.5821C147.282 34.8635 147.791 38.3105 149.92 40.0098C150.862 40.3002 151.444 40.1057 152.229 40.7619C152.596 41.7921 154.304 41.9416 155.186 41.6545C159.661 40.2671 156.272 36.643 158.138 34.097C158.429 33.4701 159.623 32.4767 159.019 31.7682V31.7682ZM150.824 38.961C149.897 39.0791 149.979 37.509 149.82 36.9009C149.751 36.1336 150.263 35.7357 150.461 35.115C151.131 34.7902 152.082 34.1247 152.082 33.2567C152.759 33.3104 153.028 32.3554 153.437 32.1017C154.256 31.8305 154.92 30.9298 155.943 31.2954C156.116 31.5099 156.367 31.6609 156.65 31.6455C156.59 31.9177 156.739 32.2018 156.997 32.3284C154.58 35.0242 155.702 36.4743 154.099 39.2529C152.702 40.1966 152.095 38.8186 150.824 38.961L150.824 38.961Z" fill="#000003"/>
<path d="M143.449 23.9281C142.982 23.6082 141.496 23.6129 140.994 23.7818C141.103 23.2662 140.93 22.055 140.539 21.5472C140.86 21.5172 141.563 20.5342 141.783 20.3686C142.388 20.7108 143.208 21.8846 143.357 21.5488C143.524 21.7256 143.658 21.9189 143.705 22.1466C143.716 22.1972 143.737 22.2377 143.76 22.2761C143.753 22.4202 143.796 22.6125 143.924 22.8647C143.555 23.0727 143.455 23.5211 143.449 23.9281L143.449 23.9281Z" fill="#4B6CB3" stroke="#4B6CB3" stroke-width="2.83465" stroke-linejoin="round"/>
<path d="M143.539 21.5829C143.468 21.5756 143.186 21.5674 143.022 21.8559L143.014 21.8603C142.626 22.0739 142.697 22.6555 142.821 22.9194C142.976 23.2485 143.308 23.3973 143.609 23.273C143.939 23.1367 144.212 22.5651 144.141 22.1606C144.085 21.8458 143.843 21.6136 143.539 21.5828L143.539 21.5829Z" fill="#7D98CE"/>
<path d="M144.481 22.1358C144.481 22.1076 144.487 22.0826 144.481 22.0511C144.336 21.3552 143.843 20.9938 143.379 20.5413C143.246 19.9876 142.92 19.4333 142.483 19.2591C141.884 19.0642 139.57 19.1245 139.85 20.2213C138.071 21.1325 138.603 23.0245 140.021 23.6081C139.693 24.2377 139.512 25.5428 140.724 25.2472C141.181 24.9699 141.937 24.5015 142.37 24.3185C143.681 25.4581 144.957 25.388 144.931 23.4171C145.011 22.8004 144.767 22.361 144.481 22.1358V22.1358ZM143.449 23.9281C142.982 23.6082 141.496 23.6129 140.994 23.7818C141.103 23.2662 140.93 22.055 140.539 21.5472C140.86 21.5172 141.563 20.5342 141.783 20.3686C142.388 20.7108 143.208 21.8846 143.357 21.5488C143.524 21.7256 143.658 21.9189 143.705 22.1466C143.716 22.1972 143.737 22.2377 143.76 22.2761C143.753 22.4202 143.796 22.6125 143.924 22.8647C143.555 23.0727 143.455 23.5211 143.449 23.9281L143.449 23.9281Z" fill="#000003"/>
<path d="M136.568 33.5304C137.892 33.5689 137.83 32.5267 138.183 31.4359C137.042 30.7583 138.182 30.0783 138.524 29.6099C138.318 29.37 138.071 29.1538 137.905 28.8404C137.616 29.007 137.194 28.8679 137.064 28.5497C135.661 28.2883 135.329 30.2048 133.777 29.1621C133.586 29.7475 133.165 30.2399 132.509 30.822L132.864 30.9689L132.859 30.9804C133.256 31.4661 133.283 31.7118 133.927 32.1581C134.288 32.0672 134.566 32.3466 134.75 32.6263C135.74 31.988 135.842 33.9142 136.568 33.5304L136.568 33.5304Z" fill="#4B6CB3" stroke="#4B6CB3" stroke-width="2.49847" stroke-linejoin="round"/>
<path d="M138.162 27.9996C137.977 27.848 137.573 27.6345 136.982 27.909C136.289 28.2274 135.502 29.1352 135.48 29.9288C135.468 30.3351 135.645 30.6905 135.99 30.9249C136.172 31.3717 136.504 31.5439 136.794 31.5473C136.917 31.5487 137.032 31.5246 137.141 31.48C137.311 31.4096 137.463 31.2884 137.595 31.1377C137.782 31.0156 137.969 30.825 138.145 30.548C138.665 29.7326 138.847 28.5623 138.162 27.9996L138.162 27.9996Z" fill="#7D98CE"/>
<path d="M137.423 35.3814C137.188 35.4785 136.966 35.433 136.756 35.3287C136.128 35.7079 135.217 34.9605 134.774 34.4471C134.167 34.1852 133.417 34.3055 133.267 33.5162C133.046 33.5248 132.889 33.4938 132.68 33.2915C132.182 33.5293 131.892 33.0645 131.627 32.725C130.885 32.3796 130.956 31.8392 130.907 31.0018C130.264 29.9072 131.669 29.2471 132.433 28.7756C132.058 28.1937 132.069 27.277 133.075 27.3013C133.685 27.3216 134.187 28.2018 134.757 28.2439C135.51 27.4094 136.746 26.8257 138.14 27.7345C140.107 27.5412 140.517 30.4103 139.905 31.8419C140.937 32.9807 139.143 34.9746 137.854 34.814C137.791 35.1913 137.553 35.3237 137.423 35.3814L137.423 35.3814ZM136.568 33.5304C137.892 33.5689 137.83 32.5267 138.183 31.4359C137.042 30.7583 138.182 30.0783 138.524 29.6099C138.318 29.37 138.071 29.1538 137.905 28.8404C137.616 29.007 137.194 28.8679 137.064 28.5497C135.661 28.2883 135.329 30.2048 133.777 29.1621C133.586 29.7475 133.165 30.2399 132.509 30.822L132.864 30.9689L132.859 30.9804C133.256 31.4661 133.283 31.7118 133.927 32.1581C134.288 32.0672 134.566 32.3466 134.749 32.6263C135.74 31.988 135.842 33.9142 136.568 33.5304L136.568 33.5304Z" fill="#000003"/>
</g>
</g>
<defs>
<filter id="filter0_d_2_94" x="0.454758" y="0.247879" width="331.649" height="331.649" filterUnits="userSpaceOnUse" color-interpolation-filters="sRGB">
<feFlood flood-opacity="0" result="BackgroundImageFix"/>
<feColorMatrix in="SourceAlpha" type="matrix" values="0 0 0 0 0 0 0 0 0 0 0 0 0 0 0 0 0 0 127 0" result="hardAlpha"/>
<feMorphology radius="20" operator="dilate" in="SourceAlpha" result="effect1_dropShadow_2_94"/>
<feOffset dx="36" dy="56"/>
<feGaussianBlur stdDeviation="50"/>
<feComposite in2="hardAlpha" operator="out"/>
<feColorMatrix type="matrix" values="0 0 0 0 0.294118 0 0 0 0 0.423529 0 0 0 0 0.701961 0 0 0 0.5 0"/>
<feBlend mode="normal" in2="BackgroundImageFix" result="effect1_dropShadow_2_94"/>
<feBlend mode="normal" in="SourceGraphic" in2="effect1_dropShadow_2_94" result="shape"/>
</filter>
<clipPath id="clip0_2_94">
<rect width="130.222" height="130.222" fill="white" transform="translate(31.6061 64.3009) rotate(-22.4337)"/>
</clipPath>
</defs>
</svg>
