<svg width="354" height="353" viewBox="0 0 354 353" fill="none" xmlns="http://www.w3.org/2000/svg">
<g filter="url(#filter0_d_164_927)">
<circle cx="141.183" cy="120.558" r="56.4267" transform="rotate(-14.6478 141.183 120.558)" fill="white"/>
</g>
<g clip-path="url(#clip0_164_927)">
<path d="M197.945 94.8306C196.392 97.1796 196.469 102.164 199.932 103.569C199.108 107.271 197.117 111.369 196.621 115.058C195.015 117.563 195.479 121.233 195.172 124.24C192.846 127.669 195.551 132.702 195.114 136.637C194.246 139.457 188.896 142.953 188.574 146.239C179.032 147.962 181.914 153.906 176.566 158.827C169.239 161.335 161.984 162.003 157.391 169.049C155.802 170.589 153.012 175.251 151.035 175.831C146.533 176.962 143.859 176.914 137.932 177.043C132.87 177.467 127.493 178.002 122.517 178.632C119.804 179.295 116.279 179.736 113.991 181.36C109.455 181.276 112.746 178.84 103.443 178.856C99.4747 174.589 94.7718 175.599 94.7718 175.599C94.0797 174.46 88.3523 171.569 87.4127 172.068C83.1438 169.024 87.0768 164.456 82.8694 160.648C79.9643 157.727 75.724 160.195 73.2361 159.811C69.9947 156.222 70.6243 149.555 64.18 148.382C63.0278 144.59 63.706 139.908 61.5807 136.379C61.1943 135.765 61.0113 135.377 61.0016 134.758C60.3017 131.445 57.782 130.823 57.3323 127.697C57.462 126.768 56.9898 125.848 56.1542 125.414C55.7014 124.017 55.8154 121.793 54.5079 120.91C52.144 115.397 54.8254 115.337 53.5047 111.015C52.0833 106.758 59.7901 100.238 59.4571 93.3365C58.7603 89.6469 58.7366 86.0823 57.0636 82.671C55.0052 78.9118 55.6186 77.1192 57.5366 73.6889C58.7507 71.2612 61.569 69.6018 63.016 67.2333C65.3378 64.0769 68.0061 62.3589 70.4524 59.3763C71.7412 55.0753 72.0146 51.056 75.5317 47.8781C78.8628 44.7606 84.067 46.0786 88.6329 44.1769C91.8709 42.311 94.1451 39.5411 97.0651 37.4732C100.692 35.2452 104.959 33.7189 107.947 30.4513C108.859 32.4441 113.579 33.308 113.891 33.0788C116.351 33.0626 116.402 30.5828 118.4 31.3653C121.503 32.5602 124.638 32.5026 127.241 31.6152C130.613 33.1288 135.673 32.2108 137.506 31.9252C137.724 32.3033 139.438 33.3099 138.996 34.9423C137.339 41.0632 143.897 47.53 149.818 48.3838C150.946 48.4275 154.159 48.6719 155.064 48.5436C156.104 48.6443 157.351 49.126 158.494 48.907C159.086 51.8414 160.317 53.7065 162.552 55.7134C167.244 60.437 176.591 60.3538 182.705 59.358C183.718 64.7944 187.545 67.7447 192.387 70.6703C195.285 78.8826 190.242 82.3647 194.551 86.5302C194.367 87.5367 195.257 90.6067 197.124 90.2365C198.057 91.5316 199.096 93.0438 197.945 94.8306L197.945 94.8306Z" fill="#4B6CB3" stroke="#4B6CB3" stroke-width="6.98097" stroke-linejoin="round"/>
<path d="M197.945 94.8306C196.392 97.1796 196.469 102.164 199.932 103.569C199.108 107.271 197.117 111.369 196.621 115.058C195.015 117.563 195.479 121.233 195.172 124.24C192.846 127.669 195.551 132.702 195.114 136.637C194.246 139.457 188.896 142.953 188.574 146.239C179.032 147.962 181.914 153.906 176.566 158.827C169.239 161.335 161.984 162.003 157.391 169.049C155.802 170.589 153.012 175.251 151.035 175.831C146.533 176.962 143.859 176.914 137.932 177.043C132.87 177.467 127.493 178.002 122.517 178.632C119.804 179.295 116.279 179.736 113.991 181.361C109.455 181.276 112.746 178.84 103.443 178.856C99.4747 174.589 94.7718 175.599 94.7718 175.599C94.0797 174.46 88.3523 171.569 87.4127 172.068C83.1438 169.024 87.0768 164.456 82.8694 160.648C79.9643 157.727 75.724 160.195 73.2361 159.811C69.9947 156.222 70.6243 149.555 64.18 148.382C63.0278 144.59 63.706 139.908 61.5807 136.379C61.1943 135.765 61.0113 135.377 61.0016 134.758C60.3017 131.445 57.782 130.823 57.3323 127.697C57.462 126.768 56.9898 125.848 56.1542 125.414C55.7014 124.017 55.8154 121.793 54.5079 120.91C52.144 115.397 54.8254 115.337 53.5047 111.015C52.0833 106.758 59.7901 100.238 59.4571 93.3365C58.7603 89.6469 58.7366 86.0823 57.0636 82.671C55.0052 78.9118 55.6186 77.1192 57.5366 73.6889C58.7507 71.2612 61.569 69.6018 63.016 67.2333C65.3378 64.0769 68.0061 62.3589 70.4524 59.3763C71.7412 55.0753 72.0146 51.056 75.5317 47.8781C78.8628 44.7606 84.067 46.0786 88.6329 44.1769C91.8709 42.311 94.1451 39.5411 97.0651 37.4732C100.692 35.2452 104.959 33.7189 107.947 30.4513C108.859 32.4441 113.579 33.308 113.891 33.0788C116.351 33.0626 116.402 30.5828 118.4 31.3653C121.503 32.5602 124.638 32.5026 127.241 31.6152C130.613 33.1288 135.673 32.2108 137.506 31.9252C137.724 32.3033 139.438 33.3099 138.996 34.9423C137.339 41.0632 143.897 47.53 149.818 48.3838C150.946 48.4275 154.159 48.6719 155.064 48.5436C156.104 48.6443 157.351 49.1261 158.494 48.907C159.086 51.8414 160.317 53.7065 162.552 55.7134C167.244 60.437 176.591 60.3538 182.705 59.358C183.718 64.7944 187.545 67.7447 192.387 70.6703C195.285 78.8826 190.242 82.3647 194.551 86.5302C194.367 87.5367 195.257 90.6067 197.124 90.2365C198.057 91.5316 199.096 93.0438 197.945 94.8306L197.945 94.8306Z" stroke="white" stroke-width="6.98097" stroke-linejoin="round"/>
<path d="M188.626 116.607C187.233 114.892 186.767 115.854 186.378 112.755C188.186 111.653 186.17 109.547 184.199 109.562C182.477 107.723 183.479 106.524 182.987 104.25C182.393 102.533 182.342 100.328 182.701 98.459C183.395 95.9178 182.435 92.7052 179.179 94.5839C178.689 94.789 176.914 93.9596 176.663 93.8238C176.189 90.9761 176.129 87.606 172.705 91.1908C171.367 90.5901 170.479 91.7963 169.426 91.8709C167.59 90.8396 166.487 88.971 164.242 88.4561C162.932 86.5711 159.831 91.0127 158.816 90.6901C156.501 89.9542 157.54 88.0371 157.078 87.2859C156.408 86.0405 155.88 85.8238 154.823 84.8719C152.049 82.3742 150.443 81.3175 147.182 85.5123C144.509 88.6697 139.757 85.9909 139.838 82.9141C140.321 82.5008 140.732 81.503 139.992 81.0043C139.62 80.675 139.005 80.864 138.538 81.0651C135.661 82.152 132.53 79.7902 130.963 76.9722C129.724 76.5345 130.297 74.7886 129.766 73.7485C129.03 73.0589 127.922 73.4293 127.84 72.2106C128.445 71.0757 127.548 68.5176 126.122 70.0414C121.007 72.0368 109.713 72.6372 105.167 69.195C104.576 67.9646 103.853 67.8869 102.682 67.3001C102.514 66.638 102.386 64.5818 101.368 65.0098C100.186 67.1705 97.5165 67.7486 95.1373 68.2769C93.1618 69.1951 88.4138 65.1952 87.2671 67.5225C81.8626 69.4688 81.9007 79.1296 74.5243 76.3943C73.9714 75.3252 72.1399 74.8696 72.1746 76.468C69.145 83.5147 66.5016 78.7418 67.6866 84.312C67.6615 85.6537 66.4427 87.2923 65.6751 88.3365C64.0812 88.4859 60.7577 88.9517 62.6256 91.2449C62.9467 93.1718 62.5312 95.3297 62.5889 97.3372C61.9464 99.1156 61.3245 101.204 61.6265 103.078C62.1833 106.533 60.4903 107.926 60.4233 110.668C56.4032 109.192 57.4508 115.238 57.9598 115.874C58.443 117.547 58.9733 117.066 59.8326 117.821C60.025 118.98 60.7104 120.337 61.4257 121.222C62.2058 122.521 63.0414 126.643 64.8621 127.669C70.1167 130.627 67.3447 132.894 68.7892 137.533C69.0455 142.012 70.5266 145.473 73.8784 147.979C75.0974 149.084 76.166 153.202 78.0434 152.586C78.432 152.502 79.8002 151.645 80.0551 151.915C80.7915 152.853 80.941 153.051 81.8309 153.054C83.5398 155.318 87.9212 153.473 87.7069 155.633C87.5334 157.381 88.193 158.147 90.3097 160.42C91.4116 164.82 92.4777 163.791 95.0097 166.439C94.347 167.774 98.7262 171.889 99.6381 171.05C100.665 170.472 104.268 171.23 103.285 170.508C104.144 171.139 104.429 172.616 105.621 172.535C106.971 172.739 108.483 173.95 109.924 173.348C110.807 174.801 113.36 171.633 113.7 170.685C114.596 171.027 116.516 172.239 116.989 172.398C117.7 172.637 119.711 173.485 121.285 173.138C122.544 172.861 123.47 173.98 127.07 173.249C129.819 172.533 132.767 171.268 132.905 168.833C135.579 170.047 135.491 169.607 137.927 168.578C138.198 168.723 139.174 168.267 139.334 168.264C139.982 170.288 145.486 171.318 149.09 169.089C150.728 168.076 151.878 165.841 152.17 163.684C152.813 163.507 152.728 161.987 154.062 160.446C156.314 158.851 159.221 160.888 161.52 159.187C162.223 158.55 164.097 159.171 164.597 158.519C168.29 157.742 167.715 154.95 168.193 152.231C168.938 151.398 169.613 151.422 170.421 150.181C171.824 147.26 171.385 145.831 174.975 144.182C176.518 143.662 178.441 144.093 179.743 142.566C180.541 142.666 182.245 141.75 181.597 141.27C182.808 139.786 181.165 139.516 181.027 138.125C182.853 138.7 182.875 136.195 182.566 135.046C183.352 133.909 187.594 131.94 186.66 130.896C184.729 127.625 183.114 120.375 187.331 118.413C188.128 118.301 189.344 117.858 188.626 116.607L188.626 116.607Z" fill="#7D98CE"/>
<path d="M57.768 84.8292C57.6554 84.8457 57.5503 84.8394 57.4582 84.8228C57.3708 84.8072 56.5927 84.6393 56.7146 83.6555C56.7289 83.4068 56.6557 83.1504 56.5709 82.8529C56.4348 82.3762 56.2691 81.7946 56.4233 81.1151C56.3124 81.1133 56.2169 81.0983 56.1408 81.0802C55.8321 81.0066 55.5862 80.7971 55.4666 80.5056C55.3681 80.2651 55.365 79.9995 55.4586 79.702C55.4003 79.5391 55.3792 79.3649 55.3884 79.1865C55.298 79.1722 55.2105 79.1485 55.1255 79.1152C54.7971 78.9864 54.5567 78.7286 54.4482 78.3891C54.303 77.936 54.4101 77.3579 54.7664 76.6649C54.6818 76.5076 54.6286 76.3339 54.6105 76.1481C54.5812 75.8463 54.6521 75.5315 54.8084 75.2346C54.6098 75.1245 54.4545 74.951 54.3753 74.7317C54.0713 73.8818 54.788 73.0573 55.5582 72.5377C55.5457 72.1589 55.6392 71.788 55.8345 71.4817C56.0899 71.082 56.4846 70.8234 56.9665 70.7338C57.3378 69.9512 58.0479 69.266 58.9125 69.1901C59.8418 68.8714 61.0446 68.9499 61.7437 69.589C62.9551 69.9405 63.3264 70.7412 63.4194 71.3731C63.5512 72.2688 63.1946 73.3072 62.489 74.0834C61.9818 74.6411 61.3478 75.0086 60.6819 75.144C60.6909 75.222 60.6919 75.3031 60.6837 75.3872C60.6245 75.9815 60.3099 76.3905 60.0572 76.7189C59.864 76.9699 59.7445 77.1327 59.7209 77.3107C59.7152 77.3724 59.7115 77.5408 59.7052 77.743C59.6652 79.073 59.6531 79.4744 59.2306 79.7706C59.0634 79.887 58.8697 79.9463 58.6772 79.9453C58.6336 80.1086 58.58 80.2659 58.5196 80.4099C58.661 81.2475 59.0142 83.6411 58.5632 84.2478C58.301 84.6443 58.0162 84.7926 57.768 84.8291L57.768 84.8292ZM56.7934 75.1919L56.7932 75.1925L56.7934 75.1919Z" fill="#7D98CE"/>
<path d="M195.458 70.5794C190.101 65.2512 186.655 60.751 184.302 59.0715C178.949 55.2522 178.287 59.4996 166.821 55.3572C165.669 52.2953 162.327 51.1117 160.761 48.0095C158.931 47.2813 157.75 45.1626 156.101 46.3105C154.056 47.7341 147.048 47.06 143.07 42.3074C142.231 41.3057 141.831 38.9001 140.315 38.7839C137.955 39.557 140.382 35.71 137.345 35.4259C136.691 35.2663 132.447 35.9684 133.797 37.8648C131.851 38.3365 133.569 36.4013 130.26 35.5974C126.588 34.7056 130.166 39.5972 126.026 38.9532C124.879 37.5021 122.339 37.1921 121.216 37.829C120.153 35.6524 119.158 38.98 115.168 35.6435C113.207 35.3243 111.813 38.2821 110.018 37.1935C107.11 35.2354 106.102 39.8279 104.045 39.3884C100.851 38.0483 102.712 41.9223 100.524 42.7819C99.2813 44.1982 97.9043 44.4108 96.1703 44.907C95.4941 46.9334 90.4692 45.5954 90.2198 48.3079C85.2558 45.4661 86.1522 49.9707 80.958 49.0048C77.0052 52.3367 81.4706 50.6989 75.9739 53.2198C76.3366 54.8588 74.4407 54.3761 73.8081 55.0603C72.6779 56.3234 74.1624 58.8747 75.9834 58.4485C78.1779 57.5483 79.3816 55.3185 81.6179 56.2736C83.4643 55.5567 85.1526 54.0776 86.426 52.9152C87.7845 50.7909 90.5794 54.6025 93.9879 51.6967C96.4646 47.7932 98.6212 51.7321 101.91 49.2048C106.102 47.3114 104.732 45.3095 111.163 46.6249C113.184 47.0382 115.683 45.279 117.107 45.2202C119.46 45.1231 118.334 47.7968 124.086 46.5264C126.188 46.0621 123.828 50.1669 126.589 49.5878C131.6 50.6066 130.34 47.479 133.379 51.3098C134.865 50.5841 137.545 50.9965 137.525 52.8207C139.98 56.0333 144.1 54.3954 147.666 54.7174C149.06 52.0045 151.211 54.3067 153.131 52.2214C153.131 55.8269 154.856 53.614 155.931 54.6727C156.977 56.2051 158.398 59.1878 161.374 61.4009C162.8 62.4606 168.516 63.9324 170.263 63.1263C170.912 64.4947 172.14 62.5557 172.962 62.7056C173.796 63.8877 176.316 63.2555 177.237 62.4674C176.88 63.9993 179.657 62.2125 179.542 63.0759C178.837 68.3757 185.983 66.8259 184.372 72.1213C182.594 72.6891 181.453 73.7667 180.147 72.9549C178.63 72.0117 176.956 70.339 175.189 72.4118C174.466 73.2606 175.312 76.1752 178.547 75.5362C178.953 76.5962 181.402 74.6922 181.616 76.1645C181.919 78.2553 185.901 77.5426 188.057 76.9873C192.859 75.7507 196.256 78.4109 195.458 70.5794L195.458 70.5794Z" fill="#7D98CE"/>
<path d="M168.826 143.91C167.807 144.321 167.518 145.478 166.975 146.205C165.453 147.615 163.178 150.163 161.243 149.814C158.917 149.765 155.479 149.447 153.84 151.15C149.376 153.417 145.774 157.178 143.039 161.948C142.424 163.835 141.561 163.233 140.251 163.789C137.626 167.851 146.599 169.031 148.926 167C152.072 149.758 162.007 162.047 164.849 153.854C166.185 150.489 170.011 150.277 170.547 145.98C171.82 144.962 169.344 143.304 168.826 143.91Z" fill="#4B6CB3" stroke="#4B6CB3" stroke-width="0.28346" stroke-miterlimit="10"/>
<path d="M95.1422 153.643C94.5634 152.505 94.3213 151.045 93.2274 150.179C92.6265 149.576 92.2702 149.25 92.2544 148.46C92.2205 144.031 87.8993 146.971 85.7149 145.507C85.4207 143.358 82.7251 144.261 81.3312 144.194C80.8453 143.899 79.5703 142.97 79.5142 142.398C79.3846 141.885 79.1884 141.109 78.471 140.769C77.4757 140.299 75.8621 137.534 75.1817 135.576C75.3212 135.247 75.1966 134.816 74.9146 134.609C74.5271 130.702 71.672 132.888 71.1099 135.319C69.1465 140.326 72.7534 141.014 74.6381 143.965C78.9808 150.305 77.5785 149.458 80.7153 149.331C80.9923 150.182 82.3095 150.021 82.3689 149.136C84.8185 148.455 85.4804 149.458 86.8701 151.542C86.6308 152.388 88.6874 153.402 88.8412 151.935C88.946 151.916 89.0512 151.905 89.1377 151.902C92.7064 160.2 99.1361 157.773 95.1422 153.643L95.1422 153.643Z" fill="#4B6CB3" stroke="#4B6CB3" stroke-width="0.28346" stroke-miterlimit="10"/>
<path d="M202.029 99.5889C201.835 99.4533 201.561 99.2625 201.406 99.1324C201.238 96.8954 203.718 94.5968 202.823 91.7974C202.589 90.8232 200.906 86.4774 198.379 85.8473C197.999 84.6627 198.11 83.7489 197.549 83.1199C198.101 79.7837 198.492 75.8619 197.233 72.3523C198.441 72.1555 198.251 69.3595 196.446 67.6939C195.009 66.3682 192.086 66.1747 191.363 65.5785C188.83 63.4911 188.122 60.5427 186.879 57.7421C186.196 56.2011 186.662 54.4445 184.538 54.0905C183.137 54.2054 181.496 55.3618 180.148 55.3577C172.236 55.3501 168.333 55.0855 162.927 49.6137C161.148 44.4054 160.875 43.7081 157.89 44.4683C156.45 44.2737 155.033 43.9339 153.664 44.5787C152.528 45.079 147.844 43.7803 146.878 43.3742C146.545 42.9593 144.323 41.268 143.87 40.8365C140.636 38.9078 145.61 30.34 142.631 32.1214C141.923 32.5452 140.506 31.1211 140.8 29.1343C140.981 27.9091 138.424 28.9466 137.738 29.139C136.09 29.4659 134.35 28.934 132.637 28.9293C129.975 27.8588 127.234 26.3371 124.172 27.8254C119.916 27.8708 116.868 25.0762 113.306 28.5744C112.579 28.4411 112.039 28.4346 111.69 27.9353C109.558 24.915 105.856 25.4718 103.538 28.509C100.845 30.7006 97.4751 31.8618 94.5118 33.8177C91.6145 35.8116 89.3254 38.594 86.392 40.3214C75.2796 41.6247 69.2139 43.2526 66.5146 57.0434C65.6447 57.4326 64.9403 58.732 64.3602 59.5352C61.2405 61.3399 59.3556 65.1907 56.8189 67.6645C53.8206 70.1289 51.9425 73.936 51.1954 77.807C51.1335 81.2721 52.9513 83.9416 53.9534 86.8817C54.075 88.9129 54.6251 91.3831 54.9994 93.3555C54.8904 98.2454 50.4046 102.982 48.9382 107.852C48.1433 110.437 49.8147 112.295 49.3328 114.281C48.0821 116.836 49.8587 122.538 51.3457 124.132C51.4739 126.061 52.1765 128.032 53.3535 129.707C53.6441 130.726 53.7617 131.67 54.5079 132.759C55.2801 133.949 56.7849 134.76 56.6927 136.103C56.8837 137.555 57.7884 138.506 58.2424 139.61C59.3614 143.484 58.4572 147.894 60.9268 151.464C62.6975 153.304 64.4883 152.34 65.7161 154.614C67.5069 158.79 69.1869 165.144 75.7011 164.213C83.6251 163.082 79.4452 171.983 83.9394 174.409C84.7847 175.266 85.9662 178.344 87.8862 177.717C89.0529 178.173 89.9129 178.06 90.8201 178.066C92.7672 180.576 95.7988 179.638 98.2227 181.215C101.537 182.433 102.874 186.127 107.594 184.369C110.229 187.211 114.408 186.613 116.755 185.01C121.908 183.619 128.838 183.299 134.058 182.067C141.085 180.65 145.828 183.266 151.771 181.37C157.306 179.448 160.041 171.292 164.3 168.135C167.543 166.673 171.636 165.415 175.011 164.106C181.911 163.769 184.13 159.093 185.773 153.08C188.348 150.373 194.007 152.069 194.49 147.038C199.135 137.44 200.356 142.8 199.578 130.453C199.845 127.558 199.905 123.501 200.398 120.727C200.729 118.949 201.474 116.058 201.593 114.147C201.959 110.94 203.588 108.427 204.066 105.299C205.226 103.165 203.782 100.352 202.029 99.5889L202.029 99.5889ZM197.945 94.8305C196.392 97.1796 196.469 102.164 199.932 103.569C199.108 107.271 197.117 111.368 196.621 115.058C195.015 117.563 195.479 121.233 195.172 124.24C192.846 127.669 195.551 132.702 195.114 136.637C194.246 139.457 188.896 142.953 188.574 146.238C179.032 147.962 181.914 153.906 176.566 158.827C169.239 161.335 161.984 162.003 157.391 169.049C155.802 170.589 153.012 175.251 151.035 175.831C146.533 176.962 143.859 176.914 137.932 177.043C132.87 177.467 127.493 178.002 122.517 178.632C119.804 179.295 116.279 179.736 113.991 181.36C109.455 181.276 112.746 178.84 103.443 178.856C99.4747 174.589 94.7718 175.599 94.7718 175.599C94.0797 174.46 88.3523 171.569 87.4127 172.068C83.1438 169.024 87.0769 164.456 82.8694 160.648C79.9643 157.727 75.724 160.195 73.2361 159.811C69.9947 156.222 70.6243 149.555 64.18 148.382C63.0279 144.59 63.706 139.908 61.5807 136.379C61.1943 135.765 61.0113 135.377 61.0016 134.758C60.3017 131.445 57.782 130.823 57.3323 127.697C57.462 126.768 56.9898 125.848 56.1542 125.414C55.7014 124.017 55.8154 121.793 54.508 120.91C52.144 115.397 54.8254 115.337 53.5047 111.015C52.0833 106.758 59.7901 100.238 59.4572 93.3364C58.7604 89.6468 58.7366 86.0823 57.0636 82.671C55.0052 78.9118 55.6186 77.1192 57.5366 73.6889C58.7508 71.2612 61.569 69.6018 63.016 67.2332C65.3379 64.0768 68.0061 62.3589 70.4524 59.3763C71.7412 55.0752 72.0146 51.056 75.5318 47.8781C78.8628 44.7606 84.067 46.0785 88.6329 44.1769C91.8709 42.311 94.1451 39.5411 97.0651 37.4731C100.692 35.2452 104.959 33.7188 107.947 30.4513C108.859 32.4441 113.579 33.308 113.891 33.0788C116.351 33.0625 116.402 30.5827 118.4 31.3653C121.503 32.5602 124.638 32.5026 127.241 31.6152C130.613 33.1288 135.673 32.2108 137.506 31.9252C137.724 32.3032 139.438 33.3098 138.996 34.9423C137.339 41.0632 143.897 47.5299 149.818 48.3838C150.946 48.4274 154.159 48.6719 155.064 48.5435C156.104 48.6443 157.351 49.126 158.494 48.9069C159.086 51.8414 160.317 53.7065 162.552 55.7133C167.244 60.4369 176.591 60.3538 182.705 59.3579C183.718 64.7944 187.545 67.7447 192.387 70.6702C195.285 78.8825 190.242 82.3646 194.551 86.5302C194.367 87.5367 195.257 90.6066 197.124 90.2365C198.058 91.5316 199.096 93.0437 197.945 94.8305L197.945 94.8305Z" fill="#000003"/>
<path d="M187.011 41.7523C185.868 41.6157 186.436 39.7647 186.428 38.9906C186.575 38.053 187.306 37.731 187.728 37.0488C188.626 36.8613 189.961 36.3507 190.221 35.3137C191.013 35.5806 191.621 34.5202 192.185 34.3395C193.245 34.2606 194.308 33.3834 195.42 34.1263C195.563 34.4343 195.818 34.6899 196.16 34.7561C196.007 35.0633 196.1 35.4474 196.37 35.6758C192.676 38.1729 193.583 40.2412 190.836 43.0811C188.884 43.7903 188.571 41.9623 187.011 41.7523L187.011 41.7523Z" fill="#4B6CB3" stroke="#4B6CB3" stroke-width="2.50052" stroke-linejoin="round"/>
<path d="M190.439 41.3714C190.306 41.391 190.167 41.3894 190.024 41.3657C190.012 41.3637 190 41.3618 189.989 41.3593C189.853 41.3791 189.711 41.3822 189.566 41.3678C189.39 41.4504 189.215 41.5072 189.048 41.5317C188.539 41.6066 188.145 41.2148 187.897 40.8513C187.664 40.6125 187.523 40.3089 187.486 39.9671C187.419 39.6845 187.439 39.4592 187.496 39.2833C187.484 39.2052 187.48 39.1231 187.484 39.0367C187.497 38.7818 187.598 38.5611 187.743 38.3727C187.78 38.1864 187.853 38.0092 187.971 37.8507C188.205 37.5364 189.291 36.7538 190.06 36.6848C190.467 36.6482 190.727 36.8033 190.874 36.9398C191.028 37.0834 191.156 37.2617 191.258 37.4625C191.936 38.0428 192.016 38.9622 191.461 39.8571C191.459 39.8686 191.456 39.8796 191.453 39.8909C191.475 40.2576 191.424 40.6246 191.22 40.8994C191.023 41.1636 190.75 41.3257 190.439 41.3714L190.439 41.3714Z" fill="#7D98CE"/>
<path d="M198.954 35.6119C198.363 34.8802 197.683 34.9052 197.076 34.3749C197.477 33.6019 196.942 33.0195 196.211 32.8999C195.849 31.8051 192.953 32.561 192.69 32.649C192.07 31.5043 190.965 32.3519 190.099 33.3816C188.863 32.6189 188.109 34.1545 187.858 35.1351C184.005 35.7968 183.582 40.0673 185.617 42.7346C186.655 43.3633 187.409 43.3054 188.15 44.3242C188.281 45.6648 190.276 46.3547 191.416 46.2756C197.177 45.9574 194.213 40.6135 197.204 38.1302C197.74 37.4685 199.464 36.6392 198.954 35.6119ZM187.011 41.7523C185.868 41.6157 186.436 39.7647 186.428 38.9906C186.575 38.0531 187.306 37.731 187.728 37.0488C188.626 36.8613 189.961 36.3507 190.221 35.3137C191.013 35.5806 191.621 34.5202 192.185 34.3395C193.245 34.2606 194.308 33.3834 195.42 34.1263C195.563 34.4343 195.818 34.6899 196.16 34.7561C196.007 35.0633 196.1 35.4474 196.37 35.6758C192.676 38.173 193.583 40.2412 190.836 43.0811C188.884 43.7903 188.571 41.9623 187.011 41.7523L187.011 41.7523Z" fill="#000003"/>
<path d="M182.7 21.5854C182.237 21.0633 180.461 20.6244 179.81 20.6757C180.095 20.0924 180.251 18.5937 179.935 17.8699C180.328 17.9303 181.462 16.9662 181.774 16.8343C182.394 17.4242 183.023 19.0719 183.302 18.7155C183.448 18.9765 183.55 19.2476 183.538 19.5337C183.536 19.5973 183.549 19.6521 183.566 19.7049C183.514 19.8749 183.508 20.1177 183.584 20.457C183.082 20.5951 182.828 21.101 182.7 21.5854L182.7 21.5854Z" fill="#4B6CB3" stroke="#4B6CB3" stroke-width="2.83465" stroke-linejoin="round"/>
<path d="M183.509 18.8106C183.426 18.7805 183.092 18.6864 182.809 18.9819L182.798 18.9846C182.271 19.1238 182.182 19.84 182.251 20.1924C182.338 20.6321 182.689 20.9089 183.086 20.8505C183.521 20.7865 184.019 20.1854 184.055 19.6808C184.082 19.2881 183.863 18.9384 183.509 18.8106L183.509 18.8106Z" fill="#7D98CE"/>
<path d="M184.468 19.7529C184.477 19.7194 184.492 19.6913 184.494 19.6517C184.529 18.7772 184.048 18.1976 183.629 17.5183C183.636 16.8169 183.412 16.0571 182.943 15.7183C182.286 15.3063 179.503 14.6856 179.51 16.0799C177.111 16.6359 177.18 19.0555 178.699 20.177C178.12 20.8311 177.512 22.336 179.049 22.3458C179.678 22.1513 180.722 21.8179 181.293 21.7287C182.519 23.4828 184.063 23.7807 184.622 21.4184C184.902 20.7055 184.742 20.1075 184.468 19.7529ZM182.7 21.5854C182.237 21.0633 180.461 20.6244 179.81 20.6757C180.095 20.0924 180.251 18.5937 179.935 17.8699C180.328 17.9303 181.462 16.9662 181.774 16.8343C182.394 17.4242 183.023 19.0719 183.302 18.7155C183.448 18.9765 183.55 19.2476 183.538 19.5337C183.536 19.5973 183.549 19.6521 183.566 19.7049C183.514 19.8749 183.508 20.1177 183.585 20.457C183.082 20.5951 182.828 21.101 182.7 21.5854L182.7 21.5854Z" fill="#000003"/>
<path d="M171.605 30.9976C173.174 31.4396 173.413 30.1761 174.161 28.9785C173.001 27.8276 174.566 27.3566 175.115 26.8992C174.941 26.551 174.71 26.2186 174.606 25.7947C174.211 25.9071 173.748 25.6148 173.688 25.1957C172.09 24.4633 171.12 26.6538 169.578 24.9434C169.174 25.5857 168.525 26.0481 167.566 26.547L167.946 26.8286L167.937 26.841C168.266 27.5401 168.224 27.8416 168.861 28.5677C169.319 28.5672 169.567 28.9841 169.703 29.3732C171.077 28.907 170.623 31.2388 171.605 30.9976L171.605 30.9976Z" fill="#4B6CB3" stroke="#4B6CB3" stroke-width="2.49847" stroke-linejoin="round"/>
<path d="M175.165 24.8671C174.989 24.6307 174.57 24.2545 173.782 24.4056C172.859 24.5787 171.647 25.4277 171.382 26.369C171.247 26.851 171.352 27.3284 171.694 27.7118C171.778 28.3 172.122 28.6051 172.469 28.6961C172.615 28.7344 172.76 28.7402 172.902 28.7193C173.127 28.6862 173.345 28.5869 173.548 28.4464C173.807 28.3564 174.088 28.1846 174.382 27.9067C175.247 27.0881 175.815 25.7445 175.165 24.8671L175.165 24.8671Z" fill="#7D98CE"/>
<path d="M172.072 33.4649C171.763 33.5105 171.511 33.3895 171.292 33.2022C170.428 33.4672 169.563 32.3016 169.187 31.5558C168.54 31.0612 167.608 30.9804 167.666 29.9926C167.398 29.9366 167.22 29.8526 167.031 29.5484C166.365 29.6835 166.158 29.0414 165.943 28.5564C165.159 27.9216 165.406 27.2973 165.598 26.2823C165.158 24.7823 167.033 24.414 168.088 24.0795C167.814 23.272 168.102 22.1803 169.296 22.5102C170.019 22.7173 170.356 23.9191 171.024 24.1398C172.173 23.3682 173.824 23.0408 175.218 24.5439C177.626 24.9017 177.257 28.452 176.097 29.9791C176.989 31.6484 174.248 33.4935 172.757 32.9158C172.569 33.3479 172.245 33.4348 172.072 33.4649L172.072 33.4649ZM171.605 30.9976C173.174 31.4396 173.413 30.1761 174.161 28.9785C173.001 27.8276 174.566 27.3566 175.115 26.8992C174.941 26.551 174.71 26.2186 174.606 25.7947C174.211 25.9071 173.748 25.6148 173.688 25.1957C172.09 24.4633 171.12 26.6538 169.578 24.9434C169.174 25.5857 168.525 26.0481 167.566 26.547L167.946 26.8286L167.937 26.841C168.266 27.5401 168.224 27.8416 168.861 28.5677C169.319 28.5672 169.567 28.9841 169.703 29.3732C171.077 28.907 170.623 31.2388 171.605 30.9976L171.605 30.9976Z" fill="#000003"/>
</g>
<defs>
<filter id="filter0_d_164_927" x="0.742554" y="0.117523" width="352.881" height="352.881" filterUnits="userSpaceOnUse" color-interpolation-filters="sRGB">
<feFlood flood-opacity="0" result="BackgroundImageFix"/>
<feColorMatrix in="SourceAlpha" type="matrix" values="0 0 0 0 0 0 0 0 0 0 0 0 0 0 0 0 0 0 127 0" result="hardAlpha"/>
<feMorphology radius="20" operator="dilate" in="SourceAlpha" result="effect1_dropShadow_164_927"/>
<feOffset dx="36" dy="56"/>
<feGaussianBlur stdDeviation="50"/>
<feComposite in2="hardAlpha" operator="out"/>
<feColorMatrix type="matrix" values="0 0 0 0 0.294118 0 0 0 0 0.423529 0 0 0 0 0.701961 0 0 0 0.5 0"/>
<feBlend mode="normal" in2="BackgroundImageFix" result="effect1_dropShadow_164_927"/>
<feBlend mode="normal" in="SourceGraphic" in2="effect1_dropShadow_164_927" result="shape"/>
</filter>
<clipPath id="clip0_164_927">
<rect width="160.381" height="160.381" fill="white" transform="translate(37 36.3435) rotate(-8.36915)"/>
</clipPath>
</defs>
</svg>
