<svg width="551" height="205" viewBox="0 0 551 205" fill="none" xmlns="http://www.w3.org/2000/svg">
<g clip-path="url(#clip0_2_119)">
<path d="M134.124 156.968C136.896 156.754 136.421 161.38 136.803 163.199C136.898 165.475 135.319 166.576 134.641 168.38C132.604 169.242 129.685 171.07 129.557 173.633C127.555 173.376 126.616 176.158 125.365 176.848C122.894 177.529 120.79 180.093 117.807 178.864C117.325 178.206 116.602 177.723 115.761 177.727C115.979 176.932 115.577 176.071 114.83 175.66C122.4 168.049 119.281 163.603 124.445 155.629C128.732 153.045 130.333 157.204 134.124 156.968H134.124Z" fill="#4B6CB3" stroke="#4B6CB3" stroke-width="2.50052" stroke-linejoin="round"/>
<path d="M126.19 159.469C126.495 159.361 126.824 159.3 127.175 159.289C127.203 159.288 127.233 159.287 127.261 159.287C127.574 159.177 127.907 159.103 128.258 159.069C128.636 158.792 129.024 158.577 129.407 158.441C130.577 158.026 131.693 158.765 132.453 159.504C133.115 159.958 133.592 160.607 133.841 161.394C134.132 162.028 134.192 162.568 134.139 163.009C134.203 163.188 134.253 163.379 134.282 163.585C134.372 164.191 134.238 164.758 133.982 165.27C133.982 165.726 133.892 166.177 133.689 166.605C133.281 167.456 131.08 169.807 129.293 170.329C128.346 170.606 127.657 170.363 127.245 170.11C126.813 169.844 126.427 169.484 126.091 169.059C124.213 168.009 123.591 165.882 124.482 163.514C124.483 163.486 124.485 163.459 124.487 163.431C124.262 162.578 124.211 161.689 124.564 160.947C124.905 160.232 125.476 159.723 126.19 159.469H126.19Z" fill="#7D98CE"/>
<path d="M108.391 178.047C110.134 179.494 111.732 179.117 113.418 180.082C112.833 182.09 114.375 183.21 116.161 183.15C117.533 185.559 124.033 182.423 124.613 182.093C126.62 184.498 128.837 181.985 130.401 179.154C133.687 180.372 134.749 176.402 134.88 173.976C143.69 170.614 142.681 160.358 136.61 155.029C133.858 154.035 132.099 154.524 129.865 152.472C128.926 149.375 123.877 148.685 121.217 149.405C107.729 152.851 117.26 164.049 111.349 171.297C110.392 173.107 106.701 175.867 108.391 178.047H108.391ZM133.772 157.995C136.543 157.782 136.068 162.407 136.451 164.226C136.546 166.503 134.967 167.604 134.288 169.408C132.252 170.27 129.332 172.097 129.205 174.661C127.202 174.404 126.263 177.185 125.012 177.875C122.542 178.557 120.438 181.12 117.455 179.892C116.973 179.233 116.249 178.75 115.408 178.755C115.626 177.959 115.225 177.099 114.478 176.687C122.048 169.077 118.928 164.63 124.092 156.657C128.379 154.073 129.98 158.231 133.772 157.995H133.772Z" fill="#000003"/>
<path d="M484.613 133.145C485.955 134.157 490.365 134.36 491.882 133.934C491.482 135.441 491.818 139.044 492.906 140.601C491.947 140.642 489.717 143.443 489.04 143.901C487.294 142.802 485.031 139.215 484.538 140.185C484.07 139.639 483.7 139.048 483.593 138.369C483.57 138.218 483.512 138.095 483.449 137.979C483.491 137.554 483.39 136.98 483.05 136.216C484.175 135.656 484.537 134.346 484.613 133.145Z" fill="#4B6CB3" stroke="#4B6CB3" stroke-width="2.83465" stroke-linejoin="round"/>
<path d="M484.003 140.058C484.215 140.09 485.049 140.155 485.579 139.327L485.604 139.316C486.787 138.741 486.661 137.013 486.33 136.215C485.918 135.221 484.956 134.733 484.044 135.056C483.044 135.411 482.149 137.059 482.302 138.264C482.421 139.202 483.104 139.923 484.003 140.058Z" fill="#7D98CE"/>
<path d="M481.289 138.288C481.284 138.371 481.262 138.444 481.277 138.538C481.603 140.615 483.016 141.754 484.327 143.158C484.642 144.813 485.528 146.498 486.799 147.076C488.548 147.738 495.427 147.897 494.755 144.617C500.171 142.185 498.869 136.519 494.745 134.589C495.809 132.777 496.539 128.949 492.896 129.645C491.498 130.397 489.186 131.671 487.876 132.148C484.148 128.592 480.352 128.613 480.141 134.438C479.813 136.248 480.473 137.582 481.289 138.288ZM484.613 133.145C485.955 134.157 490.365 134.36 491.882 133.934C491.482 135.441 491.818 139.044 492.906 140.601C491.947 140.642 489.717 143.443 489.04 143.901C487.294 142.802 485.031 139.215 484.538 140.185C484.07 139.639 483.7 139.048 483.593 138.369C483.57 138.218 483.512 138.095 483.449 137.979C483.491 137.554 483.39 136.98 483.05 136.216C484.175 135.656 484.537 134.346 484.613 133.145Z" fill="#000003"/>
<path d="M156.17 177.414C152.247 177.107 152.278 180.194 151.071 183.365C154.358 185.532 150.874 187.375 149.79 188.709C150.367 189.447 151.069 190.122 151.515 191.072C152.398 190.622 153.629 191.094 153.969 192.053C158.097 193.029 159.362 187.417 163.817 190.722C164.471 189.021 165.791 187.628 167.824 186.004L166.793 185.519L166.809 185.485C165.701 183.993 165.658 183.263 163.81 181.851C162.724 182.067 161.941 181.202 161.437 180.349C158.403 182.09 158.381 176.386 156.17 177.414H156.17Z" fill="#4B6CB3" stroke="#4B6CB3" stroke-width="2.49847" stroke-linejoin="round"/>
<path d="M150.629 193.518C151.155 193.992 152.325 194.682 154.12 193.957C156.222 193.118 158.691 190.551 158.875 188.21C158.968 187.011 158.496 185.936 157.505 185.194C157.031 183.847 156.071 183.29 155.209 183.238C154.845 183.216 154.498 183.27 154.171 183.387C153.655 183.569 153.186 183.905 152.771 184.331C152.2 184.665 151.616 185.201 151.051 185.993C149.389 188.326 148.677 191.756 150.629 193.518H150.629Z" fill="#7D98CE"/>
<path d="M153.903 171.822C154.615 171.569 155.268 171.736 155.875 172.075C157.795 171.046 160.391 173.386 161.63 174.967C163.395 175.829 165.639 175.583 165.968 177.936C166.627 177.943 167.088 178.058 167.679 178.685C169.191 178.055 169.985 179.47 170.722 180.512C172.875 181.64 172.585 183.226 172.608 185.706C174.355 189.033 170.089 190.778 167.751 192.06C168.78 193.833 168.611 196.539 165.63 196.321C163.82 196.172 162.458 193.499 160.773 193.292C158.416 195.647 154.661 197.191 150.655 194.304C144.787 194.588 143.99 186.054 146.017 181.915C143.12 178.401 148.738 172.773 152.542 173.435C152.782 172.33 153.508 171.973 153.903 171.822ZM156.17 177.414C152.247 177.107 152.278 180.194 151.071 183.365C154.358 185.532 150.874 187.375 149.79 188.709C150.367 189.447 151.069 190.122 151.515 191.072C152.398 190.622 153.629 191.094 153.969 192.053C158.097 193.029 159.362 187.417 163.817 190.722C164.471 189.021 165.791 187.628 167.824 186.004L166.793 185.519L166.809 185.485C165.701 183.993 165.657 183.263 163.81 181.851C162.724 182.067 161.941 181.202 161.437 180.349C158.403 182.09 158.381 176.386 156.17 177.414H156.17Z" fill="#000003"/>
<path d="M106.719 83.532C106.029 82.8952 105.343 82.785 104.892 82.8076C103.834 82.8567 103.173 83.5943 102.736 84.0812C102.643 84.1847 102.554 84.2882 102.462 84.3704C99.174 87.2945 97.0825 90.9893 95.0602 94.5634C94.6855 95.2241 94.3115 95.8848 93.9301 96.5402C91.8412 100.13 90.3217 103.986 88.9443 107.812L88.9222 107.544C88.5735 103.351 88.2135 99.0172 87.9401 94.7571C87.8201 92.8812 87.9495 90.9548 88.1068 89.1518C88.2342 87.6965 88.4289 86.2053 88.6169 84.7631C88.7542 83.7071 88.8923 82.651 89.0076 81.5924C89.8877 73.5234 90.7518 65.4531 91.6072 57.3815C92.1759 52.0137 92.6513 46.5543 93.1107 41.2741C93.9561 31.5574 94.8302 21.5103 96.317 11.7167C96.4757 10.6765 96.4544 9.56874 96.257 8.51667C95.787 6.0039 94.8095 4.33095 93.268 3.40094C91.7132 2.46163 89.7516 2.37143 87.2741 3.12499C84.1884 4.06163 81.4848 5.91105 79.0072 8.77672C76.4509 11.7366 74.0506 14.8822 71.7297 17.9256L71.5177 18.2029C62.2054 30.4098 55.9374 41.3922 51.7909 52.7659C50.6301 55.95 49.5173 59.2044 48.4419 62.35C48.2812 62.8196 48.1205 63.2893 47.9598 63.7576C47.9405 63.3954 47.9165 63.0332 47.8865 62.671C47.3725 56.4581 46.9004 49.087 47.3011 41.5143C47.4471 38.7507 47.5551 35.9328 47.6218 33.1362C47.7585 27.4805 47.8358 23.1661 47.8738 19.1475L47.8832 18.2971C47.9092 15.9502 47.9365 13.525 47.7165 11.1223C47.5118 8.88286 47.0911 6.49083 46.393 3.592C45.8936 1.51308 44.8062 0.649387 43.9827 0.289864C43.1793 -0.0577304 41.8512 -0.270001 40.0757 0.721036C37.9214 1.92036 36.3493 3.18736 35.2685 4.59366C33.4336 6.98437 31.9721 9.61785 30.6653 12.1081C29.3772 14.5651 28.1571 17.0951 26.9769 19.5415C26.2829 20.981 25.5895 22.4191 24.8794 23.8493C24.5793 24.4543 24.2446 25.0433 23.9113 25.6324C23.3919 26.5491 22.8552 27.4977 22.3891 28.6029C20.6123 32.8164 18.7754 37.1733 17.1812 41.5554C16.2478 44.1199 15.3817 46.7441 14.5443 49.2834C13.5542 52.2857 12.5301 55.3915 11.3979 58.3805C8.40296 66.2876 6.34408 73.7649 5.10328 81.2368C4.6919 83.7124 4.20251 86.2292 3.72846 88.6637C3.02905 92.2603 2.30497 95.9804 1.80892 99.6898C1.11085 104.906 0.783475 110.233 0.466779 115.383L0.333427 117.537C0.156078 120.361 0.109406 123.224 0.0640585 125.993C0.0460615 127.095 0.0280508 128.199 0.0027212 129.303C-0.011944 129.893 0.0327208 130.457 0.135405 130.979C0.273414 131.687 0.69547 133.842 3.06705 134.323C5.4553 134.805 6.87878 133.811 7.64954 132.89C7.97091 132.506 8.20827 132.102 8.41829 131.747C10.9652 127.42 12.4407 123.596 13.0615 119.71C14.2683 112.166 15.6797 102.217 15.8851 92.1621C15.8958 91.6301 15.7251 91.2056 15.5997 90.8965C15.5731 90.8301 15.5451 90.7638 15.5237 90.6975L15.135 89.4451L13.8309 89.6268C13.4955 89.6733 13.1988 89.7489 12.9368 89.8484C12.9574 89.7688 12.9781 89.6892 12.9994 89.6109C13.8775 86.3061 14.681 82.935 15.4577 79.674C15.8158 78.1708 16.1731 76.6703 16.5392 75.1712C17.86 69.7556 19.3488 64.0243 21.7324 58.7122C25.6555 49.9733 30.0746 41.2596 34.3477 32.8337L35.1618 31.2284C35.8072 29.9548 36.8007 28.7966 37.8521 27.5707C38.2635 27.0918 38.6742 26.6115 39.0655 26.1246C39.2736 25.8646 39.3883 25.8872 39.5703 25.9522C39.773 26.0238 39.9637 26.0915 40.015 26.7004C40.035 26.9352 40.0303 27.2125 40.001 27.5721C39.8676 29.188 39.729 30.8039 39.5903 32.4185C39.3102 35.6768 39.0302 38.9352 38.8002 42.1962C38.6588 44.1982 38.4922 46.2002 38.3255 48.2035C37.8868 53.4851 37.4327 58.9457 37.4634 64.3494C37.5107 72.6744 38.0188 81.1161 38.5108 89.2806L38.7995 94.1257C38.9475 96.6676 39.3403 99.199 39.7203 101.647C39.8577 102.532 39.995 103.417 40.1343 104.397C40.2284 105.078 40.5157 107.15 42.6933 107.32C44.3174 107.452 45.3856 106.526 45.9003 104.588L46.1903 103.517C46.4903 102.424 46.8004 101.292 47.0337 100.138C47.3771 98.4361 47.6971 96.7287 48.0172 95.0212C48.5452 92.2033 49.0913 89.2899 49.7374 86.4654C50.7295 82.1311 51.6596 78.2385 53.0097 74.4933C54.3085 70.89 55.8607 67.284 57.3615 63.7975C58.0282 62.2505 58.6943 60.7023 59.3424 59.1487C61.2772 54.5066 63.6268 49.168 67.0385 44.5445L68.3373 42.7747C70.8456 39.3478 73.4392 35.8029 76.4562 32.7223C79.1325 29.9906 81.7814 27.3492 84.7524 25.0699C85.0164 24.8669 85.3151 24.6374 85.5518 24.5379C85.6405 24.4995 85.7072 24.4862 85.7252 24.4663C85.7312 24.4875 85.7379 24.5194 85.7419 24.5618C85.8105 25.2145 85.7132 25.9548 85.6105 26.7402L85.5905 26.8928C85.3885 28.4477 85.1758 30.0013 84.9624 31.5535C84.6031 34.175 84.2437 36.7953 83.9377 39.4221C83.797 40.6307 83.7403 41.8407 83.685 43.0121C83.6329 44.1053 83.5843 45.1388 83.4736 46.1723C83.2856 47.9196 83.0556 49.6615 82.8262 51.4048C82.5642 53.3909 82.3028 55.3769 82.1015 57.3696C81.7861 60.4834 81.35 63.6528 80.9293 66.7175C80.1086 72.689 79.2598 78.8634 79.2298 85.0737C79.2165 87.8133 79.1338 90.6073 79.0538 93.3111C78.9518 96.7393 78.8471 100.284 78.8804 103.785C78.9165 107.608 79.4645 111.417 79.9379 114.307C80.8213 119.708 82.7302 124.743 84.7757 129.855C85.2605 131.065 85.9465 132.268 86.7599 133.334C87.4253 134.205 88.3741 134.695 89.3649 134.695C89.5162 134.695 89.6689 134.683 89.8216 134.659C91.0131 134.477 91.9932 133.623 92.4439 132.374C92.6239 131.877 92.6772 131.404 92.7239 130.987L92.7552 130.725C92.8846 129.733 93.0013 128.739 93.118 127.747C93.354 125.733 93.5987 123.651 93.9527 121.645C95.1075 115.105 97.4424 108.735 99.7 102.575C100.226 101.141 100.751 99.7071 101.261 98.2756C101.284 98.2199 101.316 98.1682 101.345 98.1151C101.401 98.0116 101.457 97.9095 101.507 97.802L105.735 88.8296C105.891 88.4992 106.039 88.1649 106.188 87.8306L106.371 87.4153C106.428 87.3264 106.513 87.2442 106.592 87.1566C108.199 85.3828 107.361 84.1238 106.719 83.5321L106.719 83.532Z" fill="black"/>
<path d="M140.84 77.2209C140.545 75.3489 139.889 73.5804 139.254 71.8716L138.842 70.7506C138.436 69.6176 137.365 68.9131 136.923 68.6623C134.572 67.3303 132.328 66.8514 130.067 67.2003C124.691 68.0269 120.234 70.5635 116.819 74.7386C114.165 77.9864 111.569 81.3562 109.059 84.6145L107.74 86.3273C107.009 87.2746 106.542 88.1595 106.311 89.0338C106.04 90.058 106.525 91.65 107.578 92.2483C108.583 92.8175 109.772 92.385 110.577 92.0082C111.212 91.715 111.508 91.1803 111.685 90.8606C111.711 90.8115 111.737 90.7611 111.734 90.7571C112.009 90.4546 112.286 90.1535 112.564 89.8536C112.421 90.8593 112.256 91.8623 112.091 92.8639C111.826 94.4652 111.553 96.1223 111.376 97.782C111.178 99.6314 111.127 101.498 111.079 103.302L111.004 105.704C110.848 110.172 110.687 114.793 111.999 119.403C112.793 122.192 114.61 123.736 116.28 124.878C116.854 125.272 117.64 125.489 118.382 125.489C118.726 125.489 119.061 125.441 119.36 125.344L119.679 125.241C120.982 124.82 122.459 124.342 123.689 123.451C127.285 120.837 130.207 117.262 132.62 112.522C135.447 106.967 138.305 100.979 139.488 94.2477C139.608 93.5657 139.732 92.8838 139.856 92.2032C140.74 87.3701 141.653 82.3724 140.84 77.2209H140.84ZM120.118 82.2623C120.327 82.1349 120.536 82.0062 120.744 81.8776C123.073 80.4341 124.611 79.589 126.798 80.3731C128.981 81.1558 130.226 82.3671 130.718 84.1874C131.093 85.5751 131.285 86.858 131.287 87.9989C131.292 90.5661 131.254 93.5963 130.938 96.5986C130.797 97.9505 130.351 99.439 129.684 100.791L129.489 101.188C127.709 104.798 125.869 108.532 123.695 111.923C122.899 113.165 121.116 114.143 119.684 114.928C119.464 115.049 119.328 115.06 119.299 115.048C119.239 115.022 119.037 114.835 118.894 114.317C118.215 111.87 117.626 109.226 117.9 106.457C118.061 104.836 118.118 103.203 118.173 101.623C118.232 99.9617 118.292 98.245 118.474 96.5972C118.865 93.0629 119.361 90.4294 120.081 88.0586C120.591 86.3777 120.979 84.3943 120.118 82.2623V82.2623Z" fill="black"/>
<path d="M427.617 105.094L427.614 105.086C427.224 104.001 425.88 103.566 425.042 103.655C424.308 103.743 423.665 104.033 423.072 104.319C422.015 104.83 420.963 105.35 419.909 105.869C418.865 106.385 417.821 106.901 416.773 107.406C411.464 109.966 406.244 112.405 400.719 114.13C397.497 115.136 394.084 115.65 390.783 116.149C388.411 116.508 385.957 116.878 383.547 117.428C380.936 118.025 378.191 118.134 375.791 118.102C371.187 118.096 368.117 117.024 365.841 114.625C365.183 113.932 364.865 113.323 364.739 112.525C364.236 109.3 364.739 105.955 366.369 101.682C368.704 95.5497 372.349 89.898 377.842 83.8934C378.358 83.3295 379.003 82.8267 379.689 82.2934L380.223 81.8742C380.485 81.6672 380.766 81.4828 381.048 81.2971C381.57 80.9481 382.164 80.5541 382.682 80.0287C386.676 75.981 391.509 72.6749 397.045 70.2032C399.546 69.0862 402.212 68.1482 404.793 67.2394L406.213 66.7379C407.942 66.1223 408.816 64.7943 408.608 63.0948C408.395 61.3369 406.929 60.2146 405.087 60.4295C403.731 60.59 402.415 60.8554 400.959 61.1605C400.323 61.2932 399.691 61.4511 399.059 61.6089C398.072 61.8544 397.14 62.0865 396.204 62.2219C393.526 62.6106 390.682 62.9356 387.75 63.189L387.022 63.254C385.095 63.4265 383.101 63.6069 381.229 63.4689C377.455 63.1943 373.613 62.6663 369.898 62.1555L369.712 62.1303C369.289 62.0719 368.853 61.9446 368.38 61.784L370.694 57.9114C372.068 55.6083 371.839 53.0517 370.05 50.7115C368.985 49.3198 366.941 47.8776 363.267 48.9085C357.388 50.5536 355.398 55.3788 354.413 58.864C354.003 60.3141 354.425 61.9273 354.942 63.4557C355.258 64.3883 355.762 65.1711 356.297 66.0003C356.362 66.1024 356.429 66.2059 356.497 66.312L356.224 66.7658C355.67 67.6878 355.099 68.6417 354.505 69.5823C354.153 70.1409 353.773 70.6848 353.394 71.2274C352.641 72.3087 351.862 73.4258 351.26 74.6729C349.185 78.9793 345.93 82.2947 342.485 85.8038C341.977 86.3213 341.469 86.8387 340.966 87.3601C339.638 88.7319 338.271 90.0652 336.904 91.3998C335.395 92.8725 333.833 94.3955 332.344 95.9544C330.554 97.829 328.771 99.6492 326.662 101.298C322.308 104.703 317.549 107.575 313.43 110C311.979 110.854 310.256 111.122 307.849 110.869C307.122 110.792 306.474 110.399 305.868 109.668C304.937 108.549 304.419 107.278 303.886 105.59C303.654 104.854 303.661 104.481 304.685 103.742C309.129 100.535 313.148 97.4708 316.97 94.3743C320.638 91.4025 323.732 88.0088 327.25 83.8284C329.53 81.1206 331.282 78.2257 332.554 76.0075C334.309 72.9495 334.112 69.6009 331.984 66.324C330.352 63.8085 326.574 62.3598 323.388 63.0165C318.392 64.0527 313.935 66.7007 309.768 71.1147C306.352 74.7312 302.501 79.181 299.848 84.769C297.679 89.3368 295.436 94.0585 294.673 99.3348C294.552 100.171 294.225 100.64 293.548 100.955C293.197 101.118 292.849 101.285 292.502 101.454C291.851 101.767 291.202 102.081 290.535 102.356C289.307 102.862 288.072 103.355 286.839 103.847C285.284 104.466 283.729 105.086 282.186 105.733C279.709 106.775 277.142 107.101 274.339 106.743C273.311 106.61 273.128 106.445 272.94 105.477C272.797 104.736 272.728 104.099 272.728 103.532C272.733 97.626 272.739 91.5166 273.603 85.5252C273.679 85.0065 273.821 84.5647 273.996 84.3126C275.254 82.5083 276.398 80.8937 277.673 79.4012C281.989 74.3478 285.228 69.8636 287.864 65.2891C288.088 64.9004 288.29 64.7585 288.692 64.7001C292.049 64.2238 295.4 63.717 298.752 63.2102L304.974 62.2722C309.248 61.6301 313.52 60.988 317.788 60.3167C318.574 60.1933 320.661 59.8669 321.569 57.333L322.275 55.3615L320.174 55.2766C314.667 55.0537 309.283 55.7144 304.07 56.3565C300.339 56.8155 296.504 57.2878 292.679 57.4192C292.773 57.2706 292.868 57.1247 292.961 56.9774C295.757 52.6418 297.692 47.6521 299.238 40.7984C299.77 38.4342 299.428 36.1563 298.251 34.21C297.748 33.3808 296.227 30.8654 293.178 31.152C290.651 31.3987 288.422 32.2292 286.552 33.6209C282.994 36.2703 280.725 39.8551 278.531 43.3217C278.194 43.8537 277.858 44.3857 277.518 44.9111C275.523 47.9996 273.969 51.3747 272.467 54.6397C272.02 55.6122 271.572 56.5847 271.113 57.5492C270.768 58.2762 270.709 58.2722 270.221 58.2616C268.276 58.2125 266.327 58.2085 264.379 58.2046C261.184 58.1993 257.881 58.194 254.674 57.9697C253.665 57.8994 252.647 57.8742 251.626 57.8503C248.563 57.7774 245.67 57.7084 243.048 56.3804C242.854 56.2822 242.665 56.2265 242.491 56.1933C242.517 56.1707 242.543 56.1495 242.569 56.127C244.573 54.4566 246.465 52.8792 248.769 51.9359C249.849 51.4928 250.56 49.8437 250.151 48.7293C249.764 47.6693 248.49 46.994 247.528 46.9754C246.716 46.9635 245.998 47.2699 245.425 47.5167L245.195 47.6149C244.404 47.9439 243.624 48.3008 242.845 48.659L242.259 48.927C238.114 50.8162 234.281 53.463 230.538 57.0185C229.949 57.5784 229.377 58.1555 228.805 58.7339C227.881 59.6692 227.008 60.5515 226.063 61.3568C222.499 64.3923 219.492 67.7024 216.869 71.4755C214.19 75.3295 211.092 79.4104 207.399 83.953C206.669 84.8499 205.93 85.7414 205.191 86.6316C202.537 89.8303 199.792 93.1364 197.496 96.7649C197.123 97.354 196.652 97.9152 196.107 98.5666C196.074 98.6064 196.041 98.6449 196.007 98.686C195.726 98.5586 195.447 98.4313 195.169 98.3052C193.74 97.6551 192.263 96.9838 190.757 96.4227C189.679 96.022 188.823 95.2565 187.832 94.3703C187.176 93.7825 186.497 93.1762 185.699 92.6349L183.271 90.9859L183.279 93.9112C183.282 95.3374 183.485 96.4452 183.918 97.3978C185.205 100.232 187.074 103.047 189.63 106.004L189.782 106.179C189.87 106.281 189.963 106.387 190.048 106.488C189.908 106.62 189.759 106.754 189.661 106.843C187.016 109.221 184.801 111.122 182.694 112.826C181.928 113.444 180.937 114.02 179.747 114.536C179.563 114.616 179.437 114.651 179.361 114.666C179.323 114.601 179.268 114.487 179.209 114.304C178.809 113.061 178.611 111.964 178.62 111.04C178.675 105.586 178.767 99.1596 179.023 92.8379C179.161 89.431 179.456 85.959 179.741 82.5998L179.952 80.0857C180.074 78.5932 180.226 77.1033 180.377 75.6135C180.529 74.113 180.681 72.6125 180.804 71.1093C181.078 67.7873 180.433 65.0649 178.833 62.7896C177.537 60.9442 175.601 59.786 173.523 59.6135C171.453 59.4411 169.46 60.2172 167.9 61.7933C167.101 62.6012 166.259 63.4875 165.515 64.4918C162.102 69.1007 159.297 74.3438 156.941 80.5196L156.897 80.635C155.461 74.9846 150.874 72.2012 147.385 70.5588C146.349 70.0705 145.411 70.0095 144.6 70.3757C143.316 70.9554 142.902 72.4042 142.767 72.8791C142.191 74.8864 143.432 76.1627 143.84 76.5806L144.39 77.1405C145.19 77.9498 145.945 78.7139 146.518 79.5524C149.052 83.2605 150.018 87.368 149.392 91.7633C148.789 95.9955 148.098 100.295 147.431 104.453L147.077 106.655C146.938 107.524 146.772 108.391 146.606 109.257C146.306 110.821 145.997 112.439 145.841 114.08C145.547 117.176 147.252 118.736 149.072 118.907C151.972 119.164 152.811 116.375 153.129 115.32C153.498 114.097 153.825 112.863 154.152 111.629C154.46 110.468 154.767 109.306 155.111 108.156C155.398 107.198 155.725 106.251 156.051 105.302C156.478 104.066 156.918 102.785 157.272 101.479C159.083 94.7961 161.534 88.3019 164.557 82.1753C165.609 80.0446 167.111 78.0983 169.149 76.2237C169.666 75.7474 170.154 75.5033 170.501 75.571C170.868 75.636 171.279 76.0659 171.629 76.7491C172.385 78.2284 172.703 79.908 172.601 81.8847C172.515 83.5723 172.339 85.2492 172.151 86.962C171.371 94.0572 171.052 101.627 171.149 110.785C171.183 114.041 171.791 116.766 173.007 119.116C174.463 121.926 177.592 123.203 180.281 122.089C182.36 121.227 184.514 120.221 186.183 118.712C187.126 117.861 188.135 117.089 189.204 116.271C191.205 114.739 193.266 113.164 194.936 110.996L196.086 111.693C197.229 112.387 198.367 113.176 199.468 113.939C201.897 115.624 204.409 117.367 207.388 118.429C208.689 118.893 209.995 119.339 211.303 119.786C212.486 120.19 213.67 120.595 214.85 121.013C217.211 121.847 219.69 122.142 222.217 121.89C229.173 121.193 235.699 119.085 241.615 115.624C242.701 114.99 243.846 114.161 244.108 112.823C244.372 111.481 243.618 110.272 242.845 109.268C241.954 108.111 241.059 106.959 240.135 105.768L240.085 105.704C240.245 105.626 240.403 105.55 240.561 105.475C241.756 104.906 242.964 104.359 244.172 103.811C246.921 102.564 249.765 101.276 252.444 99.7314C255.17 98.162 257.754 96.3178 260.252 94.5348C261.299 93.7878 262.347 93.0409 263.404 92.3126L263.855 92.0008C264.107 91.8257 264.355 91.6519 264.606 91.4847C263.774 97.0568 263.091 103.52 263.676 110.231C263.871 112.45 264.324 114.632 265.023 116.714C266.186 120.176 269.985 122.103 273.667 121.104C280.241 119.325 285.184 116.94 289.222 113.598C289.6 113.285 290.067 112.976 290.687 112.627C291.934 111.926 293.191 111.241 294.56 110.494L294.593 110.476C295.318 113.188 296.707 115.386 298.103 117.597C299.824 120.326 301.994 121.861 304.549 122.157C307.433 122.492 311.199 122.608 314.743 120.541C315.785 119.933 316.853 119.369 317.919 118.805C319.164 118.149 320.449 117.468 321.692 116.722L322.072 116.496C323.876 115.416 325.742 114.299 327.312 112.799C331.137 109.148 334.889 105.329 338.468 101.444C340.295 99.4622 341.99 97.3368 343.63 95.2817C344.325 94.4128 345.02 93.5424 345.724 92.6827C346.176 92.1295 346.611 91.5604 347.047 90.9899C347.932 89.8277 348.768 88.7305 349.74 87.8071C352.18 85.4881 354.105 82.9621 355.622 80.0845C357.489 76.5435 359.787 73.1644 362.644 69.7522C363.53 68.6935 364.438 68.3498 365.787 68.5807C366.289 68.6643 366.787 68.7664 367.286 68.8686C368.118 69.0384 368.98 69.2135 369.898 69.321C374.212 69.8225 378.653 70.3346 383.129 70.1714C381.129 71.8682 379.157 73.5465 377.214 75.2593C375.235 77.0039 373.14 78.8772 371.208 80.9203C370.297 81.8835 369.472 82.9143 368.673 83.9106C367.77 85.0383 366.917 86.1037 365.962 87.0642C362.28 90.767 359.765 95.23 357.697 99.1212C355.59 103.087 354.253 107.481 353.222 111.258C352.506 113.887 352.778 116.815 353.043 118.788C353.609 122.953 357.042 124.734 359.8 126.167L360.029 126.285C363.055 127.857 366.258 128.059 369.356 128.255L370.346 128.319C371.723 128.413 373.255 128.492 374.882 128.492C377.769 128.492 380.957 128.247 384.111 127.42C393.338 124.996 401.963 121.199 408.446 118.163C411.113 116.915 413.75 115.513 415.977 114.305C418.268 113.065 420.537 111.781 422.805 110.496L425.272 109.103L425.622 108.918C426.092 108.673 426.678 108.37 427.155 107.859C427.839 107.126 427.905 105.914 427.617 105.094V105.094ZM304.87 94.5083C307.869 86.6091 311.636 80.8672 316.718 76.4453C317.362 75.8841 317.945 75.2818 318.509 74.7007C318.981 74.2125 319.452 73.7243 319.956 73.2719C322.037 71.4025 323.835 70.5229 325.787 70.4208C325.843 70.4182 325.896 70.4168 325.95 70.4168C326.415 70.4168 326.779 70.5296 326.984 70.7379C327.234 70.9926 327.259 71.4171 327.235 71.7276C327.14 72.9946 326.919 73.8981 326.562 74.4898C325.6 76.0739 324.451 77.6261 323.34 79.1266C322.972 79.6241 322.604 80.1216 322.241 80.6218C322.136 80.7664 322 80.8898 321.869 81.0171C321.625 81.2559 321.387 81.5 321.187 81.768C316.958 87.429 311.093 90.8864 304.87 94.5083L304.87 94.5083ZM229.751 109.524L231.035 112.095C229.203 113.485 226.977 113.629 224.81 113.549C219.89 113.374 215.867 112.825 212.228 110.716L212.211 110.706C218.397 111.422 224.195 111.027 229.751 109.524ZM224.232 87.368C224.464 93.1962 225.275 98.1156 226.767 102.695C219.318 104.509 211.878 104.253 204.13 101.914C207.465 97.0834 218.686 82.8758 224.569 75.9345C224.053 79.8708 224.086 83.7156 224.232 87.368ZM244.411 66.8148C250.791 67.2633 257.178 67.2964 263.391 66.9183C264.893 66.8268 266.441 66.8175 267.938 66.8095L268.766 66.8055C268.808 67.4875 268.656 68.1548 268.477 68.9322L267.805 71.8788C267.191 74.5574 266.578 77.2374 266.019 79.9292C265.886 80.574 265.605 81.0344 265.047 81.5173C264.016 82.4141 262.995 83.3203 261.974 84.2277C260.687 85.37 259.399 86.5136 258.093 87.6333L257.708 87.965C256.204 89.2612 254.906 90.3823 253.137 90.5826C252.455 90.6609 251.952 91.0124 251.584 91.2685C251.504 91.3242 251.424 91.3813 251.341 91.4303L247.933 93.4655C245.196 95.1026 242.458 96.7411 239.693 98.3331C238.802 98.8452 237.83 99.2711 236.801 99.7222C236.729 99.7527 236.659 99.7846 236.587 99.8151L236.475 99.62C235.341 97.6446 234.269 95.7806 233.707 93.7481L233.44 92.7929C232.42 89.1405 231.456 85.6897 231.478 82.036C231.518 75.5074 232.362 70.2563 234.135 65.5147C234.935 63.3761 236.045 61.0013 238.224 59.4384C238.255 59.8895 238.371 60.3578 238.574 60.8262C238.722 61.1645 238.896 61.4948 239.072 61.8252C239.303 62.259 239.522 62.6689 239.611 63.0258C240.205 65.3913 241.775 66.6318 244.411 66.8148L244.411 66.8148Z" fill="black"/>
<path d="M286.284 43.3162C286.417 43.9046 286.576 44.2856 286.578 44.6674C286.591 47.4093 286.01 50.0299 284.958 52.5646C284.209 54.3687 283.586 56.2245 282.821 58.0212C282.607 58.5246 282.141 59.2077 281.704 59.2789C280.257 59.5142 278.765 59.7178 277.085 59.3758C278.762 53.1681 281.056 47.5845 286.284 43.3162Z" fill="white"/>
<path d="M275.995 65.2764C277.066 65.1662 278.044 65.0655 279.607 64.9045C278.009 67.4075 276.722 69.4214 275.436 71.4352C275.25 71.3602 275.063 71.2853 274.876 71.2104C275.237 69.2987 275.597 67.3871 275.995 65.2764Z" fill="white"/>
<path d="M365.827 55.3367C364.82 57.4546 364.029 59.7289 362.207 61.3341C361.09 61.0708 360.932 60.2553 360.858 59.4317C360.691 57.5813 362.867 54.6049 364.68 54.156C365.667 53.9117 366.254 54.438 365.827 55.3367Z" fill="white"/>
<path d="M550.699 176.066V176.065C550.026 174.202 548.409 173.139 546.603 173.368C546.094 173.43 545.554 173.589 544.995 173.839C539.297 176.389 533.168 177.769 527.242 179.106L526.063 179.371C521.168 180.479 517.345 180.939 513.74 180.832C514.053 180.443 514.371 180.059 514.688 179.673C515.759 178.37 516.867 177.023 517.868 175.57C519.88 172.65 521.923 169.51 524.303 165.688C525.538 163.702 526.351 162.112 526.937 160.533C528.087 157.438 528.253 154.604 527.428 152.106C525.841 147.303 519.237 143.167 515.049 144.351C509.944 145.784 505.72 148.154 502.135 151.596C501.02 152.667 499.974 153.825 498.962 154.946C498.392 155.576 497.821 156.207 497.24 156.822C495.351 158.817 494.704 161.323 494.381 163.033C494.114 164.44 493.76 165.877 493.418 167.267C493.167 168.282 492.917 169.296 492.694 170.319C492.419 171.579 492.106 173.007 492.049 174.485C491.921 177.82 492.512 180.719 493.85 183.292C493.169 183.83 492.524 184.33 491.896 184.587C489.88 185.411 487.659 186.14 484.696 186.955C483.835 187.19 482.815 187.248 481.829 187.119C481.156 187.031 480.995 186.885 480.992 186.885C480.987 186.875 480.877 186.667 480.907 185.766C481.124 179.263 482.306 173.539 484.522 168.267C485.324 166.358 485.563 164.429 485.792 162.562C485.9 161.691 486 160.868 486.156 160.065C486.337 159.13 486.189 158.161 485.751 157.404C485.35 156.714 484.741 156.255 484.029 156.109C483.011 155.905 481.789 156.233 480.988 156.932C480.016 157.783 479.12 159.019 479.195 159.765C479.931 167.024 467.71 188.341 458.007 189.836C453.351 190.554 445.493 189.192 435.912 181.987C433.902 180.476 431.163 177.935 428.475 175.411C428.572 175.455 436.951 177.642 440.051 177.642C447.76 177.642 457.016 171.541 461.816 165.607C467.311 158.814 468.442 154.567 469.336 152.266C470.484 149.307 469.443 144.95 467.194 143.301C464.855 141.586 462.28 140.074 459.234 140.62C457.626 140.909 456.025 141.3 454.472 141.683C455.044 141.065 455.618 140.45 456.191 139.834C458.684 137.158 461.262 134.39 463.676 131.5C467.13 127.363 469.536 122.122 470.827 115.927C471.562 112.399 470.967 109.084 469.008 105.792C466.414 101.435 465.292 101.06 461.015 103.131C457.907 104.633 454.929 106.833 451.357 110.261C446.296 115.123 441.517 120.6 437.155 126.544C429.783 136.586 424.909 146.559 420.446 155.996C418.57 159.963 411.279 160.704 412.211 165.607C412.693 168.144 416.922 165.219 416.784 165.983C416.605 166.98 416.435 167.92 416.158 168.778C415.119 171.986 414.045 175.18 412.971 178.375C411.787 181.896 410.603 185.418 409.466 188.96L409.27 189.572C408.105 193.208 407.005 196.642 405.21 199.731C404.967 200.15 404.515 200.93 404.569 201.889C404.622 202.797 404.859 204.011 405.688 204.635C406.041 204.899 406.434 205 406.826 205C407.378 205 407.929 204.801 408.371 204.581C408.983 204.273 409.328 203.696 409.555 203.313L412.608 198.545C414.112 196.198 415.615 193.849 417.127 191.509C419.246 188.232 421.461 184.389 423.697 181.472C430.348 189.4 443.769 199.29 456.076 197.867C462.074 197.174 467.53 191.133 472.295 185.226C472.399 185.096 472.505 184.983 472.61 184.885L472.901 189.924L474.032 191.913C474.722 193.128 475.34 194.219 475.971 195.293L476.128 195.569C476.448 196.146 476.846 196.862 477.539 197.303C479.951 198.826 483.638 200.616 487.777 198.595C488.575 198.204 489.379 197.831 490.183 197.459C492.81 196.242 495.525 194.984 498.024 193.102C498.811 192.51 499.645 191.994 500.53 191.448C501.231 191.014 501.933 190.579 502.613 190.106C503.052 189.8 503.336 189.766 503.829 189.945C508.906 191.807 514.402 192.202 521.137 191.187C529.606 189.911 538.287 187.063 547.745 182.439C548.217 182.21 548.753 181.948 549.257 181.551C550.822 180.316 551.415 178.061 550.699 176.066ZM448.032 125.608C452.279 120.335 461.411 113.947 462.566 115.549C463.72 117.151 460.274 123.415 452.657 132.603C447.616 138.683 440.267 143.112 434.376 147.716C435.761 143.523 444.833 129.578 448.032 125.608ZM432.965 169.78C435.31 167.193 437.524 164.752 440.081 162.773C441.106 161.982 442.14 161.206 443.173 160.43C444.16 159.689 445.146 158.95 446.123 158.196C448.359 156.476 450.879 155.197 453.618 154.394C454.092 154.255 454.51 154.162 454.898 154.107C456.004 153.948 456.869 154.192 457.259 154.777C457.645 155.353 457.629 156.36 457.217 157.54C456.894 158.466 456.239 159.37 455.704 160.056C452.377 164.316 447.997 167.065 444.149 169.191C441.28 170.778 438.309 171.512 435.136 171.476C433.937 171.457 433.046 171.255 432.107 170.725C432.394 170.41 432.68 170.094 432.965 169.78ZM425.825 167.158C425.613 167.392 424.96 167.435 424.742 167.234C424.508 167.018 424.447 166.395 424.495 165.978C424.537 165.609 424.8 165.249 425.021 164.936C426.701 162.546 428.869 161.001 431.323 159.963C431.442 160.141 431.562 160.319 431.681 160.497C429.737 162.726 427.808 164.975 425.825 167.158ZM506.326 174.576L505.511 175.294C505.316 175.464 504.994 175.747 504.788 175.9C504.59 175.767 504.279 175.52 504.054 175.344L504.053 175.343C503.653 175.026 503.272 174.674 502.868 174.294C503.486 172.574 504.078 171.356 505.003 170.302C506.088 169.062 506.891 167.501 507.558 166.133C508.978 163.225 510.77 161.43 513.196 160.485C514.269 160.066 515.285 159.529 516.268 159.008C516.653 158.804 517.038 158.6 517.424 158.404C517.968 158.131 518.436 157.91 518.896 157.81C518.989 158.508 518.886 159.2 518.589 159.96C517.28 163.29 515.284 166.239 512.487 168.971C510.501 170.91 508.38 172.773 506.326 174.576H506.326Z" fill="black"/>
<path d="M477.506 191.513H479.049L479.049 191.75H477.507L477.506 191.513Z" fill="black"/>
<path d="M480.506 193.427H476.051V190.073L477.506 189.836H480.506V193.427Z" fill="black"/>
<path d="M404.177 156.251C402.136 156.061 399.911 155.677 397.098 155.763C394.975 155.827 392.844 156.044 390.783 156.254C390.212 156.312 389.64 156.371 389.069 156.426C388.066 154.468 387.275 154.251 384.772 154.702C381.574 155.269 378.193 156.065 375.138 158.017C372.483 159.712 369.915 161.644 367.433 163.513L366.742 164.031C366.096 164.517 365.529 164.795 364.949 164.898L364.948 164.891C364.654 161.475 363.081 158.802 360.397 157.163C359.199 156.429 357.836 155.851 356.457 155.492C352.94 154.577 349.116 154.505 345.093 155.274C342.689 155.733 340.32 156.467 338.029 157.177C337.111 157.462 336.193 157.746 335.272 158.014C325.648 160.807 318.154 164.359 311.69 169.194C309.396 170.908 307.229 172.526 304.612 172.998C303.599 173.179 302.677 173.573 301.784 173.955C301.315 174.154 300.845 174.356 300.367 174.518L299.299 174.886C298.026 175.331 296.825 175.751 295.611 175.971L294.947 176.091C288.488 177.261 281.81 178.47 275.228 179.43C268.649 180.391 261.672 181.273 252.605 182.293C244.023 183.26 237.497 183.297 231.446 182.416C229.841 182.182 228.067 181.65 226.021 180.791C225.764 180.684 225.622 180.59 225.549 180.531C225.574 180.426 225.637 180.228 225.796 179.914C226.598 178.344 227.327 177.28 228.093 176.566L229.257 175.476C231.657 173.221 234.14 170.889 236.776 169.11C251.7 159.041 268.42 151.35 286.47 146.256C287.212 146.045 287.971 145.873 288.75 145.717L288.429 145.945C287.57 146.562 286.586 147.058 285.545 147.583C285.044 147.835 284.533 148.093 284.014 148.374L282.142 149.386L283.6 151.075C284.816 152.48 286.315 152.821 288.057 152.08C291.007 150.825 293.596 148.761 295.75 145.943C297.27 143.952 297.206 141.881 295.558 139.783C293.859 137.624 291.768 136.432 289.513 136.337C286.997 136.229 284.149 136.109 281.395 136.588C273.614 137.942 265.664 140.442 257.089 144.231C244.859 149.635 234.497 155.785 225.411 163.032C222.577 165.292 219.365 168.152 217.028 172.214C213.613 178.149 213.727 184.853 217.332 190.145C219.178 192.856 221.698 194.253 223.689 195.168C228.151 197.217 232.863 197.701 236.469 197.893C237.688 197.958 238.919 197.99 240.164 197.99C246.937 197.99 254.127 197.026 262.018 195.065C267.588 193.681 273.217 192.127 278.659 190.625C280.865 190.015 283.07 189.406 285.28 188.806C285.818 188.659 286.319 188.432 286.877 188.179C287.271 188.003 287.66 187.81 288.05 187.615C288.746 187.268 289.403 186.94 290.054 186.738L290.947 186.463C294.282 185.439 297.715 184.386 300.982 182.695C300.181 188.471 301.714 191.842 306.044 193.901C306.973 194.343 307.967 194.788 309.02 194.967L309.724 195.087C311.683 195.422 313.709 195.767 315.754 195.818C327.87 196.102 339.654 192.729 351.784 185.496C351.738 186.107 351.708 186.71 351.712 187.316C351.739 191.585 353.313 194.195 356.816 195.777C357.391 196.037 357.963 196.222 358.581 196.42C361.773 197.445 365.144 197.609 369.515 196.947C378.477 195.597 386.877 192.318 394.195 187.963C414.464 175.9 420.838 157.81 404.177 156.251L404.177 156.251ZM348.804 173.634L348.624 173.748C344.787 176.204 340.437 178.232 334.521 180.323C327.402 182.841 319.774 184.343 311.85 184.788C310.272 184.876 309.709 184.908 309.005 184.679C309.141 184.404 309.274 184.175 309.414 184.022L310.062 183.31C311.578 181.643 313.144 179.92 314.831 178.591C319.203 175.149 323.975 172.728 329.794 170.154C330.127 170.005 330.244 169.992 330.616 170.198C332.296 171.129 333.762 171.652 335.096 171.797C338.848 172.198 342.664 172.51 346.354 172.811C347.453 172.9 348.552 172.99 349.651 173.082C349.373 173.27 349.09 173.45 348.804 173.634V173.634ZM343.998 165.58C347.27 164.085 354.288 164.651 356.391 166.445C354.965 167.255 348.967 166.863 343.998 165.58ZM377.646 183.429C372.716 185.249 366.831 187.184 360.549 187.749L360.17 187.784C359.677 187.83 359.185 187.876 358.692 187.905C358.867 186.8 359.347 185.78 360.143 184.814C360.865 183.937 361.544 183.013 362.199 182.118C363.707 180.062 365.132 178.119 367.023 176.777C367.733 176.276 368.227 175.565 368.664 174.938C368.769 174.787 368.875 174.636 368.981 174.492C370.713 172.145 372.88 170.317 374.975 168.549C375.44 168.157 375.899 167.768 376.35 167.379C381.408 170.588 386.34 172.37 391.395 172.822C392.835 172.951 394.279 173.017 395.725 173.082C396.164 173.102 396.603 173.123 397.043 173.144C391.54 177.272 385.152 180.657 377.646 183.429V183.429ZM400.204 166.681C399.322 166.301 398.245 166.494 397.256 166.471C394.919 166.418 392.62 166.155 390.332 165.074C392.204 163.939 399.538 163.872 402.729 164.927C403.466 165.17 404.373 165.263 404.68 166.514C403.103 166.963 401.733 167.341 400.204 166.681Z" fill="black"/>
</g>
<defs>
<clipPath id="clip0_2_119">
<rect width="551" height="205" fill="white"/>
</clipPath>
</defs>
</svg>
