<svg width="804" height="829" viewBox="0 0 804 829" fill="none" xmlns="http://www.w3.org/2000/svg">
<g filter="url(#filter0_d_164_926)">
<circle cx="366" cy="371" r="282" fill="white"/>
</g>
<g clip-path="url(#clip0_164_926)">
<path d="M674.164 394.621C665.681 402.228 660.881 421.819 673.001 430.862C665.986 444.513 654.001 458.516 648.286 472.451C639.435 480.615 637.494 495.455 633.217 506.913C620.602 517.959 626.043 540.426 620.304 555.386C614.023 565.537 589.503 573.749 584.879 586.281C545.763 583.264 550.96 609.482 524.992 623.273C493.741 625.597 464.655 620.788 439.467 643.67C431.671 648.072 415.98 663.471 407.647 663.718C388.864 663.536 378.445 660.616 355.11 655.055C334.862 651.535 313.262 648.127 293.137 645.504C281.841 645.324 267.589 643.443 256.973 647.461C239.3 642.488 254.675 636.318 218.241 626.864C207.073 606.097 187.629 605.239 187.629 605.239C186.084 600.074 166.621 582.897 162.432 583.889C148.836 567.602 168.907 553.744 156.332 534.533C147.948 520.124 128.823 525.448 119.477 521.399C110.46 504.032 119.746 478.578 95.7185 467.393C95.0884 451.368 102.533 433.735 97.8244 417.744C96.9399 414.946 96.6208 413.238 97.2165 410.805C97.8655 397.122 88.6388 392.106 90.0761 379.412C91.5352 375.904 90.6273 371.822 87.8003 369.268C87.4576 363.334 90.1791 354.745 85.964 349.952C82.3509 325.951 92.9094 328.459 92.1616 310.188C90.9531 292.068 127.794 274.43 133.552 247.072C134.6 231.916 138.154 217.937 135.095 202.871C130.883 186.049 135.119 179.659 146.137 168.193C153.374 159.931 166.105 156.319 174.193 148.527C186.512 138.547 198.715 134.551 211.343 125.378C220.789 109.86 225.972 94.4051 242.992 85.5632C259.222 76.7675 278.247 87.2518 298.067 84.4793C312.652 80.4878 324.389 71.9715 337.936 66.8637C354.415 61.8532 372.679 60.2436 387.721 50.5098C389.25 59.2436 406.843 67.455 408.3 66.8772C417.948 69.3308 420.685 59.6754 427.703 64.7826C438.63 72.6357 450.961 75.6176 462.059 74.8072C473.711 84.1827 494.458 85.7662 501.927 86.5241C502.393 88.227 508.074 93.9215 504.673 99.8599C491.922 122.125 510.978 154.151 533.285 163.553C537.656 164.877 549.985 169.122 553.656 169.545C557.624 171.003 562.014 174.165 566.714 174.478C566.027 186.57 568.94 195.132 575.636 205.275C589.171 228.567 625.848 237.806 650.798 240.162C649.204 262.482 661.163 277.946 677.126 294.354C680.069 329.468 656.764 337.939 669.371 358.655C667.62 362.407 667.964 375.336 675.652 375.797C677.98 381.822 680.499 388.804 674.164 394.621L674.164 394.621Z" fill="#4B6CB3" stroke="#4B6CB3" stroke-width="6.98097" stroke-linejoin="round"/>
<path d="M674.164 394.621C665.681 402.228 660.881 421.819 673.001 430.862C665.986 444.513 654.001 458.516 648.286 472.451C639.435 480.615 637.494 495.455 633.217 506.913C620.602 517.959 626.043 540.426 620.304 555.386C614.023 565.537 589.503 573.749 584.879 586.281C545.763 583.264 550.96 609.482 524.992 623.273C493.741 625.597 464.655 620.788 439.467 643.67C431.671 648.072 415.98 663.471 407.647 663.718C388.864 663.536 378.445 660.616 355.11 655.055C334.862 651.535 313.262 648.127 293.137 645.504C281.841 645.324 267.589 643.443 256.973 647.461C239.3 642.488 254.675 636.318 218.241 626.864C207.073 606.097 187.629 605.239 187.629 605.239C186.084 600.074 166.621 582.897 162.432 583.889C148.836 567.602 168.907 553.744 156.332 534.533C147.948 520.124 128.823 525.448 119.477 521.399C110.46 504.032 119.746 478.578 95.7185 467.393C95.0884 451.368 102.533 433.735 97.8244 417.744C96.9399 414.946 96.6208 413.238 97.2165 410.805C97.8655 397.122 88.6388 392.106 90.0761 379.412C91.5352 375.904 90.6273 371.822 87.8003 369.268C87.4576 363.334 90.1791 354.745 85.964 349.952C82.3509 325.951 92.9094 328.459 92.1616 310.188C90.9531 292.068 127.794 274.43 133.552 247.072C134.6 231.916 138.154 217.937 135.095 202.871C130.883 186.049 135.119 179.659 146.137 168.193C153.374 159.931 166.105 156.319 174.193 148.527C186.512 138.547 198.715 134.552 211.343 125.378C220.789 109.86 225.972 94.4051 242.992 85.5632C259.222 76.7675 278.247 87.2518 298.067 84.4793C312.652 80.4878 324.389 71.9715 337.936 66.8637C354.415 61.8532 372.679 60.2436 387.721 50.5098C389.25 59.2436 406.843 67.455 408.3 66.8772C417.948 69.3308 420.685 59.6754 427.703 64.7826C438.63 72.6357 450.961 75.6176 462.059 74.8072C473.711 84.1827 494.458 85.7662 501.927 86.5241C502.393 88.227 508.074 93.9215 504.673 99.8599C491.922 122.125 510.978 154.151 533.285 163.553C537.656 164.877 549.985 169.122 553.656 169.545C557.624 171.003 562.014 174.165 566.714 174.478C566.027 186.57 568.94 195.132 575.636 205.275C589.171 228.567 625.848 237.806 650.798 240.162C649.204 262.482 661.163 277.946 677.126 294.354C680.069 329.468 656.764 337.939 669.371 358.655C667.62 362.407 667.964 375.336 675.652 375.797C677.98 381.822 680.499 388.804 674.164 394.621L674.164 394.621Z" stroke="white" stroke-width="6.98097" stroke-linejoin="round"/>
<path d="M615.402 470.337C611.703 462.196 608.895 465.485 610.542 452.957C618.746 450.491 613.013 440.183 605.279 438.226C600.418 429.266 605.567 425.596 605.969 416.192C605.401 408.863 607.456 400.176 610.777 393.229C616.094 383.991 615.621 370.432 600.954 374.455C598.826 374.757 592.726 369.694 591.88 368.904C592.939 357.272 596.152 344.017 579.081 354.548C574.458 350.827 569.747 354.64 565.547 353.854C559.415 347.938 557.011 339.495 548.748 335.183C545.55 326.463 528.866 340.678 525.224 338.377C516.914 333.127 522.939 326.684 521.9 323.271C520.551 317.71 518.708 316.322 515.544 311.514C507.24 298.898 502.035 293.118 484.977 306.203C471.282 315.828 455.42 300.479 458.885 288.517C461.198 287.393 463.828 283.908 461.443 281.199C460.322 279.529 457.722 279.639 455.686 279.948C443.311 281.26 433.473 268.811 430.221 256.175C425.817 253.194 429.847 246.945 428.834 242.331C426.658 238.878 421.941 239.194 422.869 234.34C426.396 230.515 425.503 219.584 418.361 224.09C396.298 226.668 351.468 217.462 337.196 199.336C336.141 193.914 333.388 192.87 329.405 189.375C329.424 186.611 331.03 178.431 326.606 179.065C319.768 186.314 308.725 185.845 298.87 185.479C290.198 187.052 275.703 166.536 268.833 174.473C245.684 176.562 235.949 214.421 209.871 196.165C208.8 191.414 202.097 187.757 200.597 194.05C181.527 218.536 176.063 197.146 175.002 220.165C173.531 225.391 167.083 230.559 163.01 233.861C156.617 232.815 143.13 231.238 148.096 242.127C147.381 249.998 143.547 258.021 141.718 265.938C137.384 272.243 132.813 279.782 132.077 287.427C130.721 301.524 122.668 305.245 119.601 315.907C105.374 306.018 103.289 330.757 104.63 333.769C104.81 340.81 107.378 339.473 109.97 343.305C109.537 348.042 110.831 354.054 112.726 358.251C114.451 364.133 113.504 381.127 119.582 387.004C137.126 403.962 123.955 409.999 124.863 429.637C121.283 447.435 123.54 462.499 134.097 475.74C137.739 481.31 137.708 498.527 145.688 498.036C147.295 498.106 153.529 496.148 154.25 497.466C156.173 501.892 156.556 502.82 160.036 503.743C164.41 514.354 183.45 511.614 180.4 519.852C177.933 526.517 179.73 530.191 185.691 541.255C185.504 559.605 190.729 556.67 197.933 569.624C193.973 574.172 206.905 594.765 211.333 592.412C215.942 591.201 229.274 597.854 226.163 594.02C228.88 597.369 228.486 603.443 233.233 604.347C238.311 606.526 242.992 612.817 249.248 611.934C251.218 618.524 264.453 608.733 266.756 605.373C269.913 607.625 276.188 614.336 277.878 615.443C280.417 617.105 287.422 622.482 293.937 622.735C299.149 622.937 301.629 628.265 316.469 629.09C327.966 629.098 340.8 627.164 343.832 617.771C353.059 625.261 353.162 623.447 363.752 621.914C364.664 622.757 368.955 621.969 369.582 622.122C370.048 630.709 390.539 640.372 406.929 635.335C414.379 633.045 421.169 625.471 424.517 617.328C427.214 617.293 428.437 611.256 435.237 606.585C445.687 602.649 454.98 613.594 465.72 609.288C469.126 607.517 475.828 611.863 478.45 609.822C493.702 610.56 494.307 599.039 498.962 588.885C502.731 586.387 505.346 587.172 509.782 583.139C518.262 573.142 518.007 567.1 533.746 564.316C540.321 563.858 547.407 567.513 554.065 562.867C557.086 564.077 564.698 562.233 562.651 559.693C568.907 555.12 562.753 552.383 563.637 546.795C570.197 550.916 572.846 541.132 572.81 536.316C577.052 532.67 595.673 529.305 593.085 524.261C588.872 509.479 589.969 479.447 608.484 476.079C611.719 476.458 616.932 475.966 615.402 470.337L615.402 470.337Z" fill="#7D98CE"/>
<path d="M135.644 212.04C135.187 211.99 134.782 211.858 134.438 211.699C134.112 211.548 131.237 210.095 132.721 206.368C133.032 205.409 133.008 204.33 132.98 203.079C132.935 201.074 132.882 198.627 134.18 196.125C133.748 196.005 133.39 195.848 133.11 195.699C131.977 195.096 131.229 194.024 131.059 192.76C130.919 191.718 131.179 190.675 131.85 189.606C131.788 188.909 131.884 188.205 132.102 187.516C131.763 187.368 131.445 187.185 131.146 186.968C129.992 186.128 129.315 184.873 129.237 183.433C129.133 181.51 130.144 179.357 132.247 177.008C132.077 176.306 132.047 175.572 132.166 174.826C132.36 173.614 132.96 172.455 133.875 171.452C133.211 170.818 132.78 169.98 132.694 169.041C132.374 165.402 136.023 162.908 139.57 161.662C139.909 160.166 140.654 158.81 141.732 157.811C143.141 156.507 144.951 155.899 146.929 156.041C149.183 153.357 152.664 151.401 156.126 151.989C160.091 151.692 164.719 153.23 166.802 156.447C171.184 159.063 171.819 162.577 171.536 165.146C171.135 168.787 168.677 172.488 165.12 174.804C162.565 176.469 159.707 177.259 156.961 177.107C156.917 177.422 156.838 177.74 156.719 178.061C155.879 180.327 154.23 181.606 152.904 182.634C151.891 183.418 151.257 183.933 150.982 184.606C150.897 184.842 150.71 185.497 150.479 186.282C148.961 191.448 148.503 193.007 146.546 193.734C145.772 194.019 144.953 194.053 144.201 193.852C143.863 194.447 143.492 195.007 143.108 195.509C142.805 198.933 141.739 208.665 139.352 210.578C137.92 211.862 136.653 212.151 135.644 212.04L135.644 212.04ZM141.69 173.316L141.688 173.318L141.69 173.316Z" fill="#7D98CE"/>
<path d="M689.24 297.14C673.724 270.801 664.838 249.658 657.343 240.675C640.298 220.247 633.357 236.196 592.712 208.249C591.334 195.083 579.463 187.03 576.505 173.283C570.089 168.561 567.632 159.058 560.002 161.864C550.539 165.345 523.795 155.536 513.084 132.86C510.826 128.081 511.72 118.254 505.906 116.248C495.878 116.86 509.312 104.283 497.716 100.064C495.318 98.7695 477.984 97.1753 481.328 105.98C473.23 105.836 481.936 100.019 469.802 93.4852C456.343 86.2376 465.345 109.048 449.796 102.29C446.789 95.4361 437.164 91.6236 432.114 92.9672C430.181 83.3592 422.881 95.368 410.674 78.2235C403.326 74.968 394.841 85.1202 388.927 79.0217C379.549 68.3817 370.905 85.3287 363.301 81.5032C352.166 72.9884 355.49 90.059 346.042 91.1846C339.73 95.4579 334.122 94.8812 326.826 95.0492C322.106 102.291 303.804 91.9109 300.052 102.274C283.527 86.0705 282.427 104.622 263.081 95.5261C244.198 104.525 263.355 102.683 239.257 106.927C239 113.714 232.073 109.885 228.896 111.916C223.179 115.704 226.38 127.211 233.945 127.405C243.457 126.127 250.45 118.629 258.228 124.657C266.189 123.739 274.312 119.676 280.486 116.429C287.978 109.503 295.019 127.284 311.336 119.396C325.025 106.649 329.438 124.276 344.898 117.747C363.245 114.624 359.93 105.385 383.761 117.115C391.249 120.801 402.831 116.471 408.466 117.698C417.779 119.725 410.635 129.04 434.45 129.952C443.155 130.285 429.716 143.94 441.118 144.498C459.691 153.613 457.959 140.08 465.936 158.186C472.498 156.866 482.565 161.222 480.62 168.343C486.945 183.432 504.748 181.235 518.379 186.145C526.614 176.951 532.677 188.164 542.327 181.965C538.639 196.08 547.657 189.182 550.779 194.426C553.306 201.495 555.817 214.625 565.205 226.335C569.7 231.942 590.573 243.552 598.238 242.184C599.376 248.205 606.169 241.871 609.234 243.299C611.286 248.779 621.799 248.883 626.213 246.741C623.248 252.373 635.945 248.218 634.612 251.481C626.43 271.507 655.989 272.751 644.266 291.833C636.723 292.236 631.154 295.287 626.873 290.774C621.898 285.529 617.058 277.268 608.02 283.575C604.319 286.157 604.649 298.433 617.968 299.242C618.474 303.807 630.01 298.859 629.339 304.841C628.386 313.336 644.704 314.621 653.713 314.653C673.777 314.725 684.354 328.615 689.24 297.14L689.24 297.14Z" fill="#7D98CE"/>
<path d="M509.955 556.958C505.543 557.525 503.23 561.76 500.359 564.051C492.956 568.013 481.446 575.659 474.228 572.314C465.171 569.74 452.038 564.977 443.879 569.967C424.085 574.276 406.137 585.313 390.548 601.187C386.212 607.944 383.448 604.706 377.749 605.54C363.318 618.757 397.237 632.558 408.425 626.989C438.384 562.71 464.7 620.984 484.209 591.82C492.882 580.012 508.077 583.095 514.574 566.822C520.598 564.14 512.602 555.116 509.955 556.958Z" fill="#4B6CB3" stroke="#4B6CB3" stroke-width="0.28346" stroke-miterlimit="10"/>
<path d="M211.544 519.667C210.443 514.619 210.988 508.657 207.592 504.15C205.856 501.174 204.796 499.531 205.542 496.423C209.941 479.049 190.016 486.139 182.964 478.17C184.011 469.456 172.534 470.234 167.145 468.548C165.545 466.894 161.505 461.953 161.87 459.658C161.888 457.517 161.913 454.278 159.453 452.213C156.038 449.353 152.55 436.877 151.89 428.517C152.772 427.374 152.726 425.556 151.834 424.458C154.314 408.768 140.901 414.403 136.213 423.344C123.403 440.937 136.82 447.32 141.178 460.802C151.692 490.063 147.069 485.312 159.479 488.025C159.692 491.639 165.013 492.359 166.151 488.956C176.437 488.796 178.003 493.397 181.31 502.981C179.508 506.046 186.522 512.12 188.625 506.534C189.054 506.568 189.478 506.63 189.819 506.708C195.299 542.845 222.952 539.924 211.544 519.667L211.544 519.667Z" fill="#4B6CB3" stroke="#4B6CB3" stroke-width="0.28346" stroke-miterlimit="10"/>
<path d="M239.597 350.911C240.921 351.817 241.776 353.074 243.379 353.685C245.895 354.644 249.026 354.566 251.641 354.836L270.522 356.783C277.996 357.553 279.29 345.944 271.799 345.172L256.25 343.569C254.076 343.344 251.771 342.938 249.587 342.881C247.032 342.392 246.652 342.472 248.447 343.122C247.905 342.484 247.276 341.954 246.56 341.53C240.357 337.288 233.382 346.662 239.597 350.911L239.597 350.911Z" fill="#4B6CB3"/>
<path d="M482.793 386.539C487.536 388.494 492.126 388.53 497.178 388.57C502.573 388.614 507.418 389.781 512.49 391.553C519.578 394.029 523.913 383.179 516.808 380.696C512.183 379.081 507.42 377.586 502.52 377.123C497.34 376.634 492.035 377.712 487.112 375.682C480.149 372.811 475.846 383.674 482.793 386.539Z" fill="#4B6CB3"/>
<path d="M333.157 522.383L370.423 526.483C380.384 527.579 382.104 512.1 372.126 511.002L334.861 506.902C324.899 505.806 323.179 521.286 333.157 522.383Z" fill="#4B6CB3" stroke="#4B6CB3" stroke-width="0.28346" stroke-miterlimit="10"/>
<path d="M329.139 517.371L366.405 521.471C376.366 522.567 378.086 507.088 368.108 505.99L330.842 501.89C320.881 500.794 319.161 516.273 329.139 517.371Z" fill="#000003"/>
<path d="M555.554 477.471C554.137 480.479 553.531 485.686 551.819 488.845C550.106 492.004 547.702 491.203 545.533 491.011C537.579 490.313 529.056 489.436 521.108 488.669C505.212 487.135 498.341 485.408 482.439 483.935C451.636 481.081 404.261 475.404 373.428 472.937C309.564 467.827 262.709 462.99 198.998 456.262C198.759 456.237 195.66 453.763 195.432 453.758C191.54 447.434 191.431 444.045 186.542 438.372C180.807 431.718 165.349 437.684 171.678 447.574C176.169 454.592 178.787 458.06 182.864 465.311C184.656 468.498 195.938 476.645 210.741 478.537C247.293 483.209 333.624 489.355 402.782 500.316C440.819 506.345 477.964 510.938 512.44 514.332C528.351 515.898 544.619 513.372 557.228 510.156C569.183 507.107 570.66 493.539 573.564 483.169C577.959 467.475 561.057 465.795 555.554 477.471L555.554 477.471Z" fill="#4B6CB3" stroke="#4B6CB3" stroke-width="0.28346" stroke-miterlimit="10"/>
<path d="M555.935 469.695C554.379 472.788 553.945 478.315 552.236 481.644C550.527 484.972 548.093 484.17 545.9 484.001C537.86 483.39 529.244 482.599 521.209 481.915C505.14 480.547 498.187 478.843 482.112 477.539C450.974 475.011 403.076 469.779 371.91 467.656C307.357 463.26 259.989 458.898 195.58 452.808C195.338 452.785 192.191 450.244 191.961 450.242C187.988 443.688 187.855 440.146 182.878 434.286C177.04 427.413 161.463 433.881 167.922 444.129C172.505 451.4 175.173 454.988 179.339 462.51C181.171 465.816 186.818 469.402 194.205 468.813C194.617 468.78 330.265 483.967 400.842 488.397C435.756 490.589 474.549 495.57 509.401 498.607C525.486 500.009 540.393 502.172 556.541 501.626C569.002 501.205 571.981 486.435 574.168 475.386C575.921 466.526 559.962 461.696 555.935 469.695Z" fill="#000003"/>
<path d="M281.435 322.943C278.02 309.355 261.673 289.132 242.237 280.947C219.653 271.437 191.428 272.547 179.912 284.918C177.52 287.487 177.089 289.153 176.701 290.303C175.298 294.461 177.491 297.695 181.683 299.46C185.876 301.226 189.571 299.655 191.092 296.043C191.521 295.024 192.622 293.152 192.77 292.923C201.004 280.134 247.699 297.581 250.045 310.237C245.117 311.909 282.381 326.708 281.435 322.943L281.435 322.943Z" fill="#4B6CB3"/>
<path d="M288.802 295.072C280.623 278.782 255.65 259.138 230.977 256.424C202.306 253.269 170.586 266.242 161.415 287.045C159.51 291.366 159.547 293.71 159.47 295.366C159.191 301.35 162.706 304.663 168.029 305.249C173.351 305.834 177.053 302.281 177.638 296.958C177.804 295.457 178.462 292.571 178.557 292.213C183.868 272.204 242.445 275.841 249.115 291.356C244.044 295.544 239.501 301.682 238.725 308.73C237.143 323.115 247.445 333.972 261.851 335.557C276.256 337.142 289.791 327.482 291.374 313.097C291.907 308.254 291.069 299.586 288.802 295.072L288.802 295.072Z" fill="#000003"/>
<path d="M254.546 277.659C258.429 282.25 271.699 279.211 267.806 274.608C253.864 258.124 230.831 241.816 208.501 240.468C202.519 240.106 201.91 248.56 207.479 249.756C230.815 254.769 242.123 262.971 254.546 277.659L254.546 277.659Z" fill="#000003"/>
<path d="M264.522 327.102C272.89 328.023 280.368 322.461 281.224 314.678C282.08 306.896 275.991 299.84 267.623 298.92C259.255 297.999 251.777 303.562 250.921 311.344C250.064 319.127 256.154 326.182 264.522 327.102Z" fill="white"/>
<path d="M268.021 326.303C274.172 326.979 279.623 323.297 280.197 318.079C280.771 312.861 276.251 308.082 270.101 307.405C263.95 306.728 258.499 310.41 257.925 315.629C257.351 320.847 261.871 325.626 268.021 326.303Z" fill="#4B6CB3"/>
<path d="M480.274 350.668C486.562 338.147 506.915 321.962 527.665 318.199C551.777 313.826 579.085 321.047 587.636 335.625C589.412 338.653 589.471 340.373 589.6 341.58C590.065 345.943 587.222 348.623 582.745 349.435C578.269 350.247 575.004 347.91 574.304 344.053C574.107 342.966 573.44 340.899 573.346 340.644C568.089 326.369 518.718 333.247 513.676 345.091C518.123 347.794 478.532 354.137 480.274 350.668Z" fill="#4B6CB3"/>
<path d="M481.872 337.482C489.87 324.456 508.464 310.478 529.717 308.086C554.413 305.307 582.11 315.477 590.507 332.136C592.252 335.597 592.273 337.483 592.377 338.814C592.755 343.627 589.794 346.322 585.209 346.838C580.624 347.354 577.346 344.526 576.719 340.249C576.542 339.042 575.907 336.726 575.817 336.439C570.773 320.386 518.311 323.231 512.903 335.769C517.378 339.096 521.331 344.455 522.162 350.119C523.857 361.678 517.26 370.615 504.851 372.012C492.443 373.408 479.332 366.425 477.637 354.866C477.066 350.974 479.729 340.972 481.872 337.482L481.872 337.482Z" fill="#000003"/>
<path d="M511.328 321.493C506.54 325.13 491.386 327.404 495.279 322.801C507.46 308.4 542.269 291.663 564.357 295.202C570.275 296.15 569.032 304.534 563.335 304.49C539.468 304.309 526.647 309.857 511.328 321.493Z" fill="#000003"/>
<path d="M498.392 364.194C506.112 365.044 512.975 360.231 513.722 353.444C514.468 346.658 508.816 340.468 501.096 339.618C493.376 338.769 486.512 343.582 485.766 350.368C485.019 357.155 490.672 363.345 498.392 364.194Z" fill="white"/>
<path d="M494.926 361.9C500.298 362.491 505.054 359.314 505.551 354.804C506.047 350.294 502.095 346.159 496.723 345.568C491.352 344.977 486.595 348.154 486.099 352.664C485.603 357.174 489.555 361.309 494.926 361.9Z" fill="#4B6CB3"/>
<path d="M685.285 417.428C684.663 416.699 683.785 415.671 683.312 415.003C684.943 406.075 697.003 399.614 696.365 387.739C696.444 383.686 694.304 364.951 685.054 359.899C684.78 354.873 686.15 351.409 684.595 348.373C690.17 335.877 695.713 320.924 694.377 305.897C699.308 306.363 701.425 295.223 696.062 286.855C691.792 280.195 680.548 276.447 678.327 273.373C670.548 262.61 670.792 250.343 668.793 238.109C667.694 231.376 671.315 224.977 663.364 221.418C657.762 220.434 650.154 223.282 644.881 221.887C613.919 213.762 598.907 208.732 583.346 181.781C581.711 159.571 581.354 156.562 568.892 156.484C563.454 154.249 558.254 151.468 552.234 152.592C547.275 153.388 530.268 143.511 526.903 140.933C526.021 138.968 519.054 130.073 517.724 127.921C507.037 117.062 535.273 88.61 521.791 92.5363C518.583 93.4705 514.493 86.4457 517.678 78.9688C519.642 74.358 508.567 75.8027 505.685 75.8539C498.901 75.4478 492.634 71.5855 485.93 69.8136C476.605 62.8992 467.432 54.1378 453.924 56.8314C437.214 52.6538 428.144 38.5958 410.62 48.6456C407.908 47.3792 405.801 46.8013 404.946 44.4897C399.692 30.4851 384.629 28.8766 372.447 38.3946C359.663 44.219 345.282 45.3163 331.68 49.9412C318.298 54.7824 306.49 63.3323 293.239 67.093C248.404 60.8252 222.993 60.9913 198.315 112.217C194.511 112.85 190.424 117.216 187.331 119.767C173.272 123.64 161.953 136.786 149.492 143.875C135.233 150.454 123.985 163.436 117.099 177.826C113.312 191.327 117.696 203.638 118.611 216.173C117.009 224.249 116.634 234.482 116.082 242.586C110.652 261.617 88.2444 275.571 77.5208 293.135C71.764 302.442 76.4065 311.422 72.488 318.704C64.9772 327.429 66.0982 351.566 70.2884 359.328C68.816 367.013 69.5505 375.445 72.4435 383.21C72.5387 387.495 72.0333 391.31 73.8406 396.335C75.6456 401.786 80.7063 406.501 78.9713 411.664C78.234 417.541 80.802 422.191 81.4501 426.977C81.8669 443.287 73.8146 459.627 79.8292 476.13C84.8784 485.144 92.8753 483.204 95.3549 493.362C98.0928 511.541 98.1685 538.133 124.622 541.156C156.8 544.834 131.329 575.404 146.441 589.497C148.872 593.72 150.348 606.978 158.506 606.487C162.607 609.467 166.089 609.904 169.635 610.853C174.688 622.675 187.516 622.103 195.391 630.756C207.119 638.917 208.573 654.745 228.851 652.695C236.258 666.514 253.229 668.45 264.058 664.576C285.653 664.404 313.108 670.24 334.805 670.758C363.764 672.403 379.653 687.496 404.858 686.153C428.494 684.292 447.546 655.163 467.451 647.163C481.639 644.756 498.952 644.02 513.501 642.348C540.859 648.09 554.33 632.054 566.913 610.197C579.763 602.234 600.181 614.665 607.219 595.464C635.224 562.643 634.522 584.876 644.11 535.745C648.115 524.684 652.5 508.864 657.268 498.507C660.383 491.888 666.26 481.334 668.68 473.973C673.395 461.792 682.343 453.621 687.413 441.866C694.139 434.7 691.365 422.208 685.285 417.428L685.285 417.428ZM674.164 394.621C665.681 402.228 660.881 421.819 673.001 430.862C665.986 444.513 654.001 458.516 648.286 472.451C639.435 480.615 637.494 495.455 633.217 506.913C620.602 517.959 626.043 540.426 620.304 555.386C614.023 565.537 589.503 573.749 584.879 586.281C545.763 583.264 550.96 609.482 524.992 623.273C493.741 625.597 464.655 620.789 439.467 643.67C431.671 648.073 415.98 663.472 407.647 663.718C388.864 663.536 378.445 660.616 355.11 655.055C334.862 651.535 313.262 648.127 293.137 645.504C281.841 645.324 267.589 643.443 256.973 647.461C239.3 642.488 254.675 636.318 218.24 626.864C207.073 606.097 187.629 605.239 187.629 605.239C186.084 600.074 166.621 582.897 162.432 583.889C148.836 567.602 168.907 553.744 156.332 534.533C147.948 520.124 128.823 525.448 119.477 521.399C110.46 504.032 119.746 478.578 95.7184 467.393C95.0884 451.368 102.533 433.735 97.8243 417.745C96.9399 414.947 96.6207 413.238 97.2165 410.805C97.8655 397.122 88.6388 392.106 90.0761 379.412C91.5352 375.904 90.6273 371.822 87.8002 369.269C87.4576 363.335 90.1791 354.745 85.964 349.952C82.3509 325.951 92.9094 328.459 92.1616 310.188C90.953 292.068 127.794 274.43 133.552 247.073C134.6 231.916 138.154 217.937 135.095 202.871C130.883 186.049 135.119 179.659 146.137 168.193C153.374 159.931 166.105 156.319 174.193 148.527C186.512 138.547 198.715 134.552 211.343 125.378C220.789 109.86 225.972 94.4051 242.992 85.5633C259.222 76.7675 278.247 87.2519 298.067 84.4793C312.652 80.4878 324.389 71.9716 337.936 66.8637C354.415 61.8532 372.679 60.2436 387.721 50.5098C389.25 59.2436 406.843 67.455 408.3 66.8773C417.948 69.3309 420.685 59.6754 427.703 64.7826C438.63 72.6357 450.961 75.6176 462.059 74.8072C473.711 84.1827 494.458 85.7662 501.927 86.5241C502.393 88.227 508.074 93.9215 504.673 99.8599C491.922 122.125 510.977 154.151 533.285 163.553C537.656 164.877 549.985 169.122 553.656 169.545C557.624 171.003 562.014 174.165 566.714 174.478C566.027 186.57 568.94 195.132 575.636 205.275C589.171 228.567 625.848 237.806 650.797 240.162C649.203 262.482 661.163 277.946 677.126 294.354C680.069 329.468 656.764 337.939 669.371 358.655C667.62 362.407 667.964 375.336 675.652 375.797C677.98 381.822 680.499 388.804 674.164 394.621L674.164 394.621Z" fill="#000003"/>
<path d="M685.671 175.648C681.334 173.943 685.454 167.278 686.215 164.24C687.748 160.72 690.938 160.207 693.29 157.968C696.996 158.153 702.744 157.52 704.822 153.726C707.653 155.582 711.116 152.053 713.511 151.923C717.738 152.698 722.799 150.352 726.393 154.398C726.636 155.75 727.372 157.011 728.644 157.62C727.73 158.666 727.702 160.265 728.526 161.436C711.508 167.431 712.942 176.456 699.285 184.763C690.918 185.542 691.564 178.066 685.671 175.648L685.671 175.648Z" fill="#4B6CB3" stroke="#4B6CB3" stroke-width="2.50052" stroke-linejoin="round"/>
<path d="M699.478 177.664C698.939 177.604 698.398 177.457 697.861 177.217C697.817 177.197 697.772 177.177 697.729 177.156C697.176 177.094 696.619 176.961 696.064 176.756C695.291 176.9 694.548 176.943 693.87 176.868C691.8 176.64 690.66 174.704 690.058 173.026C689.394 171.854 689.152 170.521 689.355 169.145C689.383 167.97 689.69 167.108 690.095 166.478C690.129 166.16 690.195 165.834 690.301 165.501C690.612 164.516 691.231 163.755 691.994 163.166C692.33 162.475 692.797 161.856 693.42 161.356C694.66 160.366 699.71 158.412 702.79 158.929C704.422 159.203 705.282 160.076 705.717 160.761C706.173 161.481 706.491 162.309 706.685 163.199C708.745 166.165 708.118 169.846 705.031 172.782C705.009 172.824 704.986 172.864 704.962 172.905C704.675 174.364 704.098 175.748 703.018 176.615C701.978 177.448 700.743 177.803 699.478 177.664L699.478 177.664Z" fill="#7D98CE"/>
<path d="M738.707 163.83C737.142 160.361 734.455 159.763 732.622 157.066C734.982 154.45 733.481 151.622 730.743 150.406C730.446 145.75 718.335 145.745 717.217 145.821C715.96 140.706 710.766 142.893 706.325 146.039C702.264 141.788 697.742 147.027 695.758 150.61C679.997 149.258 673.972 165.543 679.208 178.067C682.627 181.59 685.64 182.135 687.499 186.882C686.637 192.263 693.744 197.006 698.287 197.862C721.166 202.512 715.03 178.559 729.279 171.898C732.054 169.855 739.651 168.373 738.707 163.83ZM685.671 175.648C681.334 173.943 685.454 167.278 686.215 164.24C687.747 160.72 690.938 160.207 693.29 157.968C696.996 158.153 702.743 157.52 704.822 153.726C707.653 155.582 711.116 152.053 713.511 151.923C717.738 152.698 722.799 150.352 726.393 154.398C726.636 155.75 727.372 157.011 728.644 157.62C727.73 158.666 727.702 160.265 728.526 161.436C711.508 167.431 712.942 176.456 699.285 184.763C690.918 185.542 691.563 178.066 685.671 175.648L685.671 175.648Z" fill="#000003"/>
<path d="M689.427 92.2885C688.149 89.7709 681.645 86.2353 679.044 85.77C680.756 83.7784 682.901 78.071 682.406 74.9147C683.883 75.553 689.307 72.9391 690.665 72.7421C692.49 75.686 693.264 82.7795 694.721 81.6697C695.025 82.8408 695.148 84.0067 694.81 85.115C694.735 85.3611 694.731 85.5896 694.741 85.8128C694.364 86.4255 694.094 87.3701 694.045 88.7764C691.935 88.8023 690.426 90.5239 689.427 92.2885L689.427 92.2885Z" fill="#4B6CB3" stroke="#4B6CB3" stroke-width="2.83465" stroke-linejoin="round"/>
<path d="M695.435 82.254C695.139 82.0508 693.928 81.341 692.52 82.2085L692.473 82.2077C690.266 82.2132 689.185 84.9257 689.097 86.3766C688.987 88.1865 690.078 89.6296 691.692 89.8071C693.461 90.0017 696.024 88.1577 696.68 86.2189C697.191 84.7099 696.69 83.1168 695.435 82.254L695.435 82.254Z" fill="#7D98CE"/>
<path d="M698.226 86.9247C698.294 86.8022 698.382 86.7076 698.428 86.5543C699.463 83.1674 698.171 80.4056 697.227 77.318C697.97 74.5786 697.872 71.3758 696.382 69.5692C694.231 67.284 683.972 62.0068 682.572 67.4719C672.613 67.1945 670.409 76.737 675.208 82.6818C672.269 84.6495 668.352 89.919 674.359 91.5303C677.021 91.4127 681.446 91.1749 683.773 91.4102C686.778 99.5314 692.519 102.278 697.124 93.6018C698.95 91.0978 698.936 88.5929 698.226 86.9247ZM689.427 92.2885C688.149 89.7709 681.645 86.2353 679.044 85.77C680.757 83.7784 682.901 78.071 682.406 74.9147C683.883 75.553 689.307 72.9391 690.665 72.7421C692.49 75.686 693.264 82.7795 694.721 81.6697C695.025 82.8408 695.148 84.0067 694.81 85.115C694.735 85.3611 694.731 85.5896 694.741 85.8128C694.364 86.4255 694.094 87.3701 694.045 88.7764C691.935 88.8023 690.426 90.5239 689.427 92.2885L689.427 92.2885Z" fill="#000003"/>
<path d="M636.365 117.783C642.056 121.119 644.281 116.416 648.435 112.493C645.071 106.801 651.682 106.559 654.298 105.33C653.971 103.788 653.409 102.251 653.435 100.485C651.772 100.521 650.263 98.9038 650.456 97.2015C644.948 92.6991 638.911 100.282 634.623 92.0082C632.386 94.1093 629.369 95.2547 625.107 96.2274L626.305 97.7182L626.257 97.7575C626.831 100.831 626.359 101.969 628.107 105.462C629.903 105.93 630.447 107.815 630.58 109.477C636.437 109.058 632.273 117.722 636.365 117.783L636.365 117.783Z" fill="#4B6CB3" stroke="#4B6CB3" stroke-width="2.49847" stroke-linejoin="round"/>
<path d="M656.571 97.4257C656.127 96.3209 654.87 94.4191 651.629 94.204C647.841 93.9376 642.228 96.0212 640.229 99.4355C639.206 101.184 639.127 103.16 640.075 105.011C639.8 107.399 640.838 108.946 642.099 109.656C642.632 109.956 643.195 110.127 643.774 110.191C644.687 110.292 645.642 110.126 646.58 109.783C647.688 109.696 648.963 109.311 650.398 108.524C654.622 106.205 658.219 101.525 656.571 97.4257L656.571 97.4257Z" fill="#7D98CE"/>
<path d="M635.67 127.92C634.41 127.781 633.547 127.05 632.881 126.092C629.228 126.246 627.035 120.798 626.329 117.494C624.301 114.896 620.736 113.626 621.97 109.818C620.982 109.325 620.371 108.814 619.942 107.43C617.197 107.277 617.041 104.551 616.695 102.432C614.278 99.1457 615.883 96.9545 617.674 93.1774C617.486 86.8553 625.204 87.332 629.674 87.1013C629.427 83.6597 631.673 79.6814 636.008 82.1939C638.629 83.745 638.716 88.7937 641.105 90.3414C646.393 88.4966 653.192 88.9046 657.111 96.2149C666.17 100.079 661.093 113.6 654.991 118.392C656.774 125.839 644.159 130.258 638.91 126.47C637.734 127.97 636.376 127.979 635.67 127.92L635.67 127.92ZM636.365 117.783C642.056 121.119 644.281 116.416 648.435 112.493C645.071 106.801 651.683 106.559 654.298 105.33C653.972 103.788 653.409 102.251 653.435 100.485C651.772 100.521 650.263 98.9038 650.456 97.2015C644.948 92.6991 638.911 100.282 634.623 92.0082C632.386 94.1093 629.369 95.2547 625.107 96.2274L626.305 97.7182L626.257 97.7575C626.831 100.831 626.359 101.969 628.107 105.462C629.903 105.93 630.447 107.815 630.58 109.477C636.437 109.058 632.273 117.722 636.365 117.783L636.365 117.783Z" fill="#000003"/>
</g>
<defs>
<filter id="filter0_d_164_926" x="-1.90735e-05" y="25" width="804" height="804" filterUnits="userSpaceOnUse" color-interpolation-filters="sRGB">
<feFlood flood-opacity="0" result="BackgroundImageFix"/>
<feColorMatrix in="SourceAlpha" type="matrix" values="0 0 0 0 0 0 0 0 0 0 0 0 0 0 0 0 0 0 127 0" result="hardAlpha"/>
<feMorphology radius="20" operator="dilate" in="SourceAlpha" result="effect1_dropShadow_164_926"/>
<feOffset dx="36" dy="56"/>
<feGaussianBlur stdDeviation="50"/>
<feComposite in2="hardAlpha" operator="out"/>
<feColorMatrix type="matrix" values="0 0 0 0 0.294118 0 0 0 0 0.423529 0 0 0 0 0.701961 0 0 0 0.5 0"/>
<feBlend mode="normal" in2="BackgroundImageFix" result="effect1_dropShadow_164_926"/>
<feBlend mode="normal" in="SourceGraphic" in2="effect1_dropShadow_164_926" result="shape"/>
</filter>
<clipPath id="clip0_164_926">
<rect width="648.939" height="648.939" fill="white" transform="translate(103.954 0.983246) rotate(6.27865)"/>
</clipPath>
</defs>
</svg>
