<svg width="30" height="30" viewBox="0 0 30 30" fill="none" xmlns="http://www.w3.org/2000/svg">
<path d="M17.8555 7.10742C18.5703 6.24023 19.0742 5.05664 19.0742 3.86133C19.0742 3.69727 19.0625 3.5332 19.0391 3.4043C17.8672 3.45117 16.4609 4.17773 15.6289 5.16211C14.9609 5.91211 14.3516 7.10742 14.3516 8.30273C14.3516 8.49023 14.3867 8.66602 14.3984 8.72461C14.4688 8.73633 14.5859 8.75977 14.7148 8.75977C15.7578 8.75977 17.0703 8.05664 17.8555 7.10742ZM18.6758 9.00586C16.9297 9.00586 15.5 10.0723 14.5859 10.0723C13.6133 10.0723 12.3477 9.07617 10.8242 9.07617C7.92969 9.07617 5 11.4668 5 15.9668C5 18.7793 6.07812 21.7441 7.42578 23.6543C8.57422 25.2715 9.58203 26.5957 11.0352 26.5957C12.4648 26.5957 13.0977 25.6465 14.8789 25.6465C16.6836 25.6465 17.0938 26.5723 18.6758 26.5723C20.2461 26.5723 21.2891 25.1309 22.2852 23.7129C23.3867 22.084 23.8555 20.502 23.8672 20.4199C23.7734 20.3965 20.7734 19.166 20.7734 15.7324C20.7734 12.7559 23.1289 11.4199 23.2695 11.3145C21.7109 9.07617 19.332 9.00586 18.6758 9.00586Z" fill="white"/>
</svg>
