<svg width="52" height="52" viewBox="0 0 52 52" fill="none" xmlns="http://www.w3.org/2000/svg">
<path d="M48.1663 26.4581C47.566 27.1224 47.3584 28.6872 48.3881 29.2869C47.9553 30.4087 47.1353 31.6004 46.8069 32.7333C46.1826 33.444 46.1584 34.6149 45.9216 35.5427C45.0267 36.5098 45.6479 38.2108 45.3265 39.4235C44.9211 40.2668 43.067 41.1154 42.8122 42.1297C39.7153 42.2298 40.3497 44.2246 38.4302 45.5195C35.9967 45.9677 33.6717 45.8426 31.8919 47.8378C31.3179 48.247 30.219 49.5791 29.5669 49.6696C28.0908 49.8162 27.2476 49.6782 25.3675 49.4453C23.7475 49.3448 22.0223 49.2646 20.4197 49.2328C19.5313 49.3155 18.3961 49.2911 17.5974 49.6945C16.167 49.459 17.3208 48.8474 14.3787 48.4239C13.3225 46.9042 11.7886 47.0038 11.7886 47.0038C11.6228 46.6153 9.94635 45.4459 9.62605 45.5589C8.41796 44.4084 9.87396 43.1588 8.72079 41.7721C7.93816 40.7231 6.48267 41.3008 5.71392 41.0659C4.85601 39.7922 5.36519 37.733 3.38221 37.0686C3.19433 35.8275 3.62651 34.3923 3.11869 33.1888C3.02508 32.9788 2.98527 32.8486 3.01103 32.6543C2.94379 31.5845 2.1761 31.2733 2.17928 30.2736C2.26353 29.9883 2.15699 29.6785 1.91299 29.5041C1.83483 29.0455 1.9743 28.3541 1.60198 28.0174C1.11101 26.1815 1.9616 26.2862 1.74507 24.8714C1.49367 23.4723 4.23366 21.7852 4.44939 19.608C4.4007 18.4202 4.55898 17.3025 4.18871 16.1568C3.71276 14.8844 3.99008 14.3511 4.75606 13.365C5.25287 12.6605 6.22112 12.2705 6.78878 11.5953C7.66972 10.7135 8.59327 10.2984 9.50547 9.4768C10.113 8.18891 10.3864 6.94248 11.6463 6.1091C12.8445 5.28606 14.4286 5.93874 15.9607 5.55347C17.0712 5.11819 17.9191 4.35535 18.9386 3.84212C20.189 3.31137 21.609 3.02988 22.7058 2.14404C22.9013 2.81028 24.3535 3.29842 24.4629 3.24101C25.2415 3.34929 25.373 2.57485 25.9681 2.91204C26.8937 3.42936 27.8875 3.55577 28.7519 3.39775C29.7476 4.02728 31.3901 3.9729 31.983 3.96792C32.0344 4.09639 32.5295 4.4907 32.3138 4.9817C31.5051 6.82266 33.2777 9.15057 35.1103 9.69093C35.4648 9.75658 36.4694 9.98122 36.7613 9.9827C37.0854 10.0622 37.4574 10.2706 37.829 10.2546C37.8796 11.2011 38.1822 11.8421 38.7956 12.5737C40.0593 14.2696 43.0186 14.6743 44.9977 14.6441C45.0653 16.3938 46.1379 17.4942 47.5328 18.6338C48.0672 21.3399 46.3107 22.1982 47.4794 23.7016C47.3743 24.0085 47.513 25.0111 48.1206 24.9812C48.3554 25.4299 48.6134 25.9515 48.1663 26.4581V26.4581Z" fill="#4B6CB3" stroke="#4B6CB3" stroke-width="4.15085" stroke-linejoin="round"/>
<path d="M48.1663 26.4581C47.566 27.1224 47.3584 28.6872 48.3881 29.2869C47.9553 30.4087 47.1353 31.6004 46.8069 32.7333C46.1826 33.444 46.1584 34.6149 45.9216 35.5427C45.0267 36.5098 45.6479 38.2108 45.3265 39.4235C44.9211 40.2668 43.067 41.1154 42.8122 42.1297C39.7153 42.2298 40.3497 44.2246 38.4302 45.5195C35.9967 45.9677 33.6717 45.8426 31.8919 47.8378C31.3179 48.247 30.219 49.5791 29.5669 49.6696C28.0908 49.8161 27.2476 49.6782 25.3675 49.4453C23.7475 49.3448 22.0223 49.2646 20.4197 49.2328C19.5313 49.3155 18.3961 49.2911 17.5974 49.6945C16.167 49.459 17.3208 48.8474 14.3787 48.4239C13.3225 46.9042 11.7886 47.0038 11.7886 47.0038C11.6227 46.6153 9.94635 45.4459 9.62605 45.5589C8.41796 44.4084 9.87396 43.1588 8.72079 41.7721C7.93816 40.7231 6.48267 41.3008 5.71392 41.0659C4.85601 39.7922 5.36519 37.733 3.38221 37.0686C3.19433 35.8275 3.62651 34.3923 3.11869 33.1888C3.02508 32.9788 2.98527 32.8486 3.01103 32.6543C2.94379 31.5845 2.1761 31.2733 2.17928 30.2736C2.26353 29.9883 2.15699 29.6785 1.91299 29.5041C1.83483 29.0455 1.9743 28.3541 1.60198 28.0174C1.11101 26.1815 1.9616 26.2862 1.74507 24.8714C1.49367 23.4723 4.23366 21.7852 4.44939 19.608C4.4007 18.4202 4.55898 17.3025 4.18871 16.1568C3.71276 14.8844 3.99008 14.3511 4.75606 13.365C5.25287 12.6605 6.22112 12.2705 6.78878 11.5953C7.66972 10.7135 8.59327 10.2984 9.50547 9.4768C10.113 8.18891 10.3864 6.94248 11.6463 6.1091C12.8445 5.28606 14.4286 5.93874 15.9607 5.55347C17.0712 5.11819 17.9191 4.35535 18.9386 3.84212C20.189 3.31137 21.609 3.02988 22.7058 2.14404C22.9013 2.81028 24.3535 3.29842 24.4629 3.24101C25.2415 3.34929 25.373 2.57485 25.9681 2.91204C26.8937 3.42936 27.8875 3.55577 28.7519 3.39775C29.7476 4.02728 31.3901 3.9729 31.983 3.96792C32.0344 4.09639 32.5295 4.4907 32.3138 4.9817C31.5051 6.82266 33.2777 9.15057 35.1103 9.69093C35.4648 9.75658 36.4694 9.98122 36.7613 9.9827C37.0854 10.0622 37.4574 10.2706 37.829 10.2546C37.8796 11.2011 38.1822 11.8421 38.7956 12.5737C40.0593 14.2696 43.0186 14.6743 44.9977 14.6441C45.0653 16.3938 46.1379 17.4942 47.5328 18.6338C48.0672 21.3399 46.3107 22.1982 47.4794 23.7016C47.3743 24.0085 47.513 25.0111 48.1206 24.9812C48.3554 25.4299 48.6134 25.9515 48.1663 26.4581V26.4581Z" stroke="white" stroke-width="2" stroke-linejoin="round"/>
<path d="M44.207 32.8502C43.8463 32.2487 43.6543 32.5286 43.6754 31.54C44.2981 31.278 43.759 30.5253 43.1349 30.4392C42.6759 29.7839 43.0485 29.4544 42.9988 28.7195C42.8909 28.1544 42.9772 27.461 43.1779 26.8923C43.5155 26.1282 43.3613 25.0776 42.2445 25.5161C42.0801 25.5577 41.5575 25.2161 41.4842 25.162C41.4669 24.2481 41.6046 23.1897 40.3554 24.1548C39.9603 23.905 39.6234 24.2419 39.2868 24.2167C38.7544 23.8091 38.4927 23.1729 37.8068 22.9082C37.4803 22.2574 36.2933 23.5058 35.9875 23.358C35.2897 23.0208 35.7071 22.4681 35.596 22.2115C35.4421 21.7905 35.2855 21.6983 34.9955 21.3514C34.2346 20.4412 33.776 20.0361 32.5499 21.1999C31.5578 22.0657 30.1799 21.0076 30.3487 20.0475C30.5205 19.9403 30.6969 19.6467 30.4863 19.4564C30.3839 19.3361 30.1807 19.367 30.0235 19.4084C29.0633 19.6163 28.1834 18.7322 27.8189 17.7772C27.4475 17.583 27.7099 17.0625 27.5905 16.7123C27.3898 16.4623 27.0222 16.5273 27.0531 16.1418C27.297 15.8141 27.1325 14.9715 26.6107 15.3831C24.9008 15.7724 21.3018 15.44 20.0248 14.1523C19.8951 13.7396 19.67 13.682 19.327 13.4442C19.3046 13.229 19.3601 12.5791 19.0183 12.6662C18.544 13.2886 17.673 13.3466 16.8962 13.4025C16.2289 13.5991 14.9137 12.1273 14.4429 12.8035C12.6436 13.1641 12.2063 16.1921 10.0013 14.9953C9.87623 14.6349 9.31835 14.4078 9.25499 14.9101C7.9693 16.9779 7.35556 15.3609 7.47113 17.1604C7.40077 17.5795 6.9392 18.0366 6.64794 18.3284C6.13703 18.3017 5.06455 18.2945 5.54848 19.0989C5.56038 19.7173 5.32861 20.3741 5.25348 21.0056C4.96763 21.5331 4.67386 22.1585 4.68217 22.7595C4.6975 23.8675 4.09739 24.2259 3.94872 25.0815C2.74631 24.434 2.7963 26.3761 2.92765 26.5989C3.00261 27.1451 3.19264 27.019 3.42923 27.2949C3.43613 27.6671 3.58971 28.1236 3.77473 28.4338C3.96094 28.8766 4.0334 30.2065 4.56135 30.6116C6.08512 31.7805 5.10326 32.3628 5.34417 33.8825C5.21685 35.2975 5.52415 36.4498 6.46735 37.3894C6.80139 37.7915 6.94769 39.1309 7.56992 39.0244C7.6967 39.0161 8.16918 38.8105 8.2372 38.9068C8.42641 39.2346 8.46447 39.3035 8.74569 39.3455C9.18069 40.1334 10.6518 39.7574 10.4835 40.4242C10.3474 40.9638 10.5203 41.2342 11.0838 42.0437C11.2276 43.4726 11.6125 43.1996 12.2899 44.1455C12.0183 44.5331 13.2114 46.0242 13.5388 45.8033C13.8902 45.6697 14.9943 46.0731 14.717 45.8015C14.9592 46.0387 14.9807 46.5145 15.3612 46.5442C15.7787 46.6702 16.2005 47.1195 16.6841 46.9973C16.8956 47.493 17.8501 46.6182 18.0019 46.3371C18.2692 46.4853 18.8198 46.9536 18.962 47.0252C19.1757 47.1328 19.7721 47.491 20.2858 47.4549C20.6967 47.426 20.9375 47.8192 22.1097 47.7564C23.0123 47.6587 24.0032 47.3984 24.1601 46.6419C24.9492 47.1455 24.9416 47.0035 25.7598 46.7936C25.8386 46.8514 26.1687 46.7534 26.2193 46.7599C26.33 47.4238 28.0222 48.0001 29.2654 47.468C29.8306 47.2262 30.2982 46.579 30.4907 45.9169C30.7021 45.8911 30.746 45.4111 31.2395 44.9896C32.0259 44.594 32.85 45.3658 33.656 44.939C33.9081 44.772 34.4718 45.0528 34.6601 44.8715C35.8638 44.7985 35.8118 43.8971 36.0896 43.0675C36.3639 42.841 36.576 42.8796 36.8894 42.528C37.4688 41.6778 37.3966 41.2101 38.6082 40.8588C39.1204 40.767 39.7083 40.9906 40.1909 40.5722C40.4385 40.6405 41.0201 40.4319 40.8375 40.2519C41.2892 39.8427 40.7824 39.6824 40.8035 39.2402C41.3541 39.5047 41.4776 38.721 41.4332 38.3467C41.7347 38.0268 43.1675 37.6057 42.9208 37.2355C42.4623 36.1218 42.289 33.7765 43.7135 33.356C43.9708 33.3579 44.3758 33.275 44.207 32.8502H44.207Z" fill="#7D98CE"/>
<path d="M4.31104 16.8653C4.27466 16.8653 4.24173 16.8584 4.21339 16.849C4.18646 16.8401 3.94826 16.7516 4.03258 16.4491C4.04865 16.3718 4.03743 16.2881 4.02445 16.191C4.00362 16.0354 3.97828 15.8456 4.05862 15.6399C4.02366 15.6342 3.99417 15.6251 3.97095 15.6159C3.87675 15.5787 3.80877 15.5017 3.78449 15.4048C3.76453 15.325 3.77592 15.2416 3.81936 15.1528C3.8085 15.0991 3.80991 15.0435 3.82113 14.9881C3.79323 14.9794 3.76665 14.9679 3.74131 14.9536C3.64349 14.8981 3.57948 14.8063 3.56094 14.6949C3.53613 14.5463 3.59687 14.3702 3.74175 14.1695C3.72233 14.1163 3.71359 14.0595 3.71651 14.0004C3.72127 13.9046 3.75836 13.8092 3.82157 13.7234C3.76391 13.6798 3.72286 13.6183 3.70803 13.5459C3.65144 13.2657 3.91639 13.0404 4.18408 12.9132C4.19777 12.7939 4.24456 12.6821 4.32057 12.5951C4.4199 12.4817 4.55675 12.4189 4.71328 12.413C4.86708 12.185 5.12347 12.003 5.40034 12.0191C5.70899 11.9621 6.08563 12.0421 6.27695 12.2745C6.64361 12.4405 6.72378 12.7084 6.72378 12.9106C6.72378 13.1973 6.56274 13.5061 6.30353 13.7168C6.11724 13.8681 5.8997 13.954 5.68286 13.9657C5.68207 13.9905 5.67862 14.016 5.67209 14.042C5.62574 14.2254 5.50725 14.339 5.41208 14.4303C5.33933 14.5 5.29395 14.5455 5.27824 14.6001C5.27356 14.6192 5.26455 14.6718 5.25316 14.7348C5.17865 15.1496 5.15613 15.2748 5.00878 15.3481C4.95051 15.3769 4.8865 15.3865 4.82567 15.3773C4.80431 15.4265 4.78003 15.4733 4.75425 15.5156C4.75999 15.7845 4.76034 16.5505 4.5895 16.7198C4.48815 16.8319 4.39121 16.8653 4.31104 16.8653L4.31104 16.8653ZM4.45115 13.8015L4.45106 13.8017L4.45115 13.8015Z" fill="#7D98CE"/>
<path d="M48.5079 18.747C47.0622 16.8311 46.182 15.2626 45.516 14.6281C44.0014 13.185 43.5942 14.485 40.1618 12.659C39.9399 11.6467 38.9384 11.122 38.5874 10.078C38.043 9.76561 37.768 9.04749 37.1932 9.33108C36.4803 9.68278 34.296 9.14866 33.2592 7.47659C33.0406 7.12417 33.026 6.35216 32.5522 6.24593C31.7701 6.37937 32.7162 5.28612 31.7694 5.05717C31.57 4.97704 30.1953 5.00138 30.5339 5.65763C29.8969 5.71573 30.5301 5.18872 29.5211 4.78438C28.4018 4.33583 29.3056 6.03301 28.0265 5.64046C27.7313 5.13306 26.9427 4.91889 26.5578 5.06662C26.3231 4.33583 25.8537 5.33236 24.7473 4.10331C24.1423 3.91298 23.5638 4.77524 23.0468 4.3515C22.2187 3.60417 21.6864 4.9963 21.0564 4.76382C20.1087 4.19681 20.5171 5.49615 19.7851 5.66454C19.3265 6.05094 18.8812 6.05408 18.3098 6.12959C18.0018 6.73322 16.4753 6.08251 16.2703 6.92069C14.833 5.80175 14.9068 7.25413 13.3095 6.71219C11.9047 7.57373 13.3928 7.26649 11.5376 7.80283C11.576 8.33294 10.999 8.09437 10.7672 8.27957C10.3511 8.62313 10.7018 9.49073 11.2974 9.44114C12.0331 9.2603 12.5174 8.61728 13.18 9.01952C13.7972 8.88006 14.3998 8.49452 14.8564 8.18908C15.3848 7.58627 16.0912 8.90904 17.304 8.15586C18.2686 7.04726 18.7673 8.38049 19.9247 7.74038C21.3381 7.34045 20.998 6.65022 22.9703 7.35864C23.59 7.58124 24.4619 7.14533 24.9149 7.19255C25.6635 7.27057 25.1831 8.05621 27.0607 7.92334C27.747 7.87477 26.8098 9.05182 27.7098 8.99766C29.2466 9.54769 28.9938 8.50993 29.7765 9.84996C30.2802 9.69113 31.1082 9.9438 31.017 10.5143C31.6439 11.6338 33.0226 11.3106 34.1352 11.5758C34.7022 10.7903 35.2751 11.6105 35.9792 11.0458C35.8116 12.1752 36.46 11.5615 36.7503 11.9427C37.0098 12.4709 37.3203 13.4707 38.1585 14.3011C38.5599 14.6988 40.2988 15.4232 40.8888 15.2512C41.0301 15.7097 41.5087 15.159 41.7617 15.2438C41.9702 15.6525 42.7964 15.5706 43.1245 15.3662C42.9403 15.8297 43.9013 15.3979 43.8248 15.6631C43.3554 17.2907 45.6868 17.1345 44.9312 18.7191C44.3425 18.815 43.9317 19.1 43.5566 18.7855C43.1207 18.4201 42.6693 17.819 42.0143 18.3869C41.746 18.6194 41.878 19.5714 42.9307 19.5204C43.0098 19.8711 43.8727 19.3876 43.8717 19.8586C43.8703 20.5275 45.1625 20.4878 45.87 20.4132C47.4458 20.2471 48.3962 21.2369 48.5079 18.747L48.5079 18.747Z" fill="#7D98CE"/>
<path d="M36.6768 40.49C36.3354 40.5718 36.1903 40.9211 35.9847 41.1238C35.4377 41.4954 34.6001 42.1886 34.0046 41.9902C33.2713 41.8675 32.1991 41.6094 31.6017 42.0673C30.0849 42.5718 28.7712 43.5839 27.6845 44.952C27.4024 45.5147 27.1574 45.2865 26.7172 45.4001C25.6984 46.5517 28.4806 47.3349 29.3108 46.8059C31.1076 41.5499 33.677 45.8573 34.9567 43.4219C35.5356 42.4293 36.7551 42.539 37.1246 41.2177C37.5744 40.9575 36.8687 40.324 36.6768 40.49V40.49Z" fill="#4B6CB3" stroke="#4B6CB3" stroke-width="0.16855" stroke-miterlimit="10"/>
<path d="M12.927 40.1433C12.7969 39.7601 12.7883 39.2917 12.4827 38.9702C12.3207 38.7535 12.2233 38.6348 12.255 38.3867C12.4503 36.9977 10.9473 37.7196 10.3248 37.1602C10.3317 36.4734 9.4374 36.6321 8.99979 36.5471C8.85987 36.4322 8.49997 36.0824 8.50883 35.9008C8.49172 35.7341 8.46576 35.482 8.25475 35.3424C7.96197 35.1492 7.5804 34.2086 7.45633 33.564C7.51571 33.4675 7.4964 33.3266 7.41685 33.2488C7.47608 32.0071 6.47169 32.5602 6.1809 33.2958C5.32719 34.7738 6.43561 35.1555 6.89422 36.1669C7.97242 38.3528 7.56843 38.0229 8.56613 38.1276C8.61411 38.407 9.03806 38.4174 9.09799 38.143C9.90416 38.0425 10.0668 38.387 10.4092 39.1041C10.2942 39.3579 10.8973 39.7704 11.0142 39.3179C11.0482 39.3169 11.082 39.3181 11.1095 39.3212C11.8518 42.0851 13.9976 41.6212 12.927 40.1433H12.927Z" fill="#4B6CB3" stroke="#4B6CB3" stroke-width="0.16855" stroke-miterlimit="10"/>
<path d="M13.6717 26.7772C13.7835 26.8363 13.8615 26.9268 13.9926 26.9606C14.1984 27.0136 14.4435 26.9808 14.6512 26.9794L16.1503 26.9693C16.7437 26.9652 16.745 26.0512 16.1503 26.0552L14.9157 26.0636C14.7431 26.0647 14.5586 26.0529 14.3866 26.0672C14.1818 26.0509 14.1527 26.0604 14.2992 26.0956C14.2512 26.0507 14.1972 26.0148 14.1373 25.9879C13.6137 25.7111 13.1471 26.4999 13.6717 26.7772L13.6717 26.7772Z" fill="#4B6CB3"/>
<path d="M33.0723 27.4672C33.4615 27.5787 33.8223 27.5422 34.2192 27.5022C34.6431 27.4594 35.0336 27.5087 35.4471 27.6031C36.0249 27.7351 36.2716 26.854 35.6923 26.7217C35.3153 26.6356 34.9284 26.5601 34.5397 26.5661C34.1288 26.5724 33.7217 26.7016 33.3176 26.5858C32.7462 26.4221 32.5021 27.3039 33.0723 27.4672V27.4672Z" fill="#4B6CB3"/>
<path d="M22.4981 39.3139H25.4592C26.2507 39.3139 26.252 38.0952 25.4592 38.0952H22.4981C21.7066 38.0952 21.7053 39.3139 22.4981 39.3139Z" fill="#4B6CB3" stroke="#4B6CB3" stroke-width="0.16855" stroke-miterlimit="10"/>
<path d="M22.1393 38.9585H25.1004C25.8919 38.9585 25.8932 37.7397 25.1004 37.7397H22.1393C21.3478 37.7397 21.3465 38.9585 22.1393 38.9585Z" fill="#000003"/>
<path d="M39.5701 33.9173C39.4848 34.1633 39.4822 34.5736 39.3751 34.8339C39.268 35.0943 39.0723 35.0525 38.9003 35.0561C38.2698 35.07 37.5931 35.0747 36.9625 35.083C35.7013 35.0997 35.1469 35.0242 33.8858 35.0457C31.4429 35.0873 27.6745 35.0513 25.2326 35.1232C20.1746 35.2722 16.4543 35.297 11.3944 35.3189C11.3754 35.319 11.1107 35.1531 11.0928 35.1547C10.7326 34.6961 10.6947 34.4335 10.2619 34.034C9.75417 33.5655 8.59212 34.1619 9.17446 34.877C9.58763 35.3844 9.82312 35.6318 10.2058 36.1608C10.3741 36.3934 11.3302 36.9305 12.5087 36.951C15.4187 37.0016 22.2494 36.7408 27.7736 37.0016C30.8118 37.145 33.7677 37.1844 36.5037 37.1533C37.7664 37.139 39.0217 36.8032 39.9839 36.4452C40.8961 36.1057 40.8948 35.0378 41.0333 34.2064C41.2428 32.9481 39.9013 32.962 39.5701 33.9173L39.5701 33.9173Z" fill="#4B6CB3" stroke="#4B6CB3" stroke-width="0.16855" stroke-miterlimit="10"/>
<path d="M39.5329 33.3092C39.4374 33.5631 39.4511 33.9967 39.3457 34.2703C39.2403 34.5438 39.0422 34.5022 38.8686 34.5079C38.2321 34.5291 37.5488 34.5413 36.9121 34.5569C35.6388 34.588 35.0782 34.515 33.8049 34.5511C31.3385 34.621 27.5329 34.6239 25.0678 34.7255C19.9619 34.936 16.2054 35.002 11.0962 35.0796C11.077 35.0799 10.808 34.9091 10.7899 34.911C10.4213 34.4352 10.3803 34.1608 9.93896 33.7476C9.4213 33.263 8.25421 33.8994 8.84983 34.6412C9.27243 35.1675 9.51285 35.4238 9.90493 35.9732C10.0773 36.2147 10.5516 36.4452 11.1264 36.3362C11.1585 36.3301 21.9392 36.3506 27.5183 36.0912C30.2783 35.9628 33.3669 36.0183 36.1293 35.9563C37.4042 35.9277 38.5932 35.9684 39.8562 35.7877C40.8309 35.6483 40.9372 34.4739 41.0134 33.5959C41.0746 32.8917 39.7799 32.6526 39.5329 33.3092L39.5329 33.3092Z" fill="#000003"/>
<path d="M16.7147 24.2437C16.3293 23.216 14.8712 21.7829 13.2747 21.3126C11.4195 20.7662 9.21315 21.0941 8.41594 22.1548C8.25032 22.3752 8.23087 22.5084 8.21033 22.6012C8.13607 22.9366 8.33618 23.1694 8.6806 23.2708C9.02501 23.3723 9.30153 23.2185 9.38976 22.9245C9.41464 22.8416 9.48489 22.6866 9.49448 22.6675C10.0305 21.6022 13.8471 22.5597 14.1406 23.524C13.7682 23.6962 16.8216 24.5284 16.7147 24.2437V24.2437Z" fill="#4B6CB3"/>
<path d="M17.0524 22.013C16.2696 20.8159 14.1393 19.5017 12.1788 19.5017C9.90065 19.5017 7.52245 20.7822 6.98213 22.4787C6.86989 22.8312 6.89305 23.0132 6.9013 23.1426C6.93108 23.6105 7.23565 23.8381 7.65859 23.8381C8.08152 23.8381 8.34143 23.53 8.34143 23.111C8.34143 22.9928 8.3682 22.7627 8.37257 22.7341C8.61664 21.1323 13.2468 20.9139 13.9045 22.0636C13.5426 22.4327 13.2389 22.9491 13.2389 23.5039C13.2389 24.6363 14.1415 25.3926 15.2862 25.3926C16.4308 25.3926 17.41 24.5254 17.41 23.393C17.41 23.0117 17.2693 22.3447 17.0524 22.013H17.0524Z" fill="#000003"/>
<path d="M14.2126 20.9516C14.5571 21.2755 15.5727 20.9255 15.2273 20.6008C13.9903 19.438 12.0412 18.3667 10.2765 18.4529C9.80372 18.476 9.82887 19.1387 10.2765 19.1841C12.1518 19.3743 13.1104 19.9155 14.2126 20.9516H14.2126Z" fill="#000003"/>
<path d="M15.4229 24.712C16.0878 24.712 16.6268 24.2154 16.6268 23.6027C16.6268 22.9901 16.0878 22.4934 15.4229 22.4934C14.7579 22.4934 14.2189 22.9901 14.2189 23.6027C14.2189 24.2154 14.7579 24.712 15.4229 24.712Z" fill="white"/>
<path d="M15.6907 24.6197C16.1794 24.6197 16.5755 24.2867 16.5755 23.8759C16.5755 23.4651 16.1794 23.1321 15.6907 23.1321C15.202 23.1321 14.8058 23.4651 14.8058 23.8759C14.8058 24.2867 15.202 24.6197 15.6907 24.6197Z" fill="#4B6CB3"/>
<path d="M32.5648 24.6985C32.9502 23.6708 34.4083 22.2378 36.0048 21.7675C37.86 21.221 40.0663 21.5489 40.8636 22.6097C41.0292 22.83 41.0486 22.9632 41.0692 23.056C41.1434 23.3915 40.9433 23.6242 40.5989 23.7257C40.2545 23.8271 39.978 23.6733 39.8897 23.3793C39.8649 23.2964 39.7946 23.1414 39.785 23.1223C39.249 22.057 35.4324 23.0145 35.1389 23.9789C35.5113 24.1511 32.4579 24.9833 32.5648 24.6985V24.6985Z" fill="#4B6CB3"/>
<path d="M32.5763 23.6593C33.0917 22.5776 34.4307 21.3313 36.0786 20.9634C37.9934 20.5358 40.2557 21.0898 41.0588 22.3138C41.2257 22.568 41.2436 22.7145 41.2634 22.8172C41.3346 23.1883 41.1254 23.4232 40.7699 23.5026C40.4144 23.582 40.1326 23.3901 40.0464 23.0628C40.0221 22.9705 39.9523 22.7957 39.9427 22.7741C39.408 21.5687 35.3139 22.2389 34.9976 23.2605C35.3778 23.4809 35.7344 23.8639 35.8485 24.2974C36.0815 25.1819 35.6407 25.9336 34.6786 26.1484C33.7165 26.3632 32.6269 25.9322 32.3939 25.0476C32.3155 24.7498 32.4382 23.949 32.5763 23.6593L32.5763 23.6593Z" fill="#000003"/>
<path d="M34.7507 22.1635C34.4062 22.4873 33.2361 22.7939 33.502 22.4026C34.334 21.1782 36.9221 19.5785 38.6868 19.6647C39.1596 19.6878 39.1345 20.3506 38.6868 20.3959C36.8115 20.5861 35.8529 21.1274 34.7507 22.1635V22.1635Z" fill="#000003"/>
<path d="M34.1039 25.5956C34.7173 25.5956 35.2146 25.1625 35.2146 24.6282C35.2146 24.094 34.7173 23.6609 34.1039 23.6609C33.4905 23.6609 32.9933 24.094 32.9933 24.6282C32.9933 25.1625 33.4905 25.5956 34.1039 25.5956Z" fill="white"/>
<path d="M33.8121 25.4469C34.2389 25.4469 34.5849 25.1591 34.5849 24.804C34.5849 24.449 34.2389 24.1611 33.8121 24.1611C33.3853 24.1611 33.0393 24.449 33.0393 24.804C33.0393 25.1591 33.3853 25.4469 33.8121 25.4469Z" fill="#4B6CB3"/>
<path d="M49.2364 28.1369C49.1813 28.0854 49.1035 28.013 49.0606 27.9651C49.1115 27.2567 50.0025 26.6509 49.8498 25.7328C49.821 25.4168 49.4912 23.978 48.7214 23.6641C48.6564 23.2755 48.7341 22.9944 48.5858 22.7715C48.9155 21.7519 49.2215 20.5414 48.9868 19.384C49.378 19.3781 49.448 18.4935 48.9546 17.8885C48.5619 17.407 47.6468 17.2117 47.4458 16.9917C46.7422 16.2211 46.6554 15.2648 46.3928 14.3303C46.2483 13.8161 46.4773 13.2873 45.8223 13.0785C45.3741 13.05 44.8013 13.3366 44.3754 13.2732C41.8743 12.9062 40.6524 12.6434 39.1979 10.6803C38.8777 8.96681 38.8237 8.7358 37.8446 8.83638C37.3984 8.70909 36.9661 8.53731 36.5032 8.67619C36.1208 8.78057 34.7003 8.15789 34.4138 7.98618C34.3276 7.84084 33.7038 7.20866 33.5808 7.05264C32.648 6.29943 34.619 3.84478 33.5945 4.26555C33.3507 4.36567 32.9689 3.85428 33.1543 3.24546C33.2687 2.87002 32.4117 3.07716 32.1859 3.10581C31.6498 3.13228 31.1244 2.8855 30.5828 2.80505C29.791 2.34704 28.9951 1.74407 27.958 2.06918C26.6099 1.88724 25.7765 0.871409 24.4875 1.80306C24.2636 1.72777 24.0932 1.70085 24.0062 1.52837C23.4727 0.484041 22.2762 0.487837 21.402 1.33241C20.4488 1.89483 19.3292 2.10325 18.3013 2.57939C17.2925 3.07046 16.4393 3.83653 15.4315 4.24245C11.8574 4.13862 9.86386 4.369 8.36893 8.56456C8.0758 8.64639 7.79264 9.02095 7.57185 9.24583C6.50154 9.66737 5.72645 10.7867 4.80937 11.4448C3.74675 12.0786 2.97583 13.1846 2.55957 14.3627C2.37882 15.4453 2.82939 16.3653 3.00946 17.3324C2.95343 17.9743 3.01245 18.7735 3.03906 19.4085C2.77716 20.9353 1.13851 22.2124 0.448347 23.6703C0.0767802 24.4435 0.51883 25.1023 0.274093 25.7022C-0.240204 26.4451 0.0562932 28.3129 0.4523 28.8808C0.403094 29.4911 0.533585 30.1407 0.827783 30.7199C0.872272 31.0524 0.865552 31.3534 1.05084 31.7288C1.23963 32.1373 1.67767 32.4608 1.58606 32.8772C1.57893 33.3406 1.82071 33.6804 1.91292 34.047C2.08653 35.3121 1.5955 36.6519 2.21024 37.8841C2.68451 38.542 3.29557 38.3227 3.57798 39.0916C3.94996 40.4821 4.1856 42.5498 6.28849 42.5586C8.84652 42.5693 7.11087 45.165 8.41904 46.1319C8.64639 46.4395 8.87677 47.4582 9.51302 47.3501C9.86068 47.5468 10.1378 47.551 10.4244 47.5945C10.9233 48.4707 11.9254 48.3165 12.6184 48.9221C13.6097 49.4565 13.8605 50.6752 15.4348 50.3422C16.1357 51.3537 17.4847 51.3591 18.3015 50.965C19.9954 50.7669 22.2012 50.9859 23.9091 50.8405C26.1968 50.7206 27.5746 51.7585 29.5418 51.4384C31.3813 51.0914 32.6254 48.6626 34.119 47.87C35.2122 47.5614 36.565 47.356 37.6928 47.1015C39.8902 47.3139 40.8093 45.9514 41.6083 44.1437C42.5484 43.4143 44.2587 44.2065 44.6454 42.6527C46.5605 39.8602 46.6975 41.5955 47.0258 37.692C47.2447 36.7975 47.4523 35.5294 47.7372 34.6831C47.9246 34.1416 48.2948 33.2703 48.4212 32.6771C48.6862 31.6892 49.318 30.9771 49.6146 30.0195C50.0807 29.4045 49.7551 28.4566 49.2364 28.1369L49.2364 28.1369ZM48.1663 26.4581C47.566 27.1224 47.3584 28.6872 48.3881 29.2868C47.9553 30.4087 47.1353 31.6004 46.8069 32.7332C46.1826 33.444 46.1584 34.6148 45.9216 35.5426C45.0267 36.5098 45.6479 38.2108 45.3265 39.4234C44.9211 40.2668 43.067 41.1153 42.8122 42.1296C39.7153 42.2297 40.3497 44.2246 38.4302 45.5195C35.9967 45.9677 33.6717 45.8425 31.8919 47.8378C31.3179 48.247 30.219 49.579 29.5669 49.6695C28.0908 49.8161 27.2476 49.6781 25.3675 49.4453C23.7475 49.3448 22.0223 49.2646 20.4197 49.2328C19.5313 49.3154 18.3961 49.2911 17.5974 49.6945C16.167 49.4589 17.3208 48.8474 14.3787 48.4239C13.3225 46.9042 11.7886 47.0038 11.7886 47.0038C11.6227 46.6153 9.94634 45.4458 9.62605 45.5588C8.41796 44.4084 9.87396 43.1587 8.72079 41.772C7.93815 40.7231 6.48267 41.3008 5.71391 41.0659C4.85601 39.7922 5.36519 37.7329 3.38221 37.0686C3.19433 35.8275 3.62651 34.3922 3.11869 33.1888C3.02508 32.9787 2.98527 32.8486 3.01103 32.6542C2.94379 31.5844 2.1761 31.2732 2.17928 30.2736C2.26353 29.9882 2.15699 29.6785 1.91299 29.5041C1.83483 29.0454 1.9743 28.3541 1.60198 28.0173C1.11101 26.1814 1.9616 26.2862 1.74507 24.8714C1.49367 23.4723 4.23365 21.7852 4.44939 19.608C4.4007 18.4201 4.55898 17.3024 4.18871 16.1568C3.71276 14.8843 3.99008 14.3511 4.75606 13.3649C5.25286 12.6604 6.22112 12.2705 6.78878 11.5952C7.66972 10.7135 8.59327 10.2983 9.50547 9.47676C10.113 8.18887 10.3864 6.94245 11.6463 6.10906C12.8445 5.28603 14.4286 5.9387 15.9607 5.55344C17.0712 5.11816 17.9191 4.35531 18.9386 3.84209C20.189 3.31134 21.609 3.02984 22.7058 2.14401C22.9013 2.81025 24.3535 3.29838 24.4629 3.24098C25.2415 3.34926 25.373 2.57481 25.9681 2.912C26.8937 3.42932 27.8875 3.55573 28.7519 3.39772C29.7476 4.02724 31.3901 3.97286 31.983 3.96789C32.0344 4.09636 32.5295 4.49066 32.3138 4.98166C31.5051 6.82263 33.2777 9.15053 35.1103 9.6909C35.4648 9.75654 36.4694 9.98118 36.7613 9.98266C37.0854 10.0621 37.4574 10.2705 37.829 10.2546C37.8796 11.2011 38.1822 11.842 38.7956 12.5737C40.0593 14.2696 43.0186 14.6743 44.9977 14.6441C45.0653 16.3937 46.1379 17.4942 47.5328 18.6338C48.0672 21.3398 46.3107 22.1982 47.4794 23.7016C47.3743 24.0084 47.513 25.0111 48.1206 24.9812C48.3554 25.4299 48.6134 25.9514 48.1663 26.4581V26.4581Z" fill="#000003"/>
<path d="M47.1783 9.32741C46.823 9.23193 47.0889 8.6783 47.1224 8.43546C47.2123 8.14852 47.4584 8.08132 47.6237 7.88709C47.9162 7.86972 48.362 7.7713 48.4924 7.45844C48.7307 7.5786 48.9721 7.27442 49.159 7.24383C49.4976 7.26792 49.8746 7.04215 50.1917 7.32611C50.2225 7.42918 50.2912 7.52098 50.3963 7.55747C50.3335 7.64666 50.3451 7.77126 50.42 7.85527C49.1357 8.46723 49.3262 9.1569 48.3258 9.91993C47.6757 10.0521 47.6618 9.4651 47.1783 9.32741V9.32741Z" fill="#4B6CB3" stroke="#4B6CB3" stroke-width="1.48679" stroke-linejoin="round"/>
<path d="M48.2797 9.36615C48.2368 9.36615 48.1931 9.35928 48.1488 9.34524L48.1379 9.34161C48.094 9.34153 48.0492 9.33597 48.0038 9.32479C47.9443 9.34253 47.8864 9.35226 47.8325 9.35226C47.668 9.35226 47.5618 9.21136 47.5001 9.08605C47.4378 9.00056 47.4072 8.89894 47.4113 8.79014C47.4034 8.69855 47.42 8.62888 47.4464 8.57641C47.4464 8.55141 47.4487 8.52548 47.4541 8.49863C47.47 8.41939 47.5121 8.35488 47.5669 8.30257C47.5873 8.24593 47.6186 8.19377 47.6632 8.14956C47.752 8.0619 48.1315 7.86677 48.3778 7.88058C48.5083 7.88791 48.5834 7.94848 48.6234 7.99802C48.6655 8.0501 48.6976 8.11183 48.7205 8.17942C48.9079 8.39246 48.8904 8.68413 48.6734 8.93891L48.6691 8.9491C48.6591 9.06499 48.6258 9.17757 48.5485 9.25426C48.4741 9.32795 48.3801 9.36615 48.2797 9.36615H48.2797Z" fill="#7D98CE"/>
<path d="M51.24 7.95445C51.0872 7.69801 50.871 7.67448 50.7038 7.4804C50.8665 7.25674 50.7242 7.04962 50.4988 6.9785C50.4352 6.61887 49.4844 6.72217 49.3973 6.73764C49.2544 6.35049 48.8655 6.56508 48.544 6.84775C48.1885 6.55184 47.8787 6.99811 47.7539 7.29375C46.5049 7.32345 46.1726 8.64171 46.6918 9.57099C46.9907 9.81573 47.2319 9.83236 47.4188 10.1857C47.3976 10.6116 47.9966 10.9197 48.3606 10.9474C50.197 11.1133 49.5083 9.3027 50.5694 8.66265C50.7697 8.48005 51.3533 8.29971 51.24 7.95446L51.24 7.95445ZM47.1783 9.32752C46.823 9.23204 47.0889 8.6784 47.1224 8.43556C47.2123 8.14863 47.4584 8.08143 47.6237 7.8872C47.9162 7.86983 48.362 7.7714 48.4924 7.45855C48.7307 7.5787 48.9721 7.27453 49.159 7.24394C49.4976 7.26803 49.8746 7.04226 50.1918 7.32622C50.2225 7.42928 50.2912 7.52109 50.3963 7.55758C50.3335 7.64677 50.3451 7.77137 50.42 7.85538C49.1357 8.46734 49.3262 9.15701 48.3259 9.92004C47.6757 10.0522 47.6618 9.46521 47.1783 9.32752V9.32752Z" fill="#000003"/>
<path d="M46.7531 2.81169C46.631 2.62681 46.0899 2.40746 45.8817 2.39353C45.9989 2.22397 46.1179 1.76169 46.0518 1.52042C46.1733 1.55744 46.5766 1.3077 46.6815 1.28076C46.8501 1.49413 46.9722 2.03924 47.077 1.94044C47.111 2.02893 47.1308 2.11857 47.1137 2.20767C47.11 2.22746 47.1117 2.24526 47.1143 2.26253C47.0901 2.31341 47.077 2.3892 47.0854 2.499C46.9199 2.51907 46.8163 2.66589 46.7531 2.81169H46.7531Z" fill="#4B6CB3" stroke="#4B6CB3" stroke-width="1.68547" stroke-linejoin="round"/>
<path d="M47.1381 1.9797C47.1131 1.96642 47.012 1.92158 46.9089 2.0011L46.9052 2.00144C46.732 2.02075 46.6706 2.24098 46.6762 2.35459C46.6832 2.49631 46.7813 2.59921 46.9095 2.59921C47.0501 2.59921 47.2354 2.43385 47.2701 2.27743C47.2972 2.15569 47.2441 2.03606 47.1381 1.9797V1.9797Z" fill="#7D98CE"/>
<path d="M47.3976 2.31919C47.4019 2.30907 47.4079 2.30097 47.4103 2.28865C47.4623 2.01635 47.3369 1.8126 47.2362 1.58052C47.2708 1.36109 47.2355 1.1128 47.1029 0.985041C46.9143 0.825703 46.0633 0.503023 46.0006 0.940093C45.2164 1.00374 45.1257 1.76483 45.5539 2.18616C45.3401 2.36435 45.0781 2.80774 45.5636 2.88167C45.7716 2.84974 46.1169 2.79338 46.3017 2.79176C46.6077 3.39772 47.0822 3.56221 47.3688 2.84797C47.4905 2.63758 47.4677 2.44287 47.3976 2.31919V2.31919ZM46.7531 2.81169C46.631 2.62681 46.0899 2.40746 45.8817 2.39353C45.9989 2.22397 46.118 1.76168 46.0518 1.52042C46.1733 1.55743 46.5766 1.3077 46.6815 1.28076C46.8501 1.49412 46.9722 2.03924 47.077 1.94044C47.111 2.02892 47.1308 2.11856 47.1137 2.20766C47.11 2.22745 47.1117 2.24525 47.1144 2.26253C47.0901 2.3134 47.077 2.38919 47.0854 2.49899C46.9199 2.51907 46.8163 2.66589 46.7531 2.81169H46.7531Z" fill="#000003"/>
<path d="M42.8075 5.24891C43.2831 5.4597 43.4172 5.07488 43.7094 4.73421C43.3962 4.32024 43.9131 4.24483 44.1078 4.12684C44.0689 4.00972 44.0114 3.89498 43.9983 3.75739C43.868 3.77441 43.7355 3.66154 43.736 3.52749C43.2647 3.22441 42.8562 3.86587 42.4481 3.25903C42.2906 3.44161 42.0637 3.55651 41.7375 3.66865L41.8444 3.77435L41.841 3.77782C41.9126 4.01199 41.8854 4.1045 42.0528 4.36126C42.1978 4.38227 42.2568 4.52427 42.2816 4.65241C42.7378 4.56969 42.4858 5.27923 42.8075 5.24891V5.24891Z" fill="#4B6CB3" stroke="#4B6CB3" stroke-width="1.48558" stroke-linejoin="round"/>
<path d="M44.2181 3.49261C44.1737 3.41048 44.0585 3.27331 43.8022 3.28432C43.5025 3.29601 43.0799 3.50611 42.9524 3.78879C42.8872 3.93353 42.8981 4.08789 42.9885 4.22377C42.9875 4.41185 43.0823 4.52331 43.1875 4.56777C43.2319 4.58652 43.2776 4.59503 43.3237 4.59503C43.3962 4.59503 43.4697 4.57396 43.5404 4.5393C43.6266 4.52305 43.7234 4.4822 43.8292 4.40867C44.1408 4.19213 44.3828 3.79739 44.2181 3.49261L44.2181 3.49261Z" fill="#7D98CE"/>
<path d="M42.8405 6.04325C42.7404 6.04325 42.6663 5.99375 42.6058 5.92498C42.3203 5.96818 42.1011 5.5632 42.0171 5.31229C41.8355 5.12751 41.5446 5.05926 41.6086 4.75249C41.5268 4.72262 41.4744 4.68809 41.4287 4.58411C41.2119 4.59574 41.1762 4.38504 41.1307 4.22321C40.9126 3.98824 41.0196 3.80407 41.1276 3.49496C41.0583 3.00483 41.6683 2.97586 42.0172 2.91967C41.9681 2.65408 42.1101 2.32542 42.4721 2.48376C42.6913 2.58197 42.7417 2.97393 42.9426 3.07386C43.3418 2.88511 43.8792 2.85866 44.2499 3.39373C44.9946 3.61676 44.7128 4.71188 44.2751 5.1368C44.4794 5.70081 43.5272 6.15249 43.0824 5.90278C43.003 6.02951 42.8965 6.04179 42.8405 6.04325H42.8405ZM42.8075 5.24884C43.2831 5.45963 43.4172 5.07482 43.7094 4.73415C43.3962 4.32017 43.9131 4.24476 44.1078 4.12678C44.0689 4.00966 44.0115 3.89492 43.9983 3.75733C43.868 3.77434 43.7355 3.66148 43.736 3.52742C43.2647 3.22435 42.8562 3.8658 42.4481 3.25897C42.2906 3.44155 42.0637 3.55645 41.7375 3.66859L41.8444 3.77429L41.841 3.77776C41.9126 4.01193 41.8854 4.10444 42.0528 4.3612C42.1978 4.38221 42.2568 4.52421 42.2816 4.65235C42.7378 4.56963 42.4858 5.27916 42.8075 5.24885V5.24884Z" fill="#000003"/>
</svg>
