<svg width="213" height="220" viewBox="0 0 213 220" fill="none" xmlns="http://www.w3.org/2000/svg">
<g clip-path="url(#clip0_16_513)">
<path d="M106.208 179.94C106.208 179.94 107.5 187.249 107.364 188.427C107.228 189.605 84.7427 189.586 84.7427 189.586L100.503 178.671L105.541 179.716" fill="#6680B1"/>
<path d="M106.208 179.94C106.208 179.94 107.5 187.249 107.364 188.427C107.228 189.605 84.7427 189.586 84.7427 189.586L100.503 178.671L105.541 179.716" stroke="#09121E" stroke-width="1.01534" stroke-miterlimit="10"/>
<path d="M89.0661 192.893L106.992 192.209L106.839 188.685L88.9138 189.369L89.0661 192.893Z" fill="#0364D4" stroke="#09121E" stroke-width="1.01534" stroke-miterlimit="10"/>
<path d="M98.7371 116.708C98.8544 117.451 100.503 178.671 100.503 178.671L106.208 179.94L121.068 111.751H101.356L98.7371 116.708Z" fill="#101A28" stroke="#09121E" stroke-width="1.01534" stroke-miterlimit="10"/>
<path d="M176.016 192.212C176.016 207.333 163.367 219.591 147.763 219.591C132.16 219.591 119.51 207.333 119.51 192.212C119.51 177.091 132.16 164.833 147.763 164.833C163.367 164.833 176.016 177.091 176.016 192.212V192.212Z" fill="#09121E" stroke="#09121E" stroke-miterlimit="10"/>
<path d="M165.941 192.212C165.941 201.941 157.803 209.828 147.763 209.828C137.724 209.828 129.585 201.941 129.585 192.212C129.585 182.483 137.724 174.597 147.763 174.597C157.803 174.597 165.941 182.483 165.941 192.212V192.212Z" fill="white" stroke="#09121E" stroke-miterlimit="10"/>
<path d="M52.3747 198.577C55.1124 184.801 45.8076 171.482 31.5917 168.829C17.3759 166.176 3.63239 175.193 0.894683 188.969C-1.84303 202.745 7.46181 216.064 21.6776 218.717C35.8934 221.37 49.637 212.353 52.3747 198.577Z" fill="#09121E" stroke="#09121E" stroke-miterlimit="10"/>
<path d="M44.3264 196.614C46.6329 187.145 40.582 177.657 30.8111 175.422C21.0403 173.187 11.2496 179.051 8.94303 188.519C6.63645 197.988 12.6874 207.476 22.4583 209.711C32.2291 211.946 42.0198 206.082 44.3264 196.614Z" fill="white" stroke="#09121E" stroke-miterlimit="10"/>
<path d="M52.8572 194.945C52.8491 194.968 52.8491 194.976 52.8491 194.976L2.35083 181.794C8.55644 172.013 18.6255 167.482 26.6341 165.383L30.6747 164.486C35.4798 163.589 38.8684 163.582 38.989 163.582C57.5819 177.13 53.0907 194.126 52.8572 194.945V194.945Z" fill="#88A9D8" stroke="#09121E" stroke-miterlimit="10"/>
<path d="M51.0001 85.113C48.2532 85.1864 45.3116 85.1235 42.8242 86.5908C39.0931 88.7811 37.8494 93.3505 36.9085 97.4796C34.7997 95.9704 33.1884 94.1573 32.0527 92.1138C30.4847 89.2842 29.7925 86.0144 29.8791 82.5034C29.9872 78.1752 32.096 74.6434 34.6591 71.9395C38.7363 67.6113 43.9597 65.379 43.9597 65.379C47.269 63.9641 49.7239 70.5038 50.2106 72.2749C51.3354 76.4251 51.7897 80.8581 51.0001 85.113V85.113Z" fill="#88A9D8" stroke="#09121E" stroke-miterlimit="10"/>
<path d="M38.981 163.574L29.8698 164.65C29.1211 164.744 27.8253 161.569 26.6341 158.106C25.3221 154.3 24.147 150.143 23.986 149.558C20.8067 137.772 20.3399 123.771 24.5897 111.752C24.799 111.159 25.0243 110.566 25.2577 109.981C27.2136 105.107 29.9824 100.59 33.7171 96.7685C33.9746 96.4955 34.2403 96.2303 34.5058 95.9729C34.6507 95.8169 34.8036 95.6688 34.9405 95.5206L35.0612 95.4035C35.0612 95.4035 36.019 95.6142 36.6469 95.7623C36.7032 95.7779 36.7515 95.7858 36.7997 95.8013C37.001 95.8403 37.1459 95.8794 37.1539 95.8872C37.1861 95.9184 37.2103 95.9573 37.2344 96.0353C37.2666 96.1524 37.2666 96.3395 37.2425 96.5813C37.0412 99.0305 34.4012 106.908 34.1839 107.992C32.2361 117.368 31.9141 127.047 32.896 136.547C33.3951 141.329 34.2242 146.063 35.359 150.728C35.5361 151.414 37.1378 157.685 38.16 161.211C38.16 161.234 38.1761 161.242 38.1761 161.265C38.5706 162.638 38.8844 163.574 38.981 163.574V163.574Z" fill="#88A9D8" stroke="#09121E" stroke-miterlimit="10"/>
<path d="M36.7998 95.8013V95.8325C36.7675 96.3084 36.4295 96.6983 36.1237 97.0649C33.1215 100.637 31.3587 105.161 27.8898 108.304C27.1332 108.991 25.9016 110.052 25.2578 109.981C27.2136 105.107 29.9824 100.59 33.7171 96.7685C33.9746 96.4955 34.2403 96.2303 34.5058 95.9729C34.6507 95.8169 34.8036 95.6688 34.9405 95.5206L35.0612 95.4035C35.0612 95.4035 36.0191 95.6142 36.6469 95.7623C36.7032 95.7779 36.7515 95.7858 36.7998 95.8013V95.8013Z" fill="#384C63" stroke="#09121E" stroke-miterlimit="10"/>
<path d="M171.551 133.206C171.367 137.241 169.842 143.424 169.842 143.424L109.334 145.091C109.334 145.091 103.753 139.672 105.192 132.483C105.213 132.368 105.235 132.253 105.267 132.137C105.462 131.309 105.743 130.45 106.154 129.57C106.208 129.434 106.273 129.308 106.349 129.171C106.803 128.249 107.398 127.306 108.144 126.352C115.963 116.365 157.567 120.651 163.267 122.433C165.83 123.229 167.809 124.675 169.171 126.394C169.258 126.499 169.345 126.604 169.409 126.709C170.004 127.484 170.458 128.302 170.794 129.14C170.848 129.234 170.88 129.329 170.913 129.423C171.399 130.691 171.605 131.991 171.551 133.206V133.206Z" fill="#4D69A4" stroke="#09121E" stroke-miterlimit="10"/>
<path d="M130.874 142.768C130.874 142.768 111.361 143.125 109.337 145.087C107.312 147.049 108.484 167.83 108.484 167.83L108.147 181.791L115.228 179.333C115.228 179.333 113.386 166.671 118.54 158.109C123.695 149.546 130.874 142.768 130.874 142.768V142.768Z" fill="#2A5A89" stroke="#09121E" stroke-miterlimit="10"/>
<path d="M179.588 143.86C179.655 144.297 185.592 142.812 186.972 146.023C188.353 149.234 188.492 158.84 188.492 158.84H181.036L179.588 143.86Z" fill="white" stroke="#09121E" stroke-miterlimit="10"/>
<path d="M178.551 176.661C178.551 176.661 178.413 179.967 180.898 179.585C183.383 179.203 183.107 166.815 183.107 166.815L178.549 165.898L178.551 176.661V176.661Z" fill="#2A5A89" stroke="#09121E" stroke-miterlimit="10"/>
<path d="M171.564 128.811C171.564 128.811 177.113 130.235 179.028 140.672C180.944 151.109 180.576 157.246 182.048 158.458C183.521 159.671 191.603 157.856 191.528 159.835C191.436 162.279 192.265 166.941 190.426 166.939C188.901 166.936 178.839 166.78 178.839 166.78L169.837 143.563V127.205L171.564 128.811V128.811Z" fill="#2A5A89" stroke="#09121E" stroke-miterlimit="10"/>
<path d="M51.0002 85.1079C51.0002 85.1079 44.509 87.6787 42.484 103.02C40.4592 118.361 40.4592 135.843 43.5885 147.081C46.7179 158.319 51.32 172.781 57.5787 175.814C63.8373 178.847 77.3065 180.796 89.2717 178.655C101.237 176.514 103.446 174.195 105.103 172.412C106.759 170.628 108.434 163.666 108.434 163.666C108.434 163.666 107.818 171.475 110.257 174.731C111.48 176.364 115.227 176.158 115.227 176.158C115.227 176.158 96.4508 185.077 73.0726 184.898C49.6944 184.72 48.3052 186.4 43.4045 174.374C38.5037 162.348 32.8199 149.846 31.9915 132.364C31.2212 116.107 32.4954 104.442 37.514 93.833C42.5324 83.224 43.3173 85.5697 51.0002 85.1079V85.1079Z" fill="#88A9D8" stroke="#09121E" stroke-miterlimit="10"/>
<path d="M52.8513 183.428C52.8513 183.428 63.8687 184.544 79.5155 184.185C95.1623 183.826 115.227 176.158 115.227 176.158L114.631 179.312L122.222 179.616L119.51 191.32L53.4935 192.212L52.8513 183.428V183.428Z" fill="#88A9D8" stroke="#09121E" stroke-miterlimit="10"/>
<path d="M107.588 190.651H59.8797C58.1006 190.651 56.6583 192.049 56.6583 193.773C56.6583 195.497 58.1006 196.895 59.8797 196.895H107.588C109.367 196.895 110.809 195.497 110.809 193.773C110.809 192.049 109.367 190.651 107.588 190.651Z" fill="#4B6CB3" stroke="#09121E" stroke-miterlimit="10"/>
<path d="M138.295 188.969H120.876C119.518 188.969 118.408 187.893 118.408 186.577C118.408 185.261 119.518 184.185 120.876 184.185H138.295C139.652 184.185 140.763 185.261 140.763 186.577C140.763 187.893 139.652 188.969 138.295 188.969Z" fill="#1B2535" stroke="#09121E" stroke-miterlimit="10"/>
<path d="M141.424 181.791H179.588V193.015H141.424C139.678 193.015 138.26 191.641 138.26 189.949V184.857C138.26 183.165 139.678 181.791 141.424 181.791Z" fill="#1B2535" stroke="#09121E" stroke-miterlimit="10"/>
<path d="M181.2 183.248H180.466C179.439 183.248 178.607 184.055 178.607 185.05V188.85C178.607 189.845 179.439 190.651 180.466 190.651H181.2C182.226 190.651 183.058 189.845 183.058 188.85V185.05C183.058 184.055 182.226 183.248 181.2 183.248Z" fill="#1B2535" stroke="#09121E" stroke-miterlimit="10"/>
<path d="M178.555 176.662C177.814 178.799 124.571 180.203 114.631 179.314C114.631 179.314 114.309 175.055 115.114 169.291C116.305 160.727 119.975 148.848 130.873 142.764C149.096 132.601 167.503 136.984 173.765 148.349C177.573 155.267 178.788 163.457 178.989 169.291C179.126 173.043 178.844 175.82 178.555 176.662V176.662Z" fill="#88A9D8" stroke="#09121E" stroke-miterlimit="10"/>
<path d="M178.555 176.662C177.814 178.799 124.571 180.203 114.631 179.314C114.631 179.314 114.309 175.055 115.114 169.291H178.989C179.126 173.043 178.844 175.82 178.555 176.662Z" fill="#384C63" stroke="#09121E" stroke-miterlimit="10"/>
<path d="M175.697 172.043H115.437C113.288 172.043 111.545 173.731 111.545 175.814V175.814C111.545 177.897 113.288 179.585 115.437 179.585H175.697C177.846 179.585 179.588 177.897 179.588 175.814V175.814C179.588 173.731 177.846 172.043 175.697 172.043Z" fill="#4B6CB3" stroke="#09121E" stroke-miterlimit="10"/>
<path d="M35.946 85.113C34.9078 88.6029 33.4479 90.7723 32.0527 92.1138C30.4847 89.2841 29.7925 86.0144 29.8791 82.5034C29.9872 78.1752 32.096 74.6434 34.6591 71.9395C36.119 75.5447 37.3303 80.4494 35.946 85.113V85.113Z" fill="white" stroke="#09121E" stroke-miterlimit="10"/>
<path d="M51.4317 91.2909C50.5438 91.7876 49.3982 91.4901 48.8857 90.6298L44.4114 83.1199C43.8988 82.2596 44.2058 81.1493 45.0936 80.6527C45.9812 80.1559 47.127 80.4534 47.6396 81.3137L52.1139 88.8237C52.6264 89.684 52.3194 90.7942 51.4317 91.2909Z" fill="#09121E" stroke="#09121E" stroke-miterlimit="10"/>
<path d="M44.3528 76.0868C44.3528 76.0868 49.2736 52.4135 50.0221 51.2893C50.7708 50.1653 53.8006 49.9582 56.0138 49.941" stroke="#09121E" stroke-width="1.2819" stroke-linecap="round" stroke-linejoin="round"/>
<path d="M60.6278 42.5337C60.6335 41.3283 59.2431 40.6254 58.2163 41.3059C56.0713 42.7278 53.2577 45.4853 53.1146 50.2188C52.9759 54.8105 55.6494 57.062 57.8287 58.1312C59.0786 58.7444 60.5551 57.8495 60.5615 56.4919L60.6278 42.5337V42.5337Z" fill="#09121E" stroke="#09121E" stroke-miterlimit="10"/>
<path d="M160.885 121.9L172.476 104.982" stroke="#09121E" stroke-width="2.5638" stroke-linecap="round" stroke-linejoin="round"/>
<path d="M188.492 104.982L179.588 142.768" stroke="#09121E" stroke-width="2.5638" stroke-linecap="round" stroke-linejoin="round"/>
<path d="M206.715 104.982H160.213C159.504 104.982 158.924 104.42 158.924 103.733C158.924 103.047 159.504 102.485 160.213 102.485H206.715C207.424 102.485 208.003 103.047 208.003 103.733C208.003 104.42 207.424 104.982 206.715 104.982Z" fill="#1B2535" stroke="#09121E" stroke-miterlimit="10"/>
<path d="M52.8572 194.945C52.8491 194.968 52.8491 194.976 52.8491 194.976C52.8491 194.976 51.3118 191.224 45.8306 182.41C40.3493 173.589 26.6341 165.383 26.6341 165.383L30.6747 164.486C33.6769 165.727 38.8844 168.581 44.8889 174.868C54.0726 184.493 52.9296 194.36 52.8572 194.945Z" fill="#0364D4" stroke="#09121E" stroke-miterlimit="10"/>
<path d="M43.5379 97.4377L37.2329 96.0333L36.5949 95.8971L34.9402 95.5198C34.7997 95.6665 34.6482 95.8132 34.5077 95.9704L36.3894 96.3896L37.2438 96.5783L43.4082 97.9512L43.5379 97.4377V97.4377Z" fill="#09121E" stroke="#09121E" stroke-miterlimit="10"/>
<path d="M45.6474 85.1945C41.3132 91.1215 39.232 99.0275 38.408 106.121C36.7975 119.982 38.1318 134.629 40.6813 148.303C42.19 156.394 44.4335 164.216 48.608 171.432C55.389 183.156 72.7294 182.9 84.6558 182.219C93.9071 181.691 102.757 180.244 110.257 174.731" stroke="#09121E" stroke-width="0.64095" stroke-linecap="round" stroke-linejoin="round"/>
<path d="M29.8675 164.649C29.8675 164.649 49.7765 171.341 53.4935 192.212Z" fill="#384C63"/>
<path d="M29.8675 164.649C29.8675 164.649 49.7765 171.341 53.4935 192.212" stroke="#09121E" stroke-width="0.64095" stroke-linecap="round" stroke-linejoin="round"/>
<path d="M4.79871 178.431L53.1163 193.773" stroke="#09121E" stroke-width="0.64095" stroke-linecap="round" stroke-linejoin="round"/>
<path d="M26.6346 158.107C25.326 154.303 24.1471 150.142 23.9849 149.555C20.8055 137.776 20.3404 123.774 24.5906 111.754C25.3585 111.397 26.0939 111.596 26.6346 112.833C28.4947 117.109 24.9582 127.4 26.6346 137.063C28.3108 146.726 31.4039 159.333 26.6346 158.107Z" fill="#88A9D8" stroke="#09121E" stroke-miterlimit="10"/>
<path d="M111.545 175.814C111.545 175.814 108.685 173.945 108.438 166.938C108.191 159.932 107.68 147.552 109.336 145.087" stroke="#09121E" stroke-width="0.64095" stroke-linecap="round" stroke-linejoin="round"/>
<path d="M118.408 172.043C119.418 165.247 120.95 157.79 125.387 152.284C129.515 147.161 135.316 143.299 141.77 141.503C148.469 139.638 155.791 140.023 162.276 142.479C168.766 144.937 172.167 150.76 173.846 157.112C175.132 161.979 175.423 167.034 175.708 172.051" stroke="#09121E" stroke-width="0.64095" stroke-linecap="round" stroke-linejoin="round"/>
<path d="M106.154 129.57C109.366 128.029 119.435 124.005 136.511 124.005C137.084 124.005 137.668 124.015 138.263 124.026C153.998 124.267 164.575 125.828 169.409 126.709C169.344 126.604 169.258 126.499 169.171 126.394C164.197 125.503 153.717 124.005 138.263 123.764C137.668 123.753 137.084 123.743 136.511 123.743C119.911 123.743 109.885 127.547 106.349 129.171L106.154 129.57V129.57Z" fill="#09121E" stroke="#09121E" stroke-miterlimit="10"/>
<path d="M169.842 128.951V129.224C165.213 128.354 154.496 126.709 138.263 126.457C117.553 126.122 106.608 131.697 105.192 132.483C105.094 132.546 105.04 132.578 105.029 132.578C105.008 132.588 104.975 132.588 104.954 132.588C104.91 132.588 104.867 132.567 104.846 132.525C104.802 132.473 104.824 132.389 104.889 132.347C104.9 132.336 105.029 132.263 105.267 132.137C107.376 131.037 118.321 125.881 138.263 126.195C154.442 126.447 165.17 128.071 169.842 128.951V128.951Z" fill="#09121E" stroke="#09121E" stroke-miterlimit="10"/>
<path d="M182.048 158.458C182.048 158.458 183.152 165.201 183.116 167.729" stroke="#09121E" stroke-width="0.32048" stroke-linecap="round" stroke-linejoin="round"/>
<path d="M171.439 27.1446L175.734 41.1918L189.379 41.0079L193.269 26.8503L186.044 30.4734L182.354 26.9975L178.766 30.5715L171.439 27.1446Z" fill="#89A2D0" stroke="#09121E" stroke-width="1.01534" stroke-miterlimit="10"/>
<path d="M173.976 41.3325C173.468 41.6392 173.16 42.0607 173.171 42.522C173.193 43.4473 173.617 44.1859 175.189 44.173L175.949 44.1668L188.654 44.0628L189.415 44.0566C190.199 44.0502 190.04 43.8567 190.548 43.5493C191.056 43.2426 191.364 42.8213 191.353 42.3591C191.332 41.4345 190.907 40.6959 189.335 40.7088L187.557 40.7233L176.888 40.8106L175.11 40.8252C174.325 40.8316 174.484 41.0251 173.976 41.3325Z" fill="#09121E" stroke="#09121E" stroke-width="0.83241" stroke-miterlimit="10"/>
<path d="M157.945 95.6392L159.158 95.6229L160.486 67.2046C160.976 56.7255 166.666 47.9686 174.555 44.2811L190.804 44.0621C198.796 47.5356 204.735 56.1357 205.525 66.5976L207.669 94.969L208.882 94.9527C210.893 94.9256 212.543 96.4814 212.571 98.4289C212.585 99.4026 212.19 100.29 211.541 100.936C210.892 101.584 209.987 101.992 208.983 102.005L158.046 102.692C156.035 102.719 154.384 101.163 154.356 99.2136C154.342 98.2417 154.738 97.3539 155.387 96.7079C156.036 96.0607 156.941 95.6527 157.945 95.6392L157.945 95.6392Z" fill="#89A2D0" stroke="#09121E" stroke-width="1.01534" stroke-miterlimit="10"/>
<path d="M193.706 58.5925C191.635 54.2612 189.076 50.1491 186.09 46.3531C186.123 48.578 185.934 50.8061 185.527 52.9959" stroke="#09121E" stroke-width="0.83241" stroke-miterlimit="10"/>
<path d="M180.345 48.666C180.255 50.663 179.592 52.6331 178.448 54.2964" stroke="#09121E" stroke-width="0.83241" stroke-miterlimit="10"/>
<path d="M178.646 35.3064L181.794 39.1711C182.067 38.382 182.148 37.5315 182.029 36.7074" stroke="#09121E" stroke-width="0.83241" stroke-miterlimit="10"/>
<path d="M104.609 27.9874C104.604 28.0103 105.221 28.2357 105.912 28.4803C107.043 28.8804 108.243 28.2308 108.707 26.9933C110.178 23.0771 112.285 14.5069 106.192 7.52738C101.618 2.28844 94.3609 -1.15367 87.3267 1.13628C84.0264 2.21065 74.8555 9.33364 79.5717 13.034C80.6698 13.8955 82.1285 14.5597 83.343 15.2851L104.609 27.9874H104.609Z" fill="#6680B1" stroke="#09121E" stroke-width="1.01534" stroke-miterlimit="10"/>
<path d="M83.6918 40.5583C83.6918 40.5583 84.4631 40.6618 85.547 40.6792C86.1348 40.6964 86.7961 40.6964 87.5125 40.6445C88.3941 40.5927 89.3126 40.4546 90.1574 40.1784C90.9472 39.9367 91.6453 39.5741 92.178 39.0561V43.5626L100.15 39.5913L98.2764 31.666C98.2764 31.666 104.026 31.666 103.677 25.6055C103.493 22.6875 101.877 21.6516 100.242 21.358C99.5253 21.2372 98.7906 21.2544 98.2029 21.3236C97.3579 21.4271 96.7518 21.617 96.7518 21.617L80.7712 14.1406C80.7712 14.1406 79.6507 19.5279 79.3017 25.433C78.8976 32.1323 79.4486 39.5222 83.6918 40.5583V40.5583Z" fill="#FFBB99" stroke="#09121E" stroke-width="1.01534" stroke-miterlimit="10"/>
<path d="M92.178 39.0561C92.178 39.0561 93.9367 37.2844 94.6987 35.1903C94.6987 35.1903 95.2808 38.2327 92.2053 40.6792L92.1781 39.0561H92.178Z" fill="#1B2535" stroke="#09121E" stroke-width="1.01534" stroke-miterlimit="10"/>
<path d="M96.7505 21.6163L92.6469 28.8501" stroke="#09121E" stroke-width="0.42785" stroke-linecap="round" stroke-linejoin="round"/>
<path d="M83.6918 40.5582C83.6918 40.5582 84.4631 40.6617 85.547 40.6791C90.2308 37.3466 93.6841 27.0386 93.6841 27.0386L79.3017 25.433C78.8976 32.1323 79.4486 39.5222 83.6918 40.5582H83.6918Z" fill="white" stroke="#09121E" stroke-width="1.01534" stroke-miterlimit="10"/>
<path d="M87.5125 40.6445C88.3941 40.5927 89.3125 40.4546 90.1573 40.1784C93.4637 34.6877 98.809 25.4846 100.242 21.358C100.352 21.0472 100.444 20.771 100.499 20.5293C101.785 15.3494 98.7356 17.663 98.7356 17.663L98.2029 21.3236C98.2029 21.3236 90.4513 36.8287 87.5125 40.6445H87.5125Z" fill="#6680B1" stroke="#09121E" stroke-width="1.01534" stroke-miterlimit="10"/>
<path d="M59.2813 85.4316L58.763 85.5447L56.1835 86.1077C56.1835 86.1077 52.4317 81.4787 46.5693 83.1319C40.707 84.785 42.1141 94.0346 43.052 94.5939C43.9901 95.153 60.9829 90.448 60.9829 90.448L59.2813 85.4316V85.4316Z" fill="#FFBB99" stroke="#09121E" stroke-width="1.01534" stroke-miterlimit="10"/>
<path d="M46.8494 91.2237C46.8494 92.9545 48.342 94.3577 50.1833 94.3577C52.0247 94.3577 53.5173 92.9545 53.5173 91.2237C53.5173 89.4928 52.0247 88.0897 50.1833 88.0897C48.342 88.0897 46.8494 89.4928 46.8494 91.2237V91.2237Z" fill="#1B2535" stroke="#09121E" stroke-width="1.01534" stroke-miterlimit="10"/>
<path d="M100.15 39.5912C101.118 39.1091 104.327 42.4038 105.088 42.9952C107.195 44.6345 109.204 46.2907 111.001 48.2403C114.575 52.1174 117.35 56.621 119.372 61.3768C123.024 69.962 124.309 79.164 124.425 88.3335C124.44 89.4968 125.135 105.768 124.303 105.946C124.303 105.946 115.51 107.819 105.896 106.607C96.2817 105.395 96.7505 103.962 96.7505 103.962C96.7505 103.962 98.2747 77.0704 95.8126 65.6083C93.3504 54.1465 92.178 43.5625 92.178 43.5625C92.178 43.5625 100.137 39.5976 100.15 39.5912H100.15Z" fill="#6680B1" stroke="#09121E" stroke-width="1.01534" stroke-miterlimit="10"/>
<path d="M103.692 47.5339L89.7158 73.3031L94.6987 84.675C94.6987 84.675 102.652 84.0137 108.319 71.2291C113.986 58.4448 103.692 47.5339 103.692 47.5339V47.5339Z" fill="#6680B1" stroke="#09121E" stroke-width="1.01534" stroke-miterlimit="10"/>
<path d="M89.7158 73.3031L58.763 83.9034L61.3423 91.5081C61.3423 91.5081 89.4813 87.7609 94.6986 84.675C99.9163 81.5889 89.7158 73.3031 89.7158 73.3031Z" fill="#6680B1" stroke="#09121E" stroke-width="1.01534" stroke-miterlimit="10"/>
<path d="M106.052 48.195C106.052 48.195 103.378 46.2847 99.8688 51.8689C96.3597 57.4528 95.28 63.0439 95.28 63.0439" stroke="#09121E" stroke-width="0.21392" stroke-linecap="round" stroke-linejoin="round"/>
<path d="M111.992 62.1552C111.992 62.1552 101.958 80.2696 97.2045 83.9233C92.4515 87.5771 61.3423 91.5081 61.3423 91.5081" stroke="#09121E" stroke-width="0.21392" stroke-linecap="round" stroke-linejoin="round"/>
<path d="M112.618 66.1044L108.028 68.9776" stroke="#09121E" stroke-width="0.21392" stroke-linecap="round" stroke-linejoin="round"/>
<path d="M95.7416 41.7873L93.2186 51.2674L92.178 43.5626" stroke="#09121E" stroke-width="0.21392" stroke-linecap="round" stroke-linejoin="round"/>
<path d="M95.2799 63.0439L92.46 46.5273C92.46 46.5273 91.6196 57.0879 93.6202 66.1044L95.2799 63.0439Z" fill="#1B2535" stroke="#09121E" stroke-width="1.01534" stroke-miterlimit="10"/>
<path d="M124.303 105.946C124.303 105.946 124.599 121.379 110.323 124.243C96.0472 127.106 84.5571 129.31 84.5571 129.31C84.5571 129.31 88.8627 134.178 87.5367 152.279C86.1613 171.053 85.1953 171.53 85.1953 171.53L79.4472 170.447C79.4472 170.447 68.7977 129.531 69.9944 123.139C71.191 116.746 96.7505 103.962 96.7505 103.962C96.7505 103.962 104.489 107.203 111.993 107.015C119.496 106.827 124.303 105.946 124.303 105.946" fill="#1B2535"/>
<path d="M124.303 105.946C124.303 105.946 124.599 121.379 110.323 124.243C96.0472 127.106 84.5571 129.31 84.5571 129.31C84.5571 129.31 88.8627 134.178 87.5367 152.279C86.1613 171.053 85.1953 171.53 85.1953 171.53L79.4472 170.447C79.4472 170.447 68.7977 129.531 69.9944 123.139C71.191 116.746 96.7505 103.962 96.7505 103.962C96.7505 103.962 104.489 107.203 111.993 107.015C119.496 106.827 124.303 105.946 124.303 105.946" stroke="#09121E" stroke-width="1.01534" stroke-miterlimit="10"/>
<path d="M85.1953 171.53C85.1953 171.53 86.7558 178.793 86.6634 179.974C86.5708 181.156 64.098 181.868 64.098 181.868L79.4472 170.447L84.5209 171.328" fill="#6680B1"/>
<path d="M85.1953 171.53C85.1953 171.53 86.7558 178.793 86.6634 179.974C86.5708 181.156 64.098 181.868 64.098 181.868L79.4472 170.447L84.5209 171.328" stroke="#09121E" stroke-width="1.01534" stroke-miterlimit="10"/>
</g>
<defs>
<clipPath id="clip0_16_513">
<rect width="213" height="220" fill="white"/>
</clipPath>
</defs>
</svg>
