<svg width="120" height="42" viewBox="0 0 120 42" fill="none" xmlns="http://www.w3.org/2000/svg">
<g clip-path="url(#clip0_34_547)">
<path d="M37.5322 22.1555C37.0645 22.6819 36.9027 23.9219 37.7051 24.3971C37.3678 25.2861 36.7289 26.2305 36.473 27.1282C35.9865 27.6914 35.9677 28.6193 35.7831 29.3545C35.0858 30.121 35.5698 31.4689 35.3194 32.4299C35.0035 33.0982 33.5587 33.7706 33.3602 34.5744C30.947 34.6537 31.4414 36.2345 29.9456 37.2607C28.0495 37.6159 26.2378 37.5167 24.8509 39.0979C24.4036 39.4221 23.5473 40.4777 23.0392 40.5494C21.889 40.6656 21.232 40.5562 19.767 40.3717C18.5046 40.2921 17.1603 40.2285 15.9115 40.2033C15.2192 40.2688 14.3347 40.2495 13.7123 40.5692C12.5977 40.3825 13.4968 39.8979 11.2042 39.5623C10.3813 38.358 9.18599 38.437 9.18599 38.437C9.05675 38.1291 7.75046 37.2023 7.50088 37.2919C6.55951 36.3802 7.69406 35.3899 6.79548 34.291C6.18563 33.4598 5.05149 33.9176 4.45246 33.7315C3.78396 32.7221 4.18072 31.0902 2.63555 30.5637C2.48914 29.5802 2.82591 28.4429 2.43021 27.4892C2.35727 27.3228 2.32625 27.2196 2.34631 27.0656C2.29392 26.2178 1.69572 25.9712 1.6982 25.179C1.76385 24.9529 1.68083 24.7075 1.4907 24.5692C1.4298 24.2058 1.53848 23.6579 1.24835 23.3911C0.865779 21.9362 1.52858 22.0192 1.35985 20.8981C1.16396 19.7894 3.29901 18.4524 3.46711 16.7271C3.42917 15.7857 3.55251 14.9 3.26399 13.9921C2.89312 12.9838 3.10921 12.5612 3.70608 11.7798C4.0932 11.2215 4.84768 10.9125 5.29002 10.3774C5.97647 9.67862 6.69612 9.34962 7.40691 8.69856C7.88032 7.67797 8.09337 6.69023 9.07507 6.02981C10.0087 5.3776 11.2431 5.89481 12.437 5.58951C13.3023 5.24457 13.963 4.64005 14.7574 4.23334C15.7318 3.81275 16.8383 3.58968 17.6929 2.8877C17.8453 3.41566 18.9768 3.80248 19.062 3.75699C19.6687 3.8428 19.7712 3.22909 20.2349 3.49629C20.9562 3.90625 21.7306 4.00642 22.4041 3.8812C23.18 4.38007 24.4599 4.33697 24.9219 4.33304C24.9619 4.43484 25.3478 4.74731 25.1797 5.1364C24.5495 6.59528 25.9308 8.44003 27.3587 8.86825C27.635 8.92027 28.4178 9.09829 28.6452 9.09946C28.8978 9.16244 29.1876 9.32758 29.4772 9.31494C29.5166 10.065 29.7524 10.5729 30.2304 11.1527C31.2151 12.4966 33.521 12.8174 35.0632 12.7934C35.1159 14.1799 35.9516 15.052 37.0386 15.9551C37.455 18.0995 36.0863 18.7797 36.997 19.9711C36.9151 20.2142 37.0231 21.0088 37.4966 20.9851C37.6796 21.3407 37.8806 21.7539 37.5322 22.1554V22.1555Z" fill="#4B6CB3" stroke="#4B6CB3" stroke-width="4.15085" stroke-linejoin="round"/>
<path d="M37.5322 22.1555C37.0645 22.6819 36.9027 23.9219 37.7051 24.3971C37.3678 25.2861 36.7289 26.2305 36.473 27.1282C35.9865 27.6914 35.9677 28.6193 35.7831 29.3545C35.0858 30.121 35.5698 31.4689 35.3194 32.4299C35.0035 33.0982 33.5587 33.7706 33.3602 34.5744C30.947 34.6537 31.4414 36.2345 29.9456 37.2607C28.0495 37.6159 26.2378 37.5167 24.8509 39.0979C24.4036 39.4221 23.5473 40.4777 23.0392 40.5494C21.889 40.6656 21.232 40.5562 19.767 40.3717C18.5046 40.2921 17.1603 40.2285 15.9115 40.2033C15.2192 40.2688 14.3347 40.2495 13.7123 40.5692C12.5977 40.3825 13.4968 39.8979 11.2042 39.5623C10.3813 38.358 9.18599 38.437 9.18599 38.437C9.05675 38.1291 7.75046 37.2023 7.50088 37.2919C6.55951 36.3802 7.69406 35.3899 6.79548 34.291C6.18563 33.4598 5.05149 33.9176 4.45246 33.7315C3.78396 32.7221 4.18072 31.0902 2.63555 30.5637C2.48914 29.5802 2.82591 28.4429 2.43021 27.4892C2.35727 27.3228 2.32625 27.2196 2.34631 27.0656C2.29392 26.2178 1.69572 25.9712 1.6982 25.179C1.76385 24.9529 1.68083 24.7075 1.4907 24.5692C1.4298 24.2058 1.53848 23.6579 1.24835 23.3911C0.865779 21.9362 1.52858 22.0192 1.35985 20.8981C1.16396 19.7894 3.29901 18.4524 3.46711 16.7271C3.42917 15.7857 3.55251 14.9 3.26399 13.9921C2.89312 12.9838 3.10921 12.5612 3.70608 11.7798C4.0932 11.2215 4.84768 10.9125 5.29002 10.3774C5.97647 9.67862 6.69612 9.34962 7.40691 8.69856C7.88032 7.67797 8.09337 6.69023 9.07507 6.02981C10.0087 5.3776 11.2431 5.89481 12.437 5.58951C13.3023 5.24457 13.963 4.64005 14.7574 4.23334C15.7318 3.81275 16.8383 3.58968 17.6929 2.8877C17.8453 3.41566 18.9768 3.80248 19.062 3.75699C19.6687 3.8428 19.7712 3.22909 20.2349 3.49629C20.9562 3.90625 21.7306 4.00642 22.4041 3.8812C23.18 4.38007 24.4599 4.33697 24.9219 4.33304C24.9619 4.43484 25.3478 4.74731 25.1797 5.1364C24.5495 6.59528 25.9308 8.44003 27.3587 8.86825C27.635 8.92027 28.4178 9.09829 28.6452 9.09946C28.8978 9.16244 29.1876 9.32758 29.4772 9.31494C29.5166 10.065 29.7524 10.5729 30.2304 11.1527C31.2151 12.4966 33.521 12.8174 35.0632 12.7934C35.1159 14.1799 35.9516 15.052 37.0386 15.9551C37.455 18.0995 36.0863 18.7797 36.997 19.9711C36.9151 20.2142 37.0231 21.0088 37.4966 20.9851C37.6796 21.3407 37.8806 21.7539 37.5322 22.1554V22.1555Z" stroke="white" stroke-width="2" stroke-linejoin="round"/>
<path d="M34.4471 27.2209C34.166 26.7443 34.0163 26.966 34.0328 26.1826C34.5181 25.975 34.0979 25.3785 33.6116 25.3103C33.254 24.791 33.5443 24.5299 33.5056 23.9475C33.4215 23.4997 33.4888 22.9502 33.6451 22.4995C33.9082 21.894 33.788 21.0615 32.9179 21.4089C32.7897 21.442 32.3825 21.1713 32.3254 21.1284C32.3119 20.4042 32.4192 19.5654 31.4458 20.3302C31.1379 20.1322 30.8754 20.3992 30.6132 20.3793C30.1982 20.0562 29.9943 19.5521 29.4598 19.3423C29.2055 18.8266 28.2805 19.8159 28.0422 19.6987C27.4985 19.4315 27.8238 18.9935 27.7372 18.7902C27.6173 18.4566 27.4952 18.3835 27.2692 18.1086C26.6764 17.3873 26.319 17.0664 25.3636 17.9886C24.5905 18.6747 23.5169 17.8362 23.6484 17.0754C23.7823 16.9904 23.9197 16.7578 23.7556 16.607C23.6758 16.5116 23.5174 16.5361 23.395 16.5689C22.6468 16.7337 21.9611 16.0331 21.6771 15.2763C21.3877 15.1224 21.5921 14.7099 21.4991 14.4324C21.3427 14.2343 21.0563 14.2858 21.0804 13.9803C21.2704 13.7206 21.1422 13.0529 20.7356 13.379C19.4032 13.6876 16.5988 13.4242 15.6037 12.4037C15.5027 12.0767 15.3273 12.031 15.0601 11.8425C15.0426 11.6721 15.0858 11.157 14.8195 11.2261C14.4499 11.7192 13.7712 11.7653 13.1659 11.8095C12.6459 11.9653 11.6211 10.799 11.2543 11.3348C9.85222 11.6206 9.51145 14.0201 7.79325 13.0717C7.69579 12.7862 7.26108 12.6062 7.2117 13.0042C6.20987 14.6428 5.73163 13.3615 5.82168 14.7875C5.76686 15.1196 5.40719 15.4819 5.18023 15.713C4.78212 15.6919 3.94643 15.6862 4.32352 16.3236C4.33279 16.8137 4.15219 17.3342 4.09364 17.8346C3.87091 18.2526 3.642 18.7483 3.64847 19.2245C3.66041 20.1026 3.19279 20.3866 3.07694 21.0645C2.14 20.5515 2.17896 22.0905 2.28131 22.267C2.33972 22.6998 2.48779 22.6 2.67215 22.8186C2.67753 23.1135 2.7972 23.4753 2.94137 23.7211C3.08647 24.072 3.14294 25.1259 3.55433 25.4469C4.74168 26.3732 3.97659 26.8346 4.16431 28.0389C4.0651 29.1602 4.30456 30.0734 5.03951 30.818C5.29981 31.1366 5.41381 32.198 5.89867 32.1137C5.99745 32.1071 6.36562 31.9441 6.41862 32.0205C6.56606 32.2802 6.59571 32.3349 6.81485 32.3681C7.15381 32.9925 8.30014 32.6945 8.16902 33.223C8.06293 33.6505 8.19765 33.8648 8.63677 34.5063C8.7488 35.6387 9.04872 35.4223 9.57658 36.1719C9.36493 36.4791 10.2947 37.6607 10.5497 37.4856C10.8236 37.3797 11.6839 37.6994 11.4678 37.4842C11.6566 37.6721 11.6733 38.0492 11.9698 38.0728C12.2951 38.1726 12.6238 38.5286 13.0006 38.4318C13.1654 38.8247 13.9092 38.1314 14.0275 37.9087C14.2358 38.0261 14.6648 38.3971 14.7756 38.4539C14.9421 38.5392 15.4069 38.8231 15.8071 38.7945C16.1273 38.7716 16.3149 39.0832 17.2283 39.0334C17.9317 38.9559 18.7038 38.7497 18.8261 38.1501C19.441 38.5493 19.435 38.4367 20.0726 38.2704C20.134 38.3162 20.3912 38.2386 20.4306 38.2437C20.5169 38.7698 21.8355 39.2265 22.8043 38.8048C23.2446 38.6132 23.609 38.1003 23.759 37.5756C23.9238 37.5552 23.9579 37.1748 24.3425 36.8408C24.9553 36.5273 25.5975 37.1389 26.2255 36.8007C26.422 36.6684 26.8612 36.8909 27.0079 36.7473C27.9459 36.6893 27.9053 35.9751 28.1218 35.3176C28.3355 35.1381 28.5008 35.1688 28.745 34.8901C29.1965 34.2164 29.1402 33.8457 30.0843 33.5674C30.4834 33.4946 30.9415 33.6718 31.3176 33.3402C31.5105 33.3944 31.9637 33.229 31.8215 33.0864C32.1734 32.7621 31.7785 32.6351 31.795 32.2847C32.224 32.4942 32.3202 31.8732 32.2856 31.5766C32.5206 31.3231 33.6371 30.9894 33.4448 30.696C33.0875 29.8135 32.9525 27.9549 34.0625 27.6218C34.263 27.6232 34.5786 27.5575 34.4471 27.2209H34.4471Z" fill="#7D98CE"/>
<path d="M3.3592 14.5535C3.33086 14.5535 3.3052 14.5481 3.28312 14.5407C3.26213 14.5336 3.07652 14.4635 3.14222 14.2237C3.15474 14.1625 3.14601 14.0962 3.13589 14.0193C3.11966 13.8959 3.09991 13.7455 3.16252 13.5825C3.13528 13.578 3.1123 13.5708 3.0942 13.5635C3.0208 13.534 2.96782 13.473 2.94891 13.3962C2.93336 13.333 2.94223 13.2669 2.97608 13.1965C2.96762 13.1539 2.96872 13.1099 2.97746 13.0659C2.95572 13.0591 2.93501 13.05 2.91526 13.0386C2.83904 12.9947 2.78916 12.9219 2.77472 12.8337C2.75538 12.7159 2.80271 12.5763 2.91561 12.4173C2.90047 12.3751 2.89366 12.3301 2.89593 12.2833C2.89965 12.2073 2.92854 12.1318 2.9778 12.0638C2.93288 12.0292 2.90089 11.9805 2.88933 11.9231C2.84523 11.701 3.05169 11.5226 3.26028 11.4217C3.27094 11.3272 3.3074 11.2386 3.36664 11.1697C3.44403 11.0798 3.55067 11.03 3.67264 11.0253C3.79248 10.8446 3.99227 10.7005 4.20801 10.7132C4.44852 10.668 4.74201 10.7314 4.89109 10.9156C5.1768 11.0471 5.23926 11.2594 5.23926 11.4197C5.23926 11.6468 5.11378 11.8916 4.91179 12.0585C4.76663 12.1784 4.59712 12.2465 4.42816 12.2558C4.42754 12.2755 4.42486 12.2956 4.41977 12.3162C4.38365 12.4616 4.29132 12.5516 4.21716 12.6239C4.16047 12.6792 4.12511 12.7152 4.11287 12.7585C4.10922 12.7736 4.1022 12.8153 4.09333 12.8653C4.03526 13.194 4.01772 13.2932 3.9029 13.3513C3.8575 13.3741 3.80762 13.3817 3.76022 13.3744C3.74357 13.4134 3.72465 13.4504 3.70456 13.484C3.70904 13.6971 3.70931 14.3041 3.57619 14.4383C3.49721 14.5271 3.42168 14.5535 3.35921 14.5535L3.3592 14.5535ZM3.46838 12.1257L3.46831 12.1258L3.46838 12.1257Z" fill="#7D98CE"/>
<path d="M37.7984 16.0447C36.6718 14.5265 35.986 13.2835 35.467 12.7807C34.2868 11.6371 33.9695 12.6673 31.2949 11.2203C31.122 10.4181 30.3416 10.0023 30.0681 9.17498C29.6438 8.92741 29.4296 8.35833 28.9817 8.58306C28.4262 8.86176 26.7241 8.4385 25.9162 7.11347C25.7459 6.83419 25.7345 6.22241 25.3653 6.13823C24.7559 6.24397 25.4932 5.37762 24.7553 5.19619C24.5999 5.13269 23.5288 5.15198 23.7927 5.67202C23.2962 5.71807 23.7897 5.30044 23.0035 4.98002C22.1313 4.62456 22.8355 5.9695 21.8388 5.65842C21.6088 5.25633 20.9943 5.08661 20.6944 5.20368C20.5115 4.62456 20.1457 5.41427 19.2836 4.4403C18.8121 4.28947 18.3614 4.97277 17.9585 4.63698C17.3132 4.04475 16.8985 5.14795 16.4076 4.96372C15.6691 4.5144 15.9873 5.54406 15.4169 5.6775C15.0596 5.98371 14.7126 5.98619 14.2674 6.04603C14.0274 6.52438 12.8379 6.00872 12.6781 6.67294C11.5581 5.78623 11.6157 6.93718 10.371 6.50771C9.2764 7.19044 10.4359 6.94697 8.99029 7.37199C9.02025 7.79208 8.57067 7.60303 8.39 7.74979C8.06578 8.02204 8.33904 8.70958 8.80313 8.67027C9.37642 8.52697 9.7538 8.01741 10.2701 8.33616C10.751 8.22565 11.2206 7.92012 11.5764 7.67808C11.9881 7.20038 12.5386 8.24861 13.4836 7.65175C14.2353 6.77324 14.6239 7.82976 15.5257 7.32251C16.6271 7.00558 16.3621 6.45861 17.8989 7.01999C18.3818 7.1964 19.0612 6.85096 19.4142 6.88837C19.9975 6.9502 19.6232 7.57278 21.0862 7.46749C21.621 7.429 20.8907 8.36176 21.592 8.31884C22.7896 8.75471 22.5926 7.93234 23.2024 8.99425C23.5949 8.86839 24.2401 9.06862 24.1691 9.52072C24.6576 10.4079 25.7319 10.1517 26.5988 10.3619C27.0407 9.73939 27.4871 10.3894 28.0357 9.94189C27.9051 10.8369 28.4103 10.3506 28.6366 10.6526C28.8388 11.0712 29.0808 11.8635 29.7339 12.5216C30.0466 12.8367 31.4017 13.4108 31.8614 13.2745C31.9715 13.6379 32.3444 13.2014 32.5415 13.2686C32.704 13.5925 33.3478 13.5276 33.6035 13.3656C33.46 13.7329 34.2088 13.3907 34.1492 13.6009C33.7834 14.8907 35.6 14.7669 35.0113 16.0226C34.5526 16.0986 34.2324 16.3244 33.9402 16.0753C33.6005 15.7857 33.2488 15.3094 32.7384 15.7594C32.5294 15.9436 32.6322 16.6981 33.4524 16.6576C33.5141 16.9356 34.1865 16.5524 34.1857 16.9256C34.1846 17.4557 35.1915 17.4242 35.7428 17.3651C36.9708 17.2335 37.7113 18.0179 37.7984 16.0447L37.7984 16.0447Z" fill="#7D98CE"/>
<path d="M28.5792 33.2752C28.3131 33.3401 28.2001 33.6168 28.0399 33.7775C27.6137 34.0719 26.961 34.6213 26.4969 34.464C25.9255 34.3668 25.0901 34.1623 24.6246 34.5251C23.4426 34.925 22.419 35.727 21.5722 36.8112C21.3524 37.2571 21.1615 37.0762 20.8185 37.1663C20.0246 38.0788 22.1925 38.6995 22.8394 38.2803C24.2395 34.1151 26.2417 37.5285 27.2388 35.5986C27.6899 34.812 28.6402 34.899 28.9281 33.8519C29.2786 33.6457 28.7287 33.1437 28.5792 33.2752V33.2752Z" fill="#4B6CB3" stroke="#4B6CB3" stroke-width="0.16855" stroke-miterlimit="10"/>
<path d="M10.0728 33.0004C9.97151 32.6967 9.96477 32.3255 9.72663 32.0707C9.60045 31.899 9.52449 31.805 9.54924 31.6084C9.70141 30.5076 8.53023 31.0797 8.04514 30.6364C8.05054 30.0922 7.35369 30.2179 7.0127 30.1506C6.90367 30.0595 6.62323 29.7823 6.63014 29.6384C6.6168 29.5063 6.59657 29.3065 6.43215 29.1959C6.20401 29.0427 5.90668 28.2974 5.81 27.7866C5.85627 27.7101 5.84123 27.5984 5.77924 27.5368C5.82539 26.5529 5.04275 26.9911 4.81616 27.5741C4.15093 28.7453 5.01464 29.0478 5.372 29.8492C6.21215 31.5815 5.89736 31.32 6.67479 31.4031C6.71217 31.6244 7.04252 31.6327 7.08922 31.4152C7.71741 31.3356 7.84416 31.6086 8.11096 32.1769C8.02136 32.378 8.49131 32.7048 8.58237 32.3463C8.60886 32.3455 8.6352 32.3464 8.6566 32.3489C9.23507 34.5391 10.9071 34.1716 10.0728 33.0004H10.0728Z" fill="#4B6CB3" stroke="#4B6CB3" stroke-width="0.16855" stroke-miterlimit="10"/>
<path d="M10.6533 22.4084C10.7404 22.4552 10.8012 22.5269 10.9033 22.5537C11.0637 22.5957 11.2547 22.5697 11.4165 22.5686L12.5846 22.5606C13.0471 22.5574 13.0481 21.833 12.5846 21.8362L11.6227 21.8428C11.4881 21.8438 11.3444 21.8344 11.2104 21.8457C11.0508 21.8328 11.0281 21.8404 11.1423 21.8682C11.1048 21.8326 11.0628 21.8042 11.0161 21.7829C10.6081 21.5635 10.2445 22.1886 10.6533 22.4084L10.6533 22.4084Z" fill="#4B6CB3"/>
<path d="M25.7707 22.955C26.074 23.0434 26.3551 23.0145 26.6644 22.9827C26.9947 22.9488 27.299 22.9879 27.6212 23.0627C28.0715 23.1673 28.2637 22.4691 27.8123 22.3643C27.5185 22.296 27.2171 22.2362 26.9142 22.2409C26.594 22.2459 26.2767 22.3483 25.9618 22.2566C25.5166 22.1269 25.3264 22.8256 25.7707 22.955V22.955Z" fill="#4B6CB3"/>
<path d="M17.5311 32.343H19.8384C20.4552 32.343 20.4562 31.3772 19.8384 31.3772H17.5311C16.9143 31.3772 16.9133 32.343 17.5311 32.343V32.343Z" fill="#4B6CB3" stroke="#4B6CB3" stroke-width="0.16855" stroke-miterlimit="10"/>
<path d="M17.2513 32.0614H19.5586C20.1754 32.0614 20.1764 31.0956 19.5586 31.0956H17.2513C16.6345 31.0956 16.6335 32.0614 17.2513 32.0614Z" fill="#000003"/>
<path d="M30.8339 28.0666C30.7674 28.2615 30.7654 28.5866 30.6819 28.793C30.5984 28.9993 30.4459 28.9662 30.312 28.9691C29.8207 28.98 29.2934 28.9837 28.802 28.9904C27.8192 29.0036 27.3872 28.9438 26.4045 28.9608C24.5009 28.9938 21.5646 28.9652 19.6618 29.0222C15.7205 29.1403 12.8215 29.1599 8.87875 29.1773C8.86396 29.1774 8.65772 29.0459 8.64371 29.0471C8.36309 28.6838 8.33358 28.4756 7.99629 28.1591C7.60066 27.7878 6.69517 28.2604 7.14893 28.8271C7.47089 29.2292 7.65439 29.4252 7.95261 29.8445C8.08371 30.0288 8.82871 30.4544 9.74701 30.4706C12.0146 30.5107 17.3372 30.3041 21.6418 30.5107C24.0092 30.6244 26.3125 30.6556 28.4445 30.631C29.4284 30.6196 30.4065 30.3536 31.1563 30.0698C31.8671 29.8008 31.8661 28.9545 31.974 28.2957C32.1372 27.2985 31.0919 27.3095 30.8339 28.0666L30.8339 28.0666Z" fill="#4B6CB3" stroke="#4B6CB3" stroke-width="0.16855" stroke-miterlimit="10"/>
<path d="M30.805 27.5847C30.7305 27.7859 30.7413 28.1295 30.6591 28.3462C30.5769 28.563 30.4226 28.53 30.2874 28.5345C29.7914 28.5514 29.2589 28.5611 28.7628 28.5734C27.7706 28.598 27.3337 28.5402 26.3416 28.5688C24.4197 28.6241 21.4543 28.6265 19.5334 28.707C15.5548 28.8738 12.6277 28.9261 8.64649 28.9876C8.63157 28.9878 8.42193 28.8525 8.4078 28.854C8.12064 28.4769 8.08867 28.2595 7.74477 27.9321C7.3414 27.548 6.43197 28.0523 6.89609 28.6402C7.2254 29.0573 7.41274 29.2604 7.71825 29.6957C7.85256 29.8871 8.22216 30.0698 8.67008 29.9834C8.69506 29.9786 17.0956 29.9948 21.443 29.7892C23.5936 29.6875 26.0003 29.7315 28.1528 29.6823C29.1463 29.6597 30.0728 29.6919 31.0569 29.5487C31.8164 29.4382 31.8992 28.5076 31.9586 27.8118C32.0063 27.2538 30.9974 27.0643 30.805 27.5847L30.805 27.5847Z" fill="#000003"/>
<path d="M13.0246 20.4007C12.7242 19.5863 11.588 18.4507 10.344 18.078C8.89837 17.645 7.17917 17.9048 6.55797 18.7454C6.42892 18.92 6.41376 19.0256 6.39775 19.0991C6.33989 19.3649 6.49582 19.5494 6.76419 19.6298C7.03257 19.7102 7.24804 19.5883 7.31679 19.3553C7.33617 19.2896 7.39092 19.1668 7.39839 19.1517C7.81606 18.3075 10.79 19.0662 11.0188 19.8304C10.7285 19.9669 13.1078 20.6264 13.0246 20.4007V20.4007Z" fill="#4B6CB3"/>
<path d="M13.2875 18.6329C12.6775 17.6843 11.0176 16.6428 9.48992 16.6428C7.71474 16.6428 5.86159 17.6575 5.44057 19.002C5.3531 19.2813 5.37115 19.4255 5.37758 19.5281C5.40079 19.8988 5.63812 20.0792 5.96768 20.0792C6.29724 20.0792 6.49976 19.8351 6.49976 19.503C6.49976 19.4094 6.52062 19.227 6.52403 19.2043C6.71421 17.935 10.3222 17.7619 10.8346 18.673C10.5526 18.9655 10.316 19.3747 10.316 19.8144C10.316 20.7117 11.0193 21.3111 11.9113 21.3111C12.8032 21.3111 13.5662 20.6238 13.5662 19.7265C13.5662 19.4244 13.4566 18.8958 13.2875 18.6329H13.2875Z" fill="#000003"/>
<path d="M11.0749 17.7919C11.3433 18.0485 12.1347 17.7712 11.8655 17.5139C10.9016 16.5924 9.38285 15.7434 8.00776 15.8117C7.63938 15.83 7.65897 16.3552 8.00776 16.3912C9.46905 16.5419 10.216 16.9708 11.0749 17.7919H11.0749Z" fill="#000003"/>
<path d="M12.0177 20.7718C12.5358 20.7718 12.9558 20.3782 12.9558 19.8927C12.9558 19.4072 12.5358 19.0137 12.0177 19.0137C11.4996 19.0137 11.0796 19.4072 11.0796 19.8927C11.0796 20.3782 11.4996 20.7718 12.0177 20.7718Z" fill="white"/>
<path d="M12.2266 20.6988C12.6074 20.6988 12.9161 20.4349 12.9161 20.1093C12.9161 19.7838 12.6074 19.5199 12.2266 19.5199C11.8458 19.5199 11.5371 19.7838 11.5371 20.1093C11.5371 20.4349 11.8458 20.6988 12.2266 20.6988Z" fill="#4B6CB3"/>
<path d="M25.3752 20.7612C25.6755 19.9468 26.8117 18.8112 28.0558 18.4385C29.5014 18.0054 31.2206 18.2653 31.8418 19.1059C31.9708 19.2805 31.986 19.3861 32.002 19.4596C32.0599 19.7254 31.9039 19.9099 31.6356 19.9902C31.3672 20.0706 31.1517 19.9488 31.083 19.7158C31.0636 19.6501 31.0088 19.5272 31.0014 19.5121C30.5837 18.6679 27.6097 19.4267 27.381 20.1909C27.6712 20.3274 25.292 20.9868 25.3752 20.7612V20.7612Z" fill="#4B6CB3"/>
<path d="M25.3841 19.9376C25.7857 19.0804 26.8292 18.0928 28.1132 17.8012C29.6052 17.4624 31.3681 17.9014 31.9939 18.8713C32.1239 19.0728 32.1379 19.1889 32.1533 19.2703C32.2088 19.5644 32.0458 19.7506 31.7688 19.8135C31.4918 19.8763 31.2722 19.7243 31.205 19.4649C31.186 19.3917 31.1316 19.2533 31.1242 19.2362C30.7076 18.2809 27.5173 18.8121 27.2709 19.6216C27.5671 19.7963 27.845 20.0998 27.9339 20.4433C28.1154 21.1443 27.772 21.7399 27.0223 21.9101C26.2726 22.0803 25.4235 21.7388 25.242 21.0378C25.1809 20.8018 25.2765 20.1672 25.3841 19.9376L25.3841 19.9376Z" fill="#000003"/>
<path d="M27.0785 18.7522C26.8101 19.0088 25.8984 19.2518 26.1055 18.9417C26.7538 17.9714 28.7706 16.7038 30.1457 16.7721C30.514 16.7904 30.4945 17.3156 30.1457 17.3515C28.6844 17.5022 27.9374 17.9311 27.0785 18.7522V18.7522Z" fill="#000003"/>
<path d="M26.5744 21.472C27.0524 21.472 27.4399 21.1288 27.4399 20.7054C27.4399 20.2821 27.0524 19.9388 26.5744 19.9388C26.0965 19.9388 25.709 20.2821 25.709 20.7054C25.709 21.1288 26.0965 21.472 26.5744 21.472Z" fill="white"/>
<path d="M26.3471 21.3541C26.6796 21.3541 26.9492 21.126 26.9492 20.8447C26.9492 20.5633 26.6796 20.3352 26.3471 20.3352C26.0145 20.3352 25.7449 20.5633 25.7449 20.8447C25.7449 21.126 26.0145 21.3541 26.3471 21.3541Z" fill="#4B6CB3"/>
<path d="M38.366 23.4858C38.3231 23.445 38.2625 23.3877 38.229 23.3497C38.2687 22.7883 38.963 22.3083 38.844 21.5807C38.8216 21.3303 38.5646 20.1901 37.9647 19.9414C37.9141 19.6334 37.9746 19.4107 37.8591 19.234C38.1159 18.426 38.3544 17.4668 38.1715 16.5496C38.4763 16.5449 38.5309 15.8439 38.1464 15.3645C37.8404 14.9829 37.1274 14.8281 36.9708 14.6537C36.4225 14.0431 36.3548 13.2853 36.1502 12.5448C36.0376 12.1372 36.2161 11.7182 35.7057 11.5528C35.3564 11.5302 34.9101 11.7573 34.5782 11.707C32.6294 11.4162 31.6772 11.208 30.5438 9.65229C30.2943 8.29444 30.2522 8.11137 29.4893 8.19108C29.1416 8.0902 28.8048 7.95408 28.444 8.06413C28.1461 8.14685 27.0392 7.65341 26.816 7.51734C26.7488 7.40216 26.2627 6.90118 26.1669 6.77755C25.44 6.18066 26.9758 4.23547 26.1775 4.56891C25.9875 4.64825 25.69 4.243 25.8345 3.76053C25.9237 3.46302 25.2559 3.62717 25.0799 3.64987C24.6622 3.67085 24.2528 3.47529 23.8308 3.41153C23.2138 3.04858 22.5936 2.57076 21.7854 2.82839C20.735 2.68422 20.0856 1.87921 19.0812 2.6175C18.9067 2.55784 18.774 2.53651 18.7061 2.39982C18.2904 1.57224 17.3581 1.57525 16.6769 2.24453C15.9341 2.69023 15.0617 2.85539 14.2607 3.23271C13.4747 3.62186 12.8099 4.22893 12.0245 4.5506C9.23955 4.46832 7.68612 4.65089 6.52124 7.97567C6.29283 8.04052 6.07219 8.33734 5.90014 8.51554C5.06613 8.8496 4.46217 9.73665 3.74756 10.2581C2.91954 10.7603 2.31883 11.6368 1.99447 12.5704C1.85363 13.4283 2.20472 14.1574 2.34503 14.9238C2.30138 15.4325 2.34736 16.0657 2.3681 16.569C2.16402 17.7789 0.887154 18.7909 0.349361 19.9463C0.0598287 20.559 0.404283 21.081 0.213579 21.5564C-0.187172 22.1451 0.0438648 23.6253 0.352441 24.0753C0.314099 24.559 0.41578 25.0737 0.645026 25.5327C0.679693 25.7962 0.674456 26.0348 0.818837 26.3323C0.965945 26.656 1.30727 26.9123 1.23589 27.2423C1.23033 27.6096 1.41873 27.8788 1.49059 28.1693C1.62587 29.1718 1.24324 30.2336 1.72227 31.21C2.09183 31.7314 2.56798 31.5576 2.78804 32.1669C3.07789 33.2688 3.26151 34.9074 4.90012 34.9143C6.89339 34.9228 5.54094 36.9798 6.56029 37.746C6.73745 37.9898 6.91697 38.797 7.41274 38.7114C7.68364 38.8672 7.89962 38.8706 8.12293 38.9051C8.51163 39.5994 9.29254 39.4772 9.83255 39.9572C10.6049 40.3806 10.8004 41.3464 12.0271 41.0825C12.5733 41.8841 13.6245 41.8883 14.2609 41.576C15.5808 41.419 17.2997 41.5926 18.6304 41.4773C20.4131 41.3824 21.4867 42.2049 23.0196 41.9512C24.453 41.6762 25.4224 39.7515 26.5863 39.1234C27.4381 38.8789 28.4922 38.7161 29.371 38.5144C31.0833 38.6827 31.7994 37.603 32.4221 36.1704C33.1546 35.5924 34.4873 36.2202 34.7886 34.9889C36.2809 32.776 36.3877 34.1512 36.6435 31.0578C36.8141 30.3489 36.9758 29.3441 37.1978 28.6734C37.3438 28.2442 37.6323 27.5538 37.7308 27.0837C37.9373 26.3009 38.4296 25.7366 38.6607 24.9777C39.0239 24.4904 38.7702 23.7392 38.366 23.4858L38.366 23.4858ZM37.5322 22.1554C37.0644 22.6819 36.9027 23.9219 37.705 24.3971C37.3677 25.2861 36.7288 26.2305 36.4729 27.1282C35.9864 27.6914 35.9676 28.6193 35.7831 29.3545C35.0857 30.121 35.5698 31.4689 35.3194 32.4299C35.0035 33.0982 33.5587 33.7706 33.3602 34.5744C30.9469 34.6537 31.4413 36.2345 29.9456 37.2607C28.0494 37.6159 26.2377 37.5167 24.8509 39.0979C24.4036 39.4221 23.5473 40.4777 23.0392 40.5494C21.8889 40.6656 21.2319 40.5562 19.7669 40.3717C18.5045 40.2921 17.1602 40.2285 15.9114 40.2033C15.2192 40.2688 14.3347 40.2495 13.7122 40.5692C12.5976 40.3825 13.4967 39.8979 11.2042 39.5623C10.3812 38.358 9.18593 38.437 9.18593 38.437C9.05669 38.1291 7.7504 37.2023 7.50082 37.2919C6.55945 36.3802 7.694 35.3899 6.79542 34.291C6.18558 33.4598 5.05143 33.9176 4.4524 33.7315C3.7839 32.7221 4.18066 31.0902 2.63549 30.5637C2.48908 29.5802 2.82585 28.4429 2.43015 27.4892C2.35721 27.3228 2.32619 27.2196 2.34625 27.0656C2.29386 26.2178 1.69566 25.9712 1.69814 25.179C1.76379 24.9529 1.68077 24.7075 1.49064 24.5692C1.42974 24.2058 1.53842 23.6579 1.2483 23.3911C0.865719 21.9362 1.52852 22.0192 1.35979 20.8981C1.1639 19.7894 3.29895 18.4524 3.46705 16.7271C3.42912 15.7857 3.55245 14.9 3.26393 13.9921C2.89306 12.9838 3.10915 12.5612 3.70602 11.7797C4.09314 11.2215 4.84763 10.9125 5.28996 10.3773C5.97641 9.67861 6.69606 9.34961 7.40686 8.69855C7.88026 7.67796 8.09331 6.69022 9.07501 6.02981C10.0087 5.37759 11.2431 5.8948 12.4369 5.5895C13.3023 5.24456 13.963 4.64004 14.7573 4.23334C15.7317 3.81274 16.8382 3.58967 17.6929 2.88769C17.8452 3.41565 18.9767 3.80247 19.062 3.75698C19.6687 3.84279 19.7712 3.22908 20.2349 3.49629C20.9561 3.90624 21.7306 4.00641 22.404 3.8812C23.18 4.38006 24.4598 4.33697 24.9219 4.33303C24.9618 4.43483 25.3477 4.7473 25.1796 5.1364C24.5494 6.59527 25.9307 8.44003 27.3587 8.86824C27.6349 8.92026 28.4177 9.09828 28.6452 9.09945C28.8977 9.16244 29.1876 9.32757 29.4772 9.31494C29.5166 10.065 29.7524 10.5729 30.2303 11.1527C31.2151 12.4966 33.521 12.8173 35.0631 12.7934C35.1158 14.1799 35.9516 15.052 37.0386 15.9551C37.4549 18.0995 36.0863 18.7797 36.9969 19.9711C36.9151 20.2142 37.0231 21.0088 37.4965 20.9851C37.6795 21.3407 37.8806 21.7539 37.5322 22.1554V22.1554Z" fill="#000003"/>
<path d="M36.7623 8.58038C36.4855 8.50472 36.6927 8.06598 36.7188 7.87354C36.7889 7.64616 36.9806 7.59291 37.1094 7.43899C37.3374 7.42522 37.6847 7.34723 37.7864 7.0993C37.972 7.19452 38.1601 6.95348 38.3058 6.92924C38.5696 6.94833 38.8634 6.76941 39.1105 6.99444C39.1345 7.07611 39.188 7.14887 39.2699 7.17778C39.221 7.24846 39.23 7.3472 39.2884 7.41378C38.2876 7.89873 38.4361 8.44526 37.6566 9.04992C37.1499 9.15468 37.1391 8.68949 36.7623 8.58038V8.58038Z" fill="#4B6CB3" stroke="#4B6CB3" stroke-width="1.48679" stroke-linejoin="round"/>
<path d="M37.6206 8.61102C37.5872 8.61102 37.5531 8.60558 37.5186 8.59445L37.5101 8.59158C37.4759 8.59151 37.441 8.58711 37.4056 8.57825C37.3593 8.59231 37.3141 8.60001 37.2721 8.60001C37.144 8.60001 37.0612 8.48836 37.0131 8.38906C36.9646 8.32131 36.9408 8.24078 36.9439 8.15457C36.9377 8.08199 36.9507 8.02677 36.9712 7.98519C36.9712 7.96538 36.9731 7.94484 36.9773 7.92356C36.9897 7.86076 37.0225 7.80964 37.0652 7.76819C37.0811 7.72331 37.1055 7.68197 37.1402 7.64693C37.2094 7.57747 37.5052 7.42284 37.6971 7.43378C37.7988 7.43959 37.8573 7.48759 37.8885 7.52684C37.9212 7.56812 37.9462 7.61703 37.9641 7.6706C38.1101 7.83942 38.0965 8.07055 37.9274 8.27246L37.924 8.28053C37.9163 8.37237 37.8903 8.46158 37.8301 8.52236C37.7721 8.58075 37.6989 8.61102 37.6206 8.61102H37.6206Z" fill="#7D98CE"/>
<path d="M39.9273 7.4923C39.8083 7.28907 39.6398 7.27043 39.5095 7.11663C39.6363 6.93939 39.5254 6.77526 39.3498 6.7189C39.3003 6.43391 38.5593 6.51577 38.4915 6.52803C38.3801 6.22123 38.0771 6.39128 37.8266 6.61528C37.5496 6.38079 37.3082 6.73444 37.211 6.96872C36.2377 6.99226 35.9787 8.03691 36.3833 8.77332C36.6162 8.96727 36.8042 8.98045 36.9498 9.26043C36.9333 9.59797 37.4 9.84209 37.6837 9.86409C39.1146 9.9955 38.578 8.56072 39.4049 8.05351C39.5609 7.90881 40.0157 7.7659 39.9273 7.4923L39.9273 7.4923ZM36.7624 8.58038C36.4856 8.50472 36.6928 8.06599 36.7189 7.87355C36.7889 7.64617 36.9807 7.59292 37.1095 7.439C37.3374 7.42523 37.6848 7.34724 37.7864 7.09931C37.9721 7.19453 38.1602 6.95349 38.3058 6.92925C38.5697 6.94834 38.8634 6.76942 39.1106 6.99445C39.1345 7.07612 39.188 7.14887 39.2699 7.17779C39.221 7.24847 39.2301 7.34721 39.2884 7.41378C38.2877 7.89873 38.4361 8.44526 37.6566 9.04993C37.15 9.15469 37.1391 8.6895 36.7624 8.58039V8.58038Z" fill="#000003"/>
<path d="M36.431 3.4168C36.3359 3.2703 35.9142 3.09647 35.752 3.08543C35.8433 2.95106 35.9361 2.58473 35.8846 2.39353C35.9792 2.42286 36.2934 2.22496 36.3752 2.20361C36.5066 2.37269 36.6017 2.80467 36.6834 2.72638C36.7099 2.7965 36.7253 2.86753 36.712 2.93814C36.7091 2.95382 36.7104 2.96793 36.7125 2.98162C36.6936 3.02194 36.6834 3.082 36.6899 3.16901C36.561 3.18492 36.4803 3.30126 36.431 3.4168H36.431Z" fill="#4B6CB3" stroke="#4B6CB3" stroke-width="1.68547" stroke-linejoin="round"/>
<path d="M36.7311 2.75755C36.7116 2.74703 36.6328 2.71149 36.5524 2.77451L36.5496 2.77478C36.4146 2.79008 36.3668 2.9646 36.3711 3.05463C36.3766 3.16694 36.453 3.24848 36.5529 3.24848C36.6625 3.24848 36.8069 3.11744 36.834 2.99349C36.855 2.89702 36.8137 2.80221 36.7311 2.75755V2.75755Z" fill="#7D98CE"/>
<path d="M36.9333 3.02651C36.9366 3.01849 36.9413 3.01207 36.9431 3.00231C36.9837 2.78653 36.886 2.62506 36.8075 2.44115C36.8345 2.26726 36.807 2.07051 36.7036 1.96926C36.5567 1.84299 35.8935 1.58729 35.8447 1.93364C35.2336 1.98408 35.1629 2.58721 35.4966 2.92109C35.33 3.0623 35.1258 3.41367 35.5042 3.47225C35.6662 3.44695 35.9353 3.40228 36.0793 3.401C36.3178 3.8812 36.6875 4.01155 36.9108 3.44554C37.0056 3.27882 36.9879 3.12452 36.9333 3.02651V3.02651ZM36.4311 3.41679C36.3359 3.27028 35.9143 3.09646 35.752 3.08542C35.8434 2.95105 35.9361 2.58472 35.8846 2.39352C35.9792 2.42285 36.2935 2.22495 36.3753 2.2036C36.5067 2.37268 36.6018 2.80466 36.6835 2.72637C36.71 2.79649 36.7253 2.86752 36.7121 2.93813C36.7091 2.95381 36.7105 2.96792 36.7126 2.98161C36.6937 3.02192 36.6835 3.08199 36.69 3.169C36.5611 3.18491 36.4803 3.30125 36.4311 3.41679H36.4311Z" fill="#000003"/>
<path d="M33.3565 5.348C33.7271 5.51504 33.8316 5.21009 34.0592 4.94012C33.8152 4.61207 34.218 4.55231 34.3697 4.45881C34.3394 4.366 34.2946 4.27508 34.2843 4.16604C34.1829 4.17953 34.0796 4.09009 34.08 3.98385C33.7127 3.74368 33.3944 4.252 33.0764 3.77112C32.9537 3.9158 32.7769 4.00686 32.5227 4.09572L32.606 4.17948L32.6034 4.18223C32.6591 4.3678 32.6379 4.44111 32.7684 4.64458C32.8814 4.66123 32.9274 4.77376 32.9467 4.87531C33.3021 4.80975 33.1058 5.37203 33.3565 5.348V5.348Z" fill="#4B6CB3" stroke="#4B6CB3" stroke-width="1.48558" stroke-linejoin="round"/>
<path d="M34.4557 3.9562C34.4211 3.89112 34.3314 3.78242 34.1317 3.79114C33.8981 3.80041 33.5688 3.9669 33.4695 4.19091C33.4186 4.30561 33.4271 4.42794 33.4976 4.53562C33.4968 4.68467 33.5707 4.77299 33.6527 4.80822C33.6873 4.82308 33.7229 4.82983 33.7588 4.82983C33.8153 4.82983 33.8725 4.81313 33.9277 4.78566C33.9948 4.77278 34.0702 4.74041 34.1527 4.68214C34.3955 4.51054 34.5841 4.19773 34.4557 3.95621L34.4557 3.9562Z" fill="#7D98CE"/>
<path d="M33.3823 5.97754C33.3043 5.97754 33.2466 5.93832 33.1994 5.88382C32.9769 5.91805 32.8061 5.59712 32.7407 5.39829C32.5992 5.25186 32.3725 5.19777 32.4224 4.95468C32.3586 4.93101 32.3178 4.90364 32.2822 4.82124C32.1133 4.83046 32.0854 4.66349 32.05 4.53524C31.88 4.34905 31.9634 4.2031 32.0475 3.95814C31.9935 3.56974 32.4689 3.54678 32.7407 3.50225C32.7025 3.29178 32.8131 3.03134 33.0952 3.15681C33.266 3.23464 33.3053 3.54525 33.4618 3.62444C33.7729 3.47487 34.1916 3.4539 34.4805 3.87792C35.0608 4.05466 34.8412 4.92249 34.5001 5.25922C34.6594 5.70617 33.9173 6.0641 33.5707 5.86622C33.5089 5.96666 33.4259 5.97639 33.3823 5.97754H33.3823ZM33.3566 5.34801C33.7272 5.51505 33.8317 5.2101 34.0594 4.94014C33.8153 4.61208 34.2181 4.55232 34.3698 4.45883C34.3395 4.36602 34.2947 4.27509 34.2844 4.16606C34.183 4.17954 34.0797 4.0901 34.0801 3.98387C33.7128 3.7437 33.3945 4.25202 33.0765 3.77113C32.9538 3.91581 32.777 4.00687 32.5228 4.09573L32.6061 4.1795L32.6035 4.18225C32.6592 4.36781 32.638 4.44113 32.7685 4.64459C32.8815 4.66124 32.9275 4.77377 32.9468 4.87532C33.3022 4.80977 33.1059 5.37204 33.3566 5.34802V5.34801Z" fill="#000003"/>
<path d="M46.8556 33.541C47.3365 33.5035 47.2541 34.3164 47.3205 34.6361C47.3369 35.0362 47.063 35.2296 46.9452 35.5467C46.5918 35.6981 46.0852 36.0193 46.0631 36.4699C45.7155 36.4246 45.5526 36.9135 45.3355 37.0347C44.9068 37.1545 44.5417 37.605 44.0241 37.3891C43.9403 37.2734 43.8148 37.1885 43.6689 37.1893C43.7067 37.0495 43.637 36.8982 43.5073 36.826C44.8211 35.4885 44.2797 34.7071 45.1759 33.3058C45.9198 32.8516 46.1976 33.5825 46.8556 33.541H46.8556Z" fill="#4B6CB3" stroke="#4B6CB3" stroke-width="2.50052" stroke-linejoin="round"/>
<path d="M45.4787 33.9806C45.5316 33.9616 45.5887 33.9508 45.6496 33.9489C45.6545 33.9487 45.6596 33.9485 45.6646 33.9486C45.7189 33.9292 45.7767 33.9163 45.8376 33.9103C45.9032 33.8616 45.9704 33.8237 46.037 33.7998C46.24 33.7269 46.4337 33.8567 46.5655 33.9867C46.6804 34.0664 46.7632 34.1805 46.8065 34.3189C46.857 34.4303 46.8673 34.5252 46.8581 34.6027C46.8692 34.6341 46.8778 34.6677 46.883 34.7038C46.8986 34.8104 46.8753 34.91 46.8309 35C46.8308 35.0801 46.8153 35.1595 46.78 35.2347C46.7093 35.3841 46.3273 35.7973 46.0172 35.8891C45.8528 35.9378 45.7332 35.895 45.6618 35.8506C45.5868 35.8038 45.5197 35.7405 45.4615 35.6658C45.1356 35.4814 45.0276 35.1075 45.1823 34.6915C45.1825 34.6865 45.1828 34.6817 45.1832 34.6768C45.1441 34.5269 45.1352 34.3707 45.1965 34.2402C45.2557 34.1147 45.3547 34.0251 45.4788 33.9806H45.4787Z" fill="#7D98CE"/>
<path d="M42.39 37.2455C42.6925 37.4997 42.9698 37.4335 43.2624 37.603C43.1608 37.9559 43.4285 38.1529 43.7383 38.1423C43.9764 38.5656 45.1044 38.0145 45.205 37.9565C45.5533 38.3792 45.9381 37.9374 46.2095 37.4401C46.7797 37.654 46.964 36.9564 46.9868 36.53C48.5155 35.9391 48.3405 34.1368 47.2869 33.2003C46.8093 33.0255 46.5042 33.1115 46.1165 32.7508C45.9536 32.2067 45.0774 32.0854 44.6157 32.2119C42.2751 32.8175 43.9291 34.7854 42.9033 36.0592C42.7372 36.3772 42.0968 36.8623 42.39 37.2455H42.39ZM46.7945 33.7216C47.2754 33.684 47.193 34.4969 47.2594 34.8166C47.2758 35.2167 47.0019 35.4101 46.8841 35.7272C46.5307 35.8787 46.0241 36.1998 46.0019 36.6504C45.6544 36.6052 45.4915 37.094 45.2744 37.2152C44.8457 37.3351 44.4805 37.7856 43.9629 37.5697C43.8792 37.4539 43.7537 37.3691 43.6077 37.3698C43.6456 37.2301 43.5759 37.0788 43.4462 37.0065C44.76 35.669 44.2186 34.8876 45.1147 33.4863C45.8586 33.0322 46.1365 33.763 46.7945 33.7216H46.7945Z" fill="#000003"/>
<path d="M107.678 29.3544C107.911 29.5324 108.676 29.5679 108.939 29.4931C108.87 29.758 108.928 30.3911 109.117 30.6647C108.95 30.672 108.564 31.1643 108.446 31.2446C108.143 31.0515 107.75 30.4212 107.665 30.5917C107.584 30.4957 107.519 30.3919 107.501 30.2725C107.497 30.246 107.487 30.2244 107.476 30.2039C107.483 30.1293 107.466 30.0283 107.406 29.8942C107.602 29.7957 107.665 29.5654 107.678 29.3544V29.3544Z" fill="#4B6CB3" stroke="#4B6CB3" stroke-width="2.83465" stroke-linejoin="round"/>
<path d="M107.572 30.5694C107.609 30.575 107.753 30.5864 107.845 30.4409L107.85 30.4388C108.055 30.3378 108.033 30.0341 107.976 29.894C107.904 29.7192 107.737 29.6335 107.579 29.6903C107.405 29.7526 107.25 30.0423 107.277 30.2541C107.297 30.4189 107.416 30.5456 107.572 30.5694Z" fill="#7D98CE"/>
<path d="M107.101 30.2583C107.1 30.2729 107.096 30.2857 107.099 30.3022C107.155 30.6671 107.401 30.8674 107.628 31.1141C107.683 31.4049 107.836 31.701 108.057 31.8026C108.36 31.9191 109.554 31.947 109.438 31.3705C110.378 30.943 110.152 29.9473 109.436 29.6082C109.621 29.2897 109.747 28.6169 109.115 28.7393C108.873 28.8716 108.471 29.0954 108.244 29.1793C107.597 28.5542 106.938 28.558 106.902 29.5817C106.845 29.8997 106.959 30.1341 107.101 30.2583V30.2583ZM107.678 29.3543C107.911 29.5323 108.676 29.5679 108.939 29.4931C108.87 29.7579 108.928 30.3911 109.117 30.6647C108.95 30.672 108.563 31.1643 108.446 31.2446C108.143 31.0515 107.75 30.4212 107.665 30.5917C107.583 30.4957 107.519 30.3919 107.501 30.2725C107.497 30.246 107.487 30.2244 107.476 30.2039C107.483 30.1293 107.465 30.0283 107.406 29.8942C107.602 29.7956 107.664 29.5654 107.678 29.3543V29.3543Z" fill="#000003"/>
<path d="M50.6813 37.1343C50.0005 37.0804 50.0059 37.623 49.7964 38.1802C50.3669 38.5611 49.7622 38.8848 49.5742 39.1193C49.6743 39.249 49.7961 39.3676 49.8735 39.5345C50.0267 39.4554 50.2404 39.5384 50.2993 39.7069C51.0157 39.8785 51.2352 38.8922 52.0084 39.4732C52.1217 39.1741 52.3508 38.9293 52.7038 38.644L52.5248 38.5587L52.5275 38.5528C52.3352 38.2905 52.3277 38.1623 52.0071 37.9142C51.8187 37.9521 51.6828 37.8 51.5953 37.6501C51.0689 37.9561 51.065 36.9536 50.6813 37.1343H50.6813Z" fill="#4B6CB3" stroke="#4B6CB3" stroke-width="2.49847" stroke-linejoin="round"/>
<path d="M49.7198 39.9644C49.8111 40.0478 50.0141 40.169 50.3256 40.0416C50.6904 39.894 51.1189 39.443 51.1508 39.0316C51.167 38.821 51.085 38.632 50.9131 38.5015C50.8308 38.2649 50.6643 38.167 50.5146 38.1578C50.4515 38.154 50.3913 38.1635 50.3345 38.1839C50.245 38.2161 50.1636 38.2751 50.0916 38.35C49.9925 38.4086 49.8911 38.5027 49.7931 38.642C49.5046 39.0519 49.3811 39.6547 49.7198 39.9644V39.9644Z" fill="#7D98CE"/>
<path d="M50.2879 36.1515C50.4115 36.1072 50.5249 36.1365 50.6302 36.196C50.9634 36.0152 51.4139 36.4265 51.6289 36.7043C51.9351 36.8558 52.3245 36.8126 52.3817 37.2261C52.496 37.2273 52.576 37.2474 52.6786 37.3577C52.941 37.247 53.0787 37.4957 53.2067 37.6787C53.5803 37.877 53.5299 38.1557 53.5339 38.5916C53.8371 39.1762 53.0968 39.483 52.6911 39.7081C52.8696 40.0198 52.8403 40.4953 52.323 40.457C52.0089 40.4308 51.7726 39.9611 51.4802 39.9247C51.0712 40.3386 50.4196 40.61 49.7243 40.1025C48.7061 40.1525 48.5677 38.6528 48.9194 37.9253C48.4168 37.3078 49.3918 36.3187 50.0517 36.4351C50.0934 36.2408 50.2194 36.1782 50.2879 36.1515V36.1515ZM50.6814 37.1342C50.0006 37.0804 50.006 37.6229 49.7965 38.1801C50.367 38.561 49.7623 38.8848 49.5743 39.1192C49.6743 39.249 49.7962 39.3676 49.8736 39.5345C50.0268 39.4554 50.2405 39.5384 50.2994 39.7069C51.0158 39.8785 51.2352 38.8922 52.0084 39.4732C52.1218 39.1741 52.3509 38.9293 52.7038 38.644L52.5249 38.5586L52.5276 38.5528C52.3353 38.2905 52.3278 38.1623 52.0071 37.9142C51.8187 37.9521 51.6829 37.7999 51.5954 37.65C51.069 37.9561 51.065 36.9536 50.6814 37.1342H50.6814Z" fill="#000003"/>
<path d="M64.2851 14.68C64.1653 14.5681 64.0463 14.5487 63.968 14.5527C63.7844 14.5613 63.6698 14.6909 63.5939 14.7765C63.5778 14.7947 63.5624 14.8129 63.5464 14.8273C62.9758 15.3412 62.6128 15.9906 62.2619 16.6187C62.1969 16.7348 62.132 16.8509 62.0658 16.9661C61.7033 17.597 61.4396 18.2745 61.2006 18.947L61.1967 18.8999C61.1362 18.1631 61.0737 17.4014 61.0263 16.6527C61.0055 16.323 61.0279 15.9845 61.0552 15.6676C61.0773 15.4119 61.1111 15.1498 61.1437 14.8964C61.1676 14.7108 61.1915 14.5252 61.2115 14.3391C61.3643 12.9211 61.5142 11.5028 61.6627 10.0843C61.7614 9.14094 61.8439 8.1815 61.9236 7.25355C62.0703 5.54592 62.222 3.78024 62.48 2.05909C62.5075 1.8763 62.5038 1.68162 62.4696 1.49672C62.388 1.05513 62.2184 0.76112 61.9509 0.597679C61.6811 0.432605 61.3407 0.416752 60.9107 0.549184C60.3753 0.71379 59.9061 1.03881 59.4761 1.54242C59.0325 2.06259 58.616 2.6154 58.2132 3.15026L58.1764 3.19899C56.5604 5.34424 55.4727 7.2743 54.7532 9.27314C54.5517 9.83271 54.3586 10.4046 54.172 10.9574C54.1441 11.04 54.1162 11.1225 54.0883 11.2048C54.085 11.1412 54.0808 11.0775 54.0756 11.0139C53.9864 9.92201 53.9045 8.6266 53.974 7.29575C53.9994 6.81009 54.0181 6.31487 54.0297 5.82338C54.0534 4.82944 54.0668 4.07122 54.0734 3.365L54.075 3.21554C54.0795 2.80309 54.0843 2.37689 54.0461 1.95464C54.0106 1.56108 53.9376 1.1407 53.8164 0.631257C53.7298 0.265904 53.5411 0.114119 53.3982 0.0509357C53.2587 -0.010151 53.0283 -0.0474557 52.7202 0.12671C52.3463 0.337482 52.0735 0.560145 51.8859 0.80729C51.5675 1.22744 51.3139 1.69025 51.0871 2.12788C50.8636 2.55968 50.6519 3.00431 50.4471 3.43424C50.3266 3.68722 50.2063 3.93996 50.0831 4.1913C50.031 4.29762 49.9729 4.40114 49.9151 4.50466C49.8249 4.66577 49.7318 4.83247 49.6509 5.02669C49.3426 5.76719 49.0238 6.53287 48.7472 7.30298C48.5852 7.75367 48.4349 8.21485 48.2896 8.66111C48.1177 9.18874 47.94 9.73455 47.7436 10.2598C47.2238 11.6495 46.8665 12.9635 46.6512 14.2766C46.5798 14.7117 46.4949 15.154 46.4126 15.5818C46.2913 16.2139 46.1656 16.8677 46.0795 17.5196C45.9584 18.4364 45.9016 19.3725 45.8466 20.2776L45.8235 20.656C45.7927 21.1524 45.7846 21.6555 45.7767 22.1421C45.7736 22.3359 45.7705 22.5298 45.7661 22.7238C45.7636 22.8276 45.7713 22.9267 45.7891 23.0183C45.8131 23.1428 45.8863 23.5215 46.2979 23.6061C46.7123 23.6907 46.9593 23.5161 47.0931 23.3543C47.1489 23.2867 47.19 23.2158 47.2265 23.1533C47.6685 22.393 47.9245 21.7208 48.0322 21.0379C48.2417 19.7122 48.4866 17.9637 48.5222 16.1967C48.5241 16.1032 48.4945 16.0286 48.4727 15.9742C48.4681 15.9626 48.4632 15.9509 48.4595 15.9393L48.3921 15.7192L48.1658 15.7511C48.1076 15.7593 48.0561 15.7726 48.0106 15.79C48.0142 15.7761 48.0178 15.7621 48.0215 15.7483C48.1739 15.1675 48.3133 14.5751 48.4481 14.002C48.5102 13.7378 48.5722 13.4741 48.6357 13.2107C48.865 12.2589 49.1233 11.2517 49.537 10.3181C50.2177 8.78235 50.9846 7.25099 51.7262 5.77023L51.8674 5.48811C51.9794 5.26428 52.1518 5.06074 52.3343 4.8453C52.4057 4.76113 52.4769 4.67673 52.5449 4.59116C52.581 4.54546 52.6009 4.54943 52.6325 4.56085C52.6676 4.57344 52.7007 4.58534 52.7096 4.69235C52.7131 4.73362 52.7123 4.78235 52.7072 4.84554C52.6841 5.12952 52.66 5.4135 52.6359 5.69725C52.5873 6.26988 52.5387 6.84251 52.4988 7.4156C52.4743 7.76743 52.4454 8.11926 52.4164 8.47133C52.3403 9.39952 52.2615 10.3592 52.2668 11.3088C52.275 12.7719 52.3632 14.2554 52.4486 15.6903L52.4987 16.5417C52.5244 16.9885 52.5925 17.4333 52.6585 17.8635C52.6823 18.019 52.7062 18.1745 52.7303 18.3468C52.7466 18.4664 52.7965 18.8306 53.1744 18.8605C53.4562 18.8838 53.6416 18.721 53.7309 18.3804L53.7813 18.1922C53.8333 18.0001 53.8871 17.8012 53.9276 17.5984C53.9872 17.2993 54.0427 16.9992 54.0983 16.6991C54.1899 16.2039 54.2847 15.6919 54.3968 15.1955C54.569 14.4338 54.7304 13.7497 54.9647 13.0915C55.19 12.4583 55.4594 11.8246 55.7198 11.2118C55.8355 10.94 55.9511 10.6679 56.0636 10.3949C56.3994 9.57904 56.8071 8.64083 57.3991 7.82829L57.6245 7.51726C58.0598 6.91502 58.5099 6.29203 59.0334 5.75065C59.4979 5.27058 59.9576 4.80637 60.4731 4.40581C60.5189 4.37014 60.5708 4.3298 60.6119 4.31232C60.6272 4.30555 60.6388 4.30322 60.6419 4.29973C60.643 4.30346 60.6441 4.30905 60.6448 4.31651C60.6567 4.43123 60.6399 4.56132 60.622 4.69935L60.6186 4.72617C60.5835 4.99942 60.5466 5.27245 60.5096 5.54524C60.4472 6.00595 60.3848 6.46643 60.3317 6.92808C60.3073 7.14048 60.2975 7.35312 60.2879 7.55899C60.2789 7.75111 60.2704 7.93274 60.2512 8.11437C60.2186 8.42143 60.1787 8.72757 60.1389 9.03393C60.0934 9.38296 60.048 9.732 60.0131 10.0822C59.9584 10.6294 59.8827 11.1864 59.8097 11.725C59.6673 12.7744 59.52 13.8595 59.5148 14.9509C59.5124 15.4324 59.4981 15.9234 59.4842 16.3986C59.4665 17.0011 59.4483 17.624 59.4541 18.2393C59.4604 18.9111 59.5555 19.5805 59.6376 20.0885C59.7909 21.0377 60.1222 21.9225 60.4772 22.8208C60.5613 23.0335 60.6803 23.2449 60.8215 23.4322C60.937 23.5853 61.1016 23.6714 61.2735 23.6714C61.2998 23.6714 61.3263 23.6693 61.3528 23.6651C61.5596 23.6331 61.7296 23.483 61.8079 23.2636C61.8391 23.1762 61.8484 23.0932 61.8565 23.0197L61.8619 22.9738C61.8843 22.7994 61.9046 22.6248 61.9248 22.4504C61.9658 22.0964 62.0083 21.7306 62.0697 21.3781C62.2701 20.2286 62.6753 19.1092 63.0671 18.0267C63.1583 17.7747 63.2495 17.5226 63.338 17.2711C63.342 17.2613 63.3475 17.2522 63.3526 17.2428C63.3623 17.2247 63.3719 17.2067 63.3807 17.1878L64.1143 15.611C64.1413 15.5529 64.1671 15.4942 64.1929 15.4354L64.2246 15.3625C64.2346 15.3468 64.2494 15.3324 64.2631 15.317C64.5419 15.0053 64.3965 14.784 64.285 14.68L64.2851 14.68Z" fill="black"/>
<path d="M70.2063 13.5709C70.1551 13.2419 70.0412 12.9311 69.9311 12.6308L69.8596 12.4338C69.7891 12.2347 69.6032 12.1109 69.5266 12.0668C69.1186 11.8327 68.7292 11.7485 68.3368 11.8099C67.4039 11.9551 66.6304 12.4009 66.0377 13.1347C65.5772 13.7054 65.1268 14.2976 64.6912 14.8703L64.4622 15.1713C64.3355 15.3377 64.2544 15.4932 64.2142 15.6469C64.1673 15.8269 64.2514 16.1067 64.4342 16.2118C64.6085 16.3119 64.815 16.2358 64.9546 16.1696C65.0648 16.1181 65.1161 16.0241 65.1468 15.968C65.1514 15.9593 65.1558 15.9505 65.1554 15.9498C65.2031 15.8966 65.2512 15.8437 65.2994 15.791C65.2746 15.9677 65.2459 16.144 65.2173 16.32C65.1713 16.6014 65.124 16.8926 65.0932 17.1843C65.0589 17.5093 65.0501 17.8374 65.0416 18.1545L65.0287 18.5765C65.0016 19.3618 64.9736 20.1738 65.2014 20.984C65.3392 21.4741 65.6544 21.7455 65.9443 21.9463C66.0438 22.0155 66.1802 22.0535 66.309 22.0535C66.3687 22.0535 66.4268 22.0451 66.4788 22.0281L66.5342 22.0099C66.7603 21.936 67.0165 21.8521 67.2299 21.6954C67.854 21.2361 68.361 20.6077 68.7797 19.7747C69.2703 18.7984 69.7664 17.7462 69.9716 16.5632C69.9924 16.4434 70.014 16.3235 70.0356 16.2039C70.1889 15.3545 70.3473 14.4762 70.2063 13.5709V13.5709ZM66.6102 14.4569C66.6465 14.4345 66.6827 14.4119 66.7188 14.3893C67.1231 14.1356 67.3899 13.9871 67.7695 14.1249C68.1482 14.2624 68.3644 14.4753 68.4497 14.7952C68.5149 15.0391 68.5482 15.2645 68.5486 15.465C68.5494 15.9162 68.5428 16.4487 68.4879 16.9763C68.4634 17.2139 68.3861 17.4755 68.2703 17.7131L68.2364 17.7828C67.9276 18.4172 67.6082 19.0736 67.2309 19.6695C67.0928 19.8877 66.7835 20.0596 66.535 20.1976C66.4968 20.2188 66.4732 20.2207 66.4682 20.2186C66.4578 20.2142 66.4228 20.1813 66.3979 20.0901C66.2801 19.6602 66.1778 19.1955 66.2254 18.7089C66.2533 18.424 66.2632 18.137 66.2728 17.8593C66.283 17.5674 66.2934 17.2657 66.325 16.9761C66.3929 16.355 66.4789 15.8922 66.6038 15.4755C66.6923 15.1801 66.7597 14.8316 66.6102 14.4569V14.4569Z" fill="black"/>
<path d="M119.972 18.4693L119.972 18.4679C119.904 18.2772 119.671 18.2007 119.525 18.2164C119.398 18.232 119.286 18.2828 119.183 18.3332C119 18.4229 118.817 18.5143 118.634 18.6055C118.453 18.6962 118.272 18.7869 118.09 18.8757C117.169 19.3255 116.263 19.7542 115.304 20.0573C114.745 20.2341 114.153 20.3245 113.58 20.4122C113.168 20.4752 112.743 20.5402 112.324 20.637C111.871 20.7419 111.395 20.761 110.978 20.7554C110.179 20.7542 109.647 20.5659 109.252 20.1443C109.138 20.0226 109.082 19.9156 109.061 19.7752C108.973 19.2084 109.061 18.6206 109.343 17.8696C109.749 16.792 110.381 15.7988 111.334 14.7435C111.424 14.6444 111.536 14.5561 111.655 14.4623L111.748 14.3887C111.793 14.3523 111.842 14.3199 111.891 14.2872C111.981 14.2259 112.084 14.1567 112.174 14.0643C112.867 13.353 113.706 12.772 114.667 12.3376C115.101 12.1413 115.563 11.9764 116.011 11.8167L116.258 11.7286C116.558 11.6204 116.709 11.387 116.673 11.0883C116.636 10.7794 116.382 10.5822 116.062 10.6199C115.827 10.6482 115.599 10.6948 115.346 10.7484C115.236 10.7717 115.126 10.7995 115.016 10.8272C114.845 10.8704 114.683 10.9112 114.521 10.9349C114.056 11.0032 113.563 11.0604 113.054 11.1049L112.927 11.1163C112.593 11.1466 112.247 11.1783 111.922 11.1541C111.267 11.1058 110.601 11.013 109.956 10.9233L109.923 10.9188C109.85 10.9086 109.774 10.8862 109.692 10.858L110.094 10.1774C110.332 9.77266 110.293 9.32337 109.982 8.91208C109.797 8.66751 109.443 8.41407 108.805 8.59523C107.785 8.88434 107.44 9.73232 107.269 10.3448C107.198 10.5997 107.271 10.8832 107.36 11.1518C107.415 11.3157 107.503 11.4532 107.596 11.599C107.607 11.6169 107.618 11.6351 107.63 11.6537L107.583 11.7335C107.487 11.8955 107.388 12.0632 107.285 12.2285C107.223 12.3266 107.157 12.4222 107.092 12.5176C106.961 12.7076 106.826 12.9039 106.722 13.1231C106.361 13.8799 105.797 14.4626 105.199 15.0793C105.11 15.1702 105.022 15.2611 104.935 15.3527C104.705 15.5938 104.467 15.8281 104.23 16.0627C103.968 16.3215 103.697 16.5892 103.439 16.8631C103.128 17.1926 102.819 17.5125 102.453 17.8023C101.697 18.4005 100.871 18.9053 100.157 19.3315C99.9048 19.4817 99.6058 19.5288 99.1882 19.4842C99.062 19.4707 98.9496 19.4017 98.8443 19.2732C98.6828 19.0765 98.593 18.8531 98.5004 18.5565C98.4602 18.4271 98.4613 18.3616 98.639 18.2317C99.4103 17.6682 100.108 17.1296 100.771 16.5854C101.408 16.0632 101.944 15.4668 102.555 14.7321C102.951 14.2562 103.255 13.7475 103.475 13.3576C103.78 12.8202 103.746 12.2317 103.376 11.6558C103.093 11.2138 102.438 10.9592 101.885 11.0746C101.018 11.2567 100.244 11.7221 99.5212 12.4978C98.9283 13.1333 98.26 13.9153 97.7997 14.8974C97.4232 15.7001 97.034 16.5299 96.9017 17.4572C96.8806 17.6041 96.8239 17.6866 96.7063 17.7419C96.6455 17.7706 96.5851 17.7999 96.5249 17.8295C96.412 17.8846 96.2993 17.9398 96.1836 17.9881C95.9705 18.0772 95.7562 18.1637 95.5421 18.2502C95.2723 18.359 95.0025 18.4679 94.7348 18.5817C94.3048 18.7647 93.8594 18.8221 93.373 18.7591C93.1946 18.7358 93.1628 18.7067 93.1302 18.5367C93.1055 18.4064 93.0934 18.2945 93.0934 18.1949C93.0944 17.1569 93.0953 16.0832 93.2452 15.0303C93.2584 14.9391 93.2832 14.8615 93.3135 14.8172C93.5317 14.5001 93.7303 14.2163 93.9515 13.954C94.7005 13.066 95.2626 12.2779 95.7201 11.474C95.759 11.4057 95.7939 11.3807 95.8638 11.3705C96.4462 11.2868 97.0278 11.1977 97.6095 11.1086L98.6893 10.9438C99.4309 10.8309 100.172 10.7181 100.913 10.6001C101.049 10.5784 101.411 10.5211 101.569 10.0758L101.691 9.72929L101.327 9.71437C100.371 9.6752 99.4369 9.79131 98.5324 9.90415C97.8849 9.98482 97.2194 10.0678 96.5557 10.0909C96.5719 10.0648 96.5883 10.0391 96.6045 10.0133C97.0898 9.25132 97.4256 8.37442 97.6937 7.16995C97.7861 6.75447 97.7268 6.35414 97.5225 6.0121C97.4353 5.86638 97.1712 5.42432 96.6422 5.47468C96.2037 5.51804 95.8168 5.664 95.4924 5.90858C94.875 6.37419 94.4812 7.00417 94.1005 7.6134C94.042 7.7069 93.9836 7.80039 93.9246 7.89272C93.5784 8.43551 93.3089 9.02865 93.0481 9.60245C92.9706 9.77335 92.8928 9.94425 92.8132 10.1138C92.7533 10.2415 92.7431 10.2408 92.6584 10.239C92.3208 10.2303 91.9827 10.2296 91.6446 10.2289C91.0902 10.228 90.517 10.2271 89.9604 10.1877C89.7854 10.1753 89.6086 10.1709 89.4314 10.1667C88.9 10.1539 88.398 10.1417 87.9429 9.90835C87.9093 9.89109 87.8764 9.8813 87.8462 9.87547C87.8508 9.87151 87.8554 9.86777 87.8599 9.86381C88.2076 9.57027 88.5359 9.29305 88.9358 9.12728C89.1231 9.0494 89.2464 8.75959 89.1755 8.56374C89.1083 8.37745 88.8873 8.25878 88.7203 8.25551C88.5794 8.25341 88.4548 8.30727 88.3554 8.35064L88.3155 8.36789C88.1782 8.42571 88.0429 8.48843 87.9076 8.55138L87.8059 8.59848C87.0867 8.93049 86.4215 9.39564 85.7719 10.0205C85.6697 10.1189 85.5705 10.2203 85.4712 10.322C85.3108 10.4863 85.1594 10.6414 84.9954 10.7829C84.377 11.3164 83.8552 11.8981 83.3999 12.5612C82.935 13.2385 82.3974 13.9557 81.7566 14.754C81.6299 14.9116 81.5016 15.0683 81.3734 15.2247C80.9128 15.7869 80.4365 16.3679 80.038 17.0056C79.9732 17.1091 79.8916 17.2077 79.797 17.3222C79.7913 17.3292 79.7855 17.336 79.7797 17.3432C79.731 17.3208 79.6825 17.2984 79.6342 17.2763C79.3863 17.162 79.1299 17.044 78.8686 16.9454C78.6815 16.875 78.533 16.7405 78.3609 16.5847C78.2471 16.4814 78.1293 16.3749 77.9909 16.2798L77.5695 15.99L77.5708 16.5041C77.5714 16.7547 77.6067 16.9494 77.6818 17.1168C77.9051 17.6148 78.2294 18.1096 78.673 18.6293L78.6994 18.66C78.7146 18.678 78.7307 18.6966 78.7455 18.7144C78.7212 18.7374 78.6954 18.761 78.6783 18.7766C78.2193 19.1947 77.8351 19.5288 77.4693 19.8281C77.3365 19.9368 77.1645 20.038 76.958 20.1287C76.9261 20.1427 76.9042 20.149 76.8909 20.1515C76.8843 20.1401 76.8749 20.1201 76.8646 20.0879C76.7951 19.8694 76.7608 19.6766 76.7624 19.5143C76.772 18.5558 76.7878 17.4264 76.8324 16.3154C76.8563 15.7167 76.9075 15.1065 76.9569 14.5162L76.9935 14.0744C77.0147 13.8121 77.041 13.5502 77.0673 13.2884C77.0937 13.0247 77.12 12.761 77.1414 12.4968C77.1889 11.913 77.077 11.4346 76.7993 11.0347C76.5744 10.7104 76.2385 10.5069 75.8779 10.4765C75.5186 10.4462 75.1728 10.5826 74.9021 10.8596C74.7635 11.0016 74.6174 11.1574 74.4882 11.3339C73.896 12.1438 73.4092 13.0653 73.0003 14.1506L72.9927 14.1709C72.7435 13.1779 71.9476 12.6887 71.342 12.4001C71.1622 12.3143 70.9995 12.3035 70.8588 12.3679C70.636 12.4698 70.5641 12.7244 70.5406 12.8079C70.4408 13.1606 70.6561 13.3849 70.7268 13.4584L70.8224 13.5568C70.9611 13.699 71.0921 13.8333 71.1916 13.9806C71.6312 14.6323 71.799 15.3541 71.6902 16.1266C71.5856 16.8703 71.4658 17.626 71.35 18.3567L71.2886 18.7437C71.2645 18.8965 71.2356 19.0487 71.2068 19.201C71.1548 19.4758 71.1011 19.7601 71.074 20.0485C71.0231 20.5927 71.3189 20.8668 71.6348 20.8969C72.138 20.9419 72.2837 20.4518 72.3389 20.2665C72.4028 20.0515 72.4597 19.8347 72.5164 19.6178C72.5698 19.4138 72.6231 19.2096 72.6828 19.0074C72.7326 18.8391 72.7893 18.6726 72.8459 18.5059C72.9199 18.2886 72.9964 18.0636 73.0578 17.834C73.3721 16.6596 73.7974 15.5183 74.322 14.4416C74.5046 14.0671 74.7651 13.7251 75.1188 13.3956C75.2086 13.3119 75.2933 13.269 75.3535 13.2809C75.4171 13.2924 75.4885 13.3679 75.5491 13.488C75.6803 13.7479 75.7355 14.0431 75.718 14.3905C75.7029 14.6871 75.6724 14.9818 75.6397 15.2828C75.5044 16.5297 75.4491 17.8601 75.4658 19.4695C75.4718 20.0417 75.5774 20.5206 75.7884 20.9335C76.041 21.4274 76.584 21.6519 77.0507 21.456C77.4115 21.3045 77.7852 21.1277 78.0749 20.8627C78.2384 20.713 78.4136 20.5773 78.5991 20.4336C78.9464 20.1644 79.3039 19.8876 79.5937 19.5066L79.7934 19.629C79.9916 19.751 80.1891 19.8897 80.3802 20.0238C80.8018 20.3199 81.2378 20.6262 81.7546 20.8128C81.9803 20.8944 82.2071 20.9727 82.434 21.0513C82.6394 21.1224 82.8449 21.1935 83.0497 21.2669C83.4592 21.4136 83.8894 21.4654 84.328 21.4211C85.5351 21.2986 86.6677 20.9282 87.6943 20.3199C87.8827 20.2084 88.0813 20.0627 88.1269 19.8277C88.1727 19.5917 88.0417 19.3793 87.9076 19.2028C87.7531 18.9995 87.5978 18.7971 87.4373 18.5878L87.4286 18.5766C87.4564 18.5628 87.4838 18.5495 87.5112 18.5362C87.7187 18.4362 87.9284 18.3402 88.1379 18.2439C88.615 18.0247 89.1085 17.7983 89.5735 17.5269C90.0465 17.2511 90.4949 16.927 90.9284 16.6136C91.1101 16.4824 91.2919 16.3511 91.4754 16.2231L91.5537 16.1683C91.5974 16.1375 91.6404 16.107 91.6839 16.0776C91.5395 17.0569 91.4211 18.1928 91.5226 19.3721C91.5564 19.7622 91.6351 20.1455 91.7564 20.5115C91.9581 21.1198 92.6174 21.4586 93.2563 21.283C94.3972 20.9704 95.255 20.5512 95.9557 19.9638C96.0214 19.9088 96.1024 19.8545 96.21 19.7932C96.4263 19.6701 96.6446 19.5495 96.882 19.4183L96.8878 19.4152C97.0136 19.8918 97.2545 20.2781 97.4968 20.6666C97.7956 21.1462 98.172 21.4159 98.6154 21.4679C99.1159 21.5269 99.7694 21.5472 100.385 21.1839C100.565 21.0772 100.751 20.9781 100.936 20.879C101.152 20.7636 101.375 20.644 101.59 20.5129L101.656 20.4731C101.969 20.2833 102.293 20.087 102.566 19.8235C103.229 19.1818 103.881 18.5106 104.502 17.8279C104.819 17.4796 105.113 17.1061 105.397 16.7449C105.518 16.5922 105.639 16.4392 105.761 16.2882C105.839 16.1909 105.915 16.0909 105.99 15.9907C106.144 15.7864 106.289 15.5936 106.458 15.4313C106.881 15.0238 107.215 14.5798 107.478 14.0741C107.802 13.4518 108.201 12.858 108.697 12.2583C108.851 12.0723 109.008 12.0119 109.242 12.0524C109.329 12.0671 109.416 12.0851 109.503 12.103C109.647 12.1329 109.796 12.1637 109.956 12.1825C110.704 12.2707 111.475 12.3607 112.252 12.332C111.905 12.6302 111.563 12.9251 111.225 13.2261C110.882 13.5327 110.518 13.862 110.183 14.221C110.025 14.3903 109.882 14.5714 109.743 14.7465C109.587 14.9447 109.438 15.132 109.273 15.3008C108.634 15.9515 108.197 16.7358 107.839 17.4197C107.473 18.1166 107.241 18.8888 107.062 19.5526C106.938 20.0147 106.985 20.5292 107.031 20.876C107.129 21.6078 107.725 21.9209 108.203 22.1728L108.243 22.1935C108.768 22.4698 109.324 22.5052 109.862 22.5397L110.034 22.5509C110.272 22.5675 110.538 22.5812 110.821 22.5812C111.322 22.5812 111.875 22.5383 112.422 22.3929C114.024 21.9669 115.52 21.2996 116.645 20.7661C117.108 20.5467 117.566 20.3003 117.952 20.0881C118.35 19.8701 118.743 19.6444 119.137 19.4187L119.565 19.1739L119.626 19.1413C119.707 19.0984 119.809 19.045 119.892 18.9552C120.011 18.8265 120.022 18.6134 119.972 18.4693L119.972 18.4693ZM98.6712 16.609C99.1916 15.2208 99.8453 14.2117 100.727 13.4346C100.839 13.336 100.94 13.2301 101.038 13.128C101.12 13.0422 101.202 12.9564 101.289 12.8769C101.65 12.5484 101.962 12.3938 102.301 12.3758C102.311 12.3754 102.32 12.3751 102.329 12.3751C102.41 12.3751 102.473 12.3949 102.509 12.4315C102.552 12.4763 102.556 12.5509 102.552 12.6055C102.536 12.8281 102.497 12.9869 102.435 13.0909C102.269 13.3693 102.069 13.6421 101.876 13.9058C101.813 13.9932 101.749 14.0807 101.686 14.1686C101.667 14.194 101.644 14.2157 101.621 14.238C101.579 14.28 101.537 14.3229 101.503 14.37C100.769 15.3649 99.7512 15.9725 98.6712 16.609L98.6712 16.609ZM85.6355 19.2478L85.8582 19.6997C85.5403 19.944 85.154 19.9692 84.778 19.9552C83.9241 19.9244 83.2261 19.8279 82.5945 19.4574L82.5916 19.4556C83.6651 19.5815 84.6712 19.512 85.6355 19.2478V19.2478ZM84.6777 15.3541C84.718 16.3784 84.8587 17.2429 85.1176 18.0478C83.8249 18.3665 82.5339 18.3215 81.1893 17.9105C81.768 17.0615 83.7152 14.5647 84.7361 13.3448C84.6466 14.0366 84.6524 14.7123 84.6777 15.3541V15.3541ZM88.1794 11.7421C89.2866 11.8209 90.3949 11.8267 91.4731 11.7603C91.7337 11.7442 92.0023 11.7426 92.2622 11.7412L92.4059 11.7405C92.4131 11.8603 92.3867 11.9776 92.3557 12.1142L92.2391 12.6321C92.1326 13.1028 92.0262 13.5738 91.9292 14.0468C91.9061 14.1602 91.8573 14.2411 91.7605 14.3259C91.5817 14.4835 91.4044 14.6428 91.2271 14.8023C91.0038 15.003 90.7803 15.204 90.5538 15.4008L90.4869 15.4591C90.226 15.6869 90.0007 15.8839 89.6936 15.9191C89.5754 15.9328 89.488 15.9946 89.4243 16.0396C89.4103 16.0494 89.3964 16.0594 89.382 16.0681L88.7907 16.4257C88.3156 16.7134 87.8405 17.0014 87.3607 17.2812C87.2061 17.3712 87.0374 17.446 86.8588 17.5253C86.8464 17.5306 86.8342 17.5362 86.8218 17.5416L86.8023 17.5073C86.6054 17.1602 86.4195 16.8326 86.3218 16.4754L86.2755 16.3075C86.0985 15.6656 85.9313 15.0592 85.9352 14.4171C85.942 13.2697 86.0886 12.3469 86.3962 11.5136C86.5351 11.1378 86.7277 10.7204 87.1057 10.4458C87.1111 10.525 87.1313 10.6074 87.1666 10.6897C87.1921 10.7491 87.2225 10.8072 87.2529 10.8652C87.293 10.9415 87.331 11.0135 87.3465 11.0762C87.4495 11.4919 87.7219 11.7099 88.1794 11.7421L88.1794 11.7421Z" fill="black"/>
<path d="M95.446 7.61243C95.4691 7.71583 95.4967 7.78279 95.4971 7.84989C95.4993 8.33175 95.3984 8.79231 95.2159 9.23776C95.086 9.55481 94.9778 9.88095 94.8451 10.1967C94.808 10.2852 94.7271 10.4052 94.6512 10.4177C94.4001 10.4591 94.1412 10.4949 93.8496 10.4348C94.1406 9.34382 94.5387 8.36254 95.446 7.61243V7.61243Z" fill="white"/>
<path d="M93.6605 11.4717C93.8462 11.4524 94.0159 11.4347 94.2872 11.4064C94.0099 11.8463 93.7867 12.2002 93.5635 12.5541C93.5311 12.5409 93.4987 12.5277 93.4663 12.5146C93.5289 12.1786 93.5914 11.8427 93.6605 11.4717V11.4717Z" fill="white"/>
<path d="M109.249 9.72496C109.075 10.0972 108.937 10.4968 108.621 10.7789C108.427 10.7327 108.4 10.5894 108.387 10.4446C108.358 10.1194 108.736 9.59635 109.05 9.51747C109.222 9.47452 109.324 9.56703 109.249 9.72496V9.72496Z" fill="white"/>
<path d="M119.146 36.8975V36.8972C119.029 36.5698 118.749 36.383 118.435 36.4233C118.347 36.4342 118.253 36.4622 118.156 36.5061C117.167 36.9541 116.104 37.1968 115.075 37.4316L114.871 37.4783C114.021 37.673 113.358 37.7537 112.732 37.7349C112.787 37.6667 112.842 37.5991 112.897 37.5314C113.083 37.3024 113.275 37.0655 113.449 36.8102C113.798 36.2972 114.152 35.7453 114.565 35.0736C114.78 34.7246 114.921 34.4451 115.022 34.1676C115.222 33.6236 115.251 33.1256 115.108 32.6867C114.832 31.8426 113.686 31.1156 112.96 31.3238C112.074 31.5756 111.341 31.9922 110.718 32.5971C110.525 32.7852 110.343 32.9888 110.168 33.1858C110.069 33.2964 109.97 33.4074 109.869 33.5155C109.541 33.8661 109.429 34.3065 109.373 34.607C109.326 34.8543 109.265 35.1069 109.206 35.3511C109.162 35.5295 109.119 35.7077 109.08 35.8874C109.032 36.1088 108.978 36.3599 108.968 36.6195C108.946 37.2057 109.048 37.7151 109.281 38.1672C109.163 38.2619 109.051 38.3498 108.942 38.3949C108.592 38.5396 108.206 38.6678 107.692 38.811C107.543 38.8524 107.366 38.8625 107.195 38.8399C107.078 38.8245 107.05 38.7988 107.049 38.7988C107.049 38.797 107.029 38.7605 107.035 38.6021C107.072 37.4593 107.277 36.4533 107.662 35.5267C107.801 35.1914 107.843 34.8523 107.882 34.5243C107.901 34.3712 107.919 34.2265 107.946 34.0854C107.977 33.9211 107.951 33.7508 107.875 33.6178C107.806 33.4965 107.7 33.4157 107.576 33.3901C107.4 33.3543 107.188 33.4119 107.049 33.5348C106.88 33.6843 106.725 33.9016 106.738 34.0326C106.865 35.3084 104.745 39.0546 103.061 39.3174C102.253 39.4435 100.889 39.2041 99.2264 37.938C98.8777 37.6725 98.4023 37.2259 97.9358 36.7823C97.9527 36.7901 99.4067 37.1744 99.9448 37.1744C101.282 37.1744 102.889 36.1021 103.722 35.0594C104.675 33.8655 104.872 33.1192 105.027 32.7149C105.226 32.1947 105.045 31.4291 104.655 31.1392C104.249 30.8379 103.802 30.5721 103.274 30.6681C102.995 30.7189 102.717 30.7877 102.447 30.8549C102.547 30.7463 102.646 30.6381 102.746 30.53C103.178 30.0596 103.626 29.5733 104.044 29.0653C104.644 28.3383 105.061 27.4173 105.285 26.3286C105.413 25.7084 105.31 25.1259 104.97 24.5473C104.52 23.7817 104.325 23.7157 103.583 24.0798C103.043 24.3438 102.527 24.7304 101.907 25.3327C101.028 26.1872 100.199 27.1498 99.4422 28.1944C98.1628 29.9591 97.3171 31.7118 96.5426 33.3703C96.217 34.0675 94.9517 34.1977 95.1135 35.0594C95.1972 35.5051 95.931 34.9911 95.9071 35.1254C95.876 35.3006 95.8466 35.4658 95.7984 35.6166C95.6182 36.1804 95.4318 36.7416 95.2454 37.3032C95.0399 37.922 94.8344 38.5409 94.6371 39.1633L94.6032 39.271C94.4009 39.9099 94.21 40.5136 93.8986 41.0563C93.8564 41.1299 93.778 41.267 93.7874 41.4355C93.7965 41.5952 93.8377 41.8084 93.9816 41.9181C94.0428 41.9645 94.1109 41.9823 94.1791 41.9823C94.2749 41.9823 94.3704 41.9473 94.4471 41.9087C94.5533 41.8546 94.6132 41.7531 94.6526 41.6858L95.1823 40.8479C95.4433 40.4354 95.7042 40.0226 95.9665 39.6114C96.3342 39.0354 96.7187 38.3601 97.1067 37.8474C98.2609 39.2408 100.59 40.9788 102.726 40.7288C103.767 40.607 104.713 39.5454 105.54 38.5071C105.558 38.4843 105.577 38.4645 105.595 38.4472L105.645 39.3329L105.842 39.6825C105.961 39.8959 106.069 40.0876 106.178 40.2765L106.205 40.3249C106.261 40.4262 106.33 40.5521 106.45 40.6296C106.869 40.8974 107.509 41.2119 108.227 40.8568C108.365 40.788 108.505 40.7225 108.644 40.657C109.1 40.4432 109.571 40.2221 110.005 39.8914C110.142 39.7873 110.286 39.6967 110.44 39.6007C110.562 39.5243 110.683 39.4479 110.801 39.3649C110.878 39.3111 110.927 39.305 111.012 39.3365C111.893 39.6637 112.847 39.7332 114.016 39.5548C115.486 39.3306 116.992 38.83 118.633 38.0175C118.715 37.9771 118.808 37.9312 118.896 37.8614C119.167 37.6443 119.27 37.2481 119.146 36.8975V36.8975ZM101.33 28.0298C102.067 27.1033 103.651 25.9806 103.852 26.2621C104.052 26.5436 103.454 27.6445 102.132 29.2592C101.257 30.3277 99.9821 31.106 98.9599 31.9152C99.2002 31.1784 100.775 28.7276 101.33 28.0298ZM98.715 35.7928C99.1219 35.3381 99.5062 34.9091 99.9499 34.5613C100.128 34.4222 100.307 34.2859 100.487 34.1496C100.658 34.0194 100.829 33.8894 100.998 33.7569C101.386 33.4546 101.824 33.2299 102.299 33.0888C102.381 33.0644 102.454 33.0479 102.521 33.0383C102.713 33.0103 102.863 33.0532 102.931 33.156C102.998 33.2573 102.995 33.4343 102.924 33.6417C102.867 33.8044 102.754 33.9633 102.661 34.0839C102.084 34.8325 101.324 35.3155 100.656 35.6892C100.158 35.9682 99.6424 36.0971 99.0918 36.0908C98.8837 36.0875 98.7291 36.0519 98.5661 35.9588C98.6159 35.9034 98.6656 35.8478 98.715 35.7928V35.7928ZM97.4761 35.3319C97.4391 35.3731 97.3258 35.3806 97.288 35.3453C97.2474 35.3073 97.2369 35.1979 97.2452 35.1245C97.2525 35.0597 97.2982 34.9964 97.3364 34.9414C97.6281 34.5214 98.0042 34.2498 98.4301 34.0675C98.4508 34.0988 98.4715 34.1301 98.4922 34.1613C98.1548 34.5531 97.8201 34.9482 97.4761 35.3319V35.3319ZM111.446 36.6355L111.304 36.7617C111.27 36.7916 111.215 36.8414 111.179 36.8683C111.144 36.845 111.09 36.8015 111.051 36.7706L111.051 36.7703C110.982 36.7147 110.916 36.6528 110.846 36.586C110.953 36.2837 111.056 36.0697 111.216 35.8844C111.404 35.6666 111.544 35.3922 111.66 35.1518C111.906 34.6408 112.217 34.3253 112.638 34.1593C112.824 34.0856 113 33.9912 113.171 33.8996C113.238 33.8638 113.305 33.828 113.372 33.7935C113.466 33.7455 113.547 33.7066 113.627 33.6891C113.643 33.8117 113.625 33.9333 113.574 34.0669C113.347 34.6522 113 35.1703 112.515 35.6506C112.17 35.9913 111.802 36.3187 111.446 36.6355V36.6355Z" fill="black"/>
<path d="M106.445 39.6122H106.712L106.712 39.6538H106.445L106.445 39.6122Z" fill="black"/>
<path d="M106.965 39.9484H106.192V39.359L106.444 39.3174H106.965V39.9484V39.9484Z" fill="black"/>
<path d="M93.7192 33.4151C93.3651 33.3816 92.979 33.3141 92.4909 33.3294C92.1225 33.3405 91.7526 33.3786 91.3949 33.4157C91.2958 33.4258 91.1965 33.4362 91.0975 33.4459C90.9235 33.1016 90.7861 33.0636 90.3518 33.1428C89.7968 33.2425 89.2101 33.3824 88.6799 33.7253C88.2193 34.0234 87.7736 34.3628 87.343 34.6912L87.223 34.7824C87.1109 34.8677 87.0125 34.9167 86.9119 34.9347L86.9117 34.9334C86.8607 34.3331 86.5877 33.8634 86.122 33.5753C85.914 33.4464 85.6775 33.3448 85.4383 33.2816C84.8279 33.1209 84.1642 33.1082 83.4661 33.2433C83.0489 33.324 82.6379 33.453 82.2403 33.5779C82.081 33.6279 81.9216 33.6779 81.7618 33.7248C80.0917 34.2158 78.7913 34.84 77.6695 35.6896C77.2714 35.9909 76.8954 36.2752 76.4412 36.3582C76.2655 36.39 76.1054 36.4593 75.9505 36.5263C75.8691 36.5613 75.7875 36.5969 75.7047 36.6253L75.5192 36.69C75.2984 36.7682 75.09 36.8421 74.8793 36.8807L74.764 36.9017C73.6432 37.1074 72.4843 37.3198 71.3421 37.4886C70.2005 37.6574 68.9896 37.8125 67.4162 37.9918C65.9269 38.1616 64.7945 38.1682 63.7444 38.0133C63.466 37.9722 63.158 37.8788 62.8029 37.7277C62.7584 37.709 62.7338 37.6925 62.7211 37.6821C62.7254 37.6635 62.7363 37.6287 62.7639 37.5737C62.9031 37.2977 63.0297 37.1107 63.1626 36.9852L63.3646 36.7936C63.7811 36.3973 64.2119 35.9876 64.6694 35.6749C67.2592 33.9053 70.1606 32.5538 73.2929 31.6585C73.4218 31.6215 73.5535 31.5913 73.6887 31.5638L73.6329 31.6039C73.4839 31.7123 73.3132 31.7994 73.1325 31.8918C73.0456 31.936 72.9569 31.9814 72.8669 32.0307L72.5419 32.2086L72.795 32.5054C73.006 32.7523 73.266 32.8123 73.5684 32.682C74.0804 32.4614 74.5296 32.0987 74.9034 31.6034C75.1672 31.2536 75.156 30.8896 74.8701 30.521C74.5752 30.1415 74.2123 29.9321 73.821 29.9154C73.3845 29.8963 72.8903 29.8752 72.4124 29.9595C71.0621 30.1974 69.6824 30.6368 68.1944 31.3026C66.072 32.2523 64.2739 33.3332 62.6971 34.6067C62.2054 35.004 61.648 35.5066 61.2424 36.2204C60.6498 37.2635 60.6695 38.4416 61.2952 39.3717C61.6155 39.8481 62.0529 40.0936 62.3984 40.2543C63.1726 40.6145 63.9903 40.6995 64.6162 40.7333C64.8277 40.7447 65.0412 40.7503 65.2573 40.7503C66.4327 40.7503 67.6803 40.581 69.0497 40.2363C70.0164 39.9931 70.9931 39.7199 71.9375 39.4559C72.3203 39.3488 72.703 39.2417 73.0865 39.1363C73.1799 39.1105 73.2668 39.0706 73.3636 39.0262C73.4319 38.9952 73.4995 38.9612 73.5671 38.9269C73.688 38.866 73.8019 38.8084 73.9149 38.7728L74.07 38.7246C74.6486 38.5446 75.2444 38.3596 75.8114 38.0623C75.6723 39.0775 75.9384 39.6699 76.6897 40.0317C76.851 40.1093 77.0235 40.1875 77.2062 40.219L77.3283 40.2401C77.6683 40.299 78.0199 40.3596 78.3749 40.3685C80.4774 40.4185 82.5223 39.8258 84.6273 38.5545C84.6193 38.6619 84.6141 38.768 84.6147 38.8744C84.6194 39.6248 84.8925 40.0835 85.5004 40.3614C85.6002 40.4071 85.6995 40.4396 85.8067 40.4744C86.3606 40.6546 86.9456 40.6833 87.7041 40.567C89.2595 40.3297 90.7172 39.7535 91.9871 38.9881C95.5044 36.8683 96.6105 33.6891 93.7192 33.4151V33.4151ZM84.1101 36.4699L84.0788 36.49C83.413 36.9215 82.6581 37.2779 81.6316 37.6455C80.3962 38.088 79.0723 38.352 77.6973 38.4302C77.4236 38.4456 77.3258 38.4512 77.2036 38.4111C77.2273 38.3626 77.2504 38.3225 77.2745 38.2956L77.3871 38.1705C77.6501 37.8775 77.9219 37.5747 78.2146 37.3411C78.9733 36.7362 79.8014 36.3108 80.8112 35.8584C80.869 35.8323 80.8894 35.83 80.9538 35.866C81.2455 36.0298 81.4998 36.1217 81.7313 36.1471C82.3825 36.2176 83.0446 36.2725 83.6849 36.3253C83.8757 36.341 84.0664 36.3567 84.2571 36.373C84.2089 36.406 84.1598 36.4377 84.1101 36.4699V36.4699ZM83.2761 35.0546C83.844 34.7918 85.0617 34.8912 85.4268 35.2066C85.1793 35.349 84.1384 35.2801 83.2761 35.0546ZM89.1152 38.1913C88.2598 38.5111 87.2384 38.8513 86.1483 38.9505L86.0825 38.9566C85.997 38.9648 85.9116 38.9729 85.826 38.978C85.8564 38.7838 85.9397 38.6045 86.0778 38.4347C86.2032 38.2806 86.3209 38.1182 86.4346 37.961C86.6963 37.5996 86.9437 37.2581 87.2718 37.0223C87.395 36.9342 87.4808 36.8093 87.5565 36.6992C87.5748 36.6725 87.5931 36.6461 87.6116 36.6207C87.9121 36.2082 88.2881 35.8871 88.6517 35.5764C88.7324 35.5074 88.8121 35.4391 88.8903 35.3708C89.7681 35.9346 90.6239 36.2478 91.5011 36.3273C91.7511 36.3499 92.0017 36.3616 92.2525 36.373C92.3287 36.3765 92.4049 36.3801 92.4813 36.3839C91.5264 37.1094 90.4178 37.7042 89.1152 38.1913V38.1913ZM93.0299 35.2481C92.8767 35.1812 92.6899 35.2151 92.5182 35.2112C92.1126 35.2019 91.7137 35.1557 91.3167 34.9656C91.6416 34.7661 92.9142 34.7544 93.4681 34.9398C93.5959 34.9826 93.7534 34.9988 93.8065 35.2187C93.5329 35.2975 93.2952 35.364 93.0299 35.2481Z" fill="black"/>
</g>
<defs>
<clipPath id="clip0_34_547">
<rect width="120" height="42" fill="white"/>
</clipPath>
</defs>
</svg>
