<svg width="397" height="424" viewBox="0 0 397 424" fill="none" xmlns="http://www.w3.org/2000/svg">
<ellipse cx="198.5" cy="225" rx="198.5" ry="199" fill="#4B6CB3"/>
<g clip-path="url(#clip0_120_928)">
<path d="M264.332 380.803L267.246 424H137.484L140.366 376.492L264.332 380.803Z" fill="#1B2535"/>
<path d="M192.983 184.244C208.546 185.974 216.339 170.677 216.633 166.63C216.927 162.593 210.003 158.546 206.457 151.332C204.323 146.98 203.848 134.17 203.814 124.684C203.792 118.443 203.961 113.638 203.961 113.638L175.884 112.96L175.466 112.949C175.466 112.949 177.126 144.696 175.466 149.003C173.817 153.322 166.171 162.017 165.302 163.17C164.443 164.323 177.42 182.503 192.983 184.244V184.244Z" fill="#FCC5A7" stroke="#09121E" stroke-miterlimit="10"/>
<path d="M175.884 112.96C177.736 118.488 185.574 127.861 194.982 129.105C199.037 129.648 201.872 127.545 203.814 124.684C203.792 118.443 203.961 113.638 203.961 113.638L175.884 112.96V112.96Z" fill="#EFA57F"/>
<path d="M116.714 78.4534C116.714 78.4534 124.255 105.815 129.376 113.164C134.498 120.512 146.609 128.595 146.609 128.595C146.609 128.595 151.416 131.396 158.178 136.058C164.939 140.719 160.739 117.914 160.739 117.914L143.134 67.687L115.059 73.9133L116.714 78.4534V78.4534Z" fill="#1B2535" stroke="#09121E" stroke-miterlimit="10"/>
<path d="M123.516 111.232C129.254 113.696 137.092 113.719 140.966 113.538C144.659 121.882 150.238 129.208 157.15 134.963C167.326 143.443 180.393 148.542 194.669 148.542C209.487 148.542 224.508 145.715 235.384 134.827C247.66 122.526 248.88 106.201 248.88 89.7503C248.88 87.9413 248.846 86.1889 248.767 84.4817C247.118 43.4635 225.807 30.959 194.669 30.959C175.469 30.959 158.426 40.1734 147.731 54.4416C141.034 63.3395 136.821 74.2046 136.075 86.008C135.398 85.5557 134.63 85.1148 133.749 84.7531C131.174 83.7016 127.729 83.3511 123.516 85.2279C113.352 89.7503 115.611 107.84 123.516 111.232V111.232Z" fill="#FCC5A7" stroke="#09121E" stroke-miterlimit="10"/>
<path d="M133.749 85.013C136.075 102.639 143.846 103.578 148.363 101.316C152.881 99.0551 148.363 85.4879 151.752 74.1819C154.022 66.6182 150.837 58.8734 147.731 54.7016C141.034 63.5995 135.46 72.1929 134.714 83.9964C134.037 83.5442 134.63 85.3748 133.749 85.013Z" fill="#1B2535" stroke="#09121E" stroke-miterlimit="10"/>
<path d="M232.415 36.9945C232.415 36.9945 225.88 9.55274 207.549 4.71012C188.585 -0.299781 154.241 -5.2806 129.019 18.3257C122.273 24.6391 115.795 32.4522 113.749 41.7007C111.412 52.2681 112.421 66.7506 116.015 76.9659C118.953 76.0249 122.21 75.698 125.271 75.1923L148.307 71.3842C148.307 71.3842 166.612 49.2626 175.877 44.7599C185.142 40.2572 203.627 33.2529 232.415 36.9945V36.9945Z" fill="#6680B1" stroke="#09121E" stroke-miterlimit="10"/>
<path d="M175.568 0.854754C175.527 0.857081 123.832 5.16151 136.016 73.4158L151.32 70.8322L232.415 36.9945C232.415 36.9945 234.879 -2.63222 175.568 0.854754Z" fill="white" stroke="#09121E" stroke-miterlimit="10"/>
<path d="M247.329 40.2572C247.329 40.2572 211.452 44.0883 202.363 55.1023C193.274 66.1165 188.968 68.032 179.88 67.5531C170.791 67.0741 138.452 73.0124 138.452 73.0124C138.452 73.0124 143.134 52.6764 185.142 40.2572C202.411 35.1516 224.368 33.553 247.329 40.2572Z" fill="#6680B1" stroke="#09121E" stroke-miterlimit="10"/>
<path d="M247.329 40.2572C247.329 40.2572 271.726 44.0883 273.161 59.8911C274.596 75.694 247.784 73.8471 247.784 73.8471C247.74 73.5576 245.98 64.1744 242.344 55.7796C239.764 49.8227 235.697 45.1786 232.754 42.5811L239.826 41.3024L247.329 40.2572Z" fill="#3F5D89" stroke="#09121E" stroke-miterlimit="10"/>
<path d="M239.467 84.2589C239.136 77.9649 234.238 73.1066 228.527 73.4077C222.816 73.7087 218.455 79.055 218.786 85.349" stroke="#09121E" stroke-width="5.71842" stroke-miterlimit="10"/>
<path d="M197.416 87.6441C197.085 81.3502 191.72 76.5166 185.432 76.848C179.145 77.1794 174.317 82.5503 174.648 88.8443" stroke="#09121E" stroke-width="6" stroke-miterlimit="10"/>
<path d="M134.977 98.7677C134.154 96.0026 132.256 92.9856 129.916 91.2884C127.549 89.5722 123.564 88.9225 121.409 91.3033C119.057 93.9021 119.81 97.8445 121.119 100.745C122.096 102.91 123.461 104.968 125.412 106.32C128.613 108.541 133.242 108.434 136.337 106.069" stroke="#09121E" stroke-width="1.06926" stroke-linecap="round" stroke-linejoin="round"/>
<path d="M120.276 93.2157C120.276 93.2157 131.384 92.8097 131.883 107.841" stroke="#09121E" stroke-width="1.06926" stroke-linecap="round" stroke-linejoin="round"/>
<path d="M157.15 134.963C167.326 143.443 180.393 148.542 194.669 148.542C209.487 148.542 224.508 145.715 235.384 134.827C247.66 122.526 248.88 106.201 248.88 89.7503C248.88 87.9413 248.846 86.1888 248.767 84.4817C248.304 84.9113 234.514 97.4723 209.566 98.6028C184.188 99.7561 153.525 85.1487 152.519 84.4704C151.514 83.7807 147.889 120.39 157.15 134.963V134.963Z" fill="white" stroke="#09121E" stroke-miterlimit="10"/>
<path d="M120.23 87.4398C121.111 86.524 122.353 85.8004 123.268 85.3368C123.268 85.3255 123.279 85.3255 123.29 85.3255C124.793 84.0367 127.108 82.9287 130.654 82.646C137.668 82.0808 151.537 87.3155 151.684 87.3719C151.966 87.485 152.294 87.338 152.407 87.044C152.519 86.7501 152.373 86.4222 152.079 86.3092C151.503 86.0943 137.815 80.9501 130.564 81.5267C124.092 82.0468 121.37 85.1108 120.23 87.4398Z" fill="white" stroke="#09121E" stroke-miterlimit="10"/>
<path d="M125.595 112.218C132.89 119.883 151.571 121.839 152.373 121.918H152.429C152.711 121.918 152.96 121.704 152.983 121.41C153.016 121.104 152.79 120.822 152.486 120.799C152.305 120.776 135.782 119.058 127.921 112.806C127.164 112.636 126.363 112.433 125.595 112.218Z" fill="white" stroke="#09121E" stroke-miterlimit="10"/>
<path d="M101.311 329.753C101.311 329.798 101.311 329.832 101.323 329.878C101.492 331.539 101.707 333.201 101.955 334.852C101.967 334.886 101.967 334.909 101.978 334.943C102.283 336.955 102.667 338.967 103.107 340.98C105.276 350.794 108.743 365.571 117.665 371.631C121.482 374.231 126.113 373.338 130.45 372.727C131.997 372.512 137.712 372.128 139.869 370.421L139.881 370.409C139.926 370.376 139.971 370.342 140.005 370.308C140.423 369.935 140.682 369.505 140.705 369.008L140.649 370.138V370.217L140.366 376.492C140.366 376.492 168.048 394.39 201.659 394.966C235.27 395.543 258.592 385.729 258.592 385.729C258.592 385.729 261.438 385.729 264.33 380.811V380.8C265.222 379.285 266.114 377.306 266.939 374.717C267.04 374.367 267.153 373.993 267.266 373.609C268.113 370.658 267.695 361.014 266.577 348.103C274.98 343.806 279.814 335.146 282.4 324.699C283.044 322.144 283.541 319.476 283.936 316.729C284.004 316.175 284.083 315.609 284.151 315.044C284.173 314.852 284.196 314.66 284.218 314.467C284.23 314.309 284.252 314.151 284.275 313.993C284.523 311.686 284.704 309.334 284.828 306.96C284.839 306.61 284.862 306.248 284.873 305.897C284.885 305.762 284.885 305.615 284.896 305.479C284.896 305.434 284.896 305.377 284.907 305.332C285.02 302.076 285.032 298.808 284.941 295.553C284.727 286.949 283.891 278.559 282.976 271.448C282.536 268.022 282.084 264.89 281.666 262.177C281.361 260.176 280.853 258.016 280.186 255.721C273.399 232.216 249.941 195.788 249.941 195.788C249.241 194.624 247.693 192.781 245.672 190.587C237.687 181.938 222.282 167.783 222.282 167.783L210.163 177.97L206.854 180.751L195.154 190.587L163.135 167.207L133.341 190.587C133.341 190.587 122.499 209.932 114.943 235.246C114.514 236.693 114.085 238.163 113.69 239.656C113.622 239.87 113.554 240.096 113.509 240.323C112.481 244.053 111.566 247.886 110.764 251.787C110.708 252.07 110.652 252.352 110.584 252.635C110.55 252.861 110.493 253.087 110.448 253.313C109.827 256.321 109.183 259.351 108.528 262.403C108.483 262.629 108.438 262.855 108.393 263.081C107.941 265.184 107.489 267.299 107.049 269.413C102.881 289.3 99.2221 309.685 101.311 329.753V329.753Z" fill="#6680B1" stroke="#09121E" stroke-miterlimit="10"/>
<path d="M207.71 153.547L195.156 190.591L208.72 209.354L222.284 167.787C222.284 167.787 213.633 159.224 207.71 153.547V153.547Z" fill="white" stroke="#09121E" stroke-miterlimit="10"/>
<path d="M195.156 190.591L173.774 152.152C173.774 152.152 165.131 162.591 163.13 167.209L186.938 211.76L195.156 190.591Z" fill="white" stroke="#09121E" stroke-miterlimit="10"/>
<path d="M201.66 171.4L185.058 172.438L195.156 190.591L201.66 171.4Z" fill="#1B2535" stroke="#09121E" stroke-miterlimit="10"/>
<path d="M133.337 190.591C133.337 190.591 145.172 211.76 145.942 238.702" stroke="#09121E" stroke-width="1.06926" stroke-linecap="round" stroke-linejoin="round"/>
<path d="M139.64 313.128L146.629 238.702L151.608 316.08C151.608 316.08 146.213 317.578 143.857 316.732C141.501 315.887 139.64 313.128 139.64 313.128V313.128Z" fill="#3F5D89" stroke="#09121E" stroke-miterlimit="10"/>
<path d="M245.676 190.591C245.676 190.591 248.122 206.395 246.61 231.039" stroke="#09121E" stroke-width="1.06926" stroke-linecap="round" stroke-linejoin="round"/>
<path d="M107.049 269.413C109.511 270.69 112.312 271.403 115.271 271.403C125.255 271.403 133.341 263.308 133.341 253.313C133.341 243.318 125.255 235.235 115.271 235.235C115.158 235.235 115.056 235.235 114.943 235.246C114.514 236.693 114.085 238.163 113.69 239.656C113.622 239.87 113.554 240.096 113.509 240.322C112.481 244.053 111.566 247.886 110.764 251.787C110.708 252.069 110.652 252.352 110.584 252.635C110.55 252.861 110.493 253.087 110.448 253.313C109.827 256.321 109.183 259.351 108.528 262.403C108.483 262.629 108.438 262.855 108.393 263.081C107.941 265.184 107.489 267.299 107.049 269.413V269.413Z" fill="white" stroke="#09121E" stroke-miterlimit="10"/>
<path d="M195.295 191.656C195.295 191.656 209.408 297.579 207.665 394.96" stroke="#09121E" stroke-width="1.06926" stroke-linecap="round" stroke-linejoin="round"/>
<path d="M174.383 172.047L191.067 208.049L226.391 202.335L230.9 162.905L213.584 175.38L202.642 167.476L194.743 178.427L174.383 172.047Z" fill="#314E66" stroke="#09121E" stroke-width="0.83241" stroke-miterlimit="10"/>
<path d="M186.871 210.292C185.797 211.779 185.292 213.681 185.607 215.634C186.239 219.551 189.915 222.21 193.826 221.577L195.716 221.271L227.317 216.158L229.208 215.852C231.16 215.536 232.801 214.456 233.875 212.965C234.949 211.477 235.455 209.576 235.139 207.619C234.507 203.705 230.831 201.046 226.921 201.679L222.498 202.395L195.961 206.688L191.539 207.404C189.586 207.72 187.946 208.801 186.871 210.292V210.292Z" fill="#09121E" stroke="#09121E" stroke-width="0.83241" stroke-miterlimit="10"/>
<path d="M167.209 366.18L170.35 365.672L162.587 289.005C159.725 260.735 171.03 235.09 190.043 222.189L232.109 215.385C254.213 221.635 273.012 242.411 279.19 270.145L295.941 345.357L299.081 344.849C304.287 344.007 309.183 347.545 310.024 352.754C310.444 355.358 309.769 357.888 308.34 359.867C306.911 361.851 304.725 363.29 302.126 363.71L170.253 385.041C165.047 385.883 160.151 382.345 159.31 377.132C158.89 374.533 159.566 372.002 160.994 370.023C162.422 368.04 164.61 366.6 167.209 366.18H167.209Z" fill="#314E66" stroke="#09121E" stroke-width="0.83241" stroke-miterlimit="10"/>
<path d="M174.21 317.122L181.9 349.169C181.9 349.169 162.436 364.896 143.457 369.441C131.077 372.405 122.751 376.375 114.454 367.725C106.158 359.075 101.131 333.868 101.28 328.585C101.43 323.303 128.447 317.555 146.209 316.052C163.971 314.548 174.21 317.122 174.21 317.122Z" fill="#6680B1"/>
<path d="M174.21 317.122C174.21 317.122 149.675 311.088 120.227 322.188" stroke="#1B2535" stroke-width="1.06926" stroke-linecap="round" stroke-linejoin="round"/>
<path d="M144.555 315.485C144.555 315.485 137.3 310.579 127.304 309.809" stroke="#1B2535" stroke-width="1.06926" stroke-linecap="round" stroke-linejoin="round"/>
<path d="M179.728 350.564C179.728 350.564 157.295 370.367 124.659 372.899" stroke="#1B2535" stroke-width="1.06926" stroke-linecap="round" stroke-linejoin="round"/>
<path d="M108.337 356.964C127.626 353.699 132.771 371.896 132.771 371.896" stroke="#1B2535" stroke-width="1.06926" stroke-linecap="round" stroke-linejoin="round"/>
<path d="M186.889 349.169L179.392 351.959L172.567 315.485L179.728 313.947L186.889 349.169Z" fill="#FFEEE6" stroke="#09121E" stroke-miterlimit="10"/>
<path d="M191.246 283.93C192.906 280.267 199.389 284.122 198.813 288.35C198.248 292.511 195.413 305.411 195.3 305.897V305.903C199.857 303.924 204.478 302.347 207.736 302.279C207.747 302.268 207.758 302.268 207.769 302.268H207.814C213.077 301.33 227.646 282.189 231.588 285.275C232.48 285.976 233.531 287.74 234.638 290.114C234.649 290.148 234.672 290.182 234.694 290.216L234.762 290.386C234.807 290.476 234.852 290.578 234.897 290.679C236.049 293.246 237.246 296.423 238.353 299.702C238.421 299.905 238.489 300.109 238.545 300.312C239.709 303.795 240.748 307.333 241.516 310.318C241.561 310.544 241.617 310.748 241.674 310.962V310.974C242.351 313.687 242.781 315.869 242.826 316.989C242.995 321.059 226.043 334.592 221.039 338.47L221.039 338.47C220.656 338.919 220.202 339.283 219.667 339.542L219.663 339.543L219.662 339.544L219.661 339.544C211.295 343.584 186.889 347.371 186.889 347.371L179.735 313.98C179.733 313.97 179.728 313.957 179.726 313.947C179.161 311.313 189.586 287.582 191.246 283.93H191.246Z" fill="#3385E8" stroke="#09121E" stroke-miterlimit="10"/>
<path d="M211.711 322.902C211.756 323.015 211.869 323.083 211.982 323.083C212.016 323.083 212.049 323.071 212.083 323.06C213.71 322.427 217.245 320.403 219.921 318.673C221.559 317.633 222.869 316.695 223.208 316.265C223.874 315.428 234.062 304.925 238.545 300.312C238.489 300.109 238.421 299.905 238.353 299.702C233.971 304.213 223.457 315.044 222.768 315.914C222.474 316.276 221.265 317.136 219.729 318.131C217.121 319.815 213.574 321.873 211.869 322.54C211.733 322.596 211.654 322.755 211.711 322.902V322.902Z" fill="#09121E" stroke="#09121E" stroke-width="0.5" stroke-miterlimit="10"/>
<path d="M207.832 313.414C207.878 313.527 207.99 313.595 208.103 313.595C208.137 313.595 208.171 313.583 208.205 313.572C209.831 312.939 213.366 310.915 216.043 309.185C217.681 308.145 218.991 307.207 219.33 306.777C219.996 305.941 230.183 295.437 234.667 290.824C234.61 290.621 234.543 290.417 234.475 290.214C230.093 294.725 219.578 305.556 218.889 306.427C218.596 306.788 217.387 307.648 215.851 308.643C213.242 310.327 209.696 312.385 207.99 313.052C207.855 313.109 207.776 313.267 207.832 313.414V313.414Z" fill="#09121E" stroke="#09121E" stroke-width="0.5" stroke-miterlimit="10"/>
<path d="M218.498 330.533C218.544 330.612 218.634 330.658 218.724 330.658C218.781 330.658 218.837 330.646 218.882 330.612C218.916 330.59 220.52 329.527 222.372 328.295C224.552 326.848 227.082 325.174 227.816 324.722C228.923 324.055 237.856 314.908 241.674 310.974V310.962C241.617 310.748 241.561 310.544 241.516 310.318C236.411 315.575 228.482 323.659 227.522 324.247C226.799 324.688 224.405 326.271 222.271 327.684C220.396 328.928 218.724 330.047 218.578 330.137C218.442 330.228 218.408 330.397 218.498 330.533Z" fill="#09121E" stroke="#09121E" stroke-width="0.5" stroke-miterlimit="10"/>
<path d="M308.817 305.468L279.498 305.999C285.607 307.785 303.78 308.294 308.817 305.468Z" fill="#FCC5A7" stroke="#09121E" stroke-miterlimit="10"/>
<path d="M277.679 305.151C277.781 305.253 277.916 305.355 278.097 305.456C278.345 305.592 278.651 305.717 279.023 305.841H279.034C279.452 305.829 279.859 305.829 280.175 305.807C282.208 305.626 284.241 305.513 286.274 305.4C287.11 305.355 287.957 305.298 288.792 305.264H288.804L309.043 304.902C309.133 304.97 309.223 305.049 309.314 305.14C309.427 305.061 309.528 304.982 309.619 304.891C309.935 304.563 310.116 304.213 310.127 303.817C310.183 301.68 309.585 299.577 308.67 297.667C308.263 296.819 307.495 294.931 306.49 294.422C306.343 294.343 306.185 294.297 306.016 294.297C304.006 294.241 301.882 294.535 299.872 294.636C295.174 294.897 290.475 295.157 285.777 295.484C283.868 295.62 281.96 295.756 280.062 295.948C279.339 296.016 278.063 295.937 277.431 296.344C276.369 297.022 274.923 302.381 277.679 305.151V305.151Z" fill="#3385E8" stroke="#09121E" stroke-miterlimit="10"/>
<path d="M288.804 305.264L309.043 304.902C308.885 304.767 308.726 304.654 308.557 304.552C308.546 304.541 308.523 304.529 308.512 304.518C307.699 304.1 306.185 304.473 305.316 304.507C303.994 304.563 302.673 304.62 301.351 304.676C297.161 304.846 292.994 305.027 288.804 305.264V305.264Z" fill="#3385E8" stroke="#09121E" stroke-miterlimit="10"/>
<path d="M277.137 314.354C277.148 314.377 277.171 314.411 277.194 314.433C277.216 314.4 277.239 314.377 277.261 314.354L302.944 314.784H303.159C307.574 315.021 310.782 315.202 310.782 315.202C310.782 315.202 310.827 315.304 310.906 315.485L277.634 314.931L277.702 314.999C278.097 315.36 278.639 315.53 279.136 315.7C282.061 316.706 285.359 316.909 288.409 317.147C292.531 317.475 296.687 317.565 300.809 317.373C303.294 317.26 308.388 317.486 310.985 315.677C311.076 315.621 311.155 315.564 311.234 315.496C311.448 315.327 311.652 315.134 311.81 314.931C311.979 314.739 312.115 314.535 312.228 314.309C312.736 313.303 312.555 312.093 312.25 311.008C311.81 309.402 310.918 306.949 309.607 305.456C309.517 305.343 309.415 305.242 309.314 305.14C309.167 305.264 308.997 305.366 308.817 305.468L279.498 305.999C279.339 305.954 279.181 305.897 279.034 305.841H279.023C278.571 305.863 278.108 305.897 277.724 306.022H277.713C277.577 306.067 277.465 306.112 277.363 306.18C276.313 306.813 274.946 311.46 277.137 314.354V314.354Z" fill="#3385E8" stroke="#09121E" stroke-miterlimit="10"/>
<path d="M277.261 314.354L302.944 314.784C293.4 314.309 278.436 313.62 277.645 314.015C277.521 314.083 277.397 314.196 277.261 314.354Z" fill="#3385E8" stroke="#09121E" stroke-miterlimit="10"/>
<path d="M277.397 322.845C278.831 324.383 287.9 326.045 296.416 326.587C296.743 326.61 297.06 326.633 297.376 326.644C298.234 326.7 299.081 326.734 299.906 326.757C304.841 326.893 309.178 326.553 311.109 325.468C311.301 325.366 311.46 325.253 311.595 325.14C311.731 325.027 311.832 324.914 311.923 324.801C312.069 324.597 312.16 324.371 312.183 324.134C312.533 320.041 311.448 316.842 310.985 315.677C310.963 315.598 310.929 315.541 310.906 315.485L277.634 314.931C277.476 314.773 277.318 314.603 277.194 314.433C277.103 314.569 276.99 314.727 276.889 314.908C275.917 316.661 275.183 320.471 277.397 322.845V322.845Z" fill="#3385E8" stroke="#09121E" stroke-miterlimit="10"/>
<path d="M288.138 335.779C290.735 337.373 314.057 333.608 313.346 329.81C313.007 327.955 312.329 326.44 311.742 325.389C311.686 325.299 311.64 325.219 311.595 325.14C311.527 325.038 311.471 324.948 311.426 324.858C310.94 324.1 310.59 323.693 310.59 323.693C310.59 323.693 304.774 324.959 298.856 326.305L298.822 326.316C298.336 326.418 297.85 326.531 297.376 326.644C296.213 326.915 295.061 327.175 293.965 327.435C290.012 328.362 286.839 329.165 286.579 329.403C285.856 330.058 285.551 334.196 288.138 335.779V335.779Z" fill="#3385E8" stroke="#09121E" stroke-miterlimit="10"/>
<path d="M279.034 305.841C279.181 305.897 279.339 305.954 279.498 305.999L308.817 305.468C308.998 305.366 309.167 305.264 309.314 305.14C309.223 305.049 309.133 304.97 309.043 304.902L288.804 305.264H288.792C287.957 305.298 287.11 305.355 286.274 305.4C284.241 305.513 282.208 305.626 280.175 305.807C279.859 305.829 279.452 305.829 279.034 305.841V305.841Z" fill="#1B2535" stroke="#09121E" stroke-miterlimit="10"/>
<path d="M309.043 304.902C309.133 304.97 309.223 305.049 309.314 305.14C309.427 305.061 309.528 304.982 309.619 304.891L309.043 304.902Z" fill="#1B2535" stroke="#09121E" stroke-miterlimit="10"/>
<path d="M309.607 305.456C309.517 305.343 309.415 305.242 309.314 305.14C309.167 305.264 308.997 305.366 308.817 305.468L309.607 305.456V305.456Z" fill="#1B2535" stroke="#09121E" stroke-miterlimit="10"/>
<path d="M279.498 305.999C279.339 305.954 279.181 305.897 279.034 305.841C279.452 305.829 279.859 305.829 280.175 305.807C282.208 305.626 284.241 305.513 286.274 305.4C287.11 305.355 287.957 305.298 288.792 305.264L278.097 305.456C278.345 305.592 278.651 305.717 279.023 305.841C278.571 305.863 278.108 305.897 277.724 306.022L279.498 305.999V305.999Z" fill="#1B2535" stroke="#09121E" stroke-miterlimit="10"/>
<path d="M277.194 314.433C277.318 314.603 277.476 314.773 277.634 314.931L310.906 315.485C310.827 315.304 310.782 315.202 310.782 315.202C310.782 315.202 307.574 315.021 303.159 314.784H302.944L277.261 314.354C277.239 314.377 277.216 314.4 277.194 314.433V314.433Z" fill="#1B2535" stroke="#09121E" stroke-miterlimit="10"/>
<path d="M303.159 314.784C307.574 315.021 310.782 315.202 310.782 315.202C310.782 315.202 310.827 315.304 310.906 315.485L311.234 315.496C311.448 315.327 311.652 315.134 311.81 314.931L303.159 314.784Z" fill="#1B2535" stroke="#09121E" stroke-miterlimit="10"/>
<path d="M277.137 314.354C277.148 314.377 277.171 314.411 277.194 314.434C277.216 314.4 277.239 314.377 277.262 314.354H277.137Z" fill="#E2956F" stroke="#09121E" stroke-miterlimit="10"/>
<path d="M277.634 314.931C277.476 314.773 277.318 314.603 277.194 314.433C277.103 314.569 276.99 314.727 276.889 314.908L277.634 314.931Z" fill="#E2956F" stroke="#09121E" stroke-miterlimit="10"/>
<path d="M293.965 327.435L299.906 326.757L311.109 325.468L311.742 325.389C311.686 325.299 311.64 325.219 311.595 325.14C311.731 325.027 311.832 324.914 311.923 324.801L311.426 324.858L298.856 326.305L298.822 326.316L296.416 326.587C296.743 326.61 297.06 326.633 297.376 326.644C296.213 326.915 295.061 327.175 293.965 327.435V327.435Z" fill="#1B2535" stroke="#09121E" stroke-miterlimit="10"/>
<path d="M245.37 253.215C238.289 242.399 230.029 232.359 220.783 223.329C221.747 229.278 222.136 235.322 221.943 241.346" stroke="#09121E" stroke-width="0.83241" stroke-miterlimit="10"/>
<path d="M206.791 231.725C207.348 237.111 206.403 242.645 204.091 247.54" stroke="#09121E" stroke-width="0.83241" stroke-miterlimit="10"/>
<path d="M196.299 191.162L205.991 200.314C206.386 198.095 206.261 195.785 205.628 193.622" stroke="#09121E" stroke-width="0.83241" stroke-miterlimit="10"/>
</g>
<defs>
<clipPath id="clip0_120_928">
<path d="M0 0H397V225.5C397 335.129 308.129 424 198.5 424V424C88.8715 424 0 335.129 0 225.5V0Z" fill="white"/>
</clipPath>
</defs>
</svg>
