<svg width="72" height="72" viewBox="0 0 72 72" fill="none" xmlns="http://www.w3.org/2000/svg">
<g clip-path="url(#clip0_24_153)">
<path d="M1.8779e-06 20.7486V15.202C0.039757 15.1479 0.0974816 15.0994 0.116674 15.039C0.83363 12.7813 2.28389 11.7193 4.6798 11.7112C6.20232 11.7061 7.7255 11.6852 9.24707 11.723C9.82362 11.7373 10.1055 11.5858 10.2896 11.0091C10.8509 9.25011 11.4782 7.51127 12.099 5.77126C13.2756 2.4736 16.0831 0.510542 19.64 0.505576C25.0742 0.497988 30.5085 0.496123 35.9428 0.513085C36.616 0.515186 37.3088 0.569528 37.9584 0.732265C40.9135 1.4726 42.741 3.37503 43.6689 6.20349C44.2724 8.0431 44.938 9.86288 45.5873 11.7246C47.5957 11.7246 49.5631 11.684 51.5279 11.7357C53.6041 11.7903 55.4042 13.4482 55.5415 15.4893C55.6513 17.1225 55.6023 18.7671 55.5946 20.4065C55.5916 21.0386 55.2006 21.3715 54.5696 21.4105C54.2429 21.4307 53.914 21.4165 53.5861 21.4166C52.3312 21.4169 51.0764 21.4167 49.8088 21.4167V23.6378C49.9115 23.6466 49.98 23.6609 50.0471 23.6562C50.1636 23.6482 50.2795 23.6299 50.3952 23.6132C54.0406 23.0862 57.4758 23.7094 60.703 25.4535C61.5356 25.9035 61.6666 26.3018 61.274 27.1535C60.5868 28.6442 59.8889 30.1301 59.1988 31.6196C59.038 31.9666 58.8907 32.3197 58.6878 32.7826C59.4816 32.7826 60.1531 32.7632 60.8231 32.7864C62.511 32.845 63.8253 34.1083 63.949 35.768C64.0666 37.3475 62.9098 38.7886 61.2746 39.0863C60.9405 39.1471 60.5996 39.1721 60.1889 39.2225C60.421 39.589 60.614 39.8996 60.8129 40.2065C64.002 45.1269 67.265 50.0025 70.3632 54.978C74.2537 61.2259 70.8811 69.2977 63.7065 71.1458C63.1904 71.2787 62.6667 71.3826 62.1465 71.5H9.4204C9.38579 71.4704 9.356 71.426 9.31587 71.4132C6.84478 70.6229 5.83562 69.2687 5.83525 66.7075C5.83309 51.9542 5.83416 37.2009 5.83413 22.4476C5.83413 22.1309 5.83413 21.8143 5.83413 21.4167C4.31085 21.4167 2.86566 21.3984 1.42135 21.4254C0.808386 21.4368 0.318953 21.2915 0 20.7486L1.8779e-06 20.7486ZM52.8032 69.5586C55.4741 69.5586 58.1451 69.5731 60.8157 69.5487C61.5132 69.5423 62.2259 69.4849 62.9039 69.3317C69.1403 67.9219 71.9613 61.0909 68.507 55.6876C65.0735 50.3168 61.5795 44.9837 58.0892 39.6486C57.9353 39.4135 57.5547 39.1896 57.2772 39.1865C54.2787 39.1536 51.2796 39.1552 48.281 39.185C48.0211 39.1876 47.6637 39.3946 47.5203 39.6139C44.0053 44.9883 40.5087 50.3744 37.0202 55.7655C36.1211 57.155 35.6162 58.6816 35.5787 60.3372C35.463 65.4399 39.4705 69.5166 44.65 69.5546C47.3676 69.5746 50.0855 69.5582 52.8032 69.5586V69.5586ZM7.80436 21.4497V22.486C7.80436 33.3458 7.80432 44.2055 7.80437 55.0653C7.80439 59.0164 7.79791 62.9675 7.80781 66.9186C7.81214 68.6461 8.7578 69.5575 10.5145 69.5578C19.5111 69.5596 28.5078 69.5587 37.5045 69.5587H38.3018C38.0611 69.3652 37.9896 69.3068 37.9171 69.2496C33.6355 65.873 32.4158 60.5313 34.7997 55.6789C34.9446 55.3841 34.9981 55.0187 34.9988 54.686C35.0106 49.0944 35.007 43.5028 35.0074 37.9111C35.0076 34.5608 34.9844 31.2102 35.017 27.8602C35.0433 25.1586 37.7045 23.2911 40.3161 24.0931C41.9839 24.6053 43.139 26.1288 43.1595 27.9009C43.1796 29.6467 43.1639 31.3929 43.1639 33.0085C44.4129 32.8964 45.6012 32.7897 46.849 32.6778C46.7549 32.4543 46.6741 32.246 46.5807 32.0434C45.8544 30.4685 45.1251 28.8949 44.3979 27.3203C43.8922 26.2253 43.9864 25.8964 45.0896 25.3472C45.9627 24.9125 46.8711 24.5466 47.7668 24.1489V21.4497H7.80436V21.4497ZM53.5937 19.4403C53.5937 18.1137 53.6496 16.8669 53.5757 15.6275C53.5184 14.6661 52.6807 13.8596 51.7326 13.6977C51.4125 13.643 51.079 13.6532 50.7516 13.6532C35.4541 13.6513 20.1567 13.6515 4.85921 13.6519C4.64842 13.6519 4.4372 13.6499 4.22691 13.6616C3.0944 13.7249 2.10405 14.5144 2.01815 15.6203C1.92064 16.8756 1.99563 18.144 1.99563 19.4403H53.5937V19.4403ZM38.7343 11.6728C38.2261 10.2496 37.7915 8.86751 37.2175 7.54422C37.0786 7.22413 36.4805 6.91395 36.0913 6.91106C30.5689 6.87017 25.046 6.86853 19.5238 6.91298C19.121 6.91622 18.5066 7.25676 18.359 7.59625C17.7921 8.90033 17.3754 10.2679 16.8812 11.6728H38.7343ZM43.5307 11.71C42.7443 9.55959 42.1321 7.46668 41.2207 5.50928C40.2866 3.50309 38.4866 2.4776 36.2436 2.46088C30.6203 2.41897 24.996 2.40822 19.3729 2.46436C16.8929 2.48912 15.0775 3.72773 14.1358 5.99399C13.4098 7.74139 12.8611 9.56062 12.2403 11.3502C12.2072 11.4456 12.236 11.5619 12.236 11.71C12.9428 11.71 13.6208 11.6928 14.2973 11.7169C14.6617 11.7299 14.8335 11.606 14.9492 11.2568C15.3703 9.98529 15.8267 8.7251 16.2725 7.46159C16.9074 5.66235 17.9218 4.94219 19.8348 4.94149C25.1538 4.93957 30.4728 4.93943 35.7919 4.94159C37.6548 4.94235 38.7188 5.68391 39.328 7.40971C39.774 8.67328 40.2151 9.93873 40.6377 11.21C40.7548 11.5622 40.9088 11.7436 41.3253 11.7203C42.0014 11.6824 42.6812 11.71 43.5307 11.71L43.5307 11.71ZM36.9757 52.1664C37.2257 51.8128 37.3605 51.6352 37.4814 51.449C38.5916 49.7396 39.7173 48.0396 40.7935 46.3097C41.0218 45.9428 41.1772 45.4658 41.1797 45.0385C41.2069 40.4216 41.197 35.8045 41.1964 31.1875C41.1963 30.0794 41.2185 28.9705 41.183 27.8635C41.1555 27.0076 40.7181 26.3649 39.9107 26.0297C39.1091 25.6969 38.346 25.8203 37.6847 26.3858C37.1094 26.8779 36.9696 27.533 36.9704 28.2598C36.9792 35.5085 36.9757 42.7573 36.9757 50.006C36.9757 50.6517 36.9757 51.2974 36.9757 52.1664V52.1664ZM50.4025 32.6761C50.0024 31.6621 49.6035 30.6633 49.2144 29.6608C48.9281 28.9233 49.1111 28.3762 49.7022 28.1577C50.2583 27.9521 50.751 28.2312 51.0368 28.9372C51.47 30.0072 51.8792 31.0869 52.3253 32.1515C52.4218 32.3816 52.6316 32.5655 52.7892 32.7707C52.9491 32.5683 53.1642 32.3884 53.2595 32.1598C53.7216 31.0518 54.1054 29.9092 54.6211 28.8273C54.775 28.5045 55.245 28.2046 55.611 28.1471C55.8592 28.1082 56.281 28.4554 56.4343 28.7325C56.561 28.9615 56.4712 29.3633 56.3673 29.6497C56.0008 30.6609 55.5869 31.6553 55.1865 32.6676C56.3932 32.9241 56.4328 32.9057 56.8691 31.9685C57.2103 31.2354 57.5557 30.5042 57.895 29.7702C58.3362 28.8156 58.7731 27.8592 59.2316 26.8605C54.8898 24.8766 50.6492 24.8706 46.3503 26.869C47.1601 28.6151 47.9366 30.2896 48.7134 31.9638C49.1484 32.9011 49.1761 32.9135 50.4025 32.6761V32.6761ZM52.7694 37.2245C55.2502 37.2245 57.7311 37.2287 60.2119 37.2194C60.5349 37.2182 60.8787 37.2038 61.1761 37.0965C61.743 36.8919 62.0289 36.429 61.9644 35.8454C61.8975 35.2401 61.535 34.8321 60.8895 34.7406C60.7053 34.7145 60.5159 34.72 60.3288 34.72C55.2969 34.719 50.265 34.719 45.2331 34.7201C45.0462 34.7201 44.8559 34.7138 44.6729 34.7443C44.0332 34.8506 43.6738 35.2589 43.6198 35.8689C43.568 36.4547 43.8597 36.9069 44.431 37.1056C44.7092 37.2024 45.0269 37.2187 45.3269 37.2197C47.8077 37.2282 50.2886 37.2245 52.7694 37.2245V37.2245ZM43.1855 42.3912L43.3063 42.4681C43.999 41.4004 44.6916 40.3328 45.3776 39.2754C44.5949 39.1076 43.8988 38.9583 43.1855 38.8054V42.3912V42.3912Z" fill="#4B6CB3"/>
<path d="M12.4428 45.4769C12.443 39.7252 12.4366 33.9735 12.4464 28.2218C12.4501 26.0653 13.593 24.5376 15.5251 24.0388C17.8743 23.4322 20.2657 25.0333 20.5504 27.4094C20.5888 27.7296 20.6057 28.0542 20.6058 28.3767C20.6086 39.7877 20.61 51.1986 20.6067 62.6096C20.606 64.9767 19.3743 66.5716 17.2473 66.9935C15.0368 67.432 12.7793 65.8368 12.5047 63.6297C12.4536 63.2186 12.4452 62.8004 12.445 62.3854C12.4413 56.7492 12.4425 51.113 12.4428 45.4769H12.4428ZM14.4127 45.5066C14.4127 51.168 14.4121 56.8294 14.4131 62.4907C14.4134 64.1468 15.1998 65.1222 16.527 65.1197C17.8534 65.1172 18.6393 64.1396 18.6394 62.4838C18.6401 51.161 18.6403 39.8383 18.6373 28.5155C18.6372 28.1931 18.6288 27.8661 18.5752 27.5493C18.4045 26.5421 17.5331 25.8506 16.485 25.8648C15.4508 25.8789 14.5987 26.6095 14.4602 27.6239C14.4167 27.9429 14.4147 28.2689 14.4145 28.5918C14.412 34.23 14.4127 39.8683 14.4127 45.5066H14.4127Z" fill="#4B6CB3"/>
<path d="M31.8955 45.5364C31.8954 51.3127 31.9013 57.089 31.8922 62.8653C31.889 64.9379 30.7117 66.4803 28.8003 66.9774C26.3485 67.6151 23.8637 65.8208 23.7469 63.326C23.7339 63.0492 23.7362 62.7716 23.7362 62.4944C23.7358 51.0804 23.7347 39.6665 23.7371 28.2525C23.7375 26.1763 24.7863 24.6466 26.5698 24.092C29.2738 23.2511 31.8834 25.2185 31.891 28.1383C31.9059 33.7759 31.8956 39.4136 31.8957 45.0512C31.8957 45.213 31.8957 45.3747 31.8955 45.5364V45.5364ZM25.7043 45.5012C25.7043 51.1396 25.704 56.7779 25.7049 62.4163C25.7049 62.6935 25.6996 62.9718 25.7214 63.2477C25.7999 64.2415 26.5763 65.0307 27.5597 65.1298C28.5749 65.2321 29.5093 64.6647 29.7907 63.7167C29.9001 63.3479 29.9217 62.9433 29.922 62.555C29.9285 51.1858 29.9273 39.8166 29.9268 28.4474C29.9267 28.2164 29.9385 27.9834 29.9128 27.7548C29.7612 26.4055 28.5522 25.5645 27.2486 25.8932C26.2648 26.1413 25.7074 26.9466 25.7065 28.1701C25.7021 33.9471 25.7045 39.7241 25.7043 45.5012V45.5012Z" fill="#4B6CB3"/>
</g>
<defs>
<clipPath id="clip0_24_153">
<rect width="72" height="71" fill="white" transform="translate(0 0.5)"/>
</clipPath>
</defs>
</svg>
