<svg width="766" height="429" viewBox="0 0 766 429" fill="none" xmlns="http://www.w3.org/2000/svg">
<g opacity="0.3">
<path d="M407.587 86.6328C406.745 82.1819 402.435 78.6141 397.701 78.7605C396.943 73.6332 394.999 68.381 390.825 65.0756C386.65 61.7704 379.843 61.1633 376.001 64.8177C374.63 66.1216 373.727 67.8362 372.271 69.0523C365.955 74.3266 354.714 67.1074 348.082 72.0154C346.135 73.4556 344.898 75.7989 342.617 76.6841C336.921 78.8937 328.748 74.8929 324.712 81.4586C322.307 85.3708 324.975 86.4641 328.902 86.9628C338.589 88.1932 349.306 86.9165 359.084 86.869C375.242 86.7903 391.4 86.7123 407.558 86.633C407.542 86.6331 407.587 86.6329 407.587 86.6328Z" fill="white" stroke="#09121E" stroke-miterlimit="10"/>
<path d="M69.348 41.6178C68.6611 37.9638 65.1454 35.0348 61.2839 35.1549C60.6652 30.9455 59.0797 26.6336 55.6745 23.9201C52.2696 21.2066 46.7166 20.7081 43.5827 23.7083C42.4646 24.7787 41.7283 26.1864 40.5404 27.1847C35.3886 31.5148 26.2184 25.588 20.8088 29.6173C19.2212 30.7998 18.2119 32.7236 16.3509 33.4502C11.705 35.2642 5.03779 31.9797 1.7456 37.3699C-0.215986 40.5817 1.96056 41.4793 5.16387 41.8888C13.0657 42.8988 21.8073 41.8507 29.7836 41.8117C42.9637 41.747 56.1437 41.683 69.3239 41.6179C69.3108 41.618 69.3481 41.6178 69.348 41.6178Z" fill="white" stroke="#09121E" stroke-miterlimit="10"/>
<path d="M620.963 18.8398C620.192 15.5696 616.227 12.9516 611.867 13.0634C611.174 9.29611 609.389 5.43815 605.549 3.01288C601.708 0.587713 595.44 0.147592 591.899 2.83667C590.636 3.79612 589.803 5.057 588.461 5.95196C582.64 9.83374 572.295 4.53869 566.184 8.15144C564.39 9.21158 563.248 10.9349 561.147 11.5874C555.9 13.2163 548.378 10.2837 544.655 15.1122C542.436 17.9896 544.892 18.7906 548.508 19.1536C557.427 20.0489 567.296 19.101 576.3 19.0572C591.179 18.9848 606.057 18.9129 620.936 18.8399C620.921 18.84 620.963 18.8398 620.963 18.8398Z" fill="white" stroke="#09121E" stroke-miterlimit="10"/>
<path d="M611.217 154.112H503.669V426.123H611.217V154.112Z" fill="#88A9D8" stroke="#09121E" stroke-miterlimit="10"/>
<path d="M548.676 171.086H522.692V210.146H548.676V171.086Z" fill="#8DB8E0" stroke="#09121E" stroke-miterlimit="10"/>
<path d="M593.142 171.086H567.158V210.146H593.142V171.086Z" fill="#8DB8E0" stroke="#09121E" stroke-miterlimit="10"/>
<path d="M548.676 228.668H522.692V267.728H548.676V228.668Z" fill="#8DB8E0" stroke="#09121E" stroke-miterlimit="10"/>
<path d="M593.142 228.668H567.158V267.728H593.142V228.668Z" fill="#8DB8E0" stroke="#09121E" stroke-miterlimit="10"/>
<path d="M548.676 283.898H522.692V322.958H548.676V283.898Z" fill="#8DB8E0" stroke="#09121E" stroke-miterlimit="10"/>
<path d="M593.142 283.898H567.158V322.958H593.142V283.898Z" fill="#8DB8E0" stroke="#09121E" stroke-miterlimit="10"/>
<path d="M548.676 339.128H522.692V378.187H548.676V339.128Z" fill="#8DB8E0" stroke="#09121E" stroke-miterlimit="10"/>
<path d="M593.142 339.128H567.158V378.187H593.142V339.128Z" fill="#8DB8E0" stroke="#09121E" stroke-miterlimit="10"/>
<path d="M389.526 154.112H281.978V426.123H389.526V154.112Z" fill="#88A9D8" stroke="#09121E" stroke-miterlimit="10"/>
<path d="M326.985 171.086H301.001V210.146H326.985V171.086Z" fill="#8DB8E0" stroke="#09121E" stroke-miterlimit="10"/>
<path d="M371.451 171.086H345.467V210.146H371.451V171.086Z" fill="#8DB8E0" stroke="#09121E" stroke-miterlimit="10"/>
<path d="M326.985 228.668H301.001V267.728H326.985V228.668Z" fill="#8DB8E0" stroke="#09121E" stroke-miterlimit="10"/>
<path d="M371.451 228.668H345.467V267.728H371.451V228.668Z" fill="#8DB8E0" stroke="#09121E" stroke-miterlimit="10"/>
<path d="M326.985 283.898H301.001V322.958H326.985V283.898Z" fill="#8DB8E0" stroke="#09121E" stroke-miterlimit="10"/>
<path d="M371.451 283.898H345.467V322.958H371.451V283.898Z" fill="#8DB8E0" stroke="#09121E" stroke-miterlimit="10"/>
<path d="M326.985 339.128H301.001V378.187H326.985V339.128Z" fill="#8DB8E0" stroke="#09121E" stroke-miterlimit="10"/>
<path d="M371.451 339.128H345.467V378.187H371.451V339.128Z" fill="#8DB8E0" stroke="#09121E" stroke-miterlimit="10"/>
<path d="M157.918 154.112H50.3703V426.123H157.918V154.112Z" fill="#88A9D8" stroke="#09121E" stroke-miterlimit="10"/>
<path d="M95.3769 171.086H69.3929V210.146H95.3769V171.086Z" fill="#8DB8E0" stroke="#09121E" stroke-miterlimit="10"/>
<path d="M139.843 171.086H113.859V210.146H139.843V171.086Z" fill="#8DB8E0" stroke="#09121E" stroke-miterlimit="10"/>
<path d="M95.3769 228.668H69.3929V267.728H95.3769V228.668Z" fill="#8DB8E0" stroke="#09121E" stroke-miterlimit="10"/>
<path d="M139.843 228.668H113.859V267.728H139.843V228.668Z" fill="#8DB8E0" stroke="#09121E" stroke-miterlimit="10"/>
<path d="M95.3769 283.898H69.3929V322.958H95.3769V283.898Z" fill="#8DB8E0" stroke="#09121E" stroke-miterlimit="10"/>
<path d="M139.843 283.898H113.859V322.958H139.843V283.898Z" fill="#8DB8E0" stroke="#09121E" stroke-miterlimit="10"/>
<path d="M95.3769 339.128H69.3929V378.187H95.3769V339.128Z" fill="#8DB8E0" stroke="#09121E" stroke-miterlimit="10"/>
<path d="M139.843 339.128H113.859V378.187H139.843V339.128Z" fill="#8DB8E0" stroke="#09121E" stroke-miterlimit="10"/>
<path d="M708.891 424.61C708.153 424.61 707.554 423.98 707.554 423.202V242.148C707.554 241.371 708.153 240.74 708.891 240.74C709.629 240.74 710.227 241.371 710.227 242.148V423.202C710.227 423.98 709.629 424.61 708.891 424.61Z" fill="#88A9D8" stroke="#09121E" stroke-miterlimit="10"/>
<path d="M708.891 256.735H663.335C662.597 256.735 661.998 256.105 661.998 255.328C661.998 254.55 662.597 253.92 663.335 253.92H708.891C709.629 253.92 710.227 254.55 710.227 255.328C710.227 256.105 709.629 256.735 708.891 256.735Z" fill="#88A9D8" stroke="#09121E" stroke-miterlimit="10"/>
<path d="M678.858 263.081C678.858 263.081 675.104 253.421 665.549 253.302C655.993 253.182 652.58 263.081 652.58 263.081H678.858Z" fill="#88A9D8" stroke="#09121E" stroke-miterlimit="10"/>
<path d="M672.033 263.081C672.033 263.081 671.691 269.115 665.719 269.115C659.747 269.115 658.723 263.081 658.723 263.081H672.033Z" fill="#FFF4F0" stroke="#09121E" stroke-miterlimit="10"/>
<path d="M425.195 427.454C425.933 427.454 426.531 426.824 426.531 426.045V244.992C426.531 244.214 425.933 243.584 425.195 243.584C424.457 243.584 423.858 244.214 423.858 244.992V426.045C423.858 426.824 424.457 427.454 425.195 427.454Z" fill="#88A9D8" stroke="#09121E" stroke-miterlimit="10"/>
<path d="M425.195 259.579H470.751C471.489 259.579 472.087 258.949 472.087 258.172C472.087 257.394 471.489 256.764 470.751 256.764H425.195C424.457 256.764 423.858 257.394 423.858 258.172C423.858 258.949 424.457 259.579 425.195 259.579Z" fill="#88A9D8" stroke="#09121E" stroke-miterlimit="10"/>
<path d="M455.227 265.925C455.227 265.925 458.981 256.265 468.537 256.146C478.093 256.026 481.505 265.925 481.505 265.925H455.227Z" fill="#88A9D8" stroke="#09121E" stroke-miterlimit="10"/>
<path d="M462.053 265.925C462.053 265.925 462.394 271.959 468.366 271.959C474.339 271.959 475.362 265.925 475.362 265.925H462.053Z" fill="#FFF4F0" stroke="#09121E" stroke-miterlimit="10"/>
<path d="M768.12 378.2V426.753C737.932 427.672 707.698 427.559 677.525 426.446C677.172 421.607 678.628 416.687 681.675 412.397C685.275 407.364 693.546 402.896 700.254 405.686C699.58 400.428 704.941 395.476 711.542 393.476C718.143 391.492 725.648 391.927 732.587 393.169C730.825 386.088 736.385 378.378 745.284 375.507C751.946 373.361 760.033 374.087 766.053 377.023C766.849 377.41 767.538 377.797 768.12 378.2Z" fill="#88A9D8" stroke="#09121E" stroke-miterlimit="10"/>
<path d="M437.55 427.638C436.716 425.652 435.657 420.774 435.838 418.61C436.019 416.447 437.629 414.25 439.691 414.315C440.908 414.353 441.99 415.138 443.187 415.371C446.565 416.026 449.179 412.308 450.431 408.94C451.683 405.571 452.923 401.57 456.162 400.365C459.102 399.272 462.434 401.232 464.101 404.007C465.768 406.783 466.167 410.17 466.525 413.432C469.173 412.999 471.216 410.824 473.613 409.562C476.01 408.3 479.682 408.49 480.512 411.173C480.907 412.451 480.496 413.923 481.037 415.14C481.835 416.937 484.25 417.174 486.006 416.458C487.763 415.742 489.241 414.374 491.035 413.77C492.829 413.166 495.264 413.751 495.744 415.668C495.925 416.391 495.787 417.155 495.65 417.889C495.117 420.721 494.883 424.806 494.351 427.638C486.034 427.638 478.361 427.013 470.449 427.013L437.55 427.638Z" fill="#88A9D8" stroke="#09121E" stroke-miterlimit="10"/>
</g>
</svg>
