<svg width="72" height="74" viewBox="0 0 72 74" fill="none" xmlns="http://www.w3.org/2000/svg">
<g clip-path="url(#clip0_24_111)">
<path d="M38.2471 0.5C39.5654 0.682069 40.8899 0.826533 42.201 1.05198C56.4153 3.49629 68.0299 14.7044 71.1293 28.9511C75.0263 46.8646 65.5477 64.797 48.5853 71.1605C27.1138 79.2155 4.83599 65.5676 0.688871 44.0431C0.384959 42.4658 0.226228 40.8596 0 39.2669V34.7061C0.229587 33.0903 0.402063 31.4638 0.697676 29.8605C3.37699 15.3295 15.3474 3.45864 29.7237 1.06139C31.0592 0.838706 32.4059 0.685479 33.7474 0.5C35.2473 0.5 36.7472 0.5 38.2471 0.5ZM69.7439 37.0058C69.7622 18.1227 54.6625 2.8 36.0172 2.78098C17.389 2.76198 2.26942 18.0684 2.25046 36.9651C2.23152 55.844 17.3358 71.1724 35.9768 71.1919C54.6051 71.2114 69.7257 55.9032 69.7439 37.0058Z" fill="#4B6CB3"/>
<path d="M4.49823 37.663C4.53906 22.8804 13.4832 10.5364 26.8101 6.46983C36.1214 3.62856 44.9614 4.97054 53.1975 10.2429C54.0028 10.7584 54.2065 11.398 53.8013 12.0124C53.4179 12.5938 52.7577 12.6537 52.005 12.1751C51.9653 12.1498 51.9271 12.1222 51.8877 12.0965C46.6427 8.68454 40.8903 6.99727 34.6815 7.39499C23.7056 8.09807 15.3848 13.3759 10.1784 23.179C4.36825 34.1188 5.9613 46.9641 13.9171 56.4207C14.0083 56.5291 14.1061 56.6326 14.189 56.7472C14.6002 57.3148 14.5662 57.9264 14.1047 58.3491C13.6263 58.7873 12.9408 58.7692 12.4859 58.2096C11.593 57.1112 10.6825 56.0171 9.89933 54.8393C6.3053 49.4345 4.539 43.4493 4.49823 37.663V37.663Z" fill="#4B6CB3"/>
<path d="M67.4927 36.1421C67.5226 52.1542 56.9903 65.3293 42.1902 68.274C32.7043 70.1614 24.0728 67.9588 16.4026 61.9704C15.7373 61.451 15.5896 60.9512 15.8843 60.3856C16.1502 59.8752 16.7386 59.6243 17.2584 59.8462C17.5119 59.9544 17.7379 60.1405 17.9585 60.3145C21.7024 63.2691 25.8922 65.2537 30.5661 66.0869C40.1112 67.7884 48.551 65.3591 55.7454 58.7948C60.8531 54.1345 63.9042 48.2563 64.9121 41.369C65.9651 34.1729 64.5615 27.445 60.7788 21.2443C60.6556 21.0424 60.5244 20.8456 60.4037 20.6423C60.003 19.9676 60.0928 19.3129 60.6332 18.9426C61.2051 18.5507 61.8978 18.6968 62.2913 19.4356C63.3563 21.4353 64.4933 23.412 65.3578 25.5015C66.8585 29.1282 67.4701 32.9669 67.4927 36.1421V36.1421Z" fill="#4B6CB3"/>
<path d="M37.1222 26.1252C37.1222 28.4749 37.1291 30.8247 37.1153 33.1744C37.113 33.5672 37.2031 33.7906 37.5826 33.9977C39.3326 34.953 39.8921 37.0395 38.8584 38.7538C38.6217 39.1465 38.6602 39.4026 38.8692 39.766C40.7655 43.064 42.6449 46.372 44.5277 49.678C44.6444 49.8829 44.7734 50.0862 44.8528 50.3065C45.0662 50.8989 44.9142 51.4056 44.3674 51.706C43.8304 52.001 43.3196 51.8855 42.9264 51.3954C42.7949 51.2314 42.7015 51.0352 42.5963 50.8504C40.7135 47.5444 38.8255 44.2413 36.9576 40.9267C36.7347 40.5311 36.5047 40.3772 36.032 40.3881C34.4778 40.4242 33.1581 39.3864 32.7525 37.8934C32.3454 36.3947 32.9511 34.8088 34.3146 34.058C34.7936 33.7942 34.884 33.499 34.8822 33.0051C34.8655 28.4481 34.8723 23.891 34.8724 19.3339C34.8724 19.144 34.8641 18.9535 34.8765 18.7644C34.9215 18.083 35.3639 17.6213 35.9747 17.6085C36.6123 17.5952 37.1055 18.0717 37.1138 18.7912C37.1338 20.5236 37.1215 22.2564 37.1221 23.989C37.1224 24.7011 37.1222 25.4131 37.1222 26.1252L37.1222 26.1252ZM37.116 36.9574C37.1 36.3398 36.5765 35.8353 35.9687 35.8517C35.3582 35.8682 34.862 36.3971 34.8781 37.0143C34.8942 37.6328 35.4168 38.1371 36.0247 38.1209C36.6324 38.1046 37.132 37.572 37.116 36.9574Z" fill="#4B6CB3"/>
<path d="M37.1219 12.5246C37.122 12.9995 37.1273 13.4745 37.1208 13.9494C37.1093 14.7928 36.6912 15.3052 36.0144 15.3168C35.3336 15.3285 34.8829 14.8139 34.875 13.9855C34.8652 12.9645 34.8637 11.9432 34.8756 10.9222C34.8849 10.1309 35.3172 9.63849 35.9787 9.62709C36.6617 9.61532 37.1061 10.127 37.1202 10.9573C37.1291 11.4795 37.1219 12.0021 37.1219 12.5246L37.1219 12.5246Z" fill="#4B6CB3"/>
<path d="M11.7964 38.1251C11.2576 38.1248 10.7181 38.1416 10.18 38.1207C9.46667 38.093 8.99629 37.6179 9.00506 36.9711C9.01382 36.3254 9.48601 35.8643 10.2088 35.8523C11.2863 35.8342 12.3645 35.8322 13.4418 35.8536C14.1555 35.8677 14.6265 36.3534 14.6177 37.0004C14.609 37.6437 14.1338 38.0983 13.4129 38.1219C12.8746 38.1395 12.3353 38.1254 11.7964 38.1251H11.7964Z" fill="#4B6CB3"/>
<path d="M60.1827 38.1236C59.6204 38.1236 59.057 38.1457 58.4961 38.1179C57.8273 38.0848 57.3766 37.6074 57.3763 36.9862C57.3761 36.3637 57.8261 35.8727 58.495 35.8566C59.6189 35.8296 60.7444 35.8297 61.8683 35.8565C62.5369 35.8724 62.9886 36.3639 62.989 36.9853C62.9894 37.605 62.5368 38.0848 61.8692 38.1179C61.3083 38.1458 60.745 38.1236 60.1827 38.1236Z" fill="#4B6CB3"/>
<path d="M37.1205 61.5014C37.1204 62.0476 37.1359 62.5943 37.1166 63.1398C37.091 63.8672 36.6318 64.3465 35.9953 64.3456C35.3591 64.3447 34.8917 63.8646 34.8789 63.1373C34.8597 62.0453 34.8594 60.9524 34.879 59.8604C34.892 59.1315 35.3586 58.6551 35.9978 58.6558C36.6361 58.6565 37.0914 59.1333 37.1168 59.863C37.1358 60.4085 37.1205 60.9552 37.1205 61.5014Z" fill="#4B6CB3"/>
<path d="M23.3051 13.156C23.4496 13.2682 23.837 13.441 24.0289 13.7418C24.6249 14.6762 25.1625 15.6504 25.6918 16.6265C26.0341 17.2577 25.8439 17.9164 25.2861 18.2238C24.7568 18.5154 24.1161 18.354 23.7676 17.774C23.184 16.8026 22.6129 15.8213 22.0894 14.8159C21.6741 14.0183 22.2071 13.1547 23.3051 13.156V13.156Z" fill="#4B6CB3"/>
<path d="M50.1507 14.1014C50.0246 14.4808 49.9916 14.6733 49.9023 14.8336C49.3505 15.8245 48.8035 16.8187 48.2193 17.7899C47.8747 18.3628 47.2217 18.516 46.6941 18.215C46.158 17.9091 45.9599 17.2752 46.2806 16.6778C46.8169 15.6787 47.3873 14.698 47.9594 13.7192C48.2618 13.2018 48.7718 12.9866 49.2818 13.2308C49.6488 13.4064 49.8975 13.8358 50.1507 14.1014L50.1507 14.1014Z" fill="#4B6CB3"/>
<path d="M55.3909 26.85C55.077 26.5732 54.5876 26.3452 54.4962 26.0067C54.3948 25.6311 54.5154 24.9496 54.7854 24.7586C55.8165 24.0292 56.9298 23.4109 58.0475 22.8192C58.5402 22.5584 59.0249 22.789 59.3252 23.2552C59.6251 23.7206 59.6557 24.3136 59.21 24.6122C58.0834 25.367 56.8836 26.0095 55.7105 26.6923C55.6545 26.7249 55.573 26.7122 55.5034 26.7206L55.3909 26.85H55.3909Z" fill="#4B6CB3"/>
<path d="M55.3896 47.0877C56.8403 47.8889 58.2633 48.462 59.3378 49.5692C59.5312 49.7684 59.4244 50.4496 59.2436 50.7934C59.0122 51.2334 58.4851 51.3966 58.0125 51.1386C56.9224 50.5435 55.846 49.9192 54.7925 49.26C54.3403 48.977 54.2303 48.4388 54.4606 47.9958C54.6437 47.6437 55.0469 47.4093 55.3896 47.0877Z" fill="#4B6CB3"/>
<path d="M17.6145 25.3586C17.6214 26.3865 16.8366 26.9816 16.1167 26.6138C15.0124 26.0497 13.9377 25.4154 12.8982 24.7358C12.3811 24.3978 12.3332 23.8081 12.6572 23.2794C12.9818 22.7496 13.498 22.5579 14.0536 22.8598C15.104 23.4305 16.1406 24.0319 17.1468 24.6785C17.4049 24.8444 17.5279 25.2264 17.6145 25.3586Z" fill="#4B6CB3"/>
<path d="M13.4481 51.3615C13.1454 51.0718 12.7436 50.8334 12.5649 50.4794C12.3405 50.0347 12.4556 49.5004 12.9095 49.2176C13.9645 48.5604 15.0366 47.9274 16.1316 47.3421C16.6286 47.0765 17.1087 47.2921 17.4195 47.7485C17.7312 48.2062 17.7758 48.8096 17.3345 49.1058C16.1902 49.8738 14.9684 50.5233 13.7747 51.215C13.7196 51.2469 13.6367 51.2295 13.5668 51.2351L13.4481 51.3615L13.4481 51.3615Z" fill="#4B6CB3"/>
<path d="M25.9653 56.5563C25.8399 56.9367 25.8077 57.1296 25.7185 57.2899C25.1667 58.2807 24.6193 59.2747 24.0355 60.2461C23.686 60.8276 23.0502 60.9797 22.5134 60.6772C21.9696 60.3707 21.7702 59.7453 22.0926 59.1435C22.6282 58.144 23.1986 57.1632 23.7705 56.1843C24.0719 55.6684 24.5778 55.4468 25.091 55.6919C25.4583 55.8673 25.7096 56.2919 25.9653 56.5563Z" fill="#4B6CB3"/>
<path d="M45.9971 56.6103C46.2784 56.2996 46.5077 55.8902 46.8539 55.7032C47.2897 55.4678 47.8235 55.575 48.1023 56.0331C48.7645 57.1211 49.4067 58.2255 49.9816 59.3625C50.2323 59.8584 50.013 60.4324 49.5123 60.6185C49.1373 60.7579 48.4104 60.7566 48.2543 60.5278C47.4747 59.3848 46.8309 58.1466 46.1443 56.939C46.1125 56.8832 46.129 56.7992 46.1229 56.7284L45.9971 56.6103L45.9971 56.6103Z" fill="#4B6CB3"/>
<path d="M59.6116 16.1773C59.6393 17.0886 58.6966 17.8022 58.0857 17.3095C57.0566 16.4795 56.1372 15.4934 55.2722 14.4843C55.0962 14.279 55.2544 13.6123 55.4564 13.2829C55.7187 12.855 56.3068 12.6908 56.6933 13.0351C57.6685 13.904 58.5662 14.8629 59.4802 15.8005C59.5817 15.9046 59.5878 16.1041 59.6116 16.1773Z" fill="#4B6CB3"/>
</g>
<defs>
<clipPath id="clip0_24_111">
<rect width="72" height="73" fill="white" transform="translate(0 0.5)"/>
</clipPath>
</defs>
</svg>
