<svg width="68" height="70" viewBox="0 0 68 70" fill="none" xmlns="http://www.w3.org/2000/svg">
<g clip-path="url(#clip0_24_48)">
<path d="M43.457 45.7513H44.3188C49.0187 45.7513 53.7187 45.764 58.4185 45.7392C59.2302 45.735 59.6708 46.0301 59.962 46.8108C62.5551 53.7621 65.1802 60.7012 67.7929 67.645C68.2865 68.9568 67.9118 69.4993 66.5174 69.4993C44.831 69.5002 23.1445 69.5003 1.45801 69.4992C0.108165 69.4991 -0.279742 68.9453 0.192238 67.6896C2.80271 60.7449 5.41545 53.801 8.02933 46.8576C8.40294 45.8652 8.56894 45.7518 9.60448 45.7517C14.2806 45.7509 18.9566 45.7513 23.6327 45.7513H24.5607C24.3925 45.4542 24.2749 45.2394 24.1509 45.0283C21.3422 40.2452 18.8625 35.3056 17.1886 29.9837C16.1339 26.6304 15.4494 23.209 15.4075 19.6773C15.2929 10.0188 22.1984 1.94021 31.652 0.661758C41.9867 -0.735857 51.617 7.0925 52.4935 17.5978C52.8725 22.1407 51.9553 26.4902 50.5557 30.7579C48.9096 35.7767 46.5359 40.4513 43.8722 44.9829C43.7427 45.2033 43.6285 45.4328 43.457 45.7513V45.7513ZM34.0633 55.9899C36.2933 52.7355 38.468 49.7096 40.4878 46.5809C43.8485 41.3752 46.7272 35.9067 48.6765 29.9829C49.9885 25.9957 50.8727 21.9295 50.4873 17.6824C49.6359 8.29862 41.0518 1.41227 31.8098 2.6897C23.4729 3.84202 17.312 11.0683 17.4116 19.5928C17.4608 23.7999 18.472 27.8087 19.9235 31.7178C22.4502 38.5224 26.0856 44.7144 30.1867 50.6423C31.3873 52.3776 32.6615 54.0608 34.0633 55.9899V55.9899ZM2.42939 67.429C2.68898 67.4484 2.82843 67.4679 2.96789 67.468C6.61632 67.4697 10.2648 67.4747 13.9131 67.4603C14.2362 67.459 14.571 67.3642 14.8797 67.2538C18.4259 65.9858 21.9681 64.7068 25.5107 63.4287C25.7 63.3605 25.8833 63.2753 26.0773 63.1947C26.0226 63.0715 26.0051 62.9979 25.9635 62.9431C22.2137 58.0044 18.4658 53.0642 14.6969 48.1406C14.5422 47.9385 14.191 47.7997 13.9262 47.791C12.7829 47.7532 11.6365 47.8045 10.4934 47.7613C9.97635 47.7418 9.75502 47.9262 9.57689 48.4062C7.9936 52.6725 6.384 56.9288 4.78131 61.1878C4.01131 63.2339 3.2395 65.2794 2.42939 67.429V67.429ZM17.0075 47.7752C17.2502 48.117 17.3936 48.3312 17.5491 48.5359C20.9071 52.9581 24.2774 57.3709 27.6113 61.8117C28.0178 62.3532 28.3329 62.4341 28.9591 62.2064C37.5625 59.0774 46.1775 55.9814 54.7896 52.8772C56.3306 52.3218 57.8716 51.7662 59.4514 51.1967C59.0869 50.2204 58.727 49.3276 58.4237 48.4155C58.265 47.9382 58.0388 47.758 57.5134 47.7606C52.6006 47.7845 47.6876 47.7818 42.7748 47.7633C42.3078 47.7615 42.0661 47.931 41.8011 48.3055C39.5939 51.4248 37.3723 54.5339 35.1231 57.6222C34.304 58.747 33.6961 58.7503 32.8931 57.646C30.6321 54.5365 28.4084 51.3992 26.1535 48.2851C25.9936 48.0642 25.7015 47.7998 25.468 47.797C22.7051 47.7631 19.9418 47.7752 17.0075 47.7752H17.0075ZM20.7251 67.3166L20.769 67.4071H53.9738C53.8109 67.1729 53.708 67.0128 53.5933 66.8619C51.471 64.0673 49.3378 61.2812 47.2339 58.4724C46.9065 58.0353 46.6451 57.9554 46.1223 58.1454C38.4832 60.9224 30.8339 63.6706 23.1871 66.4261C22.3661 66.7219 21.5457 67.0197 20.7251 67.3166H20.7251ZM48.866 57.2551C48.9303 57.3583 48.9846 57.463 49.0547 57.5554C51.4529 60.715 53.8451 63.8795 56.2673 67.0202C56.4498 67.2569 56.8454 67.4465 57.1446 67.4503C59.7441 67.4837 62.3442 67.4704 64.9441 67.4676C65.1211 67.4674 65.2981 67.4399 65.567 67.4173C63.751 62.595 61.9658 57.8545 60.1734 53.0947C56.4074 54.4519 52.7292 55.7771 49.0522 57.1058C48.9896 57.1284 48.9417 57.193 48.866 57.2551H48.866Z" fill="#4B6CB3"/>
<path d="M33.9459 27.9106C29.2342 27.8781 25.513 24.0294 25.5482 19.2251C25.5826 14.526 29.4292 10.737 34.1205 10.7813C38.7671 10.8251 42.4836 14.7024 42.4515 19.4725C42.4201 24.1342 38.5813 27.9425 33.9459 27.9106ZM34.0144 25.8792C37.5533 25.8829 40.4361 22.9744 40.4465 19.3897C40.4571 15.7561 37.5875 12.8179 34.0218 12.8115C30.4454 12.805 27.5467 15.7311 27.5514 19.3429C27.5561 22.9721 30.4269 25.8754 34.0144 25.8792L34.0144 25.8792Z" fill="#4B6CB3"/>
</g>
<defs>
<clipPath id="clip0_24_48">
<rect width="68" height="69" fill="white" transform="translate(0 0.5)"/>
</clipPath>
</defs>
</svg>
