<svg width="118" height="20" viewBox="0 0 118 20" fill="none" xmlns="http://www.w3.org/2000/svg">
<path d="M8.54874 0.945683C8.72986 0.566122 9.27014 0.566122 9.45126 0.945683L11.4753 5.18732C11.5482 5.34007 11.6934 5.44558 11.8612 5.4677L16.5207 6.08191C16.9376 6.13687 17.1046 6.65071 16.7996 6.94025L13.391 10.1759C13.2682 10.2925 13.2128 10.4632 13.2436 10.6296L14.0993 15.2508C14.1759 15.6644 13.7388 15.9819 13.3691 15.7813L9.23851 13.5394C9.08975 13.4587 8.91025 13.4587 8.76149 13.5394L4.63087 15.7813C4.26124 15.9819 3.82414 15.6644 3.90072 15.2508L4.75643 10.6296C4.78725 10.4632 4.73178 10.2925 4.60903 10.1759L1.20044 6.94025C0.895428 6.65071 1.06238 6.13687 1.47934 6.08191L6.13882 5.4677C6.30662 5.44558 6.45185 5.34007 6.52474 5.18732L8.54874 0.945683Z" fill="#FFE24B" stroke="#FFE24B"/>
<path d="M51.6487 0.945683C51.8299 0.566122 52.3701 0.566122 52.5513 0.945683L54.5753 5.18732C54.6482 5.34007 54.7934 5.44558 54.9612 5.4677L59.6207 6.08191C60.0376 6.13687 60.2046 6.65071 59.8996 6.94025L56.491 10.1759C56.3682 10.2925 56.3127 10.4632 56.3436 10.6296L57.1993 15.2508C57.2759 15.6644 56.8388 15.9819 56.4691 15.7813L52.3385 13.5394C52.1897 13.4587 52.0102 13.4587 51.8615 13.5394L47.7309 15.7813C47.3612 15.9819 46.9241 15.6644 47.0007 15.2508L47.8564 10.6296C47.8872 10.4632 47.8318 10.2925 47.709 10.1759L44.3004 6.94025C43.9954 6.65071 44.1624 6.13687 44.5793 6.08191L49.2388 5.4677C49.4066 5.44558 49.5518 5.34007 49.6247 5.18732L51.6487 0.945683Z" fill="#FFE24B" stroke="#FFE24B"/>
<path d="M94.7487 0.945683C94.9299 0.566122 95.4701 0.566122 95.6513 0.945683L97.6753 5.18732C97.7482 5.34007 97.8934 5.44558 98.0612 5.4677L102.721 6.08191C103.138 6.13687 103.305 6.65071 103 6.94025L99.591 10.1759C99.4682 10.2925 99.4127 10.4632 99.4436 10.6296L100.299 15.2508C100.376 15.6644 99.9388 15.9819 99.5691 15.7813L95.4385 13.5394C95.2897 13.4587 95.1102 13.4587 94.9615 13.5394L90.8309 15.7813C90.4612 15.9819 90.0241 15.6644 90.1007 15.2508L90.9564 10.6296C90.9872 10.4632 90.9318 10.2925 90.809 10.1759L87.4004 6.94025C87.0954 6.65071 87.2624 6.13687 87.6793 6.08191L92.3388 5.4677C92.5066 5.44558 92.6518 5.34007 92.7247 5.18732L94.7487 0.945683Z" fill="#FFE24B" stroke="#FFE24B"/>
<path d="M30.0946 1.00458C30.272 0.613165 30.828 0.613164 31.0054 1.00458L32.8988 5.18129C32.9696 5.33751 33.1155 5.44653 33.2854 5.4701L37.6855 6.08065C38.0947 6.13742 38.2624 6.63764 37.9702 6.92959L34.7186 10.1788C34.6032 10.2941 34.5513 10.4584 34.5795 10.6191L35.391 15.2319C35.4644 15.649 35.0183 15.9628 34.6505 15.7527L30.798 13.5517C30.6443 13.4639 30.4557 13.4639 30.302 13.5517L26.4495 15.7527C26.0817 15.9628 25.6356 15.649 25.709 15.2319L26.5205 10.6191C26.5487 10.4584 26.4968 10.2941 26.3814 10.1788L23.1298 6.92959C22.8376 6.63764 23.0053 6.13742 23.4145 6.08065L27.8146 5.4701C27.9845 5.44653 28.1304 5.33751 28.2012 5.18129L30.0946 1.00458Z" fill="#FFE24B" stroke="#FFE24B"/>
<path d="M73.1946 1.00458C73.372 0.613165 73.928 0.613164 74.1054 1.00458L75.9988 5.18129C76.0696 5.33751 76.2155 5.44653 76.3854 5.4701L80.7856 6.08065C81.1947 6.13742 81.3624 6.63764 81.0703 6.92959L77.8186 10.1788C77.7032 10.2941 77.6513 10.4584 77.6796 10.6191L78.491 15.2319C78.5644 15.649 78.1183 15.9628 77.7505 15.7527L73.898 13.5517C73.7443 13.4639 73.5557 13.4639 73.402 13.5517L69.5495 15.7527C69.1817 15.9628 68.7356 15.649 68.809 15.2319L69.6205 10.6191C69.6487 10.4584 69.5968 10.2941 69.4814 10.1788L66.2298 6.92959C65.9376 6.63764 66.1053 6.13742 66.5145 6.08065L70.9146 5.4701C71.0845 5.44653 71.2304 5.33751 71.3012 5.18129L73.1946 1.00458Z" fill="#FFE24B" stroke="#FFE24B"/>
</svg>
